%TF.GenerationSoftware,KiCad,Pcbnew,(5.1.10)-1*%
%TF.CreationDate,2022-01-23T20:59:35+01:00*%
%TF.ProjectId,BMS_LV_2022,424d535f-4c56-45f3-9230-32322e6b6963,rev?*%
%TF.SameCoordinates,Original*%
%TF.FileFunction,Copper,L4,Bot*%
%TF.FilePolarity,Positive*%
%FSLAX46Y46*%
G04 Gerber Fmt 4.6, Leading zero omitted, Abs format (unit mm)*
G04 Created by KiCad (PCBNEW (5.1.10)-1) date 2022-01-23 20:59:35*
%MOMM*%
%LPD*%
G01*
G04 APERTURE LIST*
%TA.AperFunction,ComponentPad*%
%ADD10O,1.700000X1.950000*%
%TD*%
%TA.AperFunction,ComponentPad*%
%ADD11O,1.950000X1.700000*%
%TD*%
%TA.AperFunction,ComponentPad*%
%ADD12C,1.100000*%
%TD*%
%TA.AperFunction,ComponentPad*%
%ADD13C,2.100000*%
%TD*%
%TA.AperFunction,ComponentPad*%
%ADD14C,3.500000*%
%TD*%
%TA.AperFunction,SMDPad,CuDef*%
%ADD15R,2.950000X4.900000*%
%TD*%
%TA.AperFunction,ComponentPad*%
%ADD16C,0.600000*%
%TD*%
%TA.AperFunction,ComponentPad*%
%ADD17O,1.700000X1.700000*%
%TD*%
%TA.AperFunction,ComponentPad*%
%ADD18R,1.700000X1.700000*%
%TD*%
%TA.AperFunction,ViaPad*%
%ADD19C,0.800000*%
%TD*%
%TA.AperFunction,ViaPad*%
%ADD20C,0.500000*%
%TD*%
%TA.AperFunction,Conductor*%
%ADD21C,0.254000*%
%TD*%
%TA.AperFunction,Conductor*%
%ADD22C,1.500000*%
%TD*%
%TA.AperFunction,Conductor*%
%ADD23C,0.381000*%
%TD*%
%TA.AperFunction,Conductor*%
%ADD24C,0.250000*%
%TD*%
%TA.AperFunction,Conductor*%
%ADD25C,0.203200*%
%TD*%
%TA.AperFunction,Conductor*%
%ADD26C,0.100000*%
%TD*%
G04 APERTURE END LIST*
D10*
%TO.P,J6,9*%
%TO.N,GND*%
X170729903Y-120904000D03*
%TO.P,J6,8*%
%TO.N,/Therm_8*%
X168229903Y-120904000D03*
%TO.P,J6,7*%
%TO.N,/Therm_7*%
X165729903Y-120904000D03*
%TO.P,J6,6*%
%TO.N,/Therm_6*%
X163229903Y-120904000D03*
%TO.P,J6,5*%
%TO.N,/Therm_5*%
X160729903Y-120904000D03*
%TO.P,J6,4*%
%TO.N,/Therm_4*%
X158229903Y-120904000D03*
%TO.P,J6,3*%
%TO.N,/Therm_3*%
X155729903Y-120904000D03*
%TO.P,J6,2*%
%TO.N,/Therm_2*%
X153229903Y-120904000D03*
%TO.P,J6,1*%
%TO.N,/Therm_1*%
%TA.AperFunction,ComponentPad*%
G36*
G01*
X149879903Y-121629000D02*
X149879903Y-120179000D01*
G75*
G02*
X150129903Y-119929000I250000J0D01*
G01*
X151329903Y-119929000D01*
G75*
G02*
X151579903Y-120179000I0J-250000D01*
G01*
X151579903Y-121629000D01*
G75*
G02*
X151329903Y-121879000I-250000J0D01*
G01*
X150129903Y-121879000D01*
G75*
G02*
X149879903Y-121629000I0J250000D01*
G01*
G37*
%TD.AperFunction*%
%TD*%
D11*
%TO.P,J11,7*%
%TO.N,GND*%
X195313903Y-93966000D03*
%TO.P,J11,6*%
%TO.N,/LTC6810/CellBalance6*%
X195313903Y-96466000D03*
%TO.P,J11,5*%
%TO.N,/LTC6810/CellBalance5*%
X195313903Y-98966000D03*
%TO.P,J11,4*%
%TO.N,/LTC6810/CellBalance4*%
X195313903Y-101466000D03*
%TO.P,J11,3*%
%TO.N,/LTC6810/CellBalance3*%
X195313903Y-103966000D03*
%TO.P,J11,2*%
%TO.N,/LTC6810/CellBalance2*%
X195313903Y-106466000D03*
%TO.P,J11,1*%
%TO.N,+BATT*%
%TA.AperFunction,ComponentPad*%
G36*
G01*
X196038903Y-109816000D02*
X194588903Y-109816000D01*
G75*
G02*
X194338903Y-109566000I0J250000D01*
G01*
X194338903Y-108366000D01*
G75*
G02*
X194588903Y-108116000I250000J0D01*
G01*
X196038903Y-108116000D01*
G75*
G02*
X196288903Y-108366000I0J-250000D01*
G01*
X196288903Y-109566000D01*
G75*
G02*
X196038903Y-109816000I-250000J0D01*
G01*
G37*
%TD.AperFunction*%
%TD*%
D12*
%TO.P,J2,8*%
%TO.N,Net-(J2-Pad8)*%
X123094537Y-94510511D03*
%TO.P,J2,7*%
%TO.N,/VCC_Pin*%
X120350963Y-97296512D03*
%TO.P,J2,6*%
%TO.N,VCC*%
X119325658Y-100330000D03*
%TO.P,J2,5*%
%TO.N,Net-(J2-Pad5)*%
X125717903Y-106722245D03*
%TO.P,J2,4*%
%TO.N,Net-(J2-Pad4)*%
X128751391Y-105696940D03*
%TO.P,J2,3*%
%TO.N,Net-(J2-Pad3)*%
X131084843Y-103363488D03*
%TO.P,J2,2*%
%TO.N,/CANL*%
X132110148Y-100330000D03*
%TO.P,J2,1*%
%TO.N,/CANH*%
X131084843Y-97296512D03*
D13*
%TO.P,J2,12*%
%TO.N,GND*%
X121178277Y-104049382D03*
%TO.P,J2,11*%
X128016000Y-100945183D03*
%TO.P,J2,9*%
%TO.N,/V_Out*%
X127733157Y-94906491D03*
%TO.P,J2,10*%
X123419806Y-99714817D03*
%TD*%
D14*
%TO.P,F2,2*%
%TO.N,Net-(F2-Pad2)*%
X125717903Y-86614000D03*
%TO.P,F2,1*%
%TO.N,/CS_IP+*%
X134857903Y-86614000D03*
%TO.P,F2,2*%
%TO.N,Net-(F2-Pad2)*%
X130797903Y-86614000D03*
%TO.P,F2,1*%
%TO.N,/CS_IP+*%
X139937903Y-86614000D03*
%TD*%
D15*
%TO.P,U3,9*%
%TO.N,GND*%
X127142000Y-116952000D03*
D16*
X127792000Y-118902000D03*
X127792000Y-117602000D03*
X126492000Y-117602000D03*
X126492000Y-118902000D03*
X127792000Y-115002000D03*
X127792000Y-116302000D03*
X126492000Y-116302000D03*
X126492000Y-115002000D03*
%TD*%
D17*
%TO.P,JP2,2*%
%TO.N,Net-(JP2-Pad2)*%
X144767903Y-84644897D03*
D18*
%TO.P,JP2,1*%
%TO.N,/CANH*%
X144767903Y-87184897D03*
%TD*%
D17*
%TO.P,J1,6*%
%TO.N,Net-(J1-Pad6)*%
X147815903Y-90932000D03*
%TO.P,J1,5*%
%TO.N,/NRST*%
X150355903Y-90932000D03*
%TO.P,J1,4*%
%TO.N,/SW-DIO*%
X152895903Y-90932000D03*
%TO.P,J1,3*%
%TO.N,GND*%
X155435903Y-90932000D03*
%TO.P,J1,2*%
%TO.N,/SW-CLK*%
X157975903Y-90932000D03*
D18*
%TO.P,J1,1*%
%TO.N,+3V3*%
X160515903Y-90932000D03*
%TD*%
D19*
%TO.N,GND*%
X124701903Y-120142000D03*
X124701903Y-121158000D03*
X125717903Y-122174000D03*
X123685903Y-121158000D03*
X123685903Y-122174000D03*
X125717903Y-120142000D03*
X125717903Y-121158000D03*
X124701903Y-122174000D03*
X122669903Y-120142000D03*
X123685903Y-120142000D03*
X122669903Y-121158000D03*
X122669903Y-122174000D03*
X121653903Y-122174000D03*
X126733903Y-123190000D03*
X120637903Y-121158000D03*
X121653903Y-120142000D03*
X122669903Y-123190000D03*
X120637903Y-120142000D03*
X121653903Y-123190000D03*
X126733903Y-122174000D03*
X121653903Y-121158000D03*
X126733903Y-121158000D03*
X126733903Y-120142000D03*
X120637903Y-123190000D03*
X124701903Y-123190000D03*
X125717903Y-123190000D03*
X123685903Y-123190000D03*
X120637903Y-122174000D03*
X117589903Y-120142000D03*
X117589903Y-121158000D03*
X118605903Y-122174000D03*
X116573903Y-121158000D03*
X116573903Y-122174000D03*
X118605903Y-120142000D03*
X118605903Y-121158000D03*
X117589903Y-122174000D03*
X115557903Y-120142000D03*
X116573903Y-120142000D03*
X115557903Y-121158000D03*
X115557903Y-122174000D03*
X114541903Y-122174000D03*
X119621903Y-123190000D03*
X113525903Y-121158000D03*
X114541903Y-120142000D03*
X115557903Y-123190000D03*
X113525903Y-120142000D03*
X114541903Y-123190000D03*
X119621903Y-122174000D03*
X114541903Y-121158000D03*
X119621903Y-121158000D03*
X119621903Y-120142000D03*
X113525903Y-123190000D03*
X117589903Y-123190000D03*
X118605903Y-123190000D03*
X116573903Y-123190000D03*
X113525903Y-122174000D03*
X112509903Y-122174000D03*
X112509903Y-123190000D03*
X112509903Y-120142000D03*
X112509903Y-121158000D03*
%TO.N,+24V*%
X117462903Y-92710000D03*
X117462903Y-91440000D03*
X117462903Y-90170000D03*
X117462903Y-88900000D03*
X116192903Y-93980000D03*
X114922903Y-93980000D03*
X114922903Y-92710000D03*
X116192903Y-92710000D03*
X116192903Y-91440000D03*
X114922903Y-91440000D03*
X114922903Y-90170000D03*
X116192903Y-90170000D03*
X116192903Y-88900000D03*
X114922903Y-88900000D03*
X113652903Y-88900000D03*
X113652903Y-90170000D03*
X113652903Y-91440000D03*
X113652903Y-92710000D03*
X113652903Y-93980000D03*
X112382903Y-93980000D03*
X112382903Y-92710000D03*
X112382903Y-91440000D03*
X112382903Y-90170000D03*
X112382903Y-88900000D03*
X111112903Y-93980000D03*
X111112903Y-92710000D03*
X111112903Y-91440000D03*
X111112903Y-90170000D03*
X111112903Y-88900000D03*
D20*
%TO.N,/NRST*%
X147492902Y-101415001D03*
D19*
%TO.N,GND*%
X115557903Y-113538000D03*
X116573903Y-113538000D03*
X116573903Y-114554000D03*
X115557903Y-114554000D03*
X115557903Y-115570000D03*
X116573903Y-115570000D03*
X116573903Y-116586000D03*
X115557903Y-116586000D03*
X114541903Y-116586000D03*
X114541903Y-115570000D03*
X114541903Y-114554000D03*
X114541903Y-113538000D03*
X113525903Y-113538000D03*
X113525903Y-114554000D03*
X113525903Y-115570000D03*
X113525903Y-116586000D03*
X112509903Y-116586000D03*
X112509903Y-115570000D03*
X112509903Y-114554000D03*
X112509903Y-113538000D03*
X112509903Y-112522000D03*
X113525903Y-112522000D03*
X114541903Y-112522000D03*
X115557903Y-112522000D03*
X116573903Y-112522000D03*
X117589903Y-112522000D03*
X117589903Y-113538000D03*
X117589903Y-114554000D03*
X117589903Y-115570000D03*
X117589903Y-116586000D03*
X117589903Y-117602000D03*
X116573903Y-117602000D03*
X115557903Y-117602000D03*
X114541903Y-117602000D03*
X113525903Y-117602000D03*
X112509903Y-117602000D03*
X111493903Y-117602000D03*
X111493903Y-116586000D03*
X111493903Y-115570000D03*
X111493903Y-114554000D03*
X111493903Y-113538000D03*
X111493903Y-112522000D03*
X151879903Y-112389589D03*
X141465903Y-109728000D03*
X144005303Y-112521400D03*
X139332303Y-98679000D03*
X139306903Y-99745800D03*
X157467903Y-100610000D03*
X156197903Y-82104897D03*
X156197903Y-86784000D03*
X154724703Y-86784000D03*
X143243903Y-93777400D03*
X145047903Y-94996000D03*
X148577903Y-118237000D03*
X147307903Y-117348000D03*
X148323903Y-116205000D03*
X111493903Y-104394000D03*
X112509903Y-104394000D03*
X113525903Y-104394000D03*
X114541903Y-104394000D03*
X115557903Y-104394000D03*
X116573903Y-104394000D03*
X111493903Y-105410000D03*
X112509903Y-105410000D03*
X113525903Y-105410000D03*
X114541903Y-105410000D03*
X115557903Y-105410000D03*
X116573903Y-105410000D03*
X111493903Y-106426000D03*
X112509903Y-106426000D03*
X113525903Y-106426000D03*
X114541903Y-106426000D03*
X115557903Y-106426000D03*
X116573903Y-106426000D03*
X117589903Y-106426000D03*
X111493903Y-107442000D03*
X112509903Y-107442000D03*
X113525903Y-107442000D03*
X114541903Y-107442000D03*
X115557903Y-107442000D03*
X116573903Y-107442000D03*
X117589903Y-107442000D03*
X118605903Y-107442000D03*
X111493903Y-108458000D03*
X112509903Y-108458000D03*
X113525903Y-108458000D03*
X114541903Y-108458000D03*
X115557903Y-108458000D03*
X116573903Y-108458000D03*
X117589903Y-108458000D03*
X118605903Y-108458000D03*
X119621903Y-108458000D03*
X111493903Y-109474000D03*
X111493903Y-110490000D03*
X111493903Y-111506000D03*
X112509903Y-111506000D03*
X112509903Y-110490000D03*
X112509903Y-109474000D03*
X113525903Y-110490000D03*
X113525903Y-111506000D03*
X113525903Y-109474000D03*
X114541903Y-109474000D03*
X114541903Y-110490000D03*
X114541903Y-111506000D03*
X115557903Y-111506000D03*
X115557903Y-110490000D03*
X115557903Y-109474000D03*
X116573903Y-109474000D03*
X116573903Y-110490000D03*
X116573903Y-111506000D03*
X117589903Y-111506000D03*
X117589903Y-110490000D03*
X117589903Y-109474000D03*
X118605903Y-109474000D03*
X119621903Y-109474000D03*
X116573903Y-103378000D03*
X115557903Y-103378000D03*
X123177903Y-102870000D03*
X124193903Y-102870000D03*
X123177903Y-103886000D03*
X123177903Y-104902000D03*
X124193903Y-103886000D03*
X125209903Y-103886000D03*
X125209903Y-102870000D03*
X125209903Y-101854000D03*
X126225903Y-103378000D03*
X126225903Y-102362000D03*
X126225903Y-101346000D03*
X129781903Y-110998000D03*
X130754452Y-111041451D03*
X133160703Y-118110000D03*
X134722203Y-81673700D03*
D20*
X144517335Y-89690247D03*
D19*
X161658903Y-94538800D03*
D20*
X139687903Y-105137800D03*
D19*
X132967903Y-98330000D03*
%TO.N,+3V3*%
X150088600Y-117729000D03*
X153187400Y-117729000D03*
X156260800Y-117729000D03*
X159334200Y-117729000D03*
X162407600Y-117729000D03*
X165481000Y-117729000D03*
X153683903Y-112389589D03*
X139941903Y-109728000D03*
X145555303Y-112522000D03*
X143370903Y-97739200D03*
X142354903Y-97180400D03*
X157264703Y-98450400D03*
X152422893Y-93549200D03*
D20*
%TO.N,Net-(C13-Pad1)*%
X157722506Y-103504397D03*
X172453903Y-107696000D03*
%TO.N,Net-(C14-Pad1)*%
X157975903Y-104914097D03*
X176771903Y-105582097D03*
%TO.N,/Therm_5*%
X162420903Y-114046000D03*
%TO.N,/Therm_6*%
X165468903Y-114046000D03*
D19*
%TO.N,VCC*%
X122161903Y-108458000D03*
X123685903Y-108458000D03*
X125209903Y-108458000D03*
X122161903Y-109728000D03*
X123685903Y-109728000D03*
X125209903Y-109728000D03*
%TO.N,+5VD*%
X141211903Y-123698000D03*
X162293903Y-86868000D03*
%TO.N,+5V*%
X137655903Y-109982000D03*
X137655903Y-108966000D03*
X136385903Y-108966000D03*
X135115903Y-108966000D03*
X136385903Y-109982000D03*
X135115903Y-109982000D03*
X157721903Y-87884000D03*
D20*
X143193103Y-90932000D03*
%TO.N,/eFuse/Gate*%
X117818503Y-80746600D03*
X117081903Y-84302600D03*
X120002903Y-83820000D03*
X119291705Y-87426800D03*
X125209903Y-83820000D03*
%TO.N,/CANH*%
X137909903Y-96266000D03*
%TO.N,/CANL*%
X149593903Y-84912200D03*
X137909903Y-97790000D03*
D19*
%TO.N,Net-(D6-Pad1)*%
X194932903Y-118745000D03*
X194932903Y-120015000D03*
X194932903Y-121285000D03*
X194932903Y-122555000D03*
X193662903Y-121285000D03*
X193662903Y-120015000D03*
X194932903Y-117475000D03*
X194932903Y-116205000D03*
X194932903Y-114935000D03*
X194932903Y-113665000D03*
X194932903Y-112395000D03*
X193662903Y-113665000D03*
X193662903Y-114935000D03*
X193662903Y-116205000D03*
X193662903Y-117475000D03*
X193662903Y-118745000D03*
D20*
%TO.N,/LTC6810/Balance1/Sx*%
X190487903Y-116840000D03*
X172326903Y-122047000D03*
X177406903Y-104648000D03*
D19*
%TO.N,Net-(D8-Pad1)*%
X180327903Y-114935000D03*
X180327903Y-117475000D03*
X180327903Y-118745000D03*
X180327903Y-120015000D03*
X180327903Y-121285000D03*
X179057903Y-121285000D03*
X179057903Y-120015000D03*
X179057903Y-118745000D03*
X179057903Y-117475000D03*
X179057903Y-114935000D03*
X177787903Y-114935000D03*
X176644903Y-122809000D03*
X176644903Y-123825000D03*
D20*
%TO.N,/LTC6810/Balance2/Sx*%
X178041903Y-104005097D03*
D19*
%TO.N,Net-(D10-Pad1)*%
X184899903Y-103632000D03*
X186169903Y-103632000D03*
X186169903Y-104902000D03*
X186169903Y-106172000D03*
X186169903Y-107442000D03*
X186169903Y-108712000D03*
X186169903Y-109982000D03*
X184899903Y-104902000D03*
X184899903Y-106172000D03*
X184899903Y-107442000D03*
X184899903Y-108712000D03*
X184899903Y-109982000D03*
X179819903Y-110998000D03*
X182105903Y-110998000D03*
D20*
%TO.N,/LTC6810/Balance3/Sx*%
X181597903Y-105410000D03*
X179819903Y-103005097D03*
D19*
%TO.N,Net-(D12-Pad1)*%
X186169903Y-92710000D03*
X184899903Y-92710000D03*
X184899903Y-93980000D03*
X186169903Y-93980000D03*
X186169903Y-95250000D03*
X186169903Y-96520000D03*
X186169903Y-97790000D03*
X186169903Y-99060000D03*
X184899903Y-99060000D03*
X184899903Y-97790000D03*
X184899903Y-96520000D03*
X184899903Y-95250000D03*
X179819903Y-100330000D03*
X182105903Y-100330000D03*
D20*
%TO.N,/LTC6810/Balance4/Sx*%
X181851903Y-93726000D03*
X178295903Y-102005097D03*
D19*
%TO.N,Net-(D14-Pad1)*%
X179311903Y-83058000D03*
X179311903Y-84328000D03*
X179311903Y-89408000D03*
X179311903Y-88138000D03*
X179311903Y-86868000D03*
X179311903Y-85598000D03*
X178295903Y-83058000D03*
X178295903Y-84328000D03*
X178295903Y-85598000D03*
X178295903Y-86868000D03*
X178295903Y-88138000D03*
X178295903Y-89408000D03*
D20*
%TO.N,/LTC6810/Balance5/Sx*%
X182359903Y-88392000D03*
X177533903Y-101005097D03*
D19*
%TO.N,Net-(D16-Pad1)*%
X192773903Y-83058000D03*
X193789903Y-83058000D03*
X192773903Y-84328000D03*
X193789903Y-84328000D03*
X193789903Y-85598000D03*
X192773903Y-85598000D03*
X192773903Y-86868000D03*
X192773903Y-88138000D03*
X193789903Y-86868000D03*
X193789903Y-88138000D03*
X193789903Y-89408000D03*
X196583903Y-81534000D03*
X198869903Y-81534000D03*
D20*
%TO.N,/LTC6810/Balance6/Sx*%
X196795303Y-88349400D03*
X178295903Y-100005097D03*
%TO.N,/SW-DIO*%
X152641903Y-101346000D03*
%TO.N,/SW-CLK*%
X151668257Y-96731647D03*
%TO.N,/USB-DP*%
X135115903Y-105714800D03*
X156197903Y-102108000D03*
X166288902Y-90608999D03*
%TO.N,/USB-DM*%
X135115903Y-107188000D03*
X156197903Y-103124000D03*
X165087903Y-91186000D03*
%TO.N,/Interlock*%
X131051903Y-108458000D03*
%TO.N,/MOSI*%
X171691903Y-104140000D03*
X159499903Y-96520000D03*
%TO.N,/MISO*%
X170675903Y-104140000D03*
X159499903Y-97282000D03*
%TO.N,/SCK*%
X166762952Y-105053049D03*
X159499903Y-98044000D03*
%TO.N,/CS*%
X166746806Y-104005097D03*
X159499903Y-98806000D03*
D19*
%TO.N,/Switch_Signal*%
X134607903Y-83146900D03*
D20*
X144513903Y-104394000D03*
X145997150Y-89113247D03*
%TO.N,/CAN-TX*%
X151371903Y-88846200D03*
X146037903Y-99822000D03*
%TO.N,/CAN-RX*%
X146799903Y-100838000D03*
X151117903Y-85598000D03*
%TO.N,/CurrentSensor_Out*%
X143497903Y-91948000D03*
X145529903Y-102870000D03*
D19*
%TO.N,/LTC6810/CellBalance2*%
X182232903Y-114935000D03*
X183502903Y-114935000D03*
X182232903Y-116205000D03*
X182232903Y-117475000D03*
X183502903Y-118745000D03*
X182232903Y-118745000D03*
X182232903Y-120015000D03*
X182232903Y-121285000D03*
X184772903Y-114935000D03*
X186042903Y-114935000D03*
X187312903Y-114935000D03*
X188582903Y-114935000D03*
X188582903Y-113665000D03*
X189852903Y-112395000D03*
X189852903Y-113665000D03*
X189852903Y-114935000D03*
X191122903Y-113665000D03*
X191122903Y-112395000D03*
X191122903Y-111125000D03*
X186042903Y-116205000D03*
X187312903Y-116205000D03*
X188582903Y-116205000D03*
X186042903Y-117475000D03*
X187312903Y-117475000D03*
X187312903Y-118745000D03*
X186042903Y-118745000D03*
X186042903Y-120015000D03*
X187312903Y-120015000D03*
X187312903Y-121285000D03*
X186042903Y-121285000D03*
X186042903Y-122809000D03*
X187312903Y-122809000D03*
X187312903Y-123825000D03*
X186042903Y-123825000D03*
X192392903Y-111125000D03*
X192392903Y-112395000D03*
X192392903Y-107315000D03*
X192392903Y-106045000D03*
X193662903Y-106045000D03*
X193662903Y-107315000D03*
X197345903Y-107188000D03*
X198615903Y-107188000D03*
X197345903Y-106172000D03*
X198615903Y-106172000D03*
D20*
X174739903Y-113538000D03*
D19*
%TO.N,/LTC6810/CellBalance3*%
X187439903Y-103632000D03*
X188455903Y-103632000D03*
X187439903Y-104902000D03*
X188455903Y-104902000D03*
X187439903Y-106172000D03*
X187439903Y-107442000D03*
X187439903Y-108712000D03*
X187439903Y-109982000D03*
X188455903Y-106172000D03*
X188455903Y-107442000D03*
X188455903Y-108712000D03*
X190995903Y-103632000D03*
X190995903Y-104648000D03*
X190995903Y-105664000D03*
X192265903Y-103632000D03*
X192265903Y-104648000D03*
X193535903Y-103632000D03*
X193535903Y-104648000D03*
X197345903Y-104648000D03*
X198615903Y-104648000D03*
X197345903Y-103632000D03*
X198615903Y-103632000D03*
%TO.N,/LTC6810/CellBalance4*%
X187439903Y-92710000D03*
X188455903Y-92710000D03*
X187439903Y-93980000D03*
X188455903Y-93980000D03*
X187439903Y-95250000D03*
X188455903Y-95250000D03*
X187439903Y-96520000D03*
X188455903Y-96520000D03*
X187439903Y-97790000D03*
X188455903Y-97790000D03*
X187439903Y-98806000D03*
X188455903Y-98806000D03*
X190995903Y-97282000D03*
X190995903Y-98552000D03*
X190995903Y-99822000D03*
X190995903Y-101092000D03*
X192265903Y-98552000D03*
X192265903Y-99822000D03*
X192265903Y-101092000D03*
X193535903Y-99822000D03*
X193535903Y-101092000D03*
X197345903Y-102108000D03*
X198615903Y-102108000D03*
X198615903Y-101092000D03*
X197345903Y-101092000D03*
X187552196Y-101741707D03*
X188709903Y-101854000D03*
X189979903Y-101854000D03*
X176644903Y-109093000D03*
%TO.N,/LTC6810/CellBalance5*%
X177025903Y-83058000D03*
X176009903Y-83058000D03*
X176009903Y-84328000D03*
X176009903Y-85598000D03*
X176009903Y-86868000D03*
X176009903Y-88138000D03*
X176009903Y-89408000D03*
X177025903Y-89408000D03*
X177025903Y-88138000D03*
X177025903Y-86868000D03*
X177025903Y-85598000D03*
X177025903Y-84328000D03*
X176009903Y-90678000D03*
X177279903Y-90678000D03*
X178549903Y-90678000D03*
X180073903Y-93980000D03*
X180073903Y-92710000D03*
X180653490Y-90860413D03*
X181923490Y-90860413D03*
X183193490Y-90860413D03*
X184463490Y-90860413D03*
X185733490Y-90860413D03*
X187003490Y-90860413D03*
X188273490Y-90860413D03*
X191085393Y-93128510D03*
X191085393Y-94652510D03*
X191973604Y-95796299D03*
X193116604Y-96939299D03*
X197345903Y-99568000D03*
X198615903Y-99568000D03*
X197345903Y-98552000D03*
X198615903Y-98552000D03*
X167759983Y-91440000D03*
%TO.N,/LTC6810/CellBalance6*%
X197345903Y-97028000D03*
X198615903Y-97028000D03*
X197345903Y-96012000D03*
X198615903Y-96012000D03*
X185153903Y-82550000D03*
X185153903Y-83820000D03*
X185153903Y-85090000D03*
X185153903Y-86360000D03*
X185153903Y-87630000D03*
X187693903Y-87630000D03*
X186423903Y-87630000D03*
X186423903Y-86360000D03*
X186423903Y-85090000D03*
X186423903Y-83820000D03*
X186423903Y-82550000D03*
X187693903Y-82550000D03*
X187693903Y-83820000D03*
X187693903Y-85090000D03*
X187693903Y-86360000D03*
X191503903Y-83058000D03*
X190487903Y-83058000D03*
X190487903Y-84328000D03*
X191503903Y-84328000D03*
X191503903Y-85598000D03*
X190487903Y-85598000D03*
X190487903Y-86868000D03*
X191503903Y-86868000D03*
X191503903Y-88138000D03*
X190487903Y-88138000D03*
X190995903Y-89154000D03*
X191910303Y-89992200D03*
X193281903Y-93726000D03*
X193789903Y-94996000D03*
%TO.N,GND*%
X197345903Y-94234000D03*
X198615903Y-94234000D03*
X197345903Y-93218000D03*
X198615903Y-93218000D03*
X197345903Y-92202000D03*
X196075903Y-92202000D03*
X194805903Y-92202000D03*
X198615903Y-92202000D03*
X194805903Y-91186000D03*
X196075903Y-91186000D03*
X197345903Y-91186000D03*
X198615903Y-91186000D03*
X198615903Y-89916000D03*
X198615903Y-88646000D03*
X198107903Y-87630000D03*
X169913903Y-97790000D03*
X169987003Y-100256900D03*
X166744970Y-109099067D03*
X170929903Y-113284000D03*
X169228103Y-91440000D03*
X170701303Y-91440000D03*
X173622906Y-91440000D03*
X176644903Y-93121480D03*
X176806903Y-97790000D03*
X176644903Y-107696000D03*
X159118903Y-100457000D03*
D20*
X163563903Y-101854000D03*
D19*
X163919503Y-93218000D03*
X142497721Y-123967818D03*
X160261903Y-86106000D03*
X160261903Y-87122000D03*
X161277903Y-88138000D03*
X168389903Y-89154000D03*
X170675903Y-87630000D03*
X169405903Y-87630000D03*
X168389903Y-88138000D03*
X170675903Y-86614000D03*
X169405903Y-86614000D03*
X168389903Y-87122000D03*
X168643903Y-85852000D03*
X166357903Y-110236000D03*
X165595903Y-111633000D03*
X166484903Y-112649000D03*
X174993903Y-108966000D03*
X171183903Y-101346000D03*
X172199903Y-102362000D03*
X168389903Y-96520000D03*
X146952303Y-122809000D03*
D20*
X173876303Y-113284004D03*
D19*
X150990903Y-118745000D03*
X154038903Y-118618000D03*
X157213903Y-118618000D03*
X160642903Y-117729000D03*
X163690903Y-117856000D03*
X166738903Y-117983000D03*
X169913903Y-117602000D03*
X172961903Y-117856000D03*
X111493903Y-120142000D03*
X111493903Y-121158000D03*
X111493903Y-122174000D03*
X111493903Y-123190000D03*
%TO.N,+3V3*%
X168542303Y-117729000D03*
X171564903Y-117729000D03*
X148323903Y-120142000D03*
X163055903Y-110363000D03*
X164071903Y-110363000D03*
D20*
X162903503Y-109423200D03*
X164071903Y-111379000D03*
X163055903Y-111379000D03*
%TO.N,/Therm_1*%
X148577903Y-114808000D03*
X144894903Y-107823000D03*
%TO.N,/Therm_5*%
X148586944Y-112258959D03*
D19*
%TO.N,+24V*%
X111112903Y-81280000D03*
X112382903Y-81280000D03*
X113652903Y-81280000D03*
X113652903Y-82550000D03*
X112382903Y-82550000D03*
X111112903Y-82550000D03*
X111112903Y-83820000D03*
X111112903Y-85090000D03*
X111112903Y-86360000D03*
X112382903Y-83820000D03*
X112382903Y-85090000D03*
X112382903Y-86360000D03*
X113652903Y-83820000D03*
X113652903Y-85090000D03*
X113652903Y-86360000D03*
X111112903Y-87630000D03*
X112382903Y-87630000D03*
X113652903Y-87630000D03*
X119367903Y-88900000D03*
X118732903Y-90170000D03*
X118732903Y-91440000D03*
X118732903Y-92710000D03*
X118732903Y-93980000D03*
X117462903Y-93980000D03*
X120637903Y-89662000D03*
%TO.N,Net-(F2-Pad2)*%
X121399903Y-87884000D03*
X122669903Y-87884000D03*
X123431903Y-85090000D03*
X128257903Y-85090000D03*
X128257903Y-87884000D03*
%TO.N,/CS_IP+*%
X137401903Y-85090000D03*
X137401903Y-87630000D03*
X137401903Y-86360000D03*
%TO.N,/V_Out*%
X125463903Y-99060000D03*
X123431903Y-97536000D03*
X124701903Y-98044000D03*
X124447903Y-96520000D03*
X125717903Y-97028000D03*
X126479903Y-98044000D03*
X127495903Y-97282000D03*
X126733903Y-96266000D03*
X125717903Y-95504000D03*
X128511903Y-92964000D03*
X129781903Y-94996000D03*
X129400903Y-93853000D03*
X129527903Y-92202000D03*
X130797903Y-92202000D03*
X131813903Y-92964000D03*
X132829903Y-92202000D03*
X132829903Y-93980000D03*
X130543903Y-93218000D03*
X131305903Y-94107000D03*
X124447903Y-95250000D03*
X124447903Y-93980000D03*
X124447903Y-92710000D03*
X124447903Y-91440000D03*
X124447903Y-90170000D03*
X125717903Y-93980000D03*
X125717903Y-92710000D03*
X125717903Y-91440000D03*
X125717903Y-90170000D03*
X126987903Y-91440000D03*
X126987903Y-92710000D03*
X126987903Y-90170000D03*
X128257903Y-91440000D03*
X128257903Y-90170000D03*
X129527903Y-90170000D03*
X130797903Y-90170000D03*
X129527903Y-91186000D03*
X130797903Y-91186000D03*
%TO.N,+BATT*%
X198742903Y-108585000D03*
X197472903Y-108585000D03*
X197472903Y-109855000D03*
X198742903Y-109855000D03*
X198742903Y-111125000D03*
X197472903Y-111125000D03*
X197472903Y-112395000D03*
X198742903Y-112395000D03*
X198742903Y-113665000D03*
X197472903Y-113665000D03*
X197472903Y-114935000D03*
X197472903Y-116205000D03*
X197472903Y-117475000D03*
X196202903Y-118745000D03*
X197472903Y-118745000D03*
X196202903Y-120015000D03*
X197472903Y-120015000D03*
X197472903Y-121285000D03*
X196202903Y-121285000D03*
X196202903Y-122555000D03*
X196202903Y-117475000D03*
X196202903Y-116205000D03*
X196202903Y-114935000D03*
X196202903Y-113665000D03*
X196202903Y-112395000D03*
X196202903Y-111125000D03*
X160515903Y-106426000D03*
X161531903Y-106426000D03*
X162547903Y-106426000D03*
D20*
%TO.N,/Therm_6*%
X148595985Y-111487918D03*
%TO.N,/LTC6810/Balance2/Sx*%
X176165338Y-116846318D03*
%TO.N,/Interlock*%
X149593903Y-112776000D03*
D19*
%TO.N,/LTC6810/CellBalance4*%
X169507503Y-113131602D03*
D20*
%TO.N,/Therm_7*%
X167881903Y-113792000D03*
X149212903Y-110954400D03*
%TO.N,/Therm_8*%
X172199903Y-113792000D03*
X149085903Y-107950000D03*
%TD*%
D21*
%TO.N,/NRST*%
X147492902Y-101415001D02*
X147492902Y-96081001D01*
X150355903Y-93218000D02*
X150355903Y-90932000D01*
X147492902Y-96081001D02*
X150355903Y-93218000D01*
%TO.N,Net-(C13-Pad1)*%
X157144902Y-107245999D02*
X157144902Y-104082001D01*
X158270969Y-108372066D02*
X157144902Y-107245999D01*
X157144902Y-104082001D02*
X157722506Y-103504397D01*
X171777837Y-108372066D02*
X158270969Y-108372066D01*
X172453903Y-107696000D02*
X171777837Y-108372066D01*
%TO.N,Net-(C14-Pad1)*%
X176723950Y-105630050D02*
X176771903Y-105582097D01*
X158691856Y-105630050D02*
X158898853Y-105630050D01*
X157975903Y-104914097D02*
X158691856Y-105630050D01*
X158898853Y-105630050D02*
X176723950Y-105630050D01*
D22*
%TO.N,VCC*%
X118351903Y-101303755D02*
X119325658Y-100330000D01*
X118351903Y-104648000D02*
X118351903Y-101303755D01*
X122945408Y-109241505D02*
X118351903Y-104648000D01*
X123410398Y-109241505D02*
X122945408Y-109241505D01*
D21*
%TO.N,/eFuse/Gate*%
X117818503Y-81635600D02*
X120002903Y-83820000D01*
X117818503Y-80746600D02*
X117818503Y-81635600D01*
X119520303Y-84302600D02*
X120002903Y-83820000D01*
X117081903Y-84302600D02*
X119520303Y-84302600D01*
X119291705Y-86512402D02*
X117081903Y-84302600D01*
X119291705Y-87426800D02*
X119291705Y-86512402D01*
X120002903Y-83820000D02*
X125209903Y-83820000D01*
D23*
%TO.N,/CANH*%
X143536903Y-87184897D02*
X137909903Y-92811897D01*
X144767903Y-87184897D02*
X143536903Y-87184897D01*
X137909903Y-92811897D02*
X137909903Y-96266000D01*
%TO.N,/CANL*%
X144279215Y-88472746D02*
X139941903Y-92810058D01*
X146033357Y-88472746D02*
X144279215Y-88472746D01*
X149593903Y-84912200D02*
X146033357Y-88472746D01*
X139941903Y-92810058D02*
X139941903Y-95758000D01*
X139941903Y-95758000D02*
X137909903Y-97790000D01*
D24*
%TO.N,Net-(D8-Pad1)*%
X180327903Y-114935000D02*
X180327903Y-115570000D01*
D21*
%TO.N,/LTC6810/Balance3/Sx*%
X179819903Y-103632000D02*
X181597903Y-105410000D01*
X179819903Y-103005097D02*
X179819903Y-103632000D01*
%TO.N,/SW-DIO*%
X153149903Y-91186000D02*
X152895903Y-90932000D01*
X152641903Y-101346000D02*
X153149903Y-100838000D01*
X153149903Y-100838000D02*
X153149903Y-91186000D01*
%TO.N,/SW-CLK*%
X156798902Y-89754999D02*
X157975903Y-90932000D01*
X152330942Y-89754999D02*
X156798902Y-89754999D01*
X151668257Y-90417684D02*
X152330942Y-89754999D01*
X151668257Y-96731647D02*
X151668257Y-90417684D01*
%TO.N,/USB-DP*%
X135115903Y-105714800D02*
X152591103Y-105714800D01*
X152591103Y-105714800D02*
X155689903Y-102616000D01*
X155689903Y-102616000D02*
X156197903Y-102108000D01*
X164810942Y-90608999D02*
X166288902Y-90608999D01*
X156197903Y-102108000D02*
X156451903Y-101854000D01*
X156451903Y-101854000D02*
X156451903Y-97282000D01*
X163124904Y-90608999D02*
X164810942Y-90608999D01*
X156451903Y-97282000D02*
X163124904Y-90608999D01*
%TO.N,/USB-DM*%
X135115903Y-107188000D02*
X152133903Y-107188000D01*
X152133903Y-107188000D02*
X156197903Y-103124000D01*
X163309903Y-91186000D02*
X165087903Y-91186000D01*
X158296504Y-96199399D02*
X163309903Y-91186000D01*
X158296504Y-101025399D02*
X158296504Y-96199399D01*
X156197903Y-103124000D02*
X158296504Y-101025399D01*
%TO.N,/MOSI*%
X171691903Y-102989934D02*
X165221969Y-96520000D01*
X171691903Y-104140000D02*
X171691903Y-102989934D01*
X165221969Y-96520000D02*
X159499903Y-96520000D01*
%TO.N,/MISO*%
X170675903Y-104140000D02*
X170675903Y-102616000D01*
X170675903Y-102616000D02*
X165341903Y-97282000D01*
X165341903Y-97282000D02*
X159499903Y-97282000D01*
%TO.N,/SCK*%
X167323807Y-104492194D02*
X167323807Y-101041904D01*
X166762952Y-105053049D02*
X167323807Y-104492194D01*
X167323807Y-101041904D02*
X164325903Y-98044000D01*
X164325903Y-98044000D02*
X159499903Y-98044000D01*
%TO.N,/CS*%
X166746806Y-104005097D02*
X166746806Y-102750903D01*
X166746806Y-102750903D02*
X162801903Y-98806000D01*
X162801903Y-98806000D02*
X159499903Y-98806000D01*
%TO.N,/Switch_Signal*%
X144513903Y-104394000D02*
X146037903Y-104394000D01*
X146037903Y-104394000D02*
X147180903Y-103251000D01*
X147180903Y-102743000D02*
X144259903Y-99822000D01*
X147180903Y-103251000D02*
X147180903Y-102743000D01*
X144259903Y-99822000D02*
X144259903Y-90932000D01*
X144259903Y-90932000D02*
X146037903Y-89154000D01*
X146037903Y-89154000D02*
X145997150Y-89113247D01*
%TO.N,/CAN-TX*%
X150699741Y-88846200D02*
X151371903Y-88846200D01*
X148992904Y-90553037D02*
X150699741Y-88846200D01*
X148992904Y-93310999D02*
X148992904Y-90553037D01*
X145783903Y-96520000D02*
X148992904Y-93310999D01*
X145783903Y-99568000D02*
X145783903Y-96520000D01*
X146037903Y-99822000D02*
X145783903Y-99568000D01*
%TO.N,/CAN-RX*%
X148577903Y-89154000D02*
X151117903Y-86614000D01*
X146638902Y-90077001D02*
X147561903Y-89154000D01*
X146638902Y-95022935D02*
X146638902Y-90077001D01*
X145275903Y-99913962D02*
X145275903Y-96385934D01*
X147561903Y-89154000D02*
X148577903Y-89154000D01*
X146199941Y-100838000D02*
X145275903Y-99913962D01*
X145275903Y-96385934D02*
X146638902Y-95022935D01*
X146799903Y-100838000D02*
X146199941Y-100838000D01*
X151117903Y-85598000D02*
X151117903Y-86614000D01*
%TO.N,/CurrentSensor_Out*%
X141627902Y-93818001D02*
X141627902Y-98967999D01*
X143497903Y-91948000D02*
X141627902Y-93818001D01*
X141627902Y-98967999D02*
X145529903Y-102870000D01*
D22*
%TO.N,/LTC6810/CellBalance5*%
X180653490Y-90860413D02*
X189797490Y-90860413D01*
X191085393Y-92148316D02*
X189797490Y-90860413D01*
X191085393Y-94652510D02*
X191085393Y-92148316D01*
D23*
X169791983Y-89408000D02*
X176009903Y-89408000D01*
X167759983Y-91440000D02*
X169791983Y-89408000D01*
D21*
%TO.N,/Therm_1*%
X145783903Y-108712000D02*
X144894903Y-107823000D01*
X145783903Y-110744000D02*
X145783903Y-108712000D01*
X148577903Y-113538000D02*
X145783903Y-110744000D01*
X148577903Y-114808000D02*
X148577903Y-113538000D01*
D25*
%TO.N,/Therm_5*%
X149804302Y-112097399D02*
X148748504Y-112097399D01*
X148748504Y-112097399D02*
X148586944Y-112258959D01*
X161785903Y-114681000D02*
X152387903Y-114681000D01*
X152387903Y-114681000D02*
X149804302Y-112097399D01*
X162420903Y-114046000D02*
X161785903Y-114681000D01*
%TO.N,/Therm_6*%
X151368317Y-113091190D02*
X149783127Y-111506000D01*
X164514093Y-113091190D02*
X151368317Y-113091190D01*
X165468903Y-114046000D02*
X164514093Y-113091190D01*
X149783127Y-111506000D02*
X148577903Y-111506000D01*
X148577903Y-111506000D02*
X148595985Y-111487918D01*
D21*
%TO.N,/LTC6810/Balance1/Sx*%
X172326903Y-121158000D02*
X172326903Y-122047000D01*
X175451103Y-118033800D02*
X172326903Y-121158000D01*
X175451103Y-114350800D02*
X175451103Y-118033800D01*
X177406903Y-112395000D02*
X175451103Y-114350800D01*
X177406903Y-104648000D02*
X177406903Y-112395000D01*
%TO.N,/LTC6810/Balance2/Sx*%
X178041903Y-104005097D02*
X178041903Y-112776000D01*
X178041903Y-112776000D02*
X176165338Y-114652565D01*
X176165338Y-114652565D02*
X176165338Y-116846318D01*
%TO.N,/Interlock*%
X149593903Y-114808000D02*
X149593903Y-112776000D01*
X148923904Y-115477999D02*
X149593903Y-114808000D01*
X138071902Y-115477999D02*
X148923904Y-115477999D01*
X131051903Y-108458000D02*
X138071902Y-115477999D01*
D23*
%TO.N,/LTC6810/CellBalance4*%
X176644903Y-109093000D02*
X175501903Y-110236000D01*
X175501903Y-110236000D02*
X172403105Y-110236000D01*
X172403105Y-110236000D02*
X169507503Y-113131602D01*
D25*
%TO.N,/Therm_7*%
X154385504Y-112052820D02*
X153330684Y-110998000D01*
X164045947Y-112052820D02*
X154385504Y-112052820D01*
X165487526Y-113494399D02*
X164045947Y-112052820D01*
X167584302Y-113494399D02*
X165487526Y-113494399D01*
X167881903Y-113792000D02*
X167584302Y-113494399D01*
X153330684Y-110998000D02*
X149212903Y-110998000D01*
X149212903Y-110998000D02*
X149212903Y-110954400D01*
D21*
%TO.N,/Therm_8*%
X170837902Y-118296001D02*
X168229903Y-120904000D01*
X170837902Y-116932001D02*
X170837902Y-118296001D01*
X172580903Y-115189000D02*
X170837902Y-116932001D01*
X172580903Y-114173000D02*
X172580903Y-115189000D01*
X172199903Y-113792000D02*
X172580903Y-114173000D01*
D25*
X163928949Y-108800676D02*
X149936579Y-108800676D01*
X169113874Y-113985601D02*
X163928949Y-108800676D01*
X172006302Y-113985601D02*
X169113874Y-113985601D01*
X172199903Y-113792000D02*
X172006302Y-113985601D01*
X149936579Y-108800676D02*
X149085903Y-107950000D01*
%TD*%
D21*
%TO.N,+BATT*%
X197243964Y-108223000D02*
X197447842Y-108223000D01*
X197543362Y-108204000D01*
X198418444Y-108204000D01*
X198513964Y-108223000D01*
X198717842Y-108223000D01*
X198813362Y-108204000D01*
X199315001Y-108204000D01*
X199315001Y-124315000D01*
X195948903Y-124315000D01*
X195948903Y-122752459D01*
X195967903Y-122656939D01*
X195967903Y-122453061D01*
X195948903Y-122357541D01*
X195948903Y-121482459D01*
X195967903Y-121386939D01*
X195967903Y-121183061D01*
X195948903Y-121087541D01*
X195948903Y-120212459D01*
X195967903Y-120116939D01*
X195967903Y-119913061D01*
X195948903Y-119817541D01*
X195948903Y-118942459D01*
X195967903Y-118846939D01*
X195967903Y-118643061D01*
X195948903Y-118547541D01*
X195948903Y-117672459D01*
X195967903Y-117576939D01*
X195967903Y-117373061D01*
X195948903Y-117277541D01*
X195948903Y-116402459D01*
X195967903Y-116306939D01*
X195967903Y-116103061D01*
X195948903Y-116007541D01*
X195948903Y-115132459D01*
X195967903Y-115036939D01*
X195967903Y-114833061D01*
X195948903Y-114737541D01*
X195948903Y-113862459D01*
X195967903Y-113766939D01*
X195967903Y-113563061D01*
X195948903Y-113467541D01*
X195948903Y-112592459D01*
X195967903Y-112496939D01*
X195967903Y-112293061D01*
X195948903Y-112197541D01*
X195948903Y-112014000D01*
X195936702Y-111890118D01*
X195900567Y-111770996D01*
X195841886Y-111661213D01*
X195762916Y-111564987D01*
X195666690Y-111486017D01*
X195556907Y-111427336D01*
X195437785Y-111391201D01*
X195313903Y-111379000D01*
X195270402Y-111379000D01*
X194424903Y-110195301D01*
X194424903Y-108204000D01*
X197148444Y-108204000D01*
X197243964Y-108223000D01*
%TA.AperFunction,Conductor*%
D26*
G36*
X197243964Y-108223000D02*
G01*
X197447842Y-108223000D01*
X197543362Y-108204000D01*
X198418444Y-108204000D01*
X198513964Y-108223000D01*
X198717842Y-108223000D01*
X198813362Y-108204000D01*
X199315001Y-108204000D01*
X199315001Y-124315000D01*
X195948903Y-124315000D01*
X195948903Y-122752459D01*
X195967903Y-122656939D01*
X195967903Y-122453061D01*
X195948903Y-122357541D01*
X195948903Y-121482459D01*
X195967903Y-121386939D01*
X195967903Y-121183061D01*
X195948903Y-121087541D01*
X195948903Y-120212459D01*
X195967903Y-120116939D01*
X195967903Y-119913061D01*
X195948903Y-119817541D01*
X195948903Y-118942459D01*
X195967903Y-118846939D01*
X195967903Y-118643061D01*
X195948903Y-118547541D01*
X195948903Y-117672459D01*
X195967903Y-117576939D01*
X195967903Y-117373061D01*
X195948903Y-117277541D01*
X195948903Y-116402459D01*
X195967903Y-116306939D01*
X195967903Y-116103061D01*
X195948903Y-116007541D01*
X195948903Y-115132459D01*
X195967903Y-115036939D01*
X195967903Y-114833061D01*
X195948903Y-114737541D01*
X195948903Y-113862459D01*
X195967903Y-113766939D01*
X195967903Y-113563061D01*
X195948903Y-113467541D01*
X195948903Y-112592459D01*
X195967903Y-112496939D01*
X195967903Y-112293061D01*
X195948903Y-112197541D01*
X195948903Y-112014000D01*
X195936702Y-111890118D01*
X195900567Y-111770996D01*
X195841886Y-111661213D01*
X195762916Y-111564987D01*
X195666690Y-111486017D01*
X195556907Y-111427336D01*
X195437785Y-111391201D01*
X195313903Y-111379000D01*
X195270402Y-111379000D01*
X194424903Y-110195301D01*
X194424903Y-108204000D01*
X197148444Y-108204000D01*
X197243964Y-108223000D01*
G37*
%TD.AperFunction*%
%TD*%
D21*
%TO.N,/LTC6810/CellBalance2*%
X199250903Y-107442000D02*
X194297903Y-107442000D01*
X194174021Y-107454201D01*
X194054899Y-107490336D01*
X193945116Y-107549017D01*
X193848890Y-107627987D01*
X193769920Y-107724213D01*
X193711239Y-107833996D01*
X193675104Y-107953118D01*
X193666713Y-108038313D01*
X193583567Y-108104830D01*
X193565744Y-108122213D01*
X193551655Y-108142739D01*
X193541841Y-108165620D01*
X193536680Y-108189975D01*
X193535903Y-108204000D01*
X193535903Y-111072394D01*
X193223550Y-111384747D01*
X193158021Y-111391201D01*
X193038899Y-111427336D01*
X192929116Y-111486017D01*
X192832890Y-111564987D01*
X192753920Y-111661213D01*
X192695239Y-111770996D01*
X192659104Y-111890118D01*
X192646903Y-112014000D01*
X192646903Y-113274974D01*
X190800890Y-115120987D01*
X190721920Y-115217213D01*
X190663239Y-115326996D01*
X190627104Y-115446118D01*
X190614903Y-115570000D01*
X190614903Y-115644394D01*
X190280350Y-115978947D01*
X190229758Y-115989010D01*
X190068698Y-116055723D01*
X189923748Y-116152576D01*
X189800479Y-116275845D01*
X189703626Y-116420795D01*
X189636913Y-116581855D01*
X189602903Y-116752835D01*
X189602903Y-116927165D01*
X189636913Y-117098145D01*
X189703626Y-117259205D01*
X189725903Y-117292545D01*
X189725903Y-121793000D01*
X189217903Y-121793000D01*
X189094021Y-121805201D01*
X188974899Y-121841336D01*
X188865116Y-121900017D01*
X188768890Y-121978987D01*
X188689920Y-122075213D01*
X188631239Y-122184996D01*
X188595104Y-122304118D01*
X188582903Y-122428000D01*
X188582903Y-124315000D01*
X181978903Y-124315000D01*
X181978903Y-113792000D01*
X186351117Y-113792000D01*
X186403920Y-113890787D01*
X186482890Y-113987013D01*
X186579116Y-114065983D01*
X186688899Y-114124664D01*
X186808021Y-114160799D01*
X186931903Y-114173000D01*
X187947903Y-114173000D01*
X188071785Y-114160799D01*
X188190907Y-114124664D01*
X188300690Y-114065983D01*
X188396916Y-113987013D01*
X191444916Y-110939013D01*
X191523886Y-110842787D01*
X191582567Y-110733004D01*
X191618702Y-110613882D01*
X191630903Y-110490000D01*
X191630903Y-106689026D01*
X192528929Y-105791000D01*
X199250903Y-105791000D01*
X199250903Y-107442000D01*
%TA.AperFunction,Conductor*%
D26*
G36*
X199250903Y-107442000D02*
G01*
X194297903Y-107442000D01*
X194174021Y-107454201D01*
X194054899Y-107490336D01*
X193945116Y-107549017D01*
X193848890Y-107627987D01*
X193769920Y-107724213D01*
X193711239Y-107833996D01*
X193675104Y-107953118D01*
X193666713Y-108038313D01*
X193583567Y-108104830D01*
X193565744Y-108122213D01*
X193551655Y-108142739D01*
X193541841Y-108165620D01*
X193536680Y-108189975D01*
X193535903Y-108204000D01*
X193535903Y-111072394D01*
X193223550Y-111384747D01*
X193158021Y-111391201D01*
X193038899Y-111427336D01*
X192929116Y-111486017D01*
X192832890Y-111564987D01*
X192753920Y-111661213D01*
X192695239Y-111770996D01*
X192659104Y-111890118D01*
X192646903Y-112014000D01*
X192646903Y-113274974D01*
X190800890Y-115120987D01*
X190721920Y-115217213D01*
X190663239Y-115326996D01*
X190627104Y-115446118D01*
X190614903Y-115570000D01*
X190614903Y-115644394D01*
X190280350Y-115978947D01*
X190229758Y-115989010D01*
X190068698Y-116055723D01*
X189923748Y-116152576D01*
X189800479Y-116275845D01*
X189703626Y-116420795D01*
X189636913Y-116581855D01*
X189602903Y-116752835D01*
X189602903Y-116927165D01*
X189636913Y-117098145D01*
X189703626Y-117259205D01*
X189725903Y-117292545D01*
X189725903Y-121793000D01*
X189217903Y-121793000D01*
X189094021Y-121805201D01*
X188974899Y-121841336D01*
X188865116Y-121900017D01*
X188768890Y-121978987D01*
X188689920Y-122075213D01*
X188631239Y-122184996D01*
X188595104Y-122304118D01*
X188582903Y-122428000D01*
X188582903Y-124315000D01*
X181978903Y-124315000D01*
X181978903Y-113792000D01*
X186351117Y-113792000D01*
X186403920Y-113890787D01*
X186482890Y-113987013D01*
X186579116Y-114065983D01*
X186688899Y-114124664D01*
X186808021Y-114160799D01*
X186931903Y-114173000D01*
X187947903Y-114173000D01*
X188071785Y-114160799D01*
X188190907Y-114124664D01*
X188300690Y-114065983D01*
X188396916Y-113987013D01*
X191444916Y-110939013D01*
X191523886Y-110842787D01*
X191582567Y-110733004D01*
X191618702Y-110613882D01*
X191630903Y-110490000D01*
X191630903Y-106689026D01*
X192528929Y-105791000D01*
X199250903Y-105791000D01*
X199250903Y-107442000D01*
G37*
%TD.AperFunction*%
%TD*%
D21*
%TO.N,Net-(D6-Pad1)*%
X195186903Y-112197541D02*
X195167903Y-112293061D01*
X195167903Y-112496939D01*
X195186903Y-112592459D01*
X195186903Y-113467541D01*
X195167903Y-113563061D01*
X195167903Y-113766939D01*
X195186903Y-113862459D01*
X195186903Y-114737541D01*
X195167903Y-114833061D01*
X195167903Y-115036939D01*
X195186903Y-115132459D01*
X195186903Y-116007541D01*
X195167903Y-116103061D01*
X195167903Y-116306939D01*
X195186903Y-116402459D01*
X195186903Y-117277541D01*
X195167903Y-117373061D01*
X195167903Y-117576939D01*
X195186903Y-117672459D01*
X195186903Y-118547541D01*
X195167903Y-118643061D01*
X195167903Y-118846939D01*
X195186903Y-118942459D01*
X195186903Y-119817541D01*
X195167903Y-119913061D01*
X195167903Y-120116939D01*
X195186903Y-120212459D01*
X195186903Y-121087541D01*
X195167903Y-121183061D01*
X195167903Y-121386939D01*
X195186903Y-121482459D01*
X195186903Y-122357541D01*
X195167903Y-122453061D01*
X195167903Y-122656939D01*
X195186903Y-122752459D01*
X195186903Y-124315000D01*
X189344903Y-124315000D01*
X189344903Y-122555000D01*
X191249903Y-122555000D01*
X191274679Y-122552560D01*
X191298504Y-122545333D01*
X191320460Y-122533597D01*
X191339706Y-122517803D01*
X191355500Y-122498557D01*
X191367236Y-122476601D01*
X191374463Y-122452776D01*
X191376903Y-122428000D01*
X191376903Y-115622606D01*
X193371706Y-113627803D01*
X193387500Y-113608557D01*
X193399236Y-113586601D01*
X193406463Y-113562776D01*
X193408903Y-113538000D01*
X193408903Y-112592459D01*
X193427903Y-112496939D01*
X193427903Y-112293061D01*
X193408903Y-112197541D01*
X193408903Y-112141000D01*
X195186903Y-112141000D01*
X195186903Y-112197541D01*
%TA.AperFunction,Conductor*%
D26*
G36*
X195186903Y-112197541D02*
G01*
X195167903Y-112293061D01*
X195167903Y-112496939D01*
X195186903Y-112592459D01*
X195186903Y-113467541D01*
X195167903Y-113563061D01*
X195167903Y-113766939D01*
X195186903Y-113862459D01*
X195186903Y-114737541D01*
X195167903Y-114833061D01*
X195167903Y-115036939D01*
X195186903Y-115132459D01*
X195186903Y-116007541D01*
X195167903Y-116103061D01*
X195167903Y-116306939D01*
X195186903Y-116402459D01*
X195186903Y-117277541D01*
X195167903Y-117373061D01*
X195167903Y-117576939D01*
X195186903Y-117672459D01*
X195186903Y-118547541D01*
X195167903Y-118643061D01*
X195167903Y-118846939D01*
X195186903Y-118942459D01*
X195186903Y-119817541D01*
X195167903Y-119913061D01*
X195167903Y-120116939D01*
X195186903Y-120212459D01*
X195186903Y-121087541D01*
X195167903Y-121183061D01*
X195167903Y-121386939D01*
X195186903Y-121482459D01*
X195186903Y-122357541D01*
X195167903Y-122453061D01*
X195167903Y-122656939D01*
X195186903Y-122752459D01*
X195186903Y-124315000D01*
X189344903Y-124315000D01*
X189344903Y-122555000D01*
X191249903Y-122555000D01*
X191274679Y-122552560D01*
X191298504Y-122545333D01*
X191320460Y-122533597D01*
X191339706Y-122517803D01*
X191355500Y-122498557D01*
X191367236Y-122476601D01*
X191374463Y-122452776D01*
X191376903Y-122428000D01*
X191376903Y-115622606D01*
X193371706Y-113627803D01*
X193387500Y-113608557D01*
X193399236Y-113586601D01*
X193406463Y-113562776D01*
X193408903Y-113538000D01*
X193408903Y-112592459D01*
X193427903Y-112496939D01*
X193427903Y-112293061D01*
X193408903Y-112197541D01*
X193408903Y-112141000D01*
X195186903Y-112141000D01*
X195186903Y-112197541D01*
G37*
%TD.AperFunction*%
%TD*%
D21*
%TO.N,Net-(D8-Pad1)*%
X181216903Y-114737541D02*
X181197903Y-114833061D01*
X181197903Y-115036939D01*
X181216903Y-115132459D01*
X181216903Y-116007541D01*
X181197903Y-116103061D01*
X181197903Y-116306939D01*
X181216903Y-116402459D01*
X181216903Y-117277541D01*
X181197903Y-117373061D01*
X181197903Y-117576939D01*
X181216903Y-117672459D01*
X181216903Y-118547541D01*
X181197903Y-118643061D01*
X181197903Y-118846939D01*
X181216903Y-118942459D01*
X181216903Y-119817541D01*
X181197903Y-119913061D01*
X181197903Y-120116939D01*
X181216903Y-120212459D01*
X181216903Y-121087541D01*
X181197903Y-121183061D01*
X181197903Y-121386939D01*
X181216903Y-121482459D01*
X181216903Y-124315000D01*
X174866903Y-124315000D01*
X174866903Y-122428000D01*
X176517903Y-122428000D01*
X176542679Y-122425560D01*
X176566504Y-122418333D01*
X176588460Y-122406597D01*
X176607706Y-122390803D01*
X176623500Y-122371557D01*
X176635236Y-122349601D01*
X176642463Y-122325776D01*
X176644903Y-122301000D01*
X176644903Y-117590264D01*
X176729493Y-117533742D01*
X176852762Y-117410473D01*
X176949615Y-117265523D01*
X177016328Y-117104463D01*
X177050338Y-116933483D01*
X177050338Y-116759153D01*
X177016328Y-116588173D01*
X176949615Y-116427113D01*
X176927338Y-116393773D01*
X176927338Y-114968195D01*
X178103533Y-113792000D01*
X181216903Y-113792000D01*
X181216903Y-114737541D01*
%TA.AperFunction,Conductor*%
D26*
G36*
X181216903Y-114737541D02*
G01*
X181197903Y-114833061D01*
X181197903Y-115036939D01*
X181216903Y-115132459D01*
X181216903Y-116007541D01*
X181197903Y-116103061D01*
X181197903Y-116306939D01*
X181216903Y-116402459D01*
X181216903Y-117277541D01*
X181197903Y-117373061D01*
X181197903Y-117576939D01*
X181216903Y-117672459D01*
X181216903Y-118547541D01*
X181197903Y-118643061D01*
X181197903Y-118846939D01*
X181216903Y-118942459D01*
X181216903Y-119817541D01*
X181197903Y-119913061D01*
X181197903Y-120116939D01*
X181216903Y-120212459D01*
X181216903Y-121087541D01*
X181197903Y-121183061D01*
X181197903Y-121386939D01*
X181216903Y-121482459D01*
X181216903Y-124315000D01*
X174866903Y-124315000D01*
X174866903Y-122428000D01*
X176517903Y-122428000D01*
X176542679Y-122425560D01*
X176566504Y-122418333D01*
X176588460Y-122406597D01*
X176607706Y-122390803D01*
X176623500Y-122371557D01*
X176635236Y-122349601D01*
X176642463Y-122325776D01*
X176644903Y-122301000D01*
X176644903Y-117590264D01*
X176729493Y-117533742D01*
X176852762Y-117410473D01*
X176949615Y-117265523D01*
X177016328Y-117104463D01*
X177050338Y-116933483D01*
X177050338Y-116759153D01*
X177016328Y-116588173D01*
X176949615Y-116427113D01*
X176927338Y-116393773D01*
X176927338Y-114968195D01*
X178103533Y-113792000D01*
X181216903Y-113792000D01*
X181216903Y-114737541D01*
G37*
%TD.AperFunction*%
%TD*%
D21*
%TO.N,/LTC6810/CellBalance3*%
X196855647Y-103025205D02*
X197044005Y-103103226D01*
X197243964Y-103143000D01*
X197447842Y-103143000D01*
X197647801Y-103103226D01*
X197836159Y-103025205D01*
X197878371Y-102997000D01*
X198083435Y-102997000D01*
X198125647Y-103025205D01*
X198314005Y-103103226D01*
X198513964Y-103143000D01*
X198717842Y-103143000D01*
X198917801Y-103103226D01*
X199106159Y-103025205D01*
X199148371Y-102997000D01*
X199250903Y-102997000D01*
X199250903Y-105029000D01*
X195817415Y-105029000D01*
X195730014Y-105002487D01*
X195511853Y-104981000D01*
X195115953Y-104981000D01*
X194897792Y-105002487D01*
X194810391Y-105029000D01*
X193860362Y-105029000D01*
X193764842Y-105010000D01*
X193560964Y-105010000D01*
X193465444Y-105029000D01*
X192590362Y-105029000D01*
X192494842Y-105010000D01*
X192290964Y-105010000D01*
X192091005Y-105049774D01*
X191902647Y-105127795D01*
X191733129Y-105241063D01*
X191588966Y-105385226D01*
X191475698Y-105554744D01*
X191397677Y-105743102D01*
X191372470Y-105869827D01*
X190906100Y-106336197D01*
X190890306Y-106355443D01*
X190878570Y-106377399D01*
X190871343Y-106401224D01*
X190868903Y-106426000D01*
X190868903Y-110120247D01*
X190821005Y-110129774D01*
X190632647Y-110207795D01*
X190463129Y-110321063D01*
X190318966Y-110465226D01*
X190205698Y-110634744D01*
X190127677Y-110823102D01*
X190087903Y-111023061D01*
X190087903Y-111218394D01*
X189946297Y-111360000D01*
X189750964Y-111360000D01*
X189551005Y-111399774D01*
X189362647Y-111477795D01*
X189193129Y-111591063D01*
X189048966Y-111735226D01*
X188935698Y-111904744D01*
X188857677Y-112093102D01*
X188817903Y-112293061D01*
X188817903Y-112488394D01*
X188676297Y-112630000D01*
X188480964Y-112630000D01*
X188281005Y-112669774D01*
X188092647Y-112747795D01*
X187923129Y-112861063D01*
X187778966Y-113005226D01*
X187665698Y-113174744D01*
X187587677Y-113363102D01*
X187578150Y-113411000D01*
X187058903Y-113411000D01*
X187058903Y-112518829D01*
X187126916Y-112463013D01*
X187205886Y-112366787D01*
X187264567Y-112257004D01*
X187300702Y-112137882D01*
X187312903Y-112014000D01*
X187312903Y-102997000D01*
X196813435Y-102997000D01*
X196855647Y-103025205D01*
%TA.AperFunction,Conductor*%
D26*
G36*
X196855647Y-103025205D02*
G01*
X197044005Y-103103226D01*
X197243964Y-103143000D01*
X197447842Y-103143000D01*
X197647801Y-103103226D01*
X197836159Y-103025205D01*
X197878371Y-102997000D01*
X198083435Y-102997000D01*
X198125647Y-103025205D01*
X198314005Y-103103226D01*
X198513964Y-103143000D01*
X198717842Y-103143000D01*
X198917801Y-103103226D01*
X199106159Y-103025205D01*
X199148371Y-102997000D01*
X199250903Y-102997000D01*
X199250903Y-105029000D01*
X195817415Y-105029000D01*
X195730014Y-105002487D01*
X195511853Y-104981000D01*
X195115953Y-104981000D01*
X194897792Y-105002487D01*
X194810391Y-105029000D01*
X193860362Y-105029000D01*
X193764842Y-105010000D01*
X193560964Y-105010000D01*
X193465444Y-105029000D01*
X192590362Y-105029000D01*
X192494842Y-105010000D01*
X192290964Y-105010000D01*
X192091005Y-105049774D01*
X191902647Y-105127795D01*
X191733129Y-105241063D01*
X191588966Y-105385226D01*
X191475698Y-105554744D01*
X191397677Y-105743102D01*
X191372470Y-105869827D01*
X190906100Y-106336197D01*
X190890306Y-106355443D01*
X190878570Y-106377399D01*
X190871343Y-106401224D01*
X190868903Y-106426000D01*
X190868903Y-110120247D01*
X190821005Y-110129774D01*
X190632647Y-110207795D01*
X190463129Y-110321063D01*
X190318966Y-110465226D01*
X190205698Y-110634744D01*
X190127677Y-110823102D01*
X190087903Y-111023061D01*
X190087903Y-111218394D01*
X189946297Y-111360000D01*
X189750964Y-111360000D01*
X189551005Y-111399774D01*
X189362647Y-111477795D01*
X189193129Y-111591063D01*
X189048966Y-111735226D01*
X188935698Y-111904744D01*
X188857677Y-112093102D01*
X188817903Y-112293061D01*
X188817903Y-112488394D01*
X188676297Y-112630000D01*
X188480964Y-112630000D01*
X188281005Y-112669774D01*
X188092647Y-112747795D01*
X187923129Y-112861063D01*
X187778966Y-113005226D01*
X187665698Y-113174744D01*
X187587677Y-113363102D01*
X187578150Y-113411000D01*
X187058903Y-113411000D01*
X187058903Y-112518829D01*
X187126916Y-112463013D01*
X187205886Y-112366787D01*
X187264567Y-112257004D01*
X187300702Y-112137882D01*
X187312903Y-112014000D01*
X187312903Y-102997000D01*
X196813435Y-102997000D01*
X196855647Y-103025205D01*
G37*
%TD.AperFunction*%
%TD*%
D21*
%TO.N,/LTC6810/CellBalance4*%
X189700394Y-92722002D02*
X189700393Y-94720546D01*
X189720433Y-94924016D01*
X189799629Y-95185090D01*
X189852903Y-95284759D01*
X189852903Y-95504000D01*
X189861820Y-95610045D01*
X189894539Y-95730150D01*
X189950060Y-95841564D01*
X190026250Y-95940006D01*
X194344250Y-100512006D01*
X194453116Y-100603983D01*
X194562899Y-100662664D01*
X194682021Y-100698799D01*
X194805903Y-100711000D01*
X199250903Y-100711000D01*
X199250903Y-102235000D01*
X187058903Y-102235000D01*
X187058903Y-101342829D01*
X187126916Y-101287013D01*
X187205886Y-101190787D01*
X187264567Y-101081004D01*
X187300702Y-100961882D01*
X187312903Y-100838000D01*
X187312903Y-92245413D01*
X189223805Y-92245413D01*
X189700394Y-92722002D01*
%TA.AperFunction,Conductor*%
D26*
G36*
X189700394Y-92722002D02*
G01*
X189700393Y-94720546D01*
X189720433Y-94924016D01*
X189799629Y-95185090D01*
X189852903Y-95284759D01*
X189852903Y-95504000D01*
X189861820Y-95610045D01*
X189894539Y-95730150D01*
X189950060Y-95841564D01*
X190026250Y-95940006D01*
X194344250Y-100512006D01*
X194453116Y-100603983D01*
X194562899Y-100662664D01*
X194682021Y-100698799D01*
X194805903Y-100711000D01*
X199250903Y-100711000D01*
X199250903Y-102235000D01*
X187058903Y-102235000D01*
X187058903Y-101342829D01*
X187126916Y-101287013D01*
X187205886Y-101190787D01*
X187264567Y-101081004D01*
X187300702Y-100961882D01*
X187312903Y-100838000D01*
X187312903Y-92245413D01*
X189223805Y-92245413D01*
X189700394Y-92722002D01*
G37*
%TD.AperFunction*%
%TD*%
D21*
%TO.N,Net-(D12-Pad1)*%
X186444677Y-92408102D02*
X186404903Y-92608061D01*
X186404903Y-92811939D01*
X186444677Y-93011898D01*
X186522698Y-93200256D01*
X186550903Y-93242468D01*
X186550903Y-93447532D01*
X186522698Y-93489744D01*
X186444677Y-93678102D01*
X186404903Y-93878061D01*
X186404903Y-94081939D01*
X186444677Y-94281898D01*
X186522698Y-94470256D01*
X186550903Y-94512468D01*
X186550903Y-94717532D01*
X186522698Y-94759744D01*
X186444677Y-94948102D01*
X186404903Y-95148061D01*
X186404903Y-95351939D01*
X186444677Y-95551898D01*
X186522698Y-95740256D01*
X186550903Y-95782468D01*
X186550903Y-95987532D01*
X186522698Y-96029744D01*
X186444677Y-96218102D01*
X186404903Y-96418061D01*
X186404903Y-96621939D01*
X186444677Y-96821898D01*
X186522698Y-97010256D01*
X186550903Y-97052468D01*
X186550903Y-97257532D01*
X186522698Y-97299744D01*
X186444677Y-97488102D01*
X186404903Y-97688061D01*
X186404903Y-97891939D01*
X186444677Y-98091898D01*
X186522698Y-98280256D01*
X186534554Y-98298000D01*
X186522698Y-98315744D01*
X186444677Y-98504102D01*
X186404903Y-98704061D01*
X186404903Y-98907939D01*
X186444677Y-99107898D01*
X186522698Y-99296256D01*
X186550903Y-99338468D01*
X186550903Y-100711000D01*
X179692903Y-100711000D01*
X179692903Y-99822000D01*
X181343903Y-99822000D01*
X181368679Y-99819560D01*
X181392504Y-99812333D01*
X181414460Y-99800597D01*
X181433706Y-99784803D01*
X181449500Y-99765557D01*
X181461236Y-99743601D01*
X181468463Y-99719776D01*
X181470903Y-99695000D01*
X181470903Y-94526102D01*
X181593758Y-94576990D01*
X181764738Y-94611000D01*
X181939068Y-94611000D01*
X182110048Y-94576990D01*
X182271108Y-94510277D01*
X182416058Y-94413424D01*
X182539327Y-94290155D01*
X182636180Y-94145205D01*
X182702893Y-93984145D01*
X182736903Y-93813165D01*
X182736903Y-93638835D01*
X182702893Y-93467855D01*
X182636180Y-93306795D01*
X182539327Y-93161845D01*
X182416058Y-93038576D01*
X182271108Y-92941723D01*
X182110048Y-92875010D01*
X181939068Y-92841000D01*
X181764738Y-92841000D01*
X181593758Y-92875010D01*
X181470903Y-92925898D01*
X181470903Y-92245413D01*
X186512065Y-92245413D01*
X186444677Y-92408102D01*
%TA.AperFunction,Conductor*%
D26*
G36*
X186444677Y-92408102D02*
G01*
X186404903Y-92608061D01*
X186404903Y-92811939D01*
X186444677Y-93011898D01*
X186522698Y-93200256D01*
X186550903Y-93242468D01*
X186550903Y-93447532D01*
X186522698Y-93489744D01*
X186444677Y-93678102D01*
X186404903Y-93878061D01*
X186404903Y-94081939D01*
X186444677Y-94281898D01*
X186522698Y-94470256D01*
X186550903Y-94512468D01*
X186550903Y-94717532D01*
X186522698Y-94759744D01*
X186444677Y-94948102D01*
X186404903Y-95148061D01*
X186404903Y-95351939D01*
X186444677Y-95551898D01*
X186522698Y-95740256D01*
X186550903Y-95782468D01*
X186550903Y-95987532D01*
X186522698Y-96029744D01*
X186444677Y-96218102D01*
X186404903Y-96418061D01*
X186404903Y-96621939D01*
X186444677Y-96821898D01*
X186522698Y-97010256D01*
X186550903Y-97052468D01*
X186550903Y-97257532D01*
X186522698Y-97299744D01*
X186444677Y-97488102D01*
X186404903Y-97688061D01*
X186404903Y-97891939D01*
X186444677Y-98091898D01*
X186522698Y-98280256D01*
X186534554Y-98298000D01*
X186522698Y-98315744D01*
X186444677Y-98504102D01*
X186404903Y-98704061D01*
X186404903Y-98907939D01*
X186444677Y-99107898D01*
X186522698Y-99296256D01*
X186550903Y-99338468D01*
X186550903Y-100711000D01*
X179692903Y-100711000D01*
X179692903Y-99822000D01*
X181343903Y-99822000D01*
X181368679Y-99819560D01*
X181392504Y-99812333D01*
X181414460Y-99800597D01*
X181433706Y-99784803D01*
X181449500Y-99765557D01*
X181461236Y-99743601D01*
X181468463Y-99719776D01*
X181470903Y-99695000D01*
X181470903Y-94526102D01*
X181593758Y-94576990D01*
X181764738Y-94611000D01*
X181939068Y-94611000D01*
X182110048Y-94576990D01*
X182271108Y-94510277D01*
X182416058Y-94413424D01*
X182539327Y-94290155D01*
X182636180Y-94145205D01*
X182702893Y-93984145D01*
X182736903Y-93813165D01*
X182736903Y-93638835D01*
X182702893Y-93467855D01*
X182636180Y-93306795D01*
X182539327Y-93161845D01*
X182416058Y-93038576D01*
X182271108Y-92941723D01*
X182110048Y-92875010D01*
X181939068Y-92841000D01*
X181764738Y-92841000D01*
X181593758Y-92875010D01*
X181470903Y-92925898D01*
X181470903Y-92245413D01*
X186512065Y-92245413D01*
X186444677Y-92408102D01*
G37*
%TD.AperFunction*%
%TD*%
D21*
%TO.N,/LTC6810/CellBalance5*%
X191376903Y-93726000D02*
X191395863Y-93880010D01*
X191649863Y-94896010D01*
X191690349Y-95010258D01*
X191753742Y-95117388D01*
X191836818Y-95210093D01*
X193802778Y-97012223D01*
X193810304Y-97037034D01*
X193948197Y-97295014D01*
X194133769Y-97521134D01*
X194359889Y-97706706D01*
X194617869Y-97844599D01*
X194756800Y-97886744D01*
X194884818Y-98004093D01*
X194961116Y-98063983D01*
X195070899Y-98122664D01*
X195190021Y-98158799D01*
X195313903Y-98171000D01*
X199250903Y-98171000D01*
X199250903Y-99949000D01*
X194860646Y-99949000D01*
X194551287Y-99621443D01*
X194531129Y-99520102D01*
X194453108Y-99331744D01*
X194339840Y-99162226D01*
X194195677Y-99018063D01*
X194026159Y-98904795D01*
X193837801Y-98826774D01*
X193792199Y-98817703D01*
X193262462Y-98256805D01*
X193261129Y-98250102D01*
X193183108Y-98061744D01*
X193069840Y-97892226D01*
X192925677Y-97748063D01*
X192756159Y-97634795D01*
X192622862Y-97579581D01*
X191939915Y-96856461D01*
X191913108Y-96791744D01*
X191799840Y-96622226D01*
X191655677Y-96478063D01*
X191486159Y-96364795D01*
X191468755Y-96357586D01*
X190614903Y-95453507D01*
X190614903Y-93345000D01*
X191376903Y-93345000D01*
X191376903Y-93726000D01*
%TA.AperFunction,Conductor*%
D26*
G36*
X191376903Y-93726000D02*
G01*
X191395863Y-93880010D01*
X191649863Y-94896010D01*
X191690349Y-95010258D01*
X191753742Y-95117388D01*
X191836818Y-95210093D01*
X193802778Y-97012223D01*
X193810304Y-97037034D01*
X193948197Y-97295014D01*
X194133769Y-97521134D01*
X194359889Y-97706706D01*
X194617869Y-97844599D01*
X194756800Y-97886744D01*
X194884818Y-98004093D01*
X194961116Y-98063983D01*
X195070899Y-98122664D01*
X195190021Y-98158799D01*
X195313903Y-98171000D01*
X199250903Y-98171000D01*
X199250903Y-99949000D01*
X194860646Y-99949000D01*
X194551287Y-99621443D01*
X194531129Y-99520102D01*
X194453108Y-99331744D01*
X194339840Y-99162226D01*
X194195677Y-99018063D01*
X194026159Y-98904795D01*
X193837801Y-98826774D01*
X193792199Y-98817703D01*
X193262462Y-98256805D01*
X193261129Y-98250102D01*
X193183108Y-98061744D01*
X193069840Y-97892226D01*
X192925677Y-97748063D01*
X192756159Y-97634795D01*
X192622862Y-97579581D01*
X191939915Y-96856461D01*
X191913108Y-96791744D01*
X191799840Y-96622226D01*
X191655677Y-96478063D01*
X191486159Y-96364795D01*
X191468755Y-96357586D01*
X190614903Y-95453507D01*
X190614903Y-93345000D01*
X191376903Y-93345000D01*
X191376903Y-93726000D01*
G37*
%TD.AperFunction*%
%TD*%
D21*
%TO.N,/LTC6810/CellBalance5*%
X177152903Y-89916000D02*
X177165104Y-90039882D01*
X177201239Y-90159004D01*
X177259920Y-90268787D01*
X177338890Y-90365013D01*
X177435116Y-90443983D01*
X177544899Y-90502664D01*
X177664021Y-90538799D01*
X177787903Y-90551000D01*
X181371745Y-90551000D01*
X181242242Y-91069013D01*
X181220021Y-91071201D01*
X181100899Y-91107336D01*
X180991116Y-91166017D01*
X180894890Y-91244987D01*
X180815920Y-91341213D01*
X180757239Y-91450996D01*
X180721104Y-91570118D01*
X180708903Y-91694000D01*
X180708903Y-98933000D01*
X179184903Y-98933000D01*
X179184903Y-91948000D01*
X179182463Y-91923224D01*
X179175236Y-91899399D01*
X179163500Y-91877443D01*
X179147706Y-91858197D01*
X179128460Y-91842403D01*
X179106504Y-91830667D01*
X179082679Y-91823440D01*
X179057903Y-91821000D01*
X176563883Y-91821000D01*
X175075206Y-90580436D01*
X175054610Y-90566449D01*
X175031681Y-90556749D01*
X175007301Y-90551709D01*
X174993903Y-90551000D01*
X174155374Y-90551000D01*
X174113162Y-90522795D01*
X173924804Y-90444774D01*
X173724845Y-90405000D01*
X173596903Y-90405000D01*
X173596903Y-80899000D01*
X177152903Y-80899000D01*
X177152903Y-89916000D01*
%TA.AperFunction,Conductor*%
D26*
G36*
X177152903Y-89916000D02*
G01*
X177165104Y-90039882D01*
X177201239Y-90159004D01*
X177259920Y-90268787D01*
X177338890Y-90365013D01*
X177435116Y-90443983D01*
X177544899Y-90502664D01*
X177664021Y-90538799D01*
X177787903Y-90551000D01*
X181371745Y-90551000D01*
X181242242Y-91069013D01*
X181220021Y-91071201D01*
X181100899Y-91107336D01*
X180991116Y-91166017D01*
X180894890Y-91244987D01*
X180815920Y-91341213D01*
X180757239Y-91450996D01*
X180721104Y-91570118D01*
X180708903Y-91694000D01*
X180708903Y-98933000D01*
X179184903Y-98933000D01*
X179184903Y-91948000D01*
X179182463Y-91923224D01*
X179175236Y-91899399D01*
X179163500Y-91877443D01*
X179147706Y-91858197D01*
X179128460Y-91842403D01*
X179106504Y-91830667D01*
X179082679Y-91823440D01*
X179057903Y-91821000D01*
X176563883Y-91821000D01*
X175075206Y-90580436D01*
X175054610Y-90566449D01*
X175031681Y-90556749D01*
X175007301Y-90551709D01*
X174993903Y-90551000D01*
X174155374Y-90551000D01*
X174113162Y-90522795D01*
X173924804Y-90444774D01*
X173724845Y-90405000D01*
X173596903Y-90405000D01*
X173596903Y-80899000D01*
X177152903Y-80899000D01*
X177152903Y-89916000D01*
G37*
%TD.AperFunction*%
%TD*%
D21*
%TO.N,/LTC6810/CellBalance6*%
X191884903Y-82525532D02*
X191856698Y-82567744D01*
X191778677Y-82756102D01*
X191738903Y-82956061D01*
X191738903Y-83159939D01*
X191778677Y-83359898D01*
X191856698Y-83548256D01*
X191884903Y-83590468D01*
X191884903Y-83795532D01*
X191856698Y-83837744D01*
X191778677Y-84026102D01*
X191738903Y-84226061D01*
X191738903Y-84429939D01*
X191778677Y-84629898D01*
X191856698Y-84818256D01*
X191884903Y-84860468D01*
X191884903Y-85065532D01*
X191856698Y-85107744D01*
X191778677Y-85296102D01*
X191738903Y-85496061D01*
X191738903Y-85699939D01*
X191778677Y-85899898D01*
X191856698Y-86088256D01*
X191884903Y-86130468D01*
X191884903Y-86335532D01*
X191856698Y-86377744D01*
X191778677Y-86566102D01*
X191738903Y-86766061D01*
X191738903Y-86969939D01*
X191778677Y-87169898D01*
X191856698Y-87358256D01*
X191884903Y-87400468D01*
X191884903Y-87605532D01*
X191856698Y-87647744D01*
X191778677Y-87836102D01*
X191738903Y-88036061D01*
X191738903Y-88239939D01*
X191778677Y-88439898D01*
X191856698Y-88628256D01*
X191884903Y-88670468D01*
X191884903Y-89154000D01*
X191887343Y-89178776D01*
X191894570Y-89202601D01*
X191906306Y-89224557D01*
X191922100Y-89243803D01*
X193770903Y-91092606D01*
X193770903Y-91287939D01*
X193810677Y-91487898D01*
X193888698Y-91676256D01*
X193900554Y-91694000D01*
X193888698Y-91711744D01*
X193810677Y-91900102D01*
X193770903Y-92100061D01*
X193770903Y-92303939D01*
X193810677Y-92503898D01*
X193888698Y-92692256D01*
X193916903Y-92734468D01*
X193916903Y-93195533D01*
X193810304Y-93394966D01*
X193725390Y-93674889D01*
X193696718Y-93966000D01*
X193725390Y-94257111D01*
X193810304Y-94537034D01*
X193948197Y-94795014D01*
X194133769Y-95021134D01*
X194359889Y-95206706D01*
X194617869Y-95344599D01*
X194897792Y-95429513D01*
X195077511Y-95447214D01*
X195224100Y-95593803D01*
X195243346Y-95609597D01*
X195265302Y-95621333D01*
X195289127Y-95628560D01*
X195313903Y-95631000D01*
X199250903Y-95631000D01*
X199250903Y-97409000D01*
X195363304Y-97409000D01*
X192467085Y-94754133D01*
X192470393Y-94720547D01*
X192470393Y-92216345D01*
X192477093Y-92148316D01*
X192470393Y-92080287D01*
X192470393Y-92080279D01*
X192450353Y-91876809D01*
X192440551Y-91844494D01*
X192371157Y-91615735D01*
X192242550Y-91375128D01*
X192069474Y-91164235D01*
X192016629Y-91120866D01*
X190824944Y-89929182D01*
X190781571Y-89876332D01*
X190570678Y-89703256D01*
X190330071Y-89574649D01*
X190068997Y-89495453D01*
X189865527Y-89475413D01*
X189865519Y-89475413D01*
X189797490Y-89468713D01*
X189729461Y-89475413D01*
X183248903Y-89475413D01*
X183248903Y-82931000D01*
X184391903Y-82931000D01*
X184416679Y-82928560D01*
X184440504Y-82921333D01*
X184462460Y-82909597D01*
X184481706Y-82893803D01*
X184497500Y-82874557D01*
X184509236Y-82852601D01*
X184516463Y-82828776D01*
X184518903Y-82804000D01*
X184518903Y-80899000D01*
X191884903Y-80899000D01*
X191884903Y-82525532D01*
%TA.AperFunction,Conductor*%
D26*
G36*
X191884903Y-82525532D02*
G01*
X191856698Y-82567744D01*
X191778677Y-82756102D01*
X191738903Y-82956061D01*
X191738903Y-83159939D01*
X191778677Y-83359898D01*
X191856698Y-83548256D01*
X191884903Y-83590468D01*
X191884903Y-83795532D01*
X191856698Y-83837744D01*
X191778677Y-84026102D01*
X191738903Y-84226061D01*
X191738903Y-84429939D01*
X191778677Y-84629898D01*
X191856698Y-84818256D01*
X191884903Y-84860468D01*
X191884903Y-85065532D01*
X191856698Y-85107744D01*
X191778677Y-85296102D01*
X191738903Y-85496061D01*
X191738903Y-85699939D01*
X191778677Y-85899898D01*
X191856698Y-86088256D01*
X191884903Y-86130468D01*
X191884903Y-86335532D01*
X191856698Y-86377744D01*
X191778677Y-86566102D01*
X191738903Y-86766061D01*
X191738903Y-86969939D01*
X191778677Y-87169898D01*
X191856698Y-87358256D01*
X191884903Y-87400468D01*
X191884903Y-87605532D01*
X191856698Y-87647744D01*
X191778677Y-87836102D01*
X191738903Y-88036061D01*
X191738903Y-88239939D01*
X191778677Y-88439898D01*
X191856698Y-88628256D01*
X191884903Y-88670468D01*
X191884903Y-89154000D01*
X191887343Y-89178776D01*
X191894570Y-89202601D01*
X191906306Y-89224557D01*
X191922100Y-89243803D01*
X193770903Y-91092606D01*
X193770903Y-91287939D01*
X193810677Y-91487898D01*
X193888698Y-91676256D01*
X193900554Y-91694000D01*
X193888698Y-91711744D01*
X193810677Y-91900102D01*
X193770903Y-92100061D01*
X193770903Y-92303939D01*
X193810677Y-92503898D01*
X193888698Y-92692256D01*
X193916903Y-92734468D01*
X193916903Y-93195533D01*
X193810304Y-93394966D01*
X193725390Y-93674889D01*
X193696718Y-93966000D01*
X193725390Y-94257111D01*
X193810304Y-94537034D01*
X193948197Y-94795014D01*
X194133769Y-95021134D01*
X194359889Y-95206706D01*
X194617869Y-95344599D01*
X194897792Y-95429513D01*
X195077511Y-95447214D01*
X195224100Y-95593803D01*
X195243346Y-95609597D01*
X195265302Y-95621333D01*
X195289127Y-95628560D01*
X195313903Y-95631000D01*
X199250903Y-95631000D01*
X199250903Y-97409000D01*
X195363304Y-97409000D01*
X192467085Y-94754133D01*
X192470393Y-94720547D01*
X192470393Y-92216345D01*
X192477093Y-92148316D01*
X192470393Y-92080287D01*
X192470393Y-92080279D01*
X192450353Y-91876809D01*
X192440551Y-91844494D01*
X192371157Y-91615735D01*
X192242550Y-91375128D01*
X192069474Y-91164235D01*
X192016629Y-91120866D01*
X190824944Y-89929182D01*
X190781571Y-89876332D01*
X190570678Y-89703256D01*
X190330071Y-89574649D01*
X190068997Y-89495453D01*
X189865527Y-89475413D01*
X189865519Y-89475413D01*
X189797490Y-89468713D01*
X189729461Y-89475413D01*
X183248903Y-89475413D01*
X183248903Y-82931000D01*
X184391903Y-82931000D01*
X184416679Y-82928560D01*
X184440504Y-82921333D01*
X184462460Y-82909597D01*
X184481706Y-82893803D01*
X184497500Y-82874557D01*
X184509236Y-82852601D01*
X184516463Y-82828776D01*
X184518903Y-82804000D01*
X184518903Y-80899000D01*
X191884903Y-80899000D01*
X191884903Y-82525532D01*
G37*
%TD.AperFunction*%
%TD*%
D21*
%TO.N,Net-(D14-Pad1)*%
X183756903Y-82169000D02*
X183121903Y-82169000D01*
X182998021Y-82181201D01*
X182878899Y-82217336D01*
X182769116Y-82276017D01*
X182672890Y-82354987D01*
X182617074Y-82423000D01*
X181597903Y-82423000D01*
X181573127Y-82425440D01*
X181549302Y-82432667D01*
X181527346Y-82444403D01*
X181508100Y-82460197D01*
X181492306Y-82479443D01*
X181480570Y-82501399D01*
X181473343Y-82525224D01*
X181470903Y-82550000D01*
X181470903Y-89475413D01*
X180585453Y-89475413D01*
X180381983Y-89495453D01*
X180120909Y-89574649D01*
X179880302Y-89703256D01*
X179775823Y-89789000D01*
X179082371Y-89789000D01*
X179040159Y-89760795D01*
X178851801Y-89682774D01*
X178651842Y-89643000D01*
X178447964Y-89643000D01*
X178248005Y-89682774D01*
X178059647Y-89760795D01*
X178017435Y-89789000D01*
X177988363Y-89789000D01*
X178021129Y-89709898D01*
X178060903Y-89509939D01*
X178060903Y-89306061D01*
X178021129Y-89106102D01*
X177943108Y-88917744D01*
X177914903Y-88875532D01*
X177914903Y-88670468D01*
X177943108Y-88628256D01*
X178021129Y-88439898D01*
X178060903Y-88239939D01*
X178060903Y-88036061D01*
X178021129Y-87836102D01*
X177943108Y-87647744D01*
X177914903Y-87605532D01*
X177914903Y-87400468D01*
X177943108Y-87358256D01*
X178021129Y-87169898D01*
X178060903Y-86969939D01*
X178060903Y-86766061D01*
X178021129Y-86566102D01*
X177943108Y-86377744D01*
X177914903Y-86335532D01*
X177914903Y-86130468D01*
X177943108Y-86088256D01*
X178021129Y-85899898D01*
X178060903Y-85699939D01*
X178060903Y-85496061D01*
X178021129Y-85296102D01*
X177943108Y-85107744D01*
X177914903Y-85065532D01*
X177914903Y-84860468D01*
X177943108Y-84818256D01*
X178021129Y-84629898D01*
X178060903Y-84429939D01*
X178060903Y-84226061D01*
X178021129Y-84026102D01*
X177943108Y-83837744D01*
X177914903Y-83795532D01*
X177914903Y-83590468D01*
X177943108Y-83548256D01*
X178021129Y-83359898D01*
X178060903Y-83159939D01*
X178060903Y-82956061D01*
X178021129Y-82756102D01*
X177943108Y-82567744D01*
X177914903Y-82525532D01*
X177914903Y-80899000D01*
X183756903Y-80899000D01*
X183756903Y-82169000D01*
%TA.AperFunction,Conductor*%
D26*
G36*
X183756903Y-82169000D02*
G01*
X183121903Y-82169000D01*
X182998021Y-82181201D01*
X182878899Y-82217336D01*
X182769116Y-82276017D01*
X182672890Y-82354987D01*
X182617074Y-82423000D01*
X181597903Y-82423000D01*
X181573127Y-82425440D01*
X181549302Y-82432667D01*
X181527346Y-82444403D01*
X181508100Y-82460197D01*
X181492306Y-82479443D01*
X181480570Y-82501399D01*
X181473343Y-82525224D01*
X181470903Y-82550000D01*
X181470903Y-89475413D01*
X180585453Y-89475413D01*
X180381983Y-89495453D01*
X180120909Y-89574649D01*
X179880302Y-89703256D01*
X179775823Y-89789000D01*
X179082371Y-89789000D01*
X179040159Y-89760795D01*
X178851801Y-89682774D01*
X178651842Y-89643000D01*
X178447964Y-89643000D01*
X178248005Y-89682774D01*
X178059647Y-89760795D01*
X178017435Y-89789000D01*
X177988363Y-89789000D01*
X178021129Y-89709898D01*
X178060903Y-89509939D01*
X178060903Y-89306061D01*
X178021129Y-89106102D01*
X177943108Y-88917744D01*
X177914903Y-88875532D01*
X177914903Y-88670468D01*
X177943108Y-88628256D01*
X178021129Y-88439898D01*
X178060903Y-88239939D01*
X178060903Y-88036061D01*
X178021129Y-87836102D01*
X177943108Y-87647744D01*
X177914903Y-87605532D01*
X177914903Y-87400468D01*
X177943108Y-87358256D01*
X178021129Y-87169898D01*
X178060903Y-86969939D01*
X178060903Y-86766061D01*
X178021129Y-86566102D01*
X177943108Y-86377744D01*
X177914903Y-86335532D01*
X177914903Y-86130468D01*
X177943108Y-86088256D01*
X178021129Y-85899898D01*
X178060903Y-85699939D01*
X178060903Y-85496061D01*
X178021129Y-85296102D01*
X177943108Y-85107744D01*
X177914903Y-85065532D01*
X177914903Y-84860468D01*
X177943108Y-84818256D01*
X178021129Y-84629898D01*
X178060903Y-84429939D01*
X178060903Y-84226061D01*
X178021129Y-84026102D01*
X177943108Y-83837744D01*
X177914903Y-83795532D01*
X177914903Y-83590468D01*
X177943108Y-83548256D01*
X178021129Y-83359898D01*
X178060903Y-83159939D01*
X178060903Y-82956061D01*
X178021129Y-82756102D01*
X177943108Y-82567744D01*
X177914903Y-82525532D01*
X177914903Y-80899000D01*
X183756903Y-80899000D01*
X183756903Y-82169000D01*
G37*
%TD.AperFunction*%
%TD*%
D21*
%TO.N,Net-(D16-Pad1)*%
X199315000Y-82169000D02*
X196075903Y-82169000D01*
X196051127Y-82171440D01*
X196027302Y-82178667D01*
X196005346Y-82190403D01*
X195986100Y-82206197D01*
X195970306Y-82225443D01*
X195958570Y-82247399D01*
X195951343Y-82271224D01*
X195948903Y-82296000D01*
X195948903Y-88080174D01*
X195944313Y-88091255D01*
X195910303Y-88262235D01*
X195910303Y-88436565D01*
X195944313Y-88607545D01*
X195948903Y-88618626D01*
X195948903Y-90155985D01*
X195774005Y-90190774D01*
X195585647Y-90268795D01*
X195543435Y-90297000D01*
X195338371Y-90297000D01*
X195296159Y-90268795D01*
X195107801Y-90190774D01*
X194907842Y-90151000D01*
X194703964Y-90151000D01*
X194504005Y-90190774D01*
X194315647Y-90268795D01*
X194273435Y-90297000D01*
X194052929Y-90297000D01*
X192646903Y-88890974D01*
X192646903Y-80899000D01*
X199315000Y-80899000D01*
X199315000Y-82169000D01*
%TA.AperFunction,Conductor*%
D26*
G36*
X199315000Y-82169000D02*
G01*
X196075903Y-82169000D01*
X196051127Y-82171440D01*
X196027302Y-82178667D01*
X196005346Y-82190403D01*
X195986100Y-82206197D01*
X195970306Y-82225443D01*
X195958570Y-82247399D01*
X195951343Y-82271224D01*
X195948903Y-82296000D01*
X195948903Y-88080174D01*
X195944313Y-88091255D01*
X195910303Y-88262235D01*
X195910303Y-88436565D01*
X195944313Y-88607545D01*
X195948903Y-88618626D01*
X195948903Y-90155985D01*
X195774005Y-90190774D01*
X195585647Y-90268795D01*
X195543435Y-90297000D01*
X195338371Y-90297000D01*
X195296159Y-90268795D01*
X195107801Y-90190774D01*
X194907842Y-90151000D01*
X194703964Y-90151000D01*
X194504005Y-90190774D01*
X194315647Y-90268795D01*
X194273435Y-90297000D01*
X194052929Y-90297000D01*
X192646903Y-88890974D01*
X192646903Y-80899000D01*
X199315000Y-80899000D01*
X199315000Y-82169000D01*
G37*
%TD.AperFunction*%
%TD*%
D21*
%TO.N,Net-(D10-Pad1)*%
X186550903Y-103099532D02*
X186522698Y-103141744D01*
X186444677Y-103330102D01*
X186404903Y-103530061D01*
X186404903Y-103733939D01*
X186444677Y-103933898D01*
X186522698Y-104122256D01*
X186550903Y-104164468D01*
X186550903Y-104369532D01*
X186522698Y-104411744D01*
X186444677Y-104600102D01*
X186404903Y-104800061D01*
X186404903Y-105003939D01*
X186444677Y-105203898D01*
X186522698Y-105392256D01*
X186550903Y-105434468D01*
X186550903Y-105639532D01*
X186522698Y-105681744D01*
X186444677Y-105870102D01*
X186404903Y-106070061D01*
X186404903Y-106273939D01*
X186444677Y-106473898D01*
X186522698Y-106662256D01*
X186550903Y-106704468D01*
X186550903Y-106909532D01*
X186522698Y-106951744D01*
X186444677Y-107140102D01*
X186404903Y-107340061D01*
X186404903Y-107543939D01*
X186444677Y-107743898D01*
X186522698Y-107932256D01*
X186550903Y-107974468D01*
X186550903Y-108179532D01*
X186522698Y-108221744D01*
X186444677Y-108410102D01*
X186404903Y-108610061D01*
X186404903Y-108813939D01*
X186444677Y-109013898D01*
X186522698Y-109202256D01*
X186550903Y-109244468D01*
X186550903Y-109449532D01*
X186522698Y-109491744D01*
X186444677Y-109680102D01*
X186404903Y-109880061D01*
X186404903Y-110083939D01*
X186444677Y-110283898D01*
X186522698Y-110472256D01*
X186550903Y-110514468D01*
X186550903Y-111887000D01*
X179438903Y-111887000D01*
X179438903Y-107512967D01*
X181440729Y-106281074D01*
X181510738Y-106295000D01*
X181685068Y-106295000D01*
X181856048Y-106260990D01*
X182017108Y-106194277D01*
X182162058Y-106097424D01*
X182285327Y-105974155D01*
X182382180Y-105829205D01*
X182448893Y-105668145D01*
X182450588Y-105659622D01*
X182680463Y-105518161D01*
X182700286Y-105503097D01*
X182716788Y-105484456D01*
X182729337Y-105462953D01*
X182737449Y-105439416D01*
X182740903Y-105410000D01*
X182740903Y-102997000D01*
X186550903Y-102997000D01*
X186550903Y-103099532D01*
%TA.AperFunction,Conductor*%
D26*
G36*
X186550903Y-103099532D02*
G01*
X186522698Y-103141744D01*
X186444677Y-103330102D01*
X186404903Y-103530061D01*
X186404903Y-103733939D01*
X186444677Y-103933898D01*
X186522698Y-104122256D01*
X186550903Y-104164468D01*
X186550903Y-104369532D01*
X186522698Y-104411744D01*
X186444677Y-104600102D01*
X186404903Y-104800061D01*
X186404903Y-105003939D01*
X186444677Y-105203898D01*
X186522698Y-105392256D01*
X186550903Y-105434468D01*
X186550903Y-105639532D01*
X186522698Y-105681744D01*
X186444677Y-105870102D01*
X186404903Y-106070061D01*
X186404903Y-106273939D01*
X186444677Y-106473898D01*
X186522698Y-106662256D01*
X186550903Y-106704468D01*
X186550903Y-106909532D01*
X186522698Y-106951744D01*
X186444677Y-107140102D01*
X186404903Y-107340061D01*
X186404903Y-107543939D01*
X186444677Y-107743898D01*
X186522698Y-107932256D01*
X186550903Y-107974468D01*
X186550903Y-108179532D01*
X186522698Y-108221744D01*
X186444677Y-108410102D01*
X186404903Y-108610061D01*
X186404903Y-108813939D01*
X186444677Y-109013898D01*
X186522698Y-109202256D01*
X186550903Y-109244468D01*
X186550903Y-109449532D01*
X186522698Y-109491744D01*
X186444677Y-109680102D01*
X186404903Y-109880061D01*
X186404903Y-110083939D01*
X186444677Y-110283898D01*
X186522698Y-110472256D01*
X186550903Y-110514468D01*
X186550903Y-111887000D01*
X179438903Y-111887000D01*
X179438903Y-107512967D01*
X181440729Y-106281074D01*
X181510738Y-106295000D01*
X181685068Y-106295000D01*
X181856048Y-106260990D01*
X182017108Y-106194277D01*
X182162058Y-106097424D01*
X182285327Y-105974155D01*
X182382180Y-105829205D01*
X182448893Y-105668145D01*
X182450588Y-105659622D01*
X182680463Y-105518161D01*
X182700286Y-105503097D01*
X182716788Y-105484456D01*
X182729337Y-105462953D01*
X182737449Y-105439416D01*
X182740903Y-105410000D01*
X182740903Y-102997000D01*
X186550903Y-102997000D01*
X186550903Y-103099532D01*
G37*
%TD.AperFunction*%
%TD*%
D21*
%TO.N,VCC*%
X125590903Y-110184403D02*
X121780903Y-110160591D01*
X121780903Y-108178600D01*
X125590903Y-108178600D01*
X125590903Y-110184403D01*
%TA.AperFunction,Conductor*%
D26*
G36*
X125590903Y-110184403D02*
G01*
X121780903Y-110160591D01*
X121780903Y-108178600D01*
X125590903Y-108178600D01*
X125590903Y-110184403D01*
G37*
%TD.AperFunction*%
%TD*%
M02*
