M48
; DRILL file {KiCad (5.1.10)-1} date 01/24/22 18:42:48
; FORMAT={-:-/ absolute / inch / decimal}
; #@! TF.CreationDate,2022-01-24T18:42:48+01:00
; #@! TF.GenerationSoftware,Kicad,Pcbnew,(5.1.10)-1
; #@! TF.FileFunction,Plated,1,4,PTH
FMAT,2
INCH
T1C0.0118
T2C0.0157
T3C0.0315
T4C0.0374
T5C0.0394
T6C0.0630
T7C0.0650
%
G90
G05
T1
X4.6095Y-3.319
X4.6385Y-3.179
X4.6965Y-3.442
X4.7245Y-3.3
X4.8505Y-3.589
X4.98Y-4.5276
X4.98Y-4.5788
X4.98Y-4.63
X4.98Y-4.6812
X5.0095Y-4.21
X5.0312Y-4.5276
X5.0312Y-4.5788
X5.0312Y-4.63
X5.0312Y-4.6812
X5.1595Y-4.27
X5.3195Y-4.162
X5.3195Y-4.22
X5.4295Y-3.79
X5.4295Y-3.85
X5.4995Y-4.1393
X5.6145Y-3.58
X5.617Y-3.6275
X5.6895Y-4.11
X5.6897Y-3.5311
X5.6945Y-3.7025
X5.7045Y-4.245
X5.7295Y-4.05
X5.7495Y-3.93
X5.7795Y-3.97
X5.8068Y-3.9927
X5.8495Y-4.52
X5.8499Y-4.4196
X5.8502Y-4.3893
X5.8695Y-4.25
X5.8745Y-4.3683
X5.8895Y-3.343
X5.8895Y-4.44
X5.9495Y-3.37
X5.9583Y-4.11
X5.9595Y-3.4979
X5.9712Y-3.8083
X6.0095Y-3.99
X6.1495Y-4.02
X6.1495Y-4.06
X6.2095Y-4.075
X6.2195Y-4.1305
X6.2795Y-3.8
X6.2795Y-3.83
X6.2795Y-3.86
X6.2795Y-3.89
X6.3945Y-4.49
X6.4135Y-4.308
X6.4195Y-4.385
X6.4395Y-4.01
X6.4595Y-4.385
X6.4995Y-3.59
X6.5145Y-4.49
X6.5468Y-3.5673
X6.5648Y-4.0947
X6.5655Y-4.1359
X6.6095Y-4.48
X6.7195Y-4.1
X6.7595Y-4.1
X6.7795Y-4.48
X6.7845Y-4.805
X6.7895Y-4.24
X6.8455Y-4.46
X6.8795Y-4.47
X6.9356Y-4.6002
X6.9595Y-4.1568
X6.9845Y-4.12
X6.9895Y-3.9766
X7.0095Y-4.0947
X7.0195Y-3.9372
X7.0195Y-4.0159
X7.0795Y-4.0553
X7.1495Y-4.15
X7.1595Y-3.69
X7.1795Y-3.48
X7.4995Y-4.6
X7.7478Y-3.4783
T2
X4.3745Y-3.2
X4.3745Y-3.25
X4.3745Y-3.3
X4.3745Y-3.35
X4.3745Y-3.4
X4.3745Y-3.45
X4.3745Y-3.5
X4.3745Y-3.55
X4.3745Y-3.6
X4.3745Y-3.65
X4.3745Y-3.7
X4.3895Y-3.83
X4.3895Y-3.87
X4.3895Y-3.91
X4.3895Y-3.95
X4.3895Y-3.99
X4.3895Y-4.03
X4.3895Y-4.07
X4.3895Y-4.11
X4.3895Y-4.15
X4.3895Y-4.19
X4.3895Y-4.23
X4.3895Y-4.27
X4.3895Y-4.31
X4.3895Y-4.35
X4.3895Y-4.39
X4.3895Y-4.43
X4.3895Y-4.47
X4.3895Y-4.51
X4.3895Y-4.55
X4.3895Y-4.59
X4.3895Y-4.63
X4.3895Y-4.73
X4.3895Y-4.77
X4.3895Y-4.81
X4.3895Y-4.85
X4.4245Y-3.2
X4.4245Y-3.25
X4.4245Y-3.3
X4.4245Y-3.35
X4.4245Y-3.4
X4.4245Y-3.45
X4.4245Y-3.5
X4.4245Y-3.55
X4.4245Y-3.6
X4.4245Y-3.65
X4.4245Y-3.7
X4.4295Y-3.83
X4.4295Y-3.87
X4.4295Y-3.91
X4.4295Y-3.95
X4.4295Y-3.99
X4.4295Y-4.03
X4.4295Y-4.07
X4.4295Y-4.11
X4.4295Y-4.15
X4.4295Y-4.19
X4.4295Y-4.23
X4.4295Y-4.27
X4.4295Y-4.31
X4.4295Y-4.35
X4.4295Y-4.39
X4.4295Y-4.43
X4.4295Y-4.47
X4.4295Y-4.51
X4.4295Y-4.55
X4.4295Y-4.59
X4.4295Y-4.63
X4.4295Y-4.73
X4.4295Y-4.77
X4.4295Y-4.81
X4.4295Y-4.85
X4.4695Y-3.83
X4.4695Y-3.87
X4.4695Y-3.91
X4.4695Y-3.95
X4.4695Y-3.99
X4.4695Y-4.03
X4.4695Y-4.07
X4.4695Y-4.11
X4.4695Y-4.15
X4.4695Y-4.19
X4.4695Y-4.23
X4.4695Y-4.27
X4.4695Y-4.31
X4.4695Y-4.35
X4.4695Y-4.39
X4.4695Y-4.43
X4.4695Y-4.47
X4.4695Y-4.51
X4.4695Y-4.55
X4.4695Y-4.59
X4.4695Y-4.63
X4.4695Y-4.73
X4.4695Y-4.77
X4.4695Y-4.81
X4.4695Y-4.85
X4.4745Y-3.2
X4.4745Y-3.25
X4.4745Y-3.3
X4.4745Y-3.35
X4.4745Y-3.4
X4.4745Y-3.45
X4.4745Y-3.5
X4.4745Y-3.55
X4.4745Y-3.6
X4.4745Y-3.65
X4.4745Y-3.7
X4.5095Y-3.83
X4.5095Y-3.87
X4.5095Y-3.91
X4.5095Y-3.95
X4.5095Y-3.99
X4.5095Y-4.03
X4.5095Y-4.07
X4.5095Y-4.11
X4.5095Y-4.15
X4.5095Y-4.19
X4.5095Y-4.23
X4.5095Y-4.27
X4.5095Y-4.31
X4.5095Y-4.35
X4.5095Y-4.39
X4.5095Y-4.43
X4.5095Y-4.47
X4.5095Y-4.51
X4.5095Y-4.55
X4.5095Y-4.59
X4.5095Y-4.63
X4.5095Y-4.73
X4.5095Y-4.77
X4.5095Y-4.81
X4.5095Y-4.85
X4.5245Y-3.5
X4.5245Y-3.55
X4.5245Y-3.6
X4.5245Y-3.65
X4.5245Y-3.7
X4.5495Y-3.83
X4.5495Y-3.87
X4.5495Y-3.91
X4.5495Y-3.95
X4.5495Y-3.99
X4.5495Y-4.03
X4.5495Y-4.07
X4.5495Y-4.11
X4.5495Y-4.15
X4.5495Y-4.19
X4.5495Y-4.23
X4.5495Y-4.27
X4.5495Y-4.31
X4.5495Y-4.35
X4.5495Y-4.39
X4.5495Y-4.43
X4.5495Y-4.47
X4.5495Y-4.51
X4.5495Y-4.55
X4.5495Y-4.59
X4.5495Y-4.63
X4.5495Y-4.73
X4.5495Y-4.77
X4.5495Y-4.81
X4.5495Y-4.85
X4.5745Y-3.5
X4.5745Y-3.55
X4.5745Y-3.6
X4.5745Y-3.65
X4.5745Y-3.7
X4.5895Y-3.83
X4.5895Y-3.87
X4.5895Y-3.91
X4.5895Y-3.95
X4.5895Y-3.99
X4.5895Y-4.03
X4.5895Y-4.07
X4.5895Y-4.11
X4.5895Y-4.15
X4.5895Y-4.19
X4.5895Y-4.23
X4.5895Y-4.27
X4.5895Y-4.31
X4.5895Y-4.35
X4.5895Y-4.39
X4.5895Y-4.43
X4.5895Y-4.47
X4.5895Y-4.51
X4.5895Y-4.55
X4.5895Y-4.59
X4.5895Y-4.63
X4.5895Y-4.73
X4.5895Y-4.77
X4.5895Y-4.81
X4.5895Y-4.85
X4.6245Y-3.5
X4.6245Y-3.55
X4.6245Y-3.6
X4.6245Y-3.65
X4.6245Y-3.7
X4.6295Y-4.19
X4.6295Y-4.23
X4.6295Y-4.27
X4.6295Y-4.31
X4.6295Y-4.35
X4.6295Y-4.39
X4.6295Y-4.43
X4.6295Y-4.47
X4.6295Y-4.51
X4.6295Y-4.55
X4.6295Y-4.59
X4.6295Y-4.63
X4.6295Y-4.73
X4.6295Y-4.77
X4.6295Y-4.81
X4.6295Y-4.85
X4.6695Y-4.23
X4.6695Y-4.27
X4.6695Y-4.31
X4.6695Y-4.73
X4.6695Y-4.77
X4.6695Y-4.81
X4.6695Y-4.85
X4.7095Y-4.27
X4.7095Y-4.31
X4.7095Y-4.73
X4.7095Y-4.77
X4.7095Y-4.81
X4.7095Y-4.85
X4.7495Y-4.73
X4.7495Y-4.77
X4.7495Y-4.81
X4.7495Y-4.85
X4.7895Y-4.73
X4.7895Y-4.77
X4.7895Y-4.81
X4.7895Y-4.85
X4.7995Y-3.93
X4.8095Y-3.88
X4.8095Y-4.32
X4.8195Y-3.83
X4.8295Y-3.78
X4.8295Y-4.73
X4.8295Y-4.77
X4.8295Y-4.81
X4.8295Y-4.85
X4.8595Y-3.91
X4.8695Y-3.86
X4.8695Y-4.27
X4.8695Y-4.73
X4.8695Y-4.77
X4.8695Y-4.81
X4.8695Y-4.85
X4.8745Y-3.2
X4.8745Y-3.25
X4.8745Y-3.3
X4.8745Y-3.35
X4.8745Y-3.4
X4.8795Y-3.66
X4.8795Y-3.81
X4.9095Y-3.93
X4.9095Y-4.73
X4.9095Y-4.77
X4.9095Y-4.81
X4.9095Y-4.85
X4.9195Y-3.88
X4.9245Y-3.3
X4.9295Y-3.65
X4.9295Y-3.83
X4.9295Y-4.27
X4.9295Y-4.32
X4.9495Y-3.79
X4.9495Y-3.95
X4.9495Y-4.73
X4.9495Y-4.77
X4.9495Y-4.81
X4.9495Y-4.85
X4.9595Y-3.69
X4.9695Y-3.87
X4.9795Y-3.64
X4.9795Y-3.74
X4.9895Y-4.73
X4.9895Y-4.77
X4.9895Y-4.81
X4.9895Y-4.85
X4.9995Y-3.79
X4.9995Y-3.83
X4.9995Y-4.0
X4.9995Y-4.05
X4.9995Y-4.1
X5.0095Y-3.69
X5.0395Y-3.63
X5.0495Y-3.81
X5.0495Y-4.0
X5.0495Y-4.05
X5.0495Y-4.1
X5.0595Y-3.67
X5.0745Y-3.2
X5.0745Y-3.25
X5.0745Y-3.3
X5.0745Y-3.35
X5.0745Y-3.4
X5.0995Y-3.69
X5.0995Y-3.875
X5.0995Y-3.95
X5.0995Y-4.0
X5.0995Y-4.05
X5.0995Y-4.1
X5.1045Y-3.63
X5.1095Y-4.37
X5.1195Y-3.74
X5.1245Y-3.2
X5.1245Y-3.25
X5.1245Y-3.3
X5.1245Y-3.35
X5.1245Y-3.4
X5.1395Y-3.67
X5.1478Y-4.3717
X5.1495Y-3.875
X5.1495Y-4.0
X5.1695Y-3.705
X5.1745Y-3.2
X5.1745Y-3.25
X5.1745Y-3.3
X5.1745Y-3.35
X5.1745Y-3.4
X5.1895Y-3.66
X5.1995Y-4.0
X5.2065Y-3.5045
X5.2095Y-3.5625
X5.2295Y-3.63
X5.2295Y-3.7
X5.235Y-3.8713
X5.2425Y-4.65
X5.2495Y-3.2
X5.2495Y-3.25
X5.2495Y-3.3
X5.2495Y-3.35
X5.2495Y-3.4
X5.2495Y-3.45
X5.2995Y-3.2
X5.2995Y-3.25
X5.2995Y-3.3
X5.2995Y-3.35
X5.2995Y-3.4
X5.2995Y-3.45
X5.3195Y-4.29
X5.3195Y-4.33
X5.3495Y-3.2
X5.3495Y-3.25
X5.3495Y-3.3
X5.3495Y-3.35
X5.3495Y-3.4
X5.3495Y-3.45
X5.3695Y-4.29
X5.3695Y-4.33
X5.3995Y-3.2
X5.3995Y-3.25
X5.3995Y-3.3
X5.3995Y-3.35
X5.3995Y-3.4
X5.3995Y-3.45
X5.4195Y-4.29
X5.4195Y-4.33
X5.4495Y-3.3
X5.4495Y-3.45
X5.4845Y-3.927
X5.4855Y-3.885
X5.4995Y-3.45
X5.5095Y-4.32
X5.5495Y-3.45
X5.5595Y-4.87
X5.5695Y-4.32
X5.5745Y-3.2
X5.5745Y-3.3
X5.6045Y-3.826
X5.6101Y-4.8806
X5.6393Y-3.6989
X5.6445Y-3.848
X5.6695Y-4.43
X5.7105Y-3.74
X5.7305Y-4.43
X5.7855Y-4.835
X5.7995Y-4.62
X5.8395Y-4.575
X5.8395Y-4.73
X5.8495Y-4.655
X5.909Y-4.635
X5.9445Y-4.675
X5.9795Y-4.4248
X6.0009Y-3.683
X6.031Y-4.635
X6.0505Y-4.4248
X6.0645Y-4.67
X6.0915Y-3.4167
X6.1495Y-3.2325
X6.1495Y-3.4167
X6.152Y-4.635
X6.1895Y-4.67
X6.1915Y-3.876
X6.1995Y-3.961
X6.2095Y-3.46
X6.2645Y-3.955
X6.273Y-4.635
X6.3095Y-3.39
X6.3095Y-3.43
X6.3195Y-4.19
X6.3245Y-4.635
X6.3495Y-3.47
X6.3595Y-4.19
X6.3645Y-3.722
X6.3895Y-3.42
X6.394Y-4.635
X6.3995Y-4.19
X6.4195Y-4.345
X6.4445Y-4.64
X6.4535Y-3.67
X6.4595Y-4.345
X6.515Y-4.635
X6.5195Y-4.395
X6.5495Y-4.34
X6.5545Y-4.435
X6.5645Y-4.645
X6.5648Y-4.2952
X6.6047Y-3.6
X6.6295Y-3.43
X6.6295Y-3.47
X6.6295Y-3.51
X6.6295Y-3.8
X6.6355Y-4.635
X6.6395Y-3.38
X6.6625Y-3.6
X6.6695Y-3.41
X6.6695Y-3.45
X6.6735Y-4.454
X6.6895Y-3.85
X6.6895Y-4.63
X6.6924Y-3.9471
X6.7195Y-3.41
X6.7195Y-3.45
X6.7205Y-3.6
X6.7295Y-4.46
X6.7395Y-3.99
X6.7545Y-4.635
X6.7795Y-4.03
X6.8095Y-4.64
X6.8355Y-3.6
X6.8895Y-4.29
X6.9295Y-3.27
X6.9295Y-3.32
X6.9295Y-3.37
X6.9295Y-3.42
X6.9295Y-3.47
X6.9295Y-3.52
X6.9295Y-3.57
X6.9545Y-3.6662
X6.9545Y-4.24
X6.9545Y-4.295
X6.9545Y-4.835
X6.9545Y-4.875
X6.9609Y-3.85
X6.9695Y-3.27
X6.9695Y-3.32
X6.9695Y-3.37
X6.9695Y-3.42
X6.9695Y-3.47
X6.9695Y-3.52
X6.9795Y-3.57
X6.9995Y-4.525
X7.0195Y-3.27
X7.0195Y-3.32
X7.0195Y-3.37
X7.0195Y-3.42
X7.0195Y-3.47
X7.0195Y-3.52
X7.0295Y-3.57
X7.0495Y-4.525
X7.0495Y-4.625
X7.0495Y-4.675
X7.0495Y-4.725
X7.0495Y-4.775
X7.0595Y-3.27
X7.0595Y-3.32
X7.0595Y-3.37
X7.0595Y-3.42
X7.0595Y-3.47
X7.0595Y-3.52
X7.0795Y-3.95
X7.0795Y-4.37
X7.0895Y-3.65
X7.0895Y-3.7
X7.0995Y-4.525
X7.0995Y-4.625
X7.0995Y-4.675
X7.0995Y-4.725
X7.0995Y-4.775
X7.1123Y-3.5772
X7.1623Y-3.5772
X7.1695Y-3.95
X7.1695Y-4.37
X7.1745Y-4.525
X7.1745Y-4.575
X7.1745Y-4.625
X7.1745Y-4.675
X7.1745Y-4.725
X7.1745Y-4.775
X7.2123Y-3.5772
X7.2245Y-4.525
X7.2245Y-4.675
X7.2623Y-3.5772
X7.2745Y-4.525
X7.2795Y-3.65
X7.2795Y-3.7
X7.2795Y-3.75
X7.2795Y-3.8
X7.2795Y-3.85
X7.2795Y-3.9
X7.2795Y-4.08
X7.2795Y-4.13
X7.2795Y-4.18
X7.2795Y-4.23
X7.2795Y-4.28
X7.2795Y-4.33
X7.2895Y-3.25
X7.2895Y-3.3
X7.2895Y-3.35
X7.2895Y-3.4
X7.2895Y-3.45
X7.3123Y-3.5772
X7.3245Y-4.525
X7.3245Y-4.575
X7.3245Y-4.625
X7.3245Y-4.675
X7.3245Y-4.725
X7.3245Y-4.775
X7.3245Y-4.835
X7.3245Y-4.875
X7.3295Y-3.65
X7.3295Y-3.7
X7.3295Y-3.75
X7.3295Y-3.8
X7.3295Y-3.85
X7.3295Y-3.9
X7.3295Y-4.08
X7.3295Y-4.13
X7.3295Y-4.18
X7.3295Y-4.23
X7.3295Y-4.28
X7.3295Y-4.33
X7.3395Y-3.25
X7.3395Y-3.3
X7.3395Y-3.35
X7.3395Y-3.4
X7.3395Y-3.45
X7.3623Y-3.5772
X7.3745Y-4.525
X7.3745Y-4.575
X7.3745Y-4.625
X7.3745Y-4.675
X7.3745Y-4.725
X7.3745Y-4.775
X7.3745Y-4.835
X7.3745Y-4.875
X7.3795Y-3.65
X7.3795Y-3.7
X7.3795Y-3.75
X7.3795Y-3.8
X7.3795Y-3.85
X7.3795Y-3.89
X7.3795Y-4.08
X7.3795Y-4.13
X7.3795Y-4.18
X7.3795Y-4.23
X7.3795Y-4.28
X7.3795Y-4.33
X7.3839Y-4.0056
X7.3895Y-3.25
X7.3895Y-3.3
X7.3895Y-3.35
X7.3895Y-3.4
X7.3895Y-3.45
X7.4123Y-3.5772
X7.4195Y-3.65
X7.4195Y-3.7
X7.4195Y-3.75
X7.4195Y-3.8
X7.4195Y-3.85
X7.4195Y-3.89
X7.4195Y-4.08
X7.4195Y-4.13
X7.4195Y-4.18
X7.4195Y-4.23
X7.4195Y-4.28
X7.4245Y-4.475
X7.4245Y-4.525
X7.4245Y-4.575
X7.4295Y-4.01
X7.4745Y-4.425
X7.4745Y-4.475
X7.4745Y-4.525
X7.4795Y-4.01
X7.4995Y-3.27
X7.4995Y-3.32
X7.4995Y-3.37
X7.4995Y-3.42
X7.4995Y-3.47
X7.5195Y-3.51
X7.5195Y-3.83
X7.5195Y-3.88
X7.5195Y-3.93
X7.5195Y-3.98
X7.5195Y-4.08
X7.5195Y-4.12
X7.5195Y-4.16
X7.523Y-3.6665
X7.523Y-3.7265
X7.5245Y-4.375
X7.5245Y-4.425
X7.5245Y-4.475
X7.5395Y-3.27
X7.5395Y-3.32
X7.5395Y-3.37
X7.5395Y-3.42
X7.5395Y-3.47
X7.5555Y-3.543
X7.558Y-3.7715
X7.5695Y-3.88
X7.5695Y-3.93
X7.5695Y-3.98
X7.5695Y-4.08
X7.5695Y-4.12
X7.5745Y-4.175
X7.5745Y-4.225
X7.5745Y-4.375
X7.5745Y-4.425
X7.5895Y-3.27
X7.5895Y-3.32
X7.5895Y-3.37
X7.5895Y-3.42
X7.5895Y-3.47
X7.603Y-3.8165
X7.6095Y-3.69
X7.6195Y-3.93
X7.6195Y-3.98
X7.6195Y-4.08
X7.6195Y-4.12
X7.6245Y-4.175
X7.6245Y-4.225
X7.6245Y-4.475
X7.6245Y-4.525
X7.6245Y-4.575
X7.6245Y-4.625
X7.6245Y-4.675
X7.6245Y-4.725
X7.6245Y-4.775
X7.6295Y-3.27
X7.6295Y-3.32
X7.6295Y-3.37
X7.6295Y-3.42
X7.6295Y-3.47
X7.6295Y-3.52
X7.6295Y-3.74
X7.6695Y-3.59
X7.6695Y-3.63
X7.6745Y-4.425
X7.6745Y-4.475
X7.6745Y-4.525
X7.6745Y-4.575
X7.6745Y-4.625
X7.6745Y-4.675
X7.6745Y-4.725
X7.6745Y-4.775
X7.6745Y-4.825
X7.7195Y-3.59
X7.7195Y-3.63
X7.7245Y-4.375
X7.7245Y-4.425
X7.7245Y-4.475
X7.7245Y-4.525
X7.7245Y-4.575
X7.7245Y-4.625
X7.7245Y-4.675
X7.7245Y-4.725
X7.7245Y-4.775
X7.7245Y-4.825
X7.7395Y-3.21
X7.7695Y-3.59
X7.7695Y-3.63
X7.7695Y-3.67
X7.7695Y-3.71
X7.7695Y-3.78
X7.7695Y-3.82
X7.7695Y-3.88
X7.7695Y-3.92
X7.7695Y-3.98
X7.7695Y-4.02
X7.7695Y-4.08
X7.7695Y-4.12
X7.7695Y-4.18
X7.7695Y-4.22
X7.7745Y-4.275
X7.7745Y-4.325
X7.7745Y-4.375
X7.7745Y-4.425
X7.7745Y-4.475
X7.7745Y-4.525
X7.7745Y-4.575
X7.7745Y-4.625
X7.7745Y-4.675
X7.7745Y-4.725
X7.7745Y-4.775
X7.7995Y-3.45
X7.8195Y-3.49
X7.8195Y-3.54
X7.8195Y-3.59
X7.8195Y-3.63
X7.8195Y-3.67
X7.8195Y-3.71
X7.8195Y-3.78
X7.8195Y-3.82
X7.8195Y-3.88
X7.8195Y-3.92
X7.8195Y-3.98
X7.8195Y-4.02
X7.8195Y-4.08
X7.8195Y-4.12
X7.8195Y-4.18
X7.8195Y-4.22
X7.8245Y-4.275
X7.8245Y-4.325
X7.8245Y-4.375
X7.8245Y-4.425
X7.8245Y-4.475
X7.8295Y-3.21
T3
X4.7079Y-3.9734
X4.7335Y-3.8216
X4.7434Y-4.0943
X5.0541Y-3.731
X5.0939Y-4.1562
X5.1557Y-3.8057
X5.1685Y-4.0546
X5.1911Y-3.9266
T4
X5.9342Y-4.76
X6.0327Y-4.76
X6.1311Y-4.76
X6.2295Y-4.76
X6.3279Y-4.76
X6.4264Y-4.76
X6.5248Y-4.76
X6.6232Y-4.76
X6.7216Y-4.76
X7.6895Y-3.6994
X7.6895Y-3.7979
X7.6895Y-3.8963
X7.6895Y-3.9947
X7.6895Y-4.0931
X7.6895Y-4.1916
X7.6895Y-4.29
T5
X5.6995Y-3.3325
X5.6995Y-3.4325
X5.8195Y-3.58
X5.9195Y-3.58
X6.0195Y-3.58
X6.1195Y-3.58
X6.2195Y-3.58
X6.3195Y-3.58
T6
X4.9742Y-3.2361
X4.9742Y-3.37
X5.5045Y-3.2361
X5.5045Y-3.37
T7
X4.8615Y-3.9821
X4.8871Y-4.1725
X4.892Y-3.7296
X5.0375Y-3.9179
T0
M30
