%TF.GenerationSoftware,KiCad,Pcbnew,(5.1.10)-1*%
%TF.CreationDate,2022-01-24T18:42:49+01:00*%
%TF.ProjectId,BMS_LV_2022,424d535f-4c56-45f3-9230-32322e6b6963,rev?*%
%TF.SameCoordinates,Original*%
%TF.FileFunction,Soldermask,Top*%
%TF.FilePolarity,Negative*%
%FSLAX46Y46*%
G04 Gerber Fmt 4.6, Leading zero omitted, Abs format (unit mm)*
G04 Created by KiCad (PCBNEW (5.1.10)-1) date 2022-01-24 18:42:49*
%MOMM*%
%LPD*%
G01*
G04 APERTURE LIST*
%ADD10C,1.250000*%
%ADD11C,2.250000*%
%ADD12C,2.400000*%
%ADD13O,1.700000X1.950000*%
%ADD14R,8.000000X7.000000*%
%ADD15C,0.100000*%
%ADD16R,0.990000X0.405000*%
%ADD17R,1.200000X1.400000*%
%ADD18O,1.950000X1.700000*%
%ADD19R,2.200000X1.500000*%
%ADD20R,0.900000X1.700000*%
%ADD21R,1.200000X0.900000*%
%ADD22R,1.220000X0.650000*%
%ADD23R,0.600000X0.450000*%
%ADD24R,1.550000X0.600000*%
%ADD25R,2.600000X3.100000*%
%ADD26R,0.900000X0.800000*%
%ADD27R,0.800000X0.900000*%
%ADD28R,1.250000X0.250000*%
%ADD29O,1.700000X1.700000*%
%ADD30R,1.700000X1.700000*%
%ADD31C,1.000000*%
%ADD32R,0.500000X1.500000*%
%ADD33R,3.000000X1.800000*%
%ADD34R,2.500000X2.300000*%
G04 APERTURE END LIST*
D10*
%TO.C,J2*%
X120231046Y-97067655D03*
X119581625Y-100923463D03*
X120481682Y-103996441D03*
X129384344Y-105566221D03*
X131281142Y-102986403D03*
X131854181Y-99736537D03*
X130954124Y-96663559D03*
X128374306Y-94766761D03*
D11*
X124132609Y-105980561D03*
X127953248Y-99515794D03*
X124257906Y-94731419D03*
X123482558Y-101144206D03*
%TD*%
%TO.C,R66*%
G36*
G01*
X143963403Y-91587000D02*
X143413403Y-91587000D01*
G75*
G02*
X143213403Y-91387000I0J200000D01*
G01*
X143213403Y-90987000D01*
G75*
G02*
X143413403Y-90787000I200000J0D01*
G01*
X143963403Y-90787000D01*
G75*
G02*
X144163403Y-90987000I0J-200000D01*
G01*
X144163403Y-91387000D01*
G75*
G02*
X143963403Y-91587000I-200000J0D01*
G01*
G37*
G36*
G01*
X143963403Y-93237000D02*
X143413403Y-93237000D01*
G75*
G02*
X143213403Y-93037000I0J200000D01*
G01*
X143213403Y-92637000D01*
G75*
G02*
X143413403Y-92437000I200000J0D01*
G01*
X143963403Y-92437000D01*
G75*
G02*
X144163403Y-92637000I0J-200000D01*
G01*
X144163403Y-93037000D01*
G75*
G02*
X143963403Y-93237000I-200000J0D01*
G01*
G37*
%TD*%
%TO.C,R65*%
G36*
G01*
X144937403Y-92436500D02*
X145487403Y-92436500D01*
G75*
G02*
X145687403Y-92636500I0J-200000D01*
G01*
X145687403Y-93036500D01*
G75*
G02*
X145487403Y-93236500I-200000J0D01*
G01*
X144937403Y-93236500D01*
G75*
G02*
X144737403Y-93036500I0J200000D01*
G01*
X144737403Y-92636500D01*
G75*
G02*
X144937403Y-92436500I200000J0D01*
G01*
G37*
G36*
G01*
X144937403Y-90786500D02*
X145487403Y-90786500D01*
G75*
G02*
X145687403Y-90986500I0J-200000D01*
G01*
X145687403Y-91386500D01*
G75*
G02*
X145487403Y-91586500I-200000J0D01*
G01*
X144937403Y-91586500D01*
G75*
G02*
X144737403Y-91386500I0J200000D01*
G01*
X144737403Y-90986500D01*
G75*
G02*
X144937403Y-90786500I200000J0D01*
G01*
G37*
%TD*%
D12*
%TO.C,F2*%
X126344903Y-82198000D03*
X139814903Y-82198000D03*
X126344903Y-85598000D03*
X139814903Y-85598000D03*
%TD*%
%TO.C,R64*%
G36*
G01*
X171865303Y-115284200D02*
X171315303Y-115284200D01*
G75*
G02*
X171115303Y-115084200I0J200000D01*
G01*
X171115303Y-114684200D01*
G75*
G02*
X171315303Y-114484200I200000J0D01*
G01*
X171865303Y-114484200D01*
G75*
G02*
X172065303Y-114684200I0J-200000D01*
G01*
X172065303Y-115084200D01*
G75*
G02*
X171865303Y-115284200I-200000J0D01*
G01*
G37*
G36*
G01*
X171865303Y-116934200D02*
X171315303Y-116934200D01*
G75*
G02*
X171115303Y-116734200I0J200000D01*
G01*
X171115303Y-116334200D01*
G75*
G02*
X171315303Y-116134200I200000J0D01*
G01*
X171865303Y-116134200D01*
G75*
G02*
X172065303Y-116334200I0J-200000D01*
G01*
X172065303Y-116734200D01*
G75*
G02*
X171865303Y-116934200I-200000J0D01*
G01*
G37*
%TD*%
%TO.C,R63*%
G36*
G01*
X168817303Y-115284200D02*
X168267303Y-115284200D01*
G75*
G02*
X168067303Y-115084200I0J200000D01*
G01*
X168067303Y-114684200D01*
G75*
G02*
X168267303Y-114484200I200000J0D01*
G01*
X168817303Y-114484200D01*
G75*
G02*
X169017303Y-114684200I0J-200000D01*
G01*
X169017303Y-115084200D01*
G75*
G02*
X168817303Y-115284200I-200000J0D01*
G01*
G37*
G36*
G01*
X168817303Y-116934200D02*
X168267303Y-116934200D01*
G75*
G02*
X168067303Y-116734200I0J200000D01*
G01*
X168067303Y-116334200D01*
G75*
G02*
X168267303Y-116134200I200000J0D01*
G01*
X168817303Y-116134200D01*
G75*
G02*
X169017303Y-116334200I0J-200000D01*
G01*
X169017303Y-116734200D01*
G75*
G02*
X168817303Y-116934200I-200000J0D01*
G01*
G37*
%TD*%
%TO.C,C46*%
G36*
G01*
X172813503Y-116035000D02*
X173313503Y-116035000D01*
G75*
G02*
X173538503Y-116260000I0J-225000D01*
G01*
X173538503Y-116710000D01*
G75*
G02*
X173313503Y-116935000I-225000J0D01*
G01*
X172813503Y-116935000D01*
G75*
G02*
X172588503Y-116710000I0J225000D01*
G01*
X172588503Y-116260000D01*
G75*
G02*
X172813503Y-116035000I225000J0D01*
G01*
G37*
G36*
G01*
X172813503Y-114485000D02*
X173313503Y-114485000D01*
G75*
G02*
X173538503Y-114710000I0J-225000D01*
G01*
X173538503Y-115160000D01*
G75*
G02*
X173313503Y-115385000I-225000J0D01*
G01*
X172813503Y-115385000D01*
G75*
G02*
X172588503Y-115160000I0J225000D01*
G01*
X172588503Y-114710000D01*
G75*
G02*
X172813503Y-114485000I225000J0D01*
G01*
G37*
%TD*%
%TO.C,C45*%
G36*
G01*
X169765503Y-116035000D02*
X170265503Y-116035000D01*
G75*
G02*
X170490503Y-116260000I0J-225000D01*
G01*
X170490503Y-116710000D01*
G75*
G02*
X170265503Y-116935000I-225000J0D01*
G01*
X169765503Y-116935000D01*
G75*
G02*
X169540503Y-116710000I0J225000D01*
G01*
X169540503Y-116260000D01*
G75*
G02*
X169765503Y-116035000I225000J0D01*
G01*
G37*
G36*
G01*
X169765503Y-114485000D02*
X170265503Y-114485000D01*
G75*
G02*
X170490503Y-114710000I0J-225000D01*
G01*
X170490503Y-115160000D01*
G75*
G02*
X170265503Y-115385000I-225000J0D01*
G01*
X169765503Y-115385000D01*
G75*
G02*
X169540503Y-115160000I0J225000D01*
G01*
X169540503Y-114710000D01*
G75*
G02*
X169765503Y-114485000I225000J0D01*
G01*
G37*
%TD*%
D13*
%TO.C,J6*%
X170729903Y-120904000D03*
X168229903Y-120904000D03*
X165729903Y-120904000D03*
X163229903Y-120904000D03*
X160729903Y-120904000D03*
X158229903Y-120904000D03*
X155729903Y-120904000D03*
X153229903Y-120904000D03*
G36*
G01*
X149879903Y-121629000D02*
X149879903Y-120179000D01*
G75*
G02*
X150129903Y-119929000I250000J0D01*
G01*
X151329903Y-119929000D01*
G75*
G02*
X151579903Y-120179000I0J-250000D01*
G01*
X151579903Y-121629000D01*
G75*
G02*
X151329903Y-121879000I-250000J0D01*
G01*
X150129903Y-121879000D01*
G75*
G02*
X149879903Y-121629000I0J250000D01*
G01*
G37*
%TD*%
%TO.C,R15*%
G36*
G01*
X129253903Y-108733000D02*
X129253903Y-108183000D01*
G75*
G02*
X129453903Y-107983000I200000J0D01*
G01*
X129853903Y-107983000D01*
G75*
G02*
X130053903Y-108183000I0J-200000D01*
G01*
X130053903Y-108733000D01*
G75*
G02*
X129853903Y-108933000I-200000J0D01*
G01*
X129453903Y-108933000D01*
G75*
G02*
X129253903Y-108733000I0J200000D01*
G01*
G37*
G36*
G01*
X127603903Y-108733000D02*
X127603903Y-108183000D01*
G75*
G02*
X127803903Y-107983000I200000J0D01*
G01*
X128203903Y-107983000D01*
G75*
G02*
X128403903Y-108183000I0J-200000D01*
G01*
X128403903Y-108733000D01*
G75*
G02*
X128203903Y-108933000I-200000J0D01*
G01*
X127803903Y-108933000D01*
G75*
G02*
X127603903Y-108733000I0J200000D01*
G01*
G37*
%TD*%
%TO.C,U4*%
G36*
G01*
X148790903Y-87302200D02*
X148790903Y-87602200D01*
G75*
G02*
X148640903Y-87752200I-150000J0D01*
G01*
X146990903Y-87752200D01*
G75*
G02*
X146840903Y-87602200I0J150000D01*
G01*
X146840903Y-87302200D01*
G75*
G02*
X146990903Y-87152200I150000J0D01*
G01*
X148640903Y-87152200D01*
G75*
G02*
X148790903Y-87302200I0J-150000D01*
G01*
G37*
G36*
G01*
X148790903Y-86032200D02*
X148790903Y-86332200D01*
G75*
G02*
X148640903Y-86482200I-150000J0D01*
G01*
X146990903Y-86482200D01*
G75*
G02*
X146840903Y-86332200I0J150000D01*
G01*
X146840903Y-86032200D01*
G75*
G02*
X146990903Y-85882200I150000J0D01*
G01*
X148640903Y-85882200D01*
G75*
G02*
X148790903Y-86032200I0J-150000D01*
G01*
G37*
G36*
G01*
X148790903Y-84762200D02*
X148790903Y-85062200D01*
G75*
G02*
X148640903Y-85212200I-150000J0D01*
G01*
X146990903Y-85212200D01*
G75*
G02*
X146840903Y-85062200I0J150000D01*
G01*
X146840903Y-84762200D01*
G75*
G02*
X146990903Y-84612200I150000J0D01*
G01*
X148640903Y-84612200D01*
G75*
G02*
X148790903Y-84762200I0J-150000D01*
G01*
G37*
G36*
G01*
X148790903Y-83492200D02*
X148790903Y-83792200D01*
G75*
G02*
X148640903Y-83942200I-150000J0D01*
G01*
X146990903Y-83942200D01*
G75*
G02*
X146840903Y-83792200I0J150000D01*
G01*
X146840903Y-83492200D01*
G75*
G02*
X146990903Y-83342200I150000J0D01*
G01*
X148640903Y-83342200D01*
G75*
G02*
X148790903Y-83492200I0J-150000D01*
G01*
G37*
G36*
G01*
X153740903Y-83492200D02*
X153740903Y-83792200D01*
G75*
G02*
X153590903Y-83942200I-150000J0D01*
G01*
X151940903Y-83942200D01*
G75*
G02*
X151790903Y-83792200I0J150000D01*
G01*
X151790903Y-83492200D01*
G75*
G02*
X151940903Y-83342200I150000J0D01*
G01*
X153590903Y-83342200D01*
G75*
G02*
X153740903Y-83492200I0J-150000D01*
G01*
G37*
G36*
G01*
X153740903Y-84762200D02*
X153740903Y-85062200D01*
G75*
G02*
X153590903Y-85212200I-150000J0D01*
G01*
X151940903Y-85212200D01*
G75*
G02*
X151790903Y-85062200I0J150000D01*
G01*
X151790903Y-84762200D01*
G75*
G02*
X151940903Y-84612200I150000J0D01*
G01*
X153590903Y-84612200D01*
G75*
G02*
X153740903Y-84762200I0J-150000D01*
G01*
G37*
G36*
G01*
X153740903Y-86032200D02*
X153740903Y-86332200D01*
G75*
G02*
X153590903Y-86482200I-150000J0D01*
G01*
X151940903Y-86482200D01*
G75*
G02*
X151790903Y-86332200I0J150000D01*
G01*
X151790903Y-86032200D01*
G75*
G02*
X151940903Y-85882200I150000J0D01*
G01*
X153590903Y-85882200D01*
G75*
G02*
X153740903Y-86032200I0J-150000D01*
G01*
G37*
G36*
G01*
X153740903Y-87302200D02*
X153740903Y-87602200D01*
G75*
G02*
X153590903Y-87752200I-150000J0D01*
G01*
X151940903Y-87752200D01*
G75*
G02*
X151790903Y-87602200I0J150000D01*
G01*
X151790903Y-87302200D01*
G75*
G02*
X151940903Y-87152200I150000J0D01*
G01*
X153590903Y-87152200D01*
G75*
G02*
X153740903Y-87302200I0J-150000D01*
G01*
G37*
%TD*%
%TO.C,R14*%
G36*
G01*
X133343303Y-107463000D02*
X133343303Y-106913000D01*
G75*
G02*
X133543303Y-106713000I200000J0D01*
G01*
X133943303Y-106713000D01*
G75*
G02*
X134143303Y-106913000I0J-200000D01*
G01*
X134143303Y-107463000D01*
G75*
G02*
X133943303Y-107663000I-200000J0D01*
G01*
X133543303Y-107663000D01*
G75*
G02*
X133343303Y-107463000I0J200000D01*
G01*
G37*
G36*
G01*
X131693303Y-107463000D02*
X131693303Y-106913000D01*
G75*
G02*
X131893303Y-106713000I200000J0D01*
G01*
X132293303Y-106713000D01*
G75*
G02*
X132493303Y-106913000I0J-200000D01*
G01*
X132493303Y-107463000D01*
G75*
G02*
X132293303Y-107663000I-200000J0D01*
G01*
X131893303Y-107663000D01*
G75*
G02*
X131693303Y-107463000I0J200000D01*
G01*
G37*
%TD*%
%TO.C,R13*%
G36*
G01*
X132493303Y-105439800D02*
X132493303Y-105989800D01*
G75*
G02*
X132293303Y-106189800I-200000J0D01*
G01*
X131893303Y-106189800D01*
G75*
G02*
X131693303Y-105989800I0J200000D01*
G01*
X131693303Y-105439800D01*
G75*
G02*
X131893303Y-105239800I200000J0D01*
G01*
X132293303Y-105239800D01*
G75*
G02*
X132493303Y-105439800I0J-200000D01*
G01*
G37*
G36*
G01*
X134143303Y-105439800D02*
X134143303Y-105989800D01*
G75*
G02*
X133943303Y-106189800I-200000J0D01*
G01*
X133543303Y-106189800D01*
G75*
G02*
X133343303Y-105989800I0J200000D01*
G01*
X133343303Y-105439800D01*
G75*
G02*
X133543303Y-105239800I200000J0D01*
G01*
X133943303Y-105239800D01*
G75*
G02*
X134143303Y-105439800I0J-200000D01*
G01*
G37*
%TD*%
D14*
%TO.C,J5*%
X114135503Y-115290600D03*
%TD*%
%TO.C,J4*%
X114135503Y-91694000D03*
%TD*%
D15*
%TO.C,Q12*%
G36*
X122694903Y-81508500D02*
G01*
X122184903Y-81508500D01*
X122184903Y-81763500D01*
X122694903Y-81763500D01*
X122694903Y-82168500D01*
X122184903Y-82168500D01*
X122184903Y-82423500D01*
X122694903Y-82423500D01*
X122694903Y-82828500D01*
X122184903Y-82828500D01*
X122184903Y-83083500D01*
X122694903Y-83083500D01*
X122694903Y-83491000D01*
X121934903Y-83491000D01*
X121934903Y-83413500D01*
X120459903Y-83413500D01*
X120459903Y-81178500D01*
X121934903Y-81178500D01*
X121934903Y-81101000D01*
X122694903Y-81101000D01*
X122694903Y-81508500D01*
G37*
D16*
X119329903Y-83286000D03*
X119329903Y-82626000D03*
X119329903Y-81966000D03*
X119329903Y-81306000D03*
%TD*%
D15*
%TO.C,Q11*%
G36*
X122656803Y-85064500D02*
G01*
X122146803Y-85064500D01*
X122146803Y-85319500D01*
X122656803Y-85319500D01*
X122656803Y-85724500D01*
X122146803Y-85724500D01*
X122146803Y-85979500D01*
X122656803Y-85979500D01*
X122656803Y-86384500D01*
X122146803Y-86384500D01*
X122146803Y-86639500D01*
X122656803Y-86639500D01*
X122656803Y-87047000D01*
X121896803Y-87047000D01*
X121896803Y-86969500D01*
X120421803Y-86969500D01*
X120421803Y-84734500D01*
X121896803Y-84734500D01*
X121896803Y-84657000D01*
X122656803Y-84657000D01*
X122656803Y-85064500D01*
G37*
D16*
X119291803Y-86842000D03*
X119291803Y-86182000D03*
X119291803Y-85522000D03*
X119291803Y-84862000D03*
%TD*%
D15*
%TO.C,Q9*%
G36*
X114439403Y-86639500D02*
G01*
X114949403Y-86639500D01*
X114949403Y-86384500D01*
X114439403Y-86384500D01*
X114439403Y-85979500D01*
X114949403Y-85979500D01*
X114949403Y-85724500D01*
X114439403Y-85724500D01*
X114439403Y-85319500D01*
X114949403Y-85319500D01*
X114949403Y-85064500D01*
X114439403Y-85064500D01*
X114439403Y-84657000D01*
X115199403Y-84657000D01*
X115199403Y-84734500D01*
X116674403Y-84734500D01*
X116674403Y-86969500D01*
X115199403Y-86969500D01*
X115199403Y-87047000D01*
X114439403Y-87047000D01*
X114439403Y-86639500D01*
G37*
D16*
X117804403Y-84862000D03*
X117804403Y-85522000D03*
X117804403Y-86182000D03*
X117804403Y-86842000D03*
%TD*%
D15*
%TO.C,Q8*%
G36*
X114439403Y-83083500D02*
G01*
X114949403Y-83083500D01*
X114949403Y-82828500D01*
X114439403Y-82828500D01*
X114439403Y-82423500D01*
X114949403Y-82423500D01*
X114949403Y-82168500D01*
X114439403Y-82168500D01*
X114439403Y-81763500D01*
X114949403Y-81763500D01*
X114949403Y-81508500D01*
X114439403Y-81508500D01*
X114439403Y-81101000D01*
X115199403Y-81101000D01*
X115199403Y-81178500D01*
X116674403Y-81178500D01*
X116674403Y-83413500D01*
X115199403Y-83413500D01*
X115199403Y-83491000D01*
X114439403Y-83491000D01*
X114439403Y-83083500D01*
G37*
D16*
X117804403Y-81306000D03*
X117804403Y-81966000D03*
X117804403Y-82626000D03*
X117804403Y-83286000D03*
%TD*%
D17*
%TO.C,Y1*%
X137733903Y-103546000D03*
X137733903Y-101346000D03*
X139433903Y-101346000D03*
X139433903Y-103546000D03*
%TD*%
D18*
%TO.C,J11*%
X195313903Y-93966000D03*
X195313903Y-96466000D03*
X195313903Y-98966000D03*
X195313903Y-101466000D03*
X195313903Y-103966000D03*
X195313903Y-106466000D03*
G36*
G01*
X196038903Y-109816000D02*
X194588903Y-109816000D01*
G75*
G02*
X194338903Y-109566000I0J250000D01*
G01*
X194338903Y-108366000D01*
G75*
G02*
X194588903Y-108116000I250000J0D01*
G01*
X196038903Y-108116000D01*
G75*
G02*
X196288903Y-108366000I0J-250000D01*
G01*
X196288903Y-109566000D01*
G75*
G02*
X196038903Y-109816000I-250000J0D01*
G01*
G37*
%TD*%
%TO.C,R22*%
G36*
G01*
X197783903Y-118263398D02*
X197783903Y-115413396D01*
G75*
G02*
X198033902Y-115163397I249999J0D01*
G01*
X198758904Y-115163397D01*
G75*
G02*
X199008903Y-115413396I0J-249999D01*
G01*
X199008903Y-118263398D01*
G75*
G02*
X198758904Y-118513397I-249999J0D01*
G01*
X198033902Y-118513397D01*
G75*
G02*
X197783903Y-118263398I0J249999D01*
G01*
G37*
G36*
G01*
X191858903Y-118263398D02*
X191858903Y-115413396D01*
G75*
G02*
X192108902Y-115163397I249999J0D01*
G01*
X192833904Y-115163397D01*
G75*
G02*
X193083903Y-115413396I0J-249999D01*
G01*
X193083903Y-118263398D01*
G75*
G02*
X192833904Y-118513397I-249999J0D01*
G01*
X192108902Y-118513397D01*
G75*
G02*
X191858903Y-118263398I0J249999D01*
G01*
G37*
%TD*%
D19*
%TO.C,L2*%
X137922000Y-115443000D03*
X137922000Y-121843000D03*
%TD*%
D20*
%TO.C,SW1*%
X160502006Y-94538800D03*
X157102006Y-94538800D03*
%TD*%
%TO.C,C38*%
G36*
G01*
X133272500Y-111546200D02*
X133272500Y-113396200D01*
G75*
G02*
X133022500Y-113646200I-250000J0D01*
G01*
X131447500Y-113646200D01*
G75*
G02*
X131197500Y-113396200I0J250000D01*
G01*
X131197500Y-111546200D01*
G75*
G02*
X131447500Y-111296200I250000J0D01*
G01*
X133022500Y-111296200D01*
G75*
G02*
X133272500Y-111546200I0J-250000D01*
G01*
G37*
G36*
G01*
X138197500Y-111546200D02*
X138197500Y-113396200D01*
G75*
G02*
X137947500Y-113646200I-250000J0D01*
G01*
X136372500Y-113646200D01*
G75*
G02*
X136122500Y-113396200I0J250000D01*
G01*
X136122500Y-111546200D01*
G75*
G02*
X136372500Y-111296200I250000J0D01*
G01*
X137947500Y-111296200D01*
G75*
G02*
X138197500Y-111546200I0J-250000D01*
G01*
G37*
%TD*%
D21*
%TO.C,D20*%
X143002000Y-115189000D03*
X143002000Y-118489000D03*
%TD*%
%TO.C,F1*%
G36*
G01*
X120272303Y-92039600D02*
X119022303Y-92039600D01*
G75*
G02*
X118772303Y-91789600I0J250000D01*
G01*
X118772303Y-91039600D01*
G75*
G02*
X119022303Y-90789600I250000J0D01*
G01*
X120272303Y-90789600D01*
G75*
G02*
X120522303Y-91039600I0J-250000D01*
G01*
X120522303Y-91789600D01*
G75*
G02*
X120272303Y-92039600I-250000J0D01*
G01*
G37*
G36*
G01*
X120272303Y-94839600D02*
X119022303Y-94839600D01*
G75*
G02*
X118772303Y-94589600I0J250000D01*
G01*
X118772303Y-93839600D01*
G75*
G02*
X119022303Y-93589600I250000J0D01*
G01*
X120272303Y-93589600D01*
G75*
G02*
X120522303Y-93839600I0J-250000D01*
G01*
X120522303Y-94589600D01*
G75*
G02*
X120272303Y-94839600I-250000J0D01*
G01*
G37*
%TD*%
D22*
%TO.C,U2*%
X145328000Y-120081000D03*
X145328000Y-121981000D03*
X142708000Y-121981000D03*
X142708000Y-121031000D03*
X142708000Y-120081000D03*
%TD*%
%TO.C,C44*%
G36*
G01*
X144404503Y-123219400D02*
X144404503Y-123719400D01*
G75*
G02*
X144179503Y-123944400I-225000J0D01*
G01*
X143729503Y-123944400D01*
G75*
G02*
X143504503Y-123719400I0J225000D01*
G01*
X143504503Y-123219400D01*
G75*
G02*
X143729503Y-122994400I225000J0D01*
G01*
X144179503Y-122994400D01*
G75*
G02*
X144404503Y-123219400I0J-225000D01*
G01*
G37*
G36*
G01*
X145954503Y-123219400D02*
X145954503Y-123719400D01*
G75*
G02*
X145729503Y-123944400I-225000J0D01*
G01*
X145279503Y-123944400D01*
G75*
G02*
X145054503Y-123719400I0J225000D01*
G01*
X145054503Y-123219400D01*
G75*
G02*
X145279503Y-122994400I225000J0D01*
G01*
X145729503Y-122994400D01*
G75*
G02*
X145954503Y-123219400I0J-225000D01*
G01*
G37*
%TD*%
D23*
%TO.C,D17*%
X196795303Y-86690200D03*
X198895303Y-86690200D03*
%TD*%
%TO.C,D15*%
X181971283Y-86843203D03*
X184071283Y-86843203D03*
%TD*%
%TO.C,D13*%
X180078983Y-95223997D03*
X182178983Y-95223997D03*
%TD*%
%TO.C,D11*%
X182178983Y-106242517D03*
X180078983Y-106242517D03*
%TD*%
%TO.C,D9*%
X174511303Y-118274497D03*
X176611303Y-118274497D03*
%TD*%
%TO.C,D7*%
X188735303Y-118135400D03*
X190835303Y-118135400D03*
%TD*%
%TO.C,U5*%
G36*
G01*
X138664200Y-89883600D02*
X138664200Y-89583600D01*
G75*
G02*
X138814200Y-89433600I150000J0D01*
G01*
X140464200Y-89433600D01*
G75*
G02*
X140614200Y-89583600I0J-150000D01*
G01*
X140614200Y-89883600D01*
G75*
G02*
X140464200Y-90033600I-150000J0D01*
G01*
X138814200Y-90033600D01*
G75*
G02*
X138664200Y-89883600I0J150000D01*
G01*
G37*
G36*
G01*
X138664200Y-91153600D02*
X138664200Y-90853600D01*
G75*
G02*
X138814200Y-90703600I150000J0D01*
G01*
X140464200Y-90703600D01*
G75*
G02*
X140614200Y-90853600I0J-150000D01*
G01*
X140614200Y-91153600D01*
G75*
G02*
X140464200Y-91303600I-150000J0D01*
G01*
X138814200Y-91303600D01*
G75*
G02*
X138664200Y-91153600I0J150000D01*
G01*
G37*
G36*
G01*
X138664200Y-92423600D02*
X138664200Y-92123600D01*
G75*
G02*
X138814200Y-91973600I150000J0D01*
G01*
X140464200Y-91973600D01*
G75*
G02*
X140614200Y-92123600I0J-150000D01*
G01*
X140614200Y-92423600D01*
G75*
G02*
X140464200Y-92573600I-150000J0D01*
G01*
X138814200Y-92573600D01*
G75*
G02*
X138664200Y-92423600I0J150000D01*
G01*
G37*
G36*
G01*
X138664200Y-93693600D02*
X138664200Y-93393600D01*
G75*
G02*
X138814200Y-93243600I150000J0D01*
G01*
X140464200Y-93243600D01*
G75*
G02*
X140614200Y-93393600I0J-150000D01*
G01*
X140614200Y-93693600D01*
G75*
G02*
X140464200Y-93843600I-150000J0D01*
G01*
X138814200Y-93843600D01*
G75*
G02*
X138664200Y-93693600I0J150000D01*
G01*
G37*
G36*
G01*
X133714200Y-93693600D02*
X133714200Y-93393600D01*
G75*
G02*
X133864200Y-93243600I150000J0D01*
G01*
X135514200Y-93243600D01*
G75*
G02*
X135664200Y-93393600I0J-150000D01*
G01*
X135664200Y-93693600D01*
G75*
G02*
X135514200Y-93843600I-150000J0D01*
G01*
X133864200Y-93843600D01*
G75*
G02*
X133714200Y-93693600I0J150000D01*
G01*
G37*
G36*
G01*
X133714200Y-92423600D02*
X133714200Y-92123600D01*
G75*
G02*
X133864200Y-91973600I150000J0D01*
G01*
X135514200Y-91973600D01*
G75*
G02*
X135664200Y-92123600I0J-150000D01*
G01*
X135664200Y-92423600D01*
G75*
G02*
X135514200Y-92573600I-150000J0D01*
G01*
X133864200Y-92573600D01*
G75*
G02*
X133714200Y-92423600I0J150000D01*
G01*
G37*
G36*
G01*
X133714200Y-91153600D02*
X133714200Y-90853600D01*
G75*
G02*
X133864200Y-90703600I150000J0D01*
G01*
X135514200Y-90703600D01*
G75*
G02*
X135664200Y-90853600I0J-150000D01*
G01*
X135664200Y-91153600D01*
G75*
G02*
X135514200Y-91303600I-150000J0D01*
G01*
X133864200Y-91303600D01*
G75*
G02*
X133714200Y-91153600I0J150000D01*
G01*
G37*
G36*
G01*
X133714200Y-89883600D02*
X133714200Y-89583600D01*
G75*
G02*
X133864200Y-89433600I150000J0D01*
G01*
X135514200Y-89433600D01*
G75*
G02*
X135664200Y-89583600I0J-150000D01*
G01*
X135664200Y-89883600D01*
G75*
G02*
X135514200Y-90033600I-150000J0D01*
G01*
X133864200Y-90033600D01*
G75*
G02*
X133714200Y-89883600I0J150000D01*
G01*
G37*
%TD*%
D24*
%TO.C,U3*%
X129842000Y-118857000D03*
X129842000Y-117587000D03*
X129842000Y-116317000D03*
X129842000Y-115047000D03*
X124442000Y-115047000D03*
X124442000Y-116317000D03*
X124442000Y-117587000D03*
X124442000Y-118857000D03*
D25*
X127142000Y-116952000D03*
%TD*%
%TO.C,U1*%
G36*
G01*
X144690000Y-98911000D02*
X144690000Y-97511000D01*
G75*
G02*
X144765000Y-97436000I75000J0D01*
G01*
X144915000Y-97436000D01*
G75*
G02*
X144990000Y-97511000I0J-75000D01*
G01*
X144990000Y-98911000D01*
G75*
G02*
X144915000Y-98986000I-75000J0D01*
G01*
X144765000Y-98986000D01*
G75*
G02*
X144690000Y-98911000I0J75000D01*
G01*
G37*
G36*
G01*
X145190000Y-98911000D02*
X145190000Y-97511000D01*
G75*
G02*
X145265000Y-97436000I75000J0D01*
G01*
X145415000Y-97436000D01*
G75*
G02*
X145490000Y-97511000I0J-75000D01*
G01*
X145490000Y-98911000D01*
G75*
G02*
X145415000Y-98986000I-75000J0D01*
G01*
X145265000Y-98986000D01*
G75*
G02*
X145190000Y-98911000I0J75000D01*
G01*
G37*
G36*
G01*
X145690000Y-98911000D02*
X145690000Y-97511000D01*
G75*
G02*
X145765000Y-97436000I75000J0D01*
G01*
X145915000Y-97436000D01*
G75*
G02*
X145990000Y-97511000I0J-75000D01*
G01*
X145990000Y-98911000D01*
G75*
G02*
X145915000Y-98986000I-75000J0D01*
G01*
X145765000Y-98986000D01*
G75*
G02*
X145690000Y-98911000I0J75000D01*
G01*
G37*
G36*
G01*
X146190000Y-98911000D02*
X146190000Y-97511000D01*
G75*
G02*
X146265000Y-97436000I75000J0D01*
G01*
X146415000Y-97436000D01*
G75*
G02*
X146490000Y-97511000I0J-75000D01*
G01*
X146490000Y-98911000D01*
G75*
G02*
X146415000Y-98986000I-75000J0D01*
G01*
X146265000Y-98986000D01*
G75*
G02*
X146190000Y-98911000I0J75000D01*
G01*
G37*
G36*
G01*
X146690000Y-98911000D02*
X146690000Y-97511000D01*
G75*
G02*
X146765000Y-97436000I75000J0D01*
G01*
X146915000Y-97436000D01*
G75*
G02*
X146990000Y-97511000I0J-75000D01*
G01*
X146990000Y-98911000D01*
G75*
G02*
X146915000Y-98986000I-75000J0D01*
G01*
X146765000Y-98986000D01*
G75*
G02*
X146690000Y-98911000I0J75000D01*
G01*
G37*
G36*
G01*
X147190000Y-98911000D02*
X147190000Y-97511000D01*
G75*
G02*
X147265000Y-97436000I75000J0D01*
G01*
X147415000Y-97436000D01*
G75*
G02*
X147490000Y-97511000I0J-75000D01*
G01*
X147490000Y-98911000D01*
G75*
G02*
X147415000Y-98986000I-75000J0D01*
G01*
X147265000Y-98986000D01*
G75*
G02*
X147190000Y-98911000I0J75000D01*
G01*
G37*
G36*
G01*
X147690000Y-98911000D02*
X147690000Y-97511000D01*
G75*
G02*
X147765000Y-97436000I75000J0D01*
G01*
X147915000Y-97436000D01*
G75*
G02*
X147990000Y-97511000I0J-75000D01*
G01*
X147990000Y-98911000D01*
G75*
G02*
X147915000Y-98986000I-75000J0D01*
G01*
X147765000Y-98986000D01*
G75*
G02*
X147690000Y-98911000I0J75000D01*
G01*
G37*
G36*
G01*
X148190000Y-98911000D02*
X148190000Y-97511000D01*
G75*
G02*
X148265000Y-97436000I75000J0D01*
G01*
X148415000Y-97436000D01*
G75*
G02*
X148490000Y-97511000I0J-75000D01*
G01*
X148490000Y-98911000D01*
G75*
G02*
X148415000Y-98986000I-75000J0D01*
G01*
X148265000Y-98986000D01*
G75*
G02*
X148190000Y-98911000I0J75000D01*
G01*
G37*
G36*
G01*
X148690000Y-98911000D02*
X148690000Y-97511000D01*
G75*
G02*
X148765000Y-97436000I75000J0D01*
G01*
X148915000Y-97436000D01*
G75*
G02*
X148990000Y-97511000I0J-75000D01*
G01*
X148990000Y-98911000D01*
G75*
G02*
X148915000Y-98986000I-75000J0D01*
G01*
X148765000Y-98986000D01*
G75*
G02*
X148690000Y-98911000I0J75000D01*
G01*
G37*
G36*
G01*
X149190000Y-98911000D02*
X149190000Y-97511000D01*
G75*
G02*
X149265000Y-97436000I75000J0D01*
G01*
X149415000Y-97436000D01*
G75*
G02*
X149490000Y-97511000I0J-75000D01*
G01*
X149490000Y-98911000D01*
G75*
G02*
X149415000Y-98986000I-75000J0D01*
G01*
X149265000Y-98986000D01*
G75*
G02*
X149190000Y-98911000I0J75000D01*
G01*
G37*
G36*
G01*
X149690000Y-98911000D02*
X149690000Y-97511000D01*
G75*
G02*
X149765000Y-97436000I75000J0D01*
G01*
X149915000Y-97436000D01*
G75*
G02*
X149990000Y-97511000I0J-75000D01*
G01*
X149990000Y-98911000D01*
G75*
G02*
X149915000Y-98986000I-75000J0D01*
G01*
X149765000Y-98986000D01*
G75*
G02*
X149690000Y-98911000I0J75000D01*
G01*
G37*
G36*
G01*
X150190000Y-98911000D02*
X150190000Y-97511000D01*
G75*
G02*
X150265000Y-97436000I75000J0D01*
G01*
X150415000Y-97436000D01*
G75*
G02*
X150490000Y-97511000I0J-75000D01*
G01*
X150490000Y-98911000D01*
G75*
G02*
X150415000Y-98986000I-75000J0D01*
G01*
X150265000Y-98986000D01*
G75*
G02*
X150190000Y-98911000I0J75000D01*
G01*
G37*
G36*
G01*
X150690000Y-98911000D02*
X150690000Y-97511000D01*
G75*
G02*
X150765000Y-97436000I75000J0D01*
G01*
X150915000Y-97436000D01*
G75*
G02*
X150990000Y-97511000I0J-75000D01*
G01*
X150990000Y-98911000D01*
G75*
G02*
X150915000Y-98986000I-75000J0D01*
G01*
X150765000Y-98986000D01*
G75*
G02*
X150690000Y-98911000I0J75000D01*
G01*
G37*
G36*
G01*
X151190000Y-98911000D02*
X151190000Y-97511000D01*
G75*
G02*
X151265000Y-97436000I75000J0D01*
G01*
X151415000Y-97436000D01*
G75*
G02*
X151490000Y-97511000I0J-75000D01*
G01*
X151490000Y-98911000D01*
G75*
G02*
X151415000Y-98986000I-75000J0D01*
G01*
X151265000Y-98986000D01*
G75*
G02*
X151190000Y-98911000I0J75000D01*
G01*
G37*
G36*
G01*
X151690000Y-98911000D02*
X151690000Y-97511000D01*
G75*
G02*
X151765000Y-97436000I75000J0D01*
G01*
X151915000Y-97436000D01*
G75*
G02*
X151990000Y-97511000I0J-75000D01*
G01*
X151990000Y-98911000D01*
G75*
G02*
X151915000Y-98986000I-75000J0D01*
G01*
X151765000Y-98986000D01*
G75*
G02*
X151690000Y-98911000I0J75000D01*
G01*
G37*
G36*
G01*
X152190000Y-98911000D02*
X152190000Y-97511000D01*
G75*
G02*
X152265000Y-97436000I75000J0D01*
G01*
X152415000Y-97436000D01*
G75*
G02*
X152490000Y-97511000I0J-75000D01*
G01*
X152490000Y-98911000D01*
G75*
G02*
X152415000Y-98986000I-75000J0D01*
G01*
X152265000Y-98986000D01*
G75*
G02*
X152190000Y-98911000I0J75000D01*
G01*
G37*
G36*
G01*
X153490000Y-100211000D02*
X153490000Y-100061000D01*
G75*
G02*
X153565000Y-99986000I75000J0D01*
G01*
X154965000Y-99986000D01*
G75*
G02*
X155040000Y-100061000I0J-75000D01*
G01*
X155040000Y-100211000D01*
G75*
G02*
X154965000Y-100286000I-75000J0D01*
G01*
X153565000Y-100286000D01*
G75*
G02*
X153490000Y-100211000I0J75000D01*
G01*
G37*
G36*
G01*
X153490000Y-100711000D02*
X153490000Y-100561000D01*
G75*
G02*
X153565000Y-100486000I75000J0D01*
G01*
X154965000Y-100486000D01*
G75*
G02*
X155040000Y-100561000I0J-75000D01*
G01*
X155040000Y-100711000D01*
G75*
G02*
X154965000Y-100786000I-75000J0D01*
G01*
X153565000Y-100786000D01*
G75*
G02*
X153490000Y-100711000I0J75000D01*
G01*
G37*
G36*
G01*
X153490000Y-101211000D02*
X153490000Y-101061000D01*
G75*
G02*
X153565000Y-100986000I75000J0D01*
G01*
X154965000Y-100986000D01*
G75*
G02*
X155040000Y-101061000I0J-75000D01*
G01*
X155040000Y-101211000D01*
G75*
G02*
X154965000Y-101286000I-75000J0D01*
G01*
X153565000Y-101286000D01*
G75*
G02*
X153490000Y-101211000I0J75000D01*
G01*
G37*
G36*
G01*
X153490000Y-101711000D02*
X153490000Y-101561000D01*
G75*
G02*
X153565000Y-101486000I75000J0D01*
G01*
X154965000Y-101486000D01*
G75*
G02*
X155040000Y-101561000I0J-75000D01*
G01*
X155040000Y-101711000D01*
G75*
G02*
X154965000Y-101786000I-75000J0D01*
G01*
X153565000Y-101786000D01*
G75*
G02*
X153490000Y-101711000I0J75000D01*
G01*
G37*
G36*
G01*
X153490000Y-102211000D02*
X153490000Y-102061000D01*
G75*
G02*
X153565000Y-101986000I75000J0D01*
G01*
X154965000Y-101986000D01*
G75*
G02*
X155040000Y-102061000I0J-75000D01*
G01*
X155040000Y-102211000D01*
G75*
G02*
X154965000Y-102286000I-75000J0D01*
G01*
X153565000Y-102286000D01*
G75*
G02*
X153490000Y-102211000I0J75000D01*
G01*
G37*
G36*
G01*
X153490000Y-102711000D02*
X153490000Y-102561000D01*
G75*
G02*
X153565000Y-102486000I75000J0D01*
G01*
X154965000Y-102486000D01*
G75*
G02*
X155040000Y-102561000I0J-75000D01*
G01*
X155040000Y-102711000D01*
G75*
G02*
X154965000Y-102786000I-75000J0D01*
G01*
X153565000Y-102786000D01*
G75*
G02*
X153490000Y-102711000I0J75000D01*
G01*
G37*
G36*
G01*
X153490000Y-103211000D02*
X153490000Y-103061000D01*
G75*
G02*
X153565000Y-102986000I75000J0D01*
G01*
X154965000Y-102986000D01*
G75*
G02*
X155040000Y-103061000I0J-75000D01*
G01*
X155040000Y-103211000D01*
G75*
G02*
X154965000Y-103286000I-75000J0D01*
G01*
X153565000Y-103286000D01*
G75*
G02*
X153490000Y-103211000I0J75000D01*
G01*
G37*
G36*
G01*
X153490000Y-103711000D02*
X153490000Y-103561000D01*
G75*
G02*
X153565000Y-103486000I75000J0D01*
G01*
X154965000Y-103486000D01*
G75*
G02*
X155040000Y-103561000I0J-75000D01*
G01*
X155040000Y-103711000D01*
G75*
G02*
X154965000Y-103786000I-75000J0D01*
G01*
X153565000Y-103786000D01*
G75*
G02*
X153490000Y-103711000I0J75000D01*
G01*
G37*
G36*
G01*
X153490000Y-104211000D02*
X153490000Y-104061000D01*
G75*
G02*
X153565000Y-103986000I75000J0D01*
G01*
X154965000Y-103986000D01*
G75*
G02*
X155040000Y-104061000I0J-75000D01*
G01*
X155040000Y-104211000D01*
G75*
G02*
X154965000Y-104286000I-75000J0D01*
G01*
X153565000Y-104286000D01*
G75*
G02*
X153490000Y-104211000I0J75000D01*
G01*
G37*
G36*
G01*
X153490000Y-104711000D02*
X153490000Y-104561000D01*
G75*
G02*
X153565000Y-104486000I75000J0D01*
G01*
X154965000Y-104486000D01*
G75*
G02*
X155040000Y-104561000I0J-75000D01*
G01*
X155040000Y-104711000D01*
G75*
G02*
X154965000Y-104786000I-75000J0D01*
G01*
X153565000Y-104786000D01*
G75*
G02*
X153490000Y-104711000I0J75000D01*
G01*
G37*
G36*
G01*
X153490000Y-105211000D02*
X153490000Y-105061000D01*
G75*
G02*
X153565000Y-104986000I75000J0D01*
G01*
X154965000Y-104986000D01*
G75*
G02*
X155040000Y-105061000I0J-75000D01*
G01*
X155040000Y-105211000D01*
G75*
G02*
X154965000Y-105286000I-75000J0D01*
G01*
X153565000Y-105286000D01*
G75*
G02*
X153490000Y-105211000I0J75000D01*
G01*
G37*
G36*
G01*
X153490000Y-105711000D02*
X153490000Y-105561000D01*
G75*
G02*
X153565000Y-105486000I75000J0D01*
G01*
X154965000Y-105486000D01*
G75*
G02*
X155040000Y-105561000I0J-75000D01*
G01*
X155040000Y-105711000D01*
G75*
G02*
X154965000Y-105786000I-75000J0D01*
G01*
X153565000Y-105786000D01*
G75*
G02*
X153490000Y-105711000I0J75000D01*
G01*
G37*
G36*
G01*
X153490000Y-106211000D02*
X153490000Y-106061000D01*
G75*
G02*
X153565000Y-105986000I75000J0D01*
G01*
X154965000Y-105986000D01*
G75*
G02*
X155040000Y-106061000I0J-75000D01*
G01*
X155040000Y-106211000D01*
G75*
G02*
X154965000Y-106286000I-75000J0D01*
G01*
X153565000Y-106286000D01*
G75*
G02*
X153490000Y-106211000I0J75000D01*
G01*
G37*
G36*
G01*
X153490000Y-106711000D02*
X153490000Y-106561000D01*
G75*
G02*
X153565000Y-106486000I75000J0D01*
G01*
X154965000Y-106486000D01*
G75*
G02*
X155040000Y-106561000I0J-75000D01*
G01*
X155040000Y-106711000D01*
G75*
G02*
X154965000Y-106786000I-75000J0D01*
G01*
X153565000Y-106786000D01*
G75*
G02*
X153490000Y-106711000I0J75000D01*
G01*
G37*
G36*
G01*
X153490000Y-107211000D02*
X153490000Y-107061000D01*
G75*
G02*
X153565000Y-106986000I75000J0D01*
G01*
X154965000Y-106986000D01*
G75*
G02*
X155040000Y-107061000I0J-75000D01*
G01*
X155040000Y-107211000D01*
G75*
G02*
X154965000Y-107286000I-75000J0D01*
G01*
X153565000Y-107286000D01*
G75*
G02*
X153490000Y-107211000I0J75000D01*
G01*
G37*
G36*
G01*
X153490000Y-107711000D02*
X153490000Y-107561000D01*
G75*
G02*
X153565000Y-107486000I75000J0D01*
G01*
X154965000Y-107486000D01*
G75*
G02*
X155040000Y-107561000I0J-75000D01*
G01*
X155040000Y-107711000D01*
G75*
G02*
X154965000Y-107786000I-75000J0D01*
G01*
X153565000Y-107786000D01*
G75*
G02*
X153490000Y-107711000I0J75000D01*
G01*
G37*
G36*
G01*
X152190000Y-110261000D02*
X152190000Y-108861000D01*
G75*
G02*
X152265000Y-108786000I75000J0D01*
G01*
X152415000Y-108786000D01*
G75*
G02*
X152490000Y-108861000I0J-75000D01*
G01*
X152490000Y-110261000D01*
G75*
G02*
X152415000Y-110336000I-75000J0D01*
G01*
X152265000Y-110336000D01*
G75*
G02*
X152190000Y-110261000I0J75000D01*
G01*
G37*
G36*
G01*
X151690000Y-110261000D02*
X151690000Y-108861000D01*
G75*
G02*
X151765000Y-108786000I75000J0D01*
G01*
X151915000Y-108786000D01*
G75*
G02*
X151990000Y-108861000I0J-75000D01*
G01*
X151990000Y-110261000D01*
G75*
G02*
X151915000Y-110336000I-75000J0D01*
G01*
X151765000Y-110336000D01*
G75*
G02*
X151690000Y-110261000I0J75000D01*
G01*
G37*
G36*
G01*
X151190000Y-110261000D02*
X151190000Y-108861000D01*
G75*
G02*
X151265000Y-108786000I75000J0D01*
G01*
X151415000Y-108786000D01*
G75*
G02*
X151490000Y-108861000I0J-75000D01*
G01*
X151490000Y-110261000D01*
G75*
G02*
X151415000Y-110336000I-75000J0D01*
G01*
X151265000Y-110336000D01*
G75*
G02*
X151190000Y-110261000I0J75000D01*
G01*
G37*
G36*
G01*
X150690000Y-110261000D02*
X150690000Y-108861000D01*
G75*
G02*
X150765000Y-108786000I75000J0D01*
G01*
X150915000Y-108786000D01*
G75*
G02*
X150990000Y-108861000I0J-75000D01*
G01*
X150990000Y-110261000D01*
G75*
G02*
X150915000Y-110336000I-75000J0D01*
G01*
X150765000Y-110336000D01*
G75*
G02*
X150690000Y-110261000I0J75000D01*
G01*
G37*
G36*
G01*
X150190000Y-110261000D02*
X150190000Y-108861000D01*
G75*
G02*
X150265000Y-108786000I75000J0D01*
G01*
X150415000Y-108786000D01*
G75*
G02*
X150490000Y-108861000I0J-75000D01*
G01*
X150490000Y-110261000D01*
G75*
G02*
X150415000Y-110336000I-75000J0D01*
G01*
X150265000Y-110336000D01*
G75*
G02*
X150190000Y-110261000I0J75000D01*
G01*
G37*
G36*
G01*
X149690000Y-110261000D02*
X149690000Y-108861000D01*
G75*
G02*
X149765000Y-108786000I75000J0D01*
G01*
X149915000Y-108786000D01*
G75*
G02*
X149990000Y-108861000I0J-75000D01*
G01*
X149990000Y-110261000D01*
G75*
G02*
X149915000Y-110336000I-75000J0D01*
G01*
X149765000Y-110336000D01*
G75*
G02*
X149690000Y-110261000I0J75000D01*
G01*
G37*
G36*
G01*
X149190000Y-110261000D02*
X149190000Y-108861000D01*
G75*
G02*
X149265000Y-108786000I75000J0D01*
G01*
X149415000Y-108786000D01*
G75*
G02*
X149490000Y-108861000I0J-75000D01*
G01*
X149490000Y-110261000D01*
G75*
G02*
X149415000Y-110336000I-75000J0D01*
G01*
X149265000Y-110336000D01*
G75*
G02*
X149190000Y-110261000I0J75000D01*
G01*
G37*
G36*
G01*
X148690000Y-110261000D02*
X148690000Y-108861000D01*
G75*
G02*
X148765000Y-108786000I75000J0D01*
G01*
X148915000Y-108786000D01*
G75*
G02*
X148990000Y-108861000I0J-75000D01*
G01*
X148990000Y-110261000D01*
G75*
G02*
X148915000Y-110336000I-75000J0D01*
G01*
X148765000Y-110336000D01*
G75*
G02*
X148690000Y-110261000I0J75000D01*
G01*
G37*
G36*
G01*
X148190000Y-110261000D02*
X148190000Y-108861000D01*
G75*
G02*
X148265000Y-108786000I75000J0D01*
G01*
X148415000Y-108786000D01*
G75*
G02*
X148490000Y-108861000I0J-75000D01*
G01*
X148490000Y-110261000D01*
G75*
G02*
X148415000Y-110336000I-75000J0D01*
G01*
X148265000Y-110336000D01*
G75*
G02*
X148190000Y-110261000I0J75000D01*
G01*
G37*
G36*
G01*
X147690000Y-110261000D02*
X147690000Y-108861000D01*
G75*
G02*
X147765000Y-108786000I75000J0D01*
G01*
X147915000Y-108786000D01*
G75*
G02*
X147990000Y-108861000I0J-75000D01*
G01*
X147990000Y-110261000D01*
G75*
G02*
X147915000Y-110336000I-75000J0D01*
G01*
X147765000Y-110336000D01*
G75*
G02*
X147690000Y-110261000I0J75000D01*
G01*
G37*
G36*
G01*
X147190000Y-110261000D02*
X147190000Y-108861000D01*
G75*
G02*
X147265000Y-108786000I75000J0D01*
G01*
X147415000Y-108786000D01*
G75*
G02*
X147490000Y-108861000I0J-75000D01*
G01*
X147490000Y-110261000D01*
G75*
G02*
X147415000Y-110336000I-75000J0D01*
G01*
X147265000Y-110336000D01*
G75*
G02*
X147190000Y-110261000I0J75000D01*
G01*
G37*
G36*
G01*
X146690000Y-110261000D02*
X146690000Y-108861000D01*
G75*
G02*
X146765000Y-108786000I75000J0D01*
G01*
X146915000Y-108786000D01*
G75*
G02*
X146990000Y-108861000I0J-75000D01*
G01*
X146990000Y-110261000D01*
G75*
G02*
X146915000Y-110336000I-75000J0D01*
G01*
X146765000Y-110336000D01*
G75*
G02*
X146690000Y-110261000I0J75000D01*
G01*
G37*
G36*
G01*
X146190000Y-110261000D02*
X146190000Y-108861000D01*
G75*
G02*
X146265000Y-108786000I75000J0D01*
G01*
X146415000Y-108786000D01*
G75*
G02*
X146490000Y-108861000I0J-75000D01*
G01*
X146490000Y-110261000D01*
G75*
G02*
X146415000Y-110336000I-75000J0D01*
G01*
X146265000Y-110336000D01*
G75*
G02*
X146190000Y-110261000I0J75000D01*
G01*
G37*
G36*
G01*
X145690000Y-110261000D02*
X145690000Y-108861000D01*
G75*
G02*
X145765000Y-108786000I75000J0D01*
G01*
X145915000Y-108786000D01*
G75*
G02*
X145990000Y-108861000I0J-75000D01*
G01*
X145990000Y-110261000D01*
G75*
G02*
X145915000Y-110336000I-75000J0D01*
G01*
X145765000Y-110336000D01*
G75*
G02*
X145690000Y-110261000I0J75000D01*
G01*
G37*
G36*
G01*
X145190000Y-110261000D02*
X145190000Y-108861000D01*
G75*
G02*
X145265000Y-108786000I75000J0D01*
G01*
X145415000Y-108786000D01*
G75*
G02*
X145490000Y-108861000I0J-75000D01*
G01*
X145490000Y-110261000D01*
G75*
G02*
X145415000Y-110336000I-75000J0D01*
G01*
X145265000Y-110336000D01*
G75*
G02*
X145190000Y-110261000I0J75000D01*
G01*
G37*
G36*
G01*
X144690000Y-110261000D02*
X144690000Y-108861000D01*
G75*
G02*
X144765000Y-108786000I75000J0D01*
G01*
X144915000Y-108786000D01*
G75*
G02*
X144990000Y-108861000I0J-75000D01*
G01*
X144990000Y-110261000D01*
G75*
G02*
X144915000Y-110336000I-75000J0D01*
G01*
X144765000Y-110336000D01*
G75*
G02*
X144690000Y-110261000I0J75000D01*
G01*
G37*
G36*
G01*
X142140000Y-107711000D02*
X142140000Y-107561000D01*
G75*
G02*
X142215000Y-107486000I75000J0D01*
G01*
X143615000Y-107486000D01*
G75*
G02*
X143690000Y-107561000I0J-75000D01*
G01*
X143690000Y-107711000D01*
G75*
G02*
X143615000Y-107786000I-75000J0D01*
G01*
X142215000Y-107786000D01*
G75*
G02*
X142140000Y-107711000I0J75000D01*
G01*
G37*
G36*
G01*
X142140000Y-107211000D02*
X142140000Y-107061000D01*
G75*
G02*
X142215000Y-106986000I75000J0D01*
G01*
X143615000Y-106986000D01*
G75*
G02*
X143690000Y-107061000I0J-75000D01*
G01*
X143690000Y-107211000D01*
G75*
G02*
X143615000Y-107286000I-75000J0D01*
G01*
X142215000Y-107286000D01*
G75*
G02*
X142140000Y-107211000I0J75000D01*
G01*
G37*
G36*
G01*
X142140000Y-106711000D02*
X142140000Y-106561000D01*
G75*
G02*
X142215000Y-106486000I75000J0D01*
G01*
X143615000Y-106486000D01*
G75*
G02*
X143690000Y-106561000I0J-75000D01*
G01*
X143690000Y-106711000D01*
G75*
G02*
X143615000Y-106786000I-75000J0D01*
G01*
X142215000Y-106786000D01*
G75*
G02*
X142140000Y-106711000I0J75000D01*
G01*
G37*
G36*
G01*
X142140000Y-106211000D02*
X142140000Y-106061000D01*
G75*
G02*
X142215000Y-105986000I75000J0D01*
G01*
X143615000Y-105986000D01*
G75*
G02*
X143690000Y-106061000I0J-75000D01*
G01*
X143690000Y-106211000D01*
G75*
G02*
X143615000Y-106286000I-75000J0D01*
G01*
X142215000Y-106286000D01*
G75*
G02*
X142140000Y-106211000I0J75000D01*
G01*
G37*
G36*
G01*
X142140000Y-105711000D02*
X142140000Y-105561000D01*
G75*
G02*
X142215000Y-105486000I75000J0D01*
G01*
X143615000Y-105486000D01*
G75*
G02*
X143690000Y-105561000I0J-75000D01*
G01*
X143690000Y-105711000D01*
G75*
G02*
X143615000Y-105786000I-75000J0D01*
G01*
X142215000Y-105786000D01*
G75*
G02*
X142140000Y-105711000I0J75000D01*
G01*
G37*
G36*
G01*
X142140000Y-105211000D02*
X142140000Y-105061000D01*
G75*
G02*
X142215000Y-104986000I75000J0D01*
G01*
X143615000Y-104986000D01*
G75*
G02*
X143690000Y-105061000I0J-75000D01*
G01*
X143690000Y-105211000D01*
G75*
G02*
X143615000Y-105286000I-75000J0D01*
G01*
X142215000Y-105286000D01*
G75*
G02*
X142140000Y-105211000I0J75000D01*
G01*
G37*
G36*
G01*
X142140000Y-104711000D02*
X142140000Y-104561000D01*
G75*
G02*
X142215000Y-104486000I75000J0D01*
G01*
X143615000Y-104486000D01*
G75*
G02*
X143690000Y-104561000I0J-75000D01*
G01*
X143690000Y-104711000D01*
G75*
G02*
X143615000Y-104786000I-75000J0D01*
G01*
X142215000Y-104786000D01*
G75*
G02*
X142140000Y-104711000I0J75000D01*
G01*
G37*
G36*
G01*
X142140000Y-104211000D02*
X142140000Y-104061000D01*
G75*
G02*
X142215000Y-103986000I75000J0D01*
G01*
X143615000Y-103986000D01*
G75*
G02*
X143690000Y-104061000I0J-75000D01*
G01*
X143690000Y-104211000D01*
G75*
G02*
X143615000Y-104286000I-75000J0D01*
G01*
X142215000Y-104286000D01*
G75*
G02*
X142140000Y-104211000I0J75000D01*
G01*
G37*
G36*
G01*
X142140000Y-103711000D02*
X142140000Y-103561000D01*
G75*
G02*
X142215000Y-103486000I75000J0D01*
G01*
X143615000Y-103486000D01*
G75*
G02*
X143690000Y-103561000I0J-75000D01*
G01*
X143690000Y-103711000D01*
G75*
G02*
X143615000Y-103786000I-75000J0D01*
G01*
X142215000Y-103786000D01*
G75*
G02*
X142140000Y-103711000I0J75000D01*
G01*
G37*
G36*
G01*
X142140000Y-103211000D02*
X142140000Y-103061000D01*
G75*
G02*
X142215000Y-102986000I75000J0D01*
G01*
X143615000Y-102986000D01*
G75*
G02*
X143690000Y-103061000I0J-75000D01*
G01*
X143690000Y-103211000D01*
G75*
G02*
X143615000Y-103286000I-75000J0D01*
G01*
X142215000Y-103286000D01*
G75*
G02*
X142140000Y-103211000I0J75000D01*
G01*
G37*
G36*
G01*
X142140000Y-102711000D02*
X142140000Y-102561000D01*
G75*
G02*
X142215000Y-102486000I75000J0D01*
G01*
X143615000Y-102486000D01*
G75*
G02*
X143690000Y-102561000I0J-75000D01*
G01*
X143690000Y-102711000D01*
G75*
G02*
X143615000Y-102786000I-75000J0D01*
G01*
X142215000Y-102786000D01*
G75*
G02*
X142140000Y-102711000I0J75000D01*
G01*
G37*
G36*
G01*
X142140000Y-102211000D02*
X142140000Y-102061000D01*
G75*
G02*
X142215000Y-101986000I75000J0D01*
G01*
X143615000Y-101986000D01*
G75*
G02*
X143690000Y-102061000I0J-75000D01*
G01*
X143690000Y-102211000D01*
G75*
G02*
X143615000Y-102286000I-75000J0D01*
G01*
X142215000Y-102286000D01*
G75*
G02*
X142140000Y-102211000I0J75000D01*
G01*
G37*
G36*
G01*
X142140000Y-101711000D02*
X142140000Y-101561000D01*
G75*
G02*
X142215000Y-101486000I75000J0D01*
G01*
X143615000Y-101486000D01*
G75*
G02*
X143690000Y-101561000I0J-75000D01*
G01*
X143690000Y-101711000D01*
G75*
G02*
X143615000Y-101786000I-75000J0D01*
G01*
X142215000Y-101786000D01*
G75*
G02*
X142140000Y-101711000I0J75000D01*
G01*
G37*
G36*
G01*
X142140000Y-101211000D02*
X142140000Y-101061000D01*
G75*
G02*
X142215000Y-100986000I75000J0D01*
G01*
X143615000Y-100986000D01*
G75*
G02*
X143690000Y-101061000I0J-75000D01*
G01*
X143690000Y-101211000D01*
G75*
G02*
X143615000Y-101286000I-75000J0D01*
G01*
X142215000Y-101286000D01*
G75*
G02*
X142140000Y-101211000I0J75000D01*
G01*
G37*
G36*
G01*
X142140000Y-100711000D02*
X142140000Y-100561000D01*
G75*
G02*
X142215000Y-100486000I75000J0D01*
G01*
X143615000Y-100486000D01*
G75*
G02*
X143690000Y-100561000I0J-75000D01*
G01*
X143690000Y-100711000D01*
G75*
G02*
X143615000Y-100786000I-75000J0D01*
G01*
X142215000Y-100786000D01*
G75*
G02*
X142140000Y-100711000I0J75000D01*
G01*
G37*
G36*
G01*
X142140000Y-100211000D02*
X142140000Y-100061000D01*
G75*
G02*
X142215000Y-99986000I75000J0D01*
G01*
X143615000Y-99986000D01*
G75*
G02*
X143690000Y-100061000I0J-75000D01*
G01*
X143690000Y-100211000D01*
G75*
G02*
X143615000Y-100286000I-75000J0D01*
G01*
X142215000Y-100286000D01*
G75*
G02*
X142140000Y-100211000I0J75000D01*
G01*
G37*
%TD*%
%TO.C,R62*%
G36*
G01*
X122865803Y-88857500D02*
X122865803Y-88307500D01*
G75*
G02*
X123065803Y-88107500I200000J0D01*
G01*
X123465803Y-88107500D01*
G75*
G02*
X123665803Y-88307500I0J-200000D01*
G01*
X123665803Y-88857500D01*
G75*
G02*
X123465803Y-89057500I-200000J0D01*
G01*
X123065803Y-89057500D01*
G75*
G02*
X122865803Y-88857500I0J200000D01*
G01*
G37*
G36*
G01*
X121215803Y-88857500D02*
X121215803Y-88307500D01*
G75*
G02*
X121415803Y-88107500I200000J0D01*
G01*
X121815803Y-88107500D01*
G75*
G02*
X122015803Y-88307500I0J-200000D01*
G01*
X122015803Y-88857500D01*
G75*
G02*
X121815803Y-89057500I-200000J0D01*
G01*
X121415803Y-89057500D01*
G75*
G02*
X121215803Y-88857500I0J200000D01*
G01*
G37*
%TD*%
%TO.C,R61*%
G36*
G01*
X124375500Y-89731900D02*
X124925500Y-89731900D01*
G75*
G02*
X125125500Y-89931900I0J-200000D01*
G01*
X125125500Y-90331900D01*
G75*
G02*
X124925500Y-90531900I-200000J0D01*
G01*
X124375500Y-90531900D01*
G75*
G02*
X124175500Y-90331900I0J200000D01*
G01*
X124175500Y-89931900D01*
G75*
G02*
X124375500Y-89731900I200000J0D01*
G01*
G37*
G36*
G01*
X124375500Y-88081900D02*
X124925500Y-88081900D01*
G75*
G02*
X125125500Y-88281900I0J-200000D01*
G01*
X125125500Y-88681900D01*
G75*
G02*
X124925500Y-88881900I-200000J0D01*
G01*
X124375500Y-88881900D01*
G75*
G02*
X124175500Y-88681900I0J200000D01*
G01*
X124175500Y-88281900D01*
G75*
G02*
X124375500Y-88081900I200000J0D01*
G01*
G37*
%TD*%
%TO.C,R60*%
G36*
G01*
X130702703Y-89289300D02*
X130702703Y-88739300D01*
G75*
G02*
X130902703Y-88539300I200000J0D01*
G01*
X131302703Y-88539300D01*
G75*
G02*
X131502703Y-88739300I0J-200000D01*
G01*
X131502703Y-89289300D01*
G75*
G02*
X131302703Y-89489300I-200000J0D01*
G01*
X130902703Y-89489300D01*
G75*
G02*
X130702703Y-89289300I0J200000D01*
G01*
G37*
G36*
G01*
X129052703Y-89289300D02*
X129052703Y-88739300D01*
G75*
G02*
X129252703Y-88539300I200000J0D01*
G01*
X129652703Y-88539300D01*
G75*
G02*
X129852703Y-88739300I0J-200000D01*
G01*
X129852703Y-89289300D01*
G75*
G02*
X129652703Y-89489300I-200000J0D01*
G01*
X129252703Y-89489300D01*
G75*
G02*
X129052703Y-89289300I0J200000D01*
G01*
G37*
%TD*%
%TO.C,R59*%
G36*
G01*
X130702100Y-90762500D02*
X130702100Y-90212500D01*
G75*
G02*
X130902100Y-90012500I200000J0D01*
G01*
X131302100Y-90012500D01*
G75*
G02*
X131502100Y-90212500I0J-200000D01*
G01*
X131502100Y-90762500D01*
G75*
G02*
X131302100Y-90962500I-200000J0D01*
G01*
X130902100Y-90962500D01*
G75*
G02*
X130702100Y-90762500I0J200000D01*
G01*
G37*
G36*
G01*
X129052100Y-90762500D02*
X129052100Y-90212500D01*
G75*
G02*
X129252100Y-90012500I200000J0D01*
G01*
X129652100Y-90012500D01*
G75*
G02*
X129852100Y-90212500I0J-200000D01*
G01*
X129852100Y-90762500D01*
G75*
G02*
X129652100Y-90962500I-200000J0D01*
G01*
X129252100Y-90962500D01*
G75*
G02*
X129052100Y-90762500I0J200000D01*
G01*
G37*
%TD*%
%TO.C,R58*%
G36*
G01*
X129775000Y-113736800D02*
X129775000Y-113186800D01*
G75*
G02*
X129975000Y-112986800I200000J0D01*
G01*
X130375000Y-112986800D01*
G75*
G02*
X130575000Y-113186800I0J-200000D01*
G01*
X130575000Y-113736800D01*
G75*
G02*
X130375000Y-113936800I-200000J0D01*
G01*
X129975000Y-113936800D01*
G75*
G02*
X129775000Y-113736800I0J200000D01*
G01*
G37*
G36*
G01*
X128125000Y-113736800D02*
X128125000Y-113186800D01*
G75*
G02*
X128325000Y-112986800I200000J0D01*
G01*
X128725000Y-112986800D01*
G75*
G02*
X128925000Y-113186800I0J-200000D01*
G01*
X128925000Y-113736800D01*
G75*
G02*
X128725000Y-113936800I-200000J0D01*
G01*
X128325000Y-113936800D01*
G75*
G02*
X128125000Y-113736800I0J200000D01*
G01*
G37*
%TD*%
%TO.C,R57*%
G36*
G01*
X131959903Y-114812400D02*
X131959903Y-115362400D01*
G75*
G02*
X131759903Y-115562400I-200000J0D01*
G01*
X131359903Y-115562400D01*
G75*
G02*
X131159903Y-115362400I0J200000D01*
G01*
X131159903Y-114812400D01*
G75*
G02*
X131359903Y-114612400I200000J0D01*
G01*
X131759903Y-114612400D01*
G75*
G02*
X131959903Y-114812400I0J-200000D01*
G01*
G37*
G36*
G01*
X133609903Y-114812400D02*
X133609903Y-115362400D01*
G75*
G02*
X133409903Y-115562400I-200000J0D01*
G01*
X133009903Y-115562400D01*
G75*
G02*
X132809903Y-115362400I0J200000D01*
G01*
X132809903Y-114812400D01*
G75*
G02*
X133009903Y-114612400I200000J0D01*
G01*
X133409903Y-114612400D01*
G75*
G02*
X133609903Y-114812400I0J-200000D01*
G01*
G37*
%TD*%
%TO.C,R56*%
G36*
G01*
X165756000Y-115284200D02*
X165206000Y-115284200D01*
G75*
G02*
X165006000Y-115084200I0J200000D01*
G01*
X165006000Y-114684200D01*
G75*
G02*
X165206000Y-114484200I200000J0D01*
G01*
X165756000Y-114484200D01*
G75*
G02*
X165956000Y-114684200I0J-200000D01*
G01*
X165956000Y-115084200D01*
G75*
G02*
X165756000Y-115284200I-200000J0D01*
G01*
G37*
G36*
G01*
X165756000Y-116934200D02*
X165206000Y-116934200D01*
G75*
G02*
X165006000Y-116734200I0J200000D01*
G01*
X165006000Y-116334200D01*
G75*
G02*
X165206000Y-116134200I200000J0D01*
G01*
X165756000Y-116134200D01*
G75*
G02*
X165956000Y-116334200I0J-200000D01*
G01*
X165956000Y-116734200D01*
G75*
G02*
X165756000Y-116934200I-200000J0D01*
G01*
G37*
%TD*%
%TO.C,R55*%
G36*
G01*
X162682600Y-115284200D02*
X162132600Y-115284200D01*
G75*
G02*
X161932600Y-115084200I0J200000D01*
G01*
X161932600Y-114684200D01*
G75*
G02*
X162132600Y-114484200I200000J0D01*
G01*
X162682600Y-114484200D01*
G75*
G02*
X162882600Y-114684200I0J-200000D01*
G01*
X162882600Y-115084200D01*
G75*
G02*
X162682600Y-115284200I-200000J0D01*
G01*
G37*
G36*
G01*
X162682600Y-116934200D02*
X162132600Y-116934200D01*
G75*
G02*
X161932600Y-116734200I0J200000D01*
G01*
X161932600Y-116334200D01*
G75*
G02*
X162132600Y-116134200I200000J0D01*
G01*
X162682600Y-116134200D01*
G75*
G02*
X162882600Y-116334200I0J-200000D01*
G01*
X162882600Y-116734200D01*
G75*
G02*
X162682600Y-116934200I-200000J0D01*
G01*
G37*
%TD*%
%TO.C,R54*%
G36*
G01*
X159609200Y-115284200D02*
X159059200Y-115284200D01*
G75*
G02*
X158859200Y-115084200I0J200000D01*
G01*
X158859200Y-114684200D01*
G75*
G02*
X159059200Y-114484200I200000J0D01*
G01*
X159609200Y-114484200D01*
G75*
G02*
X159809200Y-114684200I0J-200000D01*
G01*
X159809200Y-115084200D01*
G75*
G02*
X159609200Y-115284200I-200000J0D01*
G01*
G37*
G36*
G01*
X159609200Y-116934200D02*
X159059200Y-116934200D01*
G75*
G02*
X158859200Y-116734200I0J200000D01*
G01*
X158859200Y-116334200D01*
G75*
G02*
X159059200Y-116134200I200000J0D01*
G01*
X159609200Y-116134200D01*
G75*
G02*
X159809200Y-116334200I0J-200000D01*
G01*
X159809200Y-116734200D01*
G75*
G02*
X159609200Y-116934200I-200000J0D01*
G01*
G37*
%TD*%
%TO.C,R53*%
G36*
G01*
X156535800Y-115284200D02*
X155985800Y-115284200D01*
G75*
G02*
X155785800Y-115084200I0J200000D01*
G01*
X155785800Y-114684200D01*
G75*
G02*
X155985800Y-114484200I200000J0D01*
G01*
X156535800Y-114484200D01*
G75*
G02*
X156735800Y-114684200I0J-200000D01*
G01*
X156735800Y-115084200D01*
G75*
G02*
X156535800Y-115284200I-200000J0D01*
G01*
G37*
G36*
G01*
X156535800Y-116934200D02*
X155985800Y-116934200D01*
G75*
G02*
X155785800Y-116734200I0J200000D01*
G01*
X155785800Y-116334200D01*
G75*
G02*
X155985800Y-116134200I200000J0D01*
G01*
X156535800Y-116134200D01*
G75*
G02*
X156735800Y-116334200I0J-200000D01*
G01*
X156735800Y-116734200D01*
G75*
G02*
X156535800Y-116934200I-200000J0D01*
G01*
G37*
%TD*%
%TO.C,R52*%
G36*
G01*
X153462400Y-115284200D02*
X152912400Y-115284200D01*
G75*
G02*
X152712400Y-115084200I0J200000D01*
G01*
X152712400Y-114684200D01*
G75*
G02*
X152912400Y-114484200I200000J0D01*
G01*
X153462400Y-114484200D01*
G75*
G02*
X153662400Y-114684200I0J-200000D01*
G01*
X153662400Y-115084200D01*
G75*
G02*
X153462400Y-115284200I-200000J0D01*
G01*
G37*
G36*
G01*
X153462400Y-116934200D02*
X152912400Y-116934200D01*
G75*
G02*
X152712400Y-116734200I0J200000D01*
G01*
X152712400Y-116334200D01*
G75*
G02*
X152912400Y-116134200I200000J0D01*
G01*
X153462400Y-116134200D01*
G75*
G02*
X153662400Y-116334200I0J-200000D01*
G01*
X153662400Y-116734200D01*
G75*
G02*
X153462400Y-116934200I-200000J0D01*
G01*
G37*
%TD*%
%TO.C,R51*%
G36*
G01*
X150363600Y-115284200D02*
X149813600Y-115284200D01*
G75*
G02*
X149613600Y-115084200I0J200000D01*
G01*
X149613600Y-114684200D01*
G75*
G02*
X149813600Y-114484200I200000J0D01*
G01*
X150363600Y-114484200D01*
G75*
G02*
X150563600Y-114684200I0J-200000D01*
G01*
X150563600Y-115084200D01*
G75*
G02*
X150363600Y-115284200I-200000J0D01*
G01*
G37*
G36*
G01*
X150363600Y-116934200D02*
X149813600Y-116934200D01*
G75*
G02*
X149613600Y-116734200I0J200000D01*
G01*
X149613600Y-116334200D01*
G75*
G02*
X149813600Y-116134200I200000J0D01*
G01*
X150363600Y-116134200D01*
G75*
G02*
X150563600Y-116334200I0J-200000D01*
G01*
X150563600Y-116734200D01*
G75*
G02*
X150363600Y-116934200I-200000J0D01*
G01*
G37*
%TD*%
%TO.C,R50*%
G36*
G01*
X173897906Y-95120680D02*
X173347906Y-95120680D01*
G75*
G02*
X173147906Y-94920680I0J200000D01*
G01*
X173147906Y-94520680D01*
G75*
G02*
X173347906Y-94320680I200000J0D01*
G01*
X173897906Y-94320680D01*
G75*
G02*
X174097906Y-94520680I0J-200000D01*
G01*
X174097906Y-94920680D01*
G75*
G02*
X173897906Y-95120680I-200000J0D01*
G01*
G37*
G36*
G01*
X173897906Y-93470680D02*
X173347906Y-93470680D01*
G75*
G02*
X173147906Y-93270680I0J200000D01*
G01*
X173147906Y-92870680D01*
G75*
G02*
X173347906Y-92670680I200000J0D01*
G01*
X173897906Y-92670680D01*
G75*
G02*
X174097906Y-92870680I0J-200000D01*
G01*
X174097906Y-93270680D01*
G75*
G02*
X173897906Y-93470680I-200000J0D01*
G01*
G37*
%TD*%
%TO.C,R49*%
G36*
G01*
X196743703Y-85263400D02*
X196743703Y-84713400D01*
G75*
G02*
X196943703Y-84513400I200000J0D01*
G01*
X197343703Y-84513400D01*
G75*
G02*
X197543703Y-84713400I0J-200000D01*
G01*
X197543703Y-85263400D01*
G75*
G02*
X197343703Y-85463400I-200000J0D01*
G01*
X196943703Y-85463400D01*
G75*
G02*
X196743703Y-85263400I0J200000D01*
G01*
G37*
G36*
G01*
X198393703Y-85263400D02*
X198393703Y-84713400D01*
G75*
G02*
X198593703Y-84513400I200000J0D01*
G01*
X198993703Y-84513400D01*
G75*
G02*
X199193703Y-84713400I0J-200000D01*
G01*
X199193703Y-85263400D01*
G75*
G02*
X198993703Y-85463400I-200000J0D01*
G01*
X198593703Y-85463400D01*
G75*
G02*
X198393703Y-85263400I0J200000D01*
G01*
G37*
%TD*%
%TO.C,R48*%
G36*
G01*
X191013903Y-81325643D02*
X191013903Y-81875643D01*
G75*
G02*
X190813903Y-82075643I-200000J0D01*
G01*
X190413903Y-82075643D01*
G75*
G02*
X190213903Y-81875643I0J200000D01*
G01*
X190213903Y-81325643D01*
G75*
G02*
X190413903Y-81125643I200000J0D01*
G01*
X190813903Y-81125643D01*
G75*
G02*
X191013903Y-81325643I0J-200000D01*
G01*
G37*
G36*
G01*
X189363903Y-81325643D02*
X189363903Y-81875643D01*
G75*
G02*
X189163903Y-82075643I-200000J0D01*
G01*
X188763903Y-82075643D01*
G75*
G02*
X188563903Y-81875643I0J200000D01*
G01*
X188563903Y-81325643D01*
G75*
G02*
X188763903Y-81125643I200000J0D01*
G01*
X189163903Y-81125643D01*
G75*
G02*
X189363903Y-81325643I0J-200000D01*
G01*
G37*
%TD*%
%TO.C,R47*%
G36*
G01*
X195705423Y-82827402D02*
X195705423Y-85677404D01*
G75*
G02*
X195455424Y-85927403I-249999J0D01*
G01*
X194730422Y-85927403D01*
G75*
G02*
X194480423Y-85677404I0J249999D01*
G01*
X194480423Y-82827402D01*
G75*
G02*
X194730422Y-82577403I249999J0D01*
G01*
X195455424Y-82577403D01*
G75*
G02*
X195705423Y-82827402I0J-249999D01*
G01*
G37*
G36*
G01*
X189780423Y-82827402D02*
X189780423Y-85677404D01*
G75*
G02*
X189530424Y-85927403I-249999J0D01*
G01*
X188805422Y-85927403D01*
G75*
G02*
X188555423Y-85677404I0J249999D01*
G01*
X188555423Y-82827402D01*
G75*
G02*
X188805422Y-82577403I249999J0D01*
G01*
X189530424Y-82577403D01*
G75*
G02*
X189780423Y-82827402I0J-249999D01*
G01*
G37*
%TD*%
%TO.C,R46*%
G36*
G01*
X195704423Y-86700902D02*
X195704423Y-89550904D01*
G75*
G02*
X195454424Y-89800903I-249999J0D01*
G01*
X194729422Y-89800903D01*
G75*
G02*
X194479423Y-89550904I0J249999D01*
G01*
X194479423Y-86700902D01*
G75*
G02*
X194729422Y-86450903I249999J0D01*
G01*
X195454424Y-86450903D01*
G75*
G02*
X195704423Y-86700902I0J-249999D01*
G01*
G37*
G36*
G01*
X189779423Y-86700902D02*
X189779423Y-89550904D01*
G75*
G02*
X189529424Y-89800903I-249999J0D01*
G01*
X188804422Y-89800903D01*
G75*
G02*
X188554423Y-89550904I0J249999D01*
G01*
X188554423Y-86700902D01*
G75*
G02*
X188804422Y-86450903I249999J0D01*
G01*
X189529424Y-86450903D01*
G75*
G02*
X189779423Y-86700902I0J-249999D01*
G01*
G37*
%TD*%
%TO.C,R45*%
G36*
G01*
X172436803Y-95114997D02*
X171886803Y-95114997D01*
G75*
G02*
X171686803Y-94914997I0J200000D01*
G01*
X171686803Y-94514997D01*
G75*
G02*
X171886803Y-94314997I200000J0D01*
G01*
X172436803Y-94314997D01*
G75*
G02*
X172636803Y-94514997I0J-200000D01*
G01*
X172636803Y-94914997D01*
G75*
G02*
X172436803Y-95114997I-200000J0D01*
G01*
G37*
G36*
G01*
X172436803Y-93464997D02*
X171886803Y-93464997D01*
G75*
G02*
X171686803Y-93264997I0J200000D01*
G01*
X171686803Y-92864997D01*
G75*
G02*
X171886803Y-92664997I200000J0D01*
G01*
X172436803Y-92664997D01*
G75*
G02*
X172636803Y-92864997I0J-200000D01*
G01*
X172636803Y-93264997D01*
G75*
G02*
X172436803Y-93464997I-200000J0D01*
G01*
G37*
%TD*%
%TO.C,R44*%
G36*
G01*
X181675423Y-85434183D02*
X181675423Y-84884183D01*
G75*
G02*
X181875423Y-84684183I200000J0D01*
G01*
X182275423Y-84684183D01*
G75*
G02*
X182475423Y-84884183I0J-200000D01*
G01*
X182475423Y-85434183D01*
G75*
G02*
X182275423Y-85634183I-200000J0D01*
G01*
X181875423Y-85634183D01*
G75*
G02*
X181675423Y-85434183I0J200000D01*
G01*
G37*
G36*
G01*
X183325423Y-85434183D02*
X183325423Y-84884183D01*
G75*
G02*
X183525423Y-84684183I200000J0D01*
G01*
X183925423Y-84684183D01*
G75*
G02*
X184125423Y-84884183I0J-200000D01*
G01*
X184125423Y-85434183D01*
G75*
G02*
X183925423Y-85634183I-200000J0D01*
G01*
X183525423Y-85634183D01*
G75*
G02*
X183325423Y-85434183I0J200000D01*
G01*
G37*
%TD*%
%TO.C,R43*%
G36*
G01*
X176485103Y-81475503D02*
X176485103Y-82025503D01*
G75*
G02*
X176285103Y-82225503I-200000J0D01*
G01*
X175885103Y-82225503D01*
G75*
G02*
X175685103Y-82025503I0J200000D01*
G01*
X175685103Y-81475503D01*
G75*
G02*
X175885103Y-81275503I200000J0D01*
G01*
X176285103Y-81275503D01*
G75*
G02*
X176485103Y-81475503I0J-200000D01*
G01*
G37*
G36*
G01*
X174835103Y-81475503D02*
X174835103Y-82025503D01*
G75*
G02*
X174635103Y-82225503I-200000J0D01*
G01*
X174235103Y-82225503D01*
G75*
G02*
X174035103Y-82025503I0J200000D01*
G01*
X174035103Y-81475503D01*
G75*
G02*
X174235103Y-81275503I200000J0D01*
G01*
X174635103Y-81275503D01*
G75*
G02*
X174835103Y-81475503I0J-200000D01*
G01*
G37*
%TD*%
%TO.C,R42*%
G36*
G01*
X181174083Y-82979802D02*
X181174083Y-85829804D01*
G75*
G02*
X180924084Y-86079803I-249999J0D01*
G01*
X180199082Y-86079803D01*
G75*
G02*
X179949083Y-85829804I0J249999D01*
G01*
X179949083Y-82979802D01*
G75*
G02*
X180199082Y-82729803I249999J0D01*
G01*
X180924084Y-82729803D01*
G75*
G02*
X181174083Y-82979802I0J-249999D01*
G01*
G37*
G36*
G01*
X175249083Y-82979802D02*
X175249083Y-85829804D01*
G75*
G02*
X174999084Y-86079803I-249999J0D01*
G01*
X174274082Y-86079803D01*
G75*
G02*
X174024083Y-85829804I0J249999D01*
G01*
X174024083Y-82979802D01*
G75*
G02*
X174274082Y-82729803I249999J0D01*
G01*
X174999084Y-82729803D01*
G75*
G02*
X175249083Y-82979802I0J-249999D01*
G01*
G37*
%TD*%
%TO.C,R41*%
G36*
G01*
X181175503Y-86810402D02*
X181175503Y-89660404D01*
G75*
G02*
X180925504Y-89910403I-249999J0D01*
G01*
X180200502Y-89910403D01*
G75*
G02*
X179950503Y-89660404I0J249999D01*
G01*
X179950503Y-86810402D01*
G75*
G02*
X180200502Y-86560403I249999J0D01*
G01*
X180925504Y-86560403D01*
G75*
G02*
X181175503Y-86810402I0J-249999D01*
G01*
G37*
G36*
G01*
X175250503Y-86810402D02*
X175250503Y-89660404D01*
G75*
G02*
X175000504Y-89910403I-249999J0D01*
G01*
X174275502Y-89910403D01*
G75*
G02*
X174025503Y-89660404I0J249999D01*
G01*
X174025503Y-86810402D01*
G75*
G02*
X174275502Y-86560403I249999J0D01*
G01*
X175000504Y-86560403D01*
G75*
G02*
X175250503Y-86810402I0J-249999D01*
G01*
G37*
%TD*%
%TO.C,R40*%
G36*
G01*
X168034983Y-93464997D02*
X167484983Y-93464997D01*
G75*
G02*
X167284983Y-93264997I0J200000D01*
G01*
X167284983Y-92864997D01*
G75*
G02*
X167484983Y-92664997I200000J0D01*
G01*
X168034983Y-92664997D01*
G75*
G02*
X168234983Y-92864997I0J-200000D01*
G01*
X168234983Y-93264997D01*
G75*
G02*
X168034983Y-93464997I-200000J0D01*
G01*
G37*
G36*
G01*
X168034983Y-95114997D02*
X167484983Y-95114997D01*
G75*
G02*
X167284983Y-94914997I0J200000D01*
G01*
X167284983Y-94514997D01*
G75*
G02*
X167484983Y-94314997I200000J0D01*
G01*
X168034983Y-94314997D01*
G75*
G02*
X168234983Y-94514997I0J-200000D01*
G01*
X168234983Y-94914997D01*
G75*
G02*
X168034983Y-95114997I-200000J0D01*
G01*
G37*
%TD*%
%TO.C,R39*%
G36*
G01*
X180822883Y-96638097D02*
X180822883Y-97188097D01*
G75*
G02*
X180622883Y-97388097I-200000J0D01*
G01*
X180222883Y-97388097D01*
G75*
G02*
X180022883Y-97188097I0J200000D01*
G01*
X180022883Y-96638097D01*
G75*
G02*
X180222883Y-96438097I200000J0D01*
G01*
X180622883Y-96438097D01*
G75*
G02*
X180822883Y-96638097I0J-200000D01*
G01*
G37*
G36*
G01*
X182472883Y-96638097D02*
X182472883Y-97188097D01*
G75*
G02*
X182272883Y-97388097I-200000J0D01*
G01*
X181872883Y-97388097D01*
G75*
G02*
X181672883Y-97188097I0J200000D01*
G01*
X181672883Y-96638097D01*
G75*
G02*
X181872883Y-96438097I200000J0D01*
G01*
X182272883Y-96438097D01*
G75*
G02*
X182472883Y-96638097I0J-200000D01*
G01*
G37*
%TD*%
%TO.C,R38*%
G36*
G01*
X189323363Y-100586617D02*
X189323363Y-100036617D01*
G75*
G02*
X189523363Y-99836617I200000J0D01*
G01*
X189923363Y-99836617D01*
G75*
G02*
X190123363Y-100036617I0J-200000D01*
G01*
X190123363Y-100586617D01*
G75*
G02*
X189923363Y-100786617I-200000J0D01*
G01*
X189523363Y-100786617D01*
G75*
G02*
X189323363Y-100586617I0J200000D01*
G01*
G37*
G36*
G01*
X187673363Y-100586617D02*
X187673363Y-100036617D01*
G75*
G02*
X187873363Y-99836617I200000J0D01*
G01*
X188273363Y-99836617D01*
G75*
G02*
X188473363Y-100036617I0J-200000D01*
G01*
X188473363Y-100586617D01*
G75*
G02*
X188273363Y-100786617I-200000J0D01*
G01*
X187873363Y-100786617D01*
G75*
G02*
X187673363Y-100586617I0J200000D01*
G01*
G37*
%TD*%
%TO.C,R37*%
G36*
G01*
X188910383Y-99087398D02*
X188910383Y-96237396D01*
G75*
G02*
X189160382Y-95987397I249999J0D01*
G01*
X189885384Y-95987397D01*
G75*
G02*
X190135383Y-96237396I0J-249999D01*
G01*
X190135383Y-99087398D01*
G75*
G02*
X189885384Y-99337397I-249999J0D01*
G01*
X189160382Y-99337397D01*
G75*
G02*
X188910383Y-99087398I0J249999D01*
G01*
G37*
G36*
G01*
X182985383Y-99087398D02*
X182985383Y-96237396D01*
G75*
G02*
X183235382Y-95987397I249999J0D01*
G01*
X183960384Y-95987397D01*
G75*
G02*
X184210383Y-96237396I0J-249999D01*
G01*
X184210383Y-99087398D01*
G75*
G02*
X183960384Y-99337397I-249999J0D01*
G01*
X183235382Y-99337397D01*
G75*
G02*
X182985383Y-99087398I0J249999D01*
G01*
G37*
%TD*%
%TO.C,R36*%
G36*
G01*
X188910383Y-95218798D02*
X188910383Y-92368796D01*
G75*
G02*
X189160382Y-92118797I249999J0D01*
G01*
X189885384Y-92118797D01*
G75*
G02*
X190135383Y-92368796I0J-249999D01*
G01*
X190135383Y-95218798D01*
G75*
G02*
X189885384Y-95468797I-249999J0D01*
G01*
X189160382Y-95468797D01*
G75*
G02*
X188910383Y-95218798I0J249999D01*
G01*
G37*
G36*
G01*
X182985383Y-95218798D02*
X182985383Y-92368796D01*
G75*
G02*
X183235382Y-92118797I249999J0D01*
G01*
X183960384Y-92118797D01*
G75*
G02*
X184210383Y-92368796I0J-249999D01*
G01*
X184210383Y-95218798D01*
G75*
G02*
X183960384Y-95468797I-249999J0D01*
G01*
X183235382Y-95468797D01*
G75*
G02*
X182985383Y-95218798I0J249999D01*
G01*
G37*
%TD*%
%TO.C,R35*%
G36*
G01*
X169232503Y-110013800D02*
X169782503Y-110013800D01*
G75*
G02*
X169982503Y-110213800I0J-200000D01*
G01*
X169982503Y-110613800D01*
G75*
G02*
X169782503Y-110813800I-200000J0D01*
G01*
X169232503Y-110813800D01*
G75*
G02*
X169032503Y-110613800I0J200000D01*
G01*
X169032503Y-110213800D01*
G75*
G02*
X169232503Y-110013800I200000J0D01*
G01*
G37*
G36*
G01*
X169232503Y-111663800D02*
X169782503Y-111663800D01*
G75*
G02*
X169982503Y-111863800I0J-200000D01*
G01*
X169982503Y-112263800D01*
G75*
G02*
X169782503Y-112463800I-200000J0D01*
G01*
X169232503Y-112463800D01*
G75*
G02*
X169032503Y-112263800I0J200000D01*
G01*
X169032503Y-111863800D01*
G75*
G02*
X169232503Y-111663800I200000J0D01*
G01*
G37*
%TD*%
%TO.C,R34*%
G36*
G01*
X182472883Y-107656617D02*
X182472883Y-108206617D01*
G75*
G02*
X182272883Y-108406617I-200000J0D01*
G01*
X181872883Y-108406617D01*
G75*
G02*
X181672883Y-108206617I0J200000D01*
G01*
X181672883Y-107656617D01*
G75*
G02*
X181872883Y-107456617I200000J0D01*
G01*
X182272883Y-107456617D01*
G75*
G02*
X182472883Y-107656617I0J-200000D01*
G01*
G37*
G36*
G01*
X180822883Y-107656617D02*
X180822883Y-108206617D01*
G75*
G02*
X180622883Y-108406617I-200000J0D01*
G01*
X180222883Y-108406617D01*
G75*
G02*
X180022883Y-108206617I0J200000D01*
G01*
X180022883Y-107656617D01*
G75*
G02*
X180222883Y-107456617I200000J0D01*
G01*
X180622883Y-107456617D01*
G75*
G02*
X180822883Y-107656617I0J-200000D01*
G01*
G37*
%TD*%
%TO.C,R33*%
G36*
G01*
X186144283Y-111610217D02*
X186144283Y-111060217D01*
G75*
G02*
X186344283Y-110860217I200000J0D01*
G01*
X186744283Y-110860217D01*
G75*
G02*
X186944283Y-111060217I0J-200000D01*
G01*
X186944283Y-111610217D01*
G75*
G02*
X186744283Y-111810217I-200000J0D01*
G01*
X186344283Y-111810217D01*
G75*
G02*
X186144283Y-111610217I0J200000D01*
G01*
G37*
G36*
G01*
X187794283Y-111610217D02*
X187794283Y-111060217D01*
G75*
G02*
X187994283Y-110860217I200000J0D01*
G01*
X188394283Y-110860217D01*
G75*
G02*
X188594283Y-111060217I0J-200000D01*
G01*
X188594283Y-111610217D01*
G75*
G02*
X188394283Y-111810217I-200000J0D01*
G01*
X187994283Y-111810217D01*
G75*
G02*
X187794283Y-111610217I0J200000D01*
G01*
G37*
%TD*%
%TO.C,R32*%
G36*
G01*
X182984383Y-106232418D02*
X182984383Y-103382416D01*
G75*
G02*
X183234382Y-103132417I249999J0D01*
G01*
X183959384Y-103132417D01*
G75*
G02*
X184209383Y-103382416I0J-249999D01*
G01*
X184209383Y-106232418D01*
G75*
G02*
X183959384Y-106482417I-249999J0D01*
G01*
X183234382Y-106482417D01*
G75*
G02*
X182984383Y-106232418I0J249999D01*
G01*
G37*
G36*
G01*
X188909383Y-106232418D02*
X188909383Y-103382416D01*
G75*
G02*
X189159382Y-103132417I249999J0D01*
G01*
X189884384Y-103132417D01*
G75*
G02*
X190134383Y-103382416I0J-249999D01*
G01*
X190134383Y-106232418D01*
G75*
G02*
X189884384Y-106482417I-249999J0D01*
G01*
X189159382Y-106482417D01*
G75*
G02*
X188909383Y-106232418I0J249999D01*
G01*
G37*
%TD*%
%TO.C,R31*%
G36*
G01*
X182981483Y-110101618D02*
X182981483Y-107251616D01*
G75*
G02*
X183231482Y-107001617I249999J0D01*
G01*
X183956484Y-107001617D01*
G75*
G02*
X184206483Y-107251616I0J-249999D01*
G01*
X184206483Y-110101618D01*
G75*
G02*
X183956484Y-110351617I-249999J0D01*
G01*
X183231482Y-110351617D01*
G75*
G02*
X182981483Y-110101618I0J249999D01*
G01*
G37*
G36*
G01*
X188906483Y-110101618D02*
X188906483Y-107251616D01*
G75*
G02*
X189156482Y-107001617I249999J0D01*
G01*
X189881484Y-107001617D01*
G75*
G02*
X190131483Y-107251616I0J-249999D01*
G01*
X190131483Y-110101618D01*
G75*
G02*
X189881484Y-110351617I-249999J0D01*
G01*
X189156482Y-110351617D01*
G75*
G02*
X188906483Y-110101618I0J249999D01*
G01*
G37*
%TD*%
%TO.C,R30*%
G36*
G01*
X172153503Y-111675897D02*
X172703503Y-111675897D01*
G75*
G02*
X172903503Y-111875897I0J-200000D01*
G01*
X172903503Y-112275897D01*
G75*
G02*
X172703503Y-112475897I-200000J0D01*
G01*
X172153503Y-112475897D01*
G75*
G02*
X171953503Y-112275897I0J200000D01*
G01*
X171953503Y-111875897D01*
G75*
G02*
X172153503Y-111675897I200000J0D01*
G01*
G37*
G36*
G01*
X172153503Y-110025897D02*
X172703503Y-110025897D01*
G75*
G02*
X172903503Y-110225897I0J-200000D01*
G01*
X172903503Y-110625897D01*
G75*
G02*
X172703503Y-110825897I-200000J0D01*
G01*
X172153503Y-110825897D01*
G75*
G02*
X171953503Y-110625897I0J200000D01*
G01*
X171953503Y-110225897D01*
G75*
G02*
X172153503Y-110025897I200000J0D01*
G01*
G37*
%TD*%
%TO.C,R29*%
G36*
G01*
X175255203Y-119688597D02*
X175255203Y-120238597D01*
G75*
G02*
X175055203Y-120438597I-200000J0D01*
G01*
X174655203Y-120438597D01*
G75*
G02*
X174455203Y-120238597I0J200000D01*
G01*
X174455203Y-119688597D01*
G75*
G02*
X174655203Y-119488597I200000J0D01*
G01*
X175055203Y-119488597D01*
G75*
G02*
X175255203Y-119688597I0J-200000D01*
G01*
G37*
G36*
G01*
X176905203Y-119688597D02*
X176905203Y-120238597D01*
G75*
G02*
X176705203Y-120438597I-200000J0D01*
G01*
X176305203Y-120438597D01*
G75*
G02*
X176105203Y-120238597I0J200000D01*
G01*
X176105203Y-119688597D01*
G75*
G02*
X176305203Y-119488597I200000J0D01*
G01*
X176705203Y-119488597D01*
G75*
G02*
X176905203Y-119688597I0J-200000D01*
G01*
G37*
%TD*%
%TO.C,R28*%
G36*
G01*
X183750603Y-123642197D02*
X183750603Y-123092197D01*
G75*
G02*
X183950603Y-122892197I200000J0D01*
G01*
X184350603Y-122892197D01*
G75*
G02*
X184550603Y-123092197I0J-200000D01*
G01*
X184550603Y-123642197D01*
G75*
G02*
X184350603Y-123842197I-200000J0D01*
G01*
X183950603Y-123842197D01*
G75*
G02*
X183750603Y-123642197I0J200000D01*
G01*
G37*
G36*
G01*
X182100603Y-123642197D02*
X182100603Y-123092197D01*
G75*
G02*
X182300603Y-122892197I200000J0D01*
G01*
X182700603Y-122892197D01*
G75*
G02*
X182900603Y-123092197I0J-200000D01*
G01*
X182900603Y-123642197D01*
G75*
G02*
X182700603Y-123842197I-200000J0D01*
G01*
X182300603Y-123842197D01*
G75*
G02*
X182100603Y-123642197I0J200000D01*
G01*
G37*
%TD*%
%TO.C,R27*%
G36*
G01*
X183338803Y-118262698D02*
X183338803Y-115412696D01*
G75*
G02*
X183588802Y-115162697I249999J0D01*
G01*
X184313804Y-115162697D01*
G75*
G02*
X184563803Y-115412696I0J-249999D01*
G01*
X184563803Y-118262698D01*
G75*
G02*
X184313804Y-118512697I-249999J0D01*
G01*
X183588802Y-118512697D01*
G75*
G02*
X183338803Y-118262698I0J249999D01*
G01*
G37*
G36*
G01*
X177413803Y-118262698D02*
X177413803Y-115412696D01*
G75*
G02*
X177663802Y-115162697I249999J0D01*
G01*
X178388804Y-115162697D01*
G75*
G02*
X178638803Y-115412696I0J-249999D01*
G01*
X178638803Y-118262698D01*
G75*
G02*
X178388804Y-118512697I-249999J0D01*
G01*
X177663802Y-118512697D01*
G75*
G02*
X177413803Y-118262698I0J249999D01*
G01*
G37*
%TD*%
%TO.C,R26*%
G36*
G01*
X183338803Y-122137898D02*
X183338803Y-119287896D01*
G75*
G02*
X183588802Y-119037897I249999J0D01*
G01*
X184313804Y-119037897D01*
G75*
G02*
X184563803Y-119287896I0J-249999D01*
G01*
X184563803Y-122137898D01*
G75*
G02*
X184313804Y-122387897I-249999J0D01*
G01*
X183588802Y-122387897D01*
G75*
G02*
X183338803Y-122137898I0J249999D01*
G01*
G37*
G36*
G01*
X177413803Y-122137898D02*
X177413803Y-119287896D01*
G75*
G02*
X177663802Y-119037897I249999J0D01*
G01*
X178388804Y-119037897D01*
G75*
G02*
X178638803Y-119287896I0J-249999D01*
G01*
X178638803Y-122137898D01*
G75*
G02*
X178388804Y-122387897I-249999J0D01*
G01*
X177663802Y-122387897D01*
G75*
G02*
X177413803Y-122137898I0J249999D01*
G01*
G37*
%TD*%
%TO.C,R25*%
G36*
G01*
X175099903Y-111689200D02*
X175649903Y-111689200D01*
G75*
G02*
X175849903Y-111889200I0J-200000D01*
G01*
X175849903Y-112289200D01*
G75*
G02*
X175649903Y-112489200I-200000J0D01*
G01*
X175099903Y-112489200D01*
G75*
G02*
X174899903Y-112289200I0J200000D01*
G01*
X174899903Y-111889200D01*
G75*
G02*
X175099903Y-111689200I200000J0D01*
G01*
G37*
G36*
G01*
X175099903Y-110039200D02*
X175649903Y-110039200D01*
G75*
G02*
X175849903Y-110239200I0J-200000D01*
G01*
X175849903Y-110639200D01*
G75*
G02*
X175649903Y-110839200I-200000J0D01*
G01*
X175099903Y-110839200D01*
G75*
G02*
X174899903Y-110639200I0J200000D01*
G01*
X174899903Y-110239200D01*
G75*
G02*
X175099903Y-110039200I200000J0D01*
G01*
G37*
%TD*%
%TO.C,R24*%
G36*
G01*
X189262303Y-119536800D02*
X189262303Y-120086800D01*
G75*
G02*
X189062303Y-120286800I-200000J0D01*
G01*
X188662303Y-120286800D01*
G75*
G02*
X188462303Y-120086800I0J200000D01*
G01*
X188462303Y-119536800D01*
G75*
G02*
X188662303Y-119336800I200000J0D01*
G01*
X189062303Y-119336800D01*
G75*
G02*
X189262303Y-119536800I0J-200000D01*
G01*
G37*
G36*
G01*
X190912303Y-119536800D02*
X190912303Y-120086800D01*
G75*
G02*
X190712303Y-120286800I-200000J0D01*
G01*
X190312303Y-120286800D01*
G75*
G02*
X190112303Y-120086800I0J200000D01*
G01*
X190112303Y-119536800D01*
G75*
G02*
X190312303Y-119336800I200000J0D01*
G01*
X190712303Y-119336800D01*
G75*
G02*
X190912303Y-119536800I0J-200000D01*
G01*
G37*
%TD*%
%TO.C,R23*%
G36*
G01*
X198203203Y-123719000D02*
X198203203Y-123169000D01*
G75*
G02*
X198403203Y-122969000I200000J0D01*
G01*
X198803203Y-122969000D01*
G75*
G02*
X199003203Y-123169000I0J-200000D01*
G01*
X199003203Y-123719000D01*
G75*
G02*
X198803203Y-123919000I-200000J0D01*
G01*
X198403203Y-123919000D01*
G75*
G02*
X198203203Y-123719000I0J200000D01*
G01*
G37*
G36*
G01*
X196553203Y-123719000D02*
X196553203Y-123169000D01*
G75*
G02*
X196753203Y-122969000I200000J0D01*
G01*
X197153203Y-122969000D01*
G75*
G02*
X197353203Y-123169000I0J-200000D01*
G01*
X197353203Y-123719000D01*
G75*
G02*
X197153203Y-123919000I-200000J0D01*
G01*
X196753203Y-123919000D01*
G75*
G02*
X196553203Y-123719000I0J200000D01*
G01*
G37*
%TD*%
%TO.C,R21*%
G36*
G01*
X197783903Y-122099798D02*
X197783903Y-119249796D01*
G75*
G02*
X198033902Y-118999797I249999J0D01*
G01*
X198758904Y-118999797D01*
G75*
G02*
X199008903Y-119249796I0J-249999D01*
G01*
X199008903Y-122099798D01*
G75*
G02*
X198758904Y-122349797I-249999J0D01*
G01*
X198033902Y-122349797D01*
G75*
G02*
X197783903Y-122099798I0J249999D01*
G01*
G37*
G36*
G01*
X191858903Y-122099798D02*
X191858903Y-119249796D01*
G75*
G02*
X192108902Y-118999797I249999J0D01*
G01*
X192833904Y-118999797D01*
G75*
G02*
X193083903Y-119249796I0J-249999D01*
G01*
X193083903Y-122099798D01*
G75*
G02*
X192833904Y-122349797I-249999J0D01*
G01*
X192108902Y-122349797D01*
G75*
G02*
X191858903Y-122099798I0J249999D01*
G01*
G37*
%TD*%
%TO.C,R20*%
G36*
G01*
X164257003Y-104156497D02*
X164257003Y-104706497D01*
G75*
G02*
X164057003Y-104906497I-200000J0D01*
G01*
X163657003Y-104906497D01*
G75*
G02*
X163457003Y-104706497I0J200000D01*
G01*
X163457003Y-104156497D01*
G75*
G02*
X163657003Y-103956497I200000J0D01*
G01*
X164057003Y-103956497D01*
G75*
G02*
X164257003Y-104156497I0J-200000D01*
G01*
G37*
G36*
G01*
X165907003Y-104156497D02*
X165907003Y-104706497D01*
G75*
G02*
X165707003Y-104906497I-200000J0D01*
G01*
X165307003Y-104906497D01*
G75*
G02*
X165107003Y-104706497I0J200000D01*
G01*
X165107003Y-104156497D01*
G75*
G02*
X165307003Y-103956497I200000J0D01*
G01*
X165707003Y-103956497D01*
G75*
G02*
X165907003Y-104156497I0J-200000D01*
G01*
G37*
%TD*%
%TO.C,R19*%
G36*
G01*
X161764903Y-101693697D02*
X162314903Y-101693697D01*
G75*
G02*
X162514903Y-101893697I0J-200000D01*
G01*
X162514903Y-102293697D01*
G75*
G02*
X162314903Y-102493697I-200000J0D01*
G01*
X161764903Y-102493697D01*
G75*
G02*
X161564903Y-102293697I0J200000D01*
G01*
X161564903Y-101893697D01*
G75*
G02*
X161764903Y-101693697I200000J0D01*
G01*
G37*
G36*
G01*
X161764903Y-100043697D02*
X162314903Y-100043697D01*
G75*
G02*
X162514903Y-100243697I0J-200000D01*
G01*
X162514903Y-100643697D01*
G75*
G02*
X162314903Y-100843697I-200000J0D01*
G01*
X161764903Y-100843697D01*
G75*
G02*
X161564903Y-100643697I0J200000D01*
G01*
X161564903Y-100243697D01*
G75*
G02*
X161764903Y-100043697I200000J0D01*
G01*
G37*
%TD*%
%TO.C,R18*%
G36*
G01*
X164257003Y-105616997D02*
X164257003Y-106166997D01*
G75*
G02*
X164057003Y-106366997I-200000J0D01*
G01*
X163657003Y-106366997D01*
G75*
G02*
X163457003Y-106166997I0J200000D01*
G01*
X163457003Y-105616997D01*
G75*
G02*
X163657003Y-105416997I200000J0D01*
G01*
X164057003Y-105416997D01*
G75*
G02*
X164257003Y-105616997I0J-200000D01*
G01*
G37*
G36*
G01*
X165907003Y-105616997D02*
X165907003Y-106166997D01*
G75*
G02*
X165707003Y-106366997I-200000J0D01*
G01*
X165307003Y-106366997D01*
G75*
G02*
X165107003Y-106166997I0J200000D01*
G01*
X165107003Y-105616997D01*
G75*
G02*
X165307003Y-105416997I200000J0D01*
G01*
X165707003Y-105416997D01*
G75*
G02*
X165907003Y-105616997I0J-200000D01*
G01*
G37*
%TD*%
%TO.C,R17*%
G36*
G01*
X164257003Y-107077497D02*
X164257003Y-107627497D01*
G75*
G02*
X164057003Y-107827497I-200000J0D01*
G01*
X163657003Y-107827497D01*
G75*
G02*
X163457003Y-107627497I0J200000D01*
G01*
X163457003Y-107077497D01*
G75*
G02*
X163657003Y-106877497I200000J0D01*
G01*
X164057003Y-106877497D01*
G75*
G02*
X164257003Y-107077497I0J-200000D01*
G01*
G37*
G36*
G01*
X165907003Y-107077497D02*
X165907003Y-107627497D01*
G75*
G02*
X165707003Y-107827497I-200000J0D01*
G01*
X165307003Y-107827497D01*
G75*
G02*
X165107003Y-107627497I0J200000D01*
G01*
X165107003Y-107077497D01*
G75*
G02*
X165307003Y-106877497I200000J0D01*
G01*
X165707003Y-106877497D01*
G75*
G02*
X165907003Y-107077497I0J-200000D01*
G01*
G37*
%TD*%
%TO.C,R16*%
G36*
G01*
X164257003Y-108537997D02*
X164257003Y-109087997D01*
G75*
G02*
X164057003Y-109287997I-200000J0D01*
G01*
X163657003Y-109287997D01*
G75*
G02*
X163457003Y-109087997I0J200000D01*
G01*
X163457003Y-108537997D01*
G75*
G02*
X163657003Y-108337997I200000J0D01*
G01*
X164057003Y-108337997D01*
G75*
G02*
X164257003Y-108537997I0J-200000D01*
G01*
G37*
G36*
G01*
X165907003Y-108537997D02*
X165907003Y-109087997D01*
G75*
G02*
X165707003Y-109287997I-200000J0D01*
G01*
X165307003Y-109287997D01*
G75*
G02*
X165107003Y-109087997I0J200000D01*
G01*
X165107003Y-108537997D01*
G75*
G02*
X165307003Y-108337997I200000J0D01*
G01*
X165707003Y-108337997D01*
G75*
G02*
X165907003Y-108537997I0J-200000D01*
G01*
G37*
%TD*%
%TO.C,R12*%
G36*
G01*
X165107003Y-103245997D02*
X165107003Y-102695997D01*
G75*
G02*
X165307003Y-102495997I200000J0D01*
G01*
X165707003Y-102495997D01*
G75*
G02*
X165907003Y-102695997I0J-200000D01*
G01*
X165907003Y-103245997D01*
G75*
G02*
X165707003Y-103445997I-200000J0D01*
G01*
X165307003Y-103445997D01*
G75*
G02*
X165107003Y-103245997I0J200000D01*
G01*
G37*
G36*
G01*
X163457003Y-103245997D02*
X163457003Y-102695997D01*
G75*
G02*
X163657003Y-102495997I200000J0D01*
G01*
X164057003Y-102495997D01*
G75*
G02*
X164257003Y-102695997I0J-200000D01*
G01*
X164257003Y-103245997D01*
G75*
G02*
X164057003Y-103445997I-200000J0D01*
G01*
X163657003Y-103445997D01*
G75*
G02*
X163457003Y-103245997I0J200000D01*
G01*
G37*
%TD*%
%TO.C,R11*%
G36*
G01*
X161754203Y-105214497D02*
X161754203Y-104664497D01*
G75*
G02*
X161954203Y-104464497I200000J0D01*
G01*
X162354203Y-104464497D01*
G75*
G02*
X162554203Y-104664497I0J-200000D01*
G01*
X162554203Y-105214497D01*
G75*
G02*
X162354203Y-105414497I-200000J0D01*
G01*
X161954203Y-105414497D01*
G75*
G02*
X161754203Y-105214497I0J200000D01*
G01*
G37*
G36*
G01*
X160104203Y-105214497D02*
X160104203Y-104664497D01*
G75*
G02*
X160304203Y-104464497I200000J0D01*
G01*
X160704203Y-104464497D01*
G75*
G02*
X160904203Y-104664497I0J-200000D01*
G01*
X160904203Y-105214497D01*
G75*
G02*
X160704203Y-105414497I-200000J0D01*
G01*
X160304203Y-105414497D01*
G75*
G02*
X160104203Y-105214497I0J200000D01*
G01*
G37*
%TD*%
%TO.C,R10*%
G36*
G01*
X161754203Y-103753997D02*
X161754203Y-103203997D01*
G75*
G02*
X161954203Y-103003997I200000J0D01*
G01*
X162354203Y-103003997D01*
G75*
G02*
X162554203Y-103203997I0J-200000D01*
G01*
X162554203Y-103753997D01*
G75*
G02*
X162354203Y-103953997I-200000J0D01*
G01*
X161954203Y-103953997D01*
G75*
G02*
X161754203Y-103753997I0J200000D01*
G01*
G37*
G36*
G01*
X160104203Y-103753997D02*
X160104203Y-103203997D01*
G75*
G02*
X160304203Y-103003997I200000J0D01*
G01*
X160704203Y-103003997D01*
G75*
G02*
X160904203Y-103203997I0J-200000D01*
G01*
X160904203Y-103753997D01*
G75*
G02*
X160704203Y-103953997I-200000J0D01*
G01*
X160304203Y-103953997D01*
G75*
G02*
X160104203Y-103753997I0J200000D01*
G01*
G37*
%TD*%
%TO.C,R9*%
G36*
G01*
X165312103Y-87967103D02*
X164762103Y-87967103D01*
G75*
G02*
X164562103Y-87767103I0J200000D01*
G01*
X164562103Y-87367103D01*
G75*
G02*
X164762103Y-87167103I200000J0D01*
G01*
X165312103Y-87167103D01*
G75*
G02*
X165512103Y-87367103I0J-200000D01*
G01*
X165512103Y-87767103D01*
G75*
G02*
X165312103Y-87967103I-200000J0D01*
G01*
G37*
G36*
G01*
X165312103Y-89617103D02*
X164762103Y-89617103D01*
G75*
G02*
X164562103Y-89417103I0J200000D01*
G01*
X164562103Y-89017103D01*
G75*
G02*
X164762103Y-88817103I200000J0D01*
G01*
X165312103Y-88817103D01*
G75*
G02*
X165512103Y-89017103I0J-200000D01*
G01*
X165512103Y-89417103D01*
G75*
G02*
X165312103Y-89617103I-200000J0D01*
G01*
G37*
%TD*%
%TO.C,R8*%
G36*
G01*
X166235303Y-88817103D02*
X166785303Y-88817103D01*
G75*
G02*
X166985303Y-89017103I0J-200000D01*
G01*
X166985303Y-89417103D01*
G75*
G02*
X166785303Y-89617103I-200000J0D01*
G01*
X166235303Y-89617103D01*
G75*
G02*
X166035303Y-89417103I0J200000D01*
G01*
X166035303Y-89017103D01*
G75*
G02*
X166235303Y-88817103I200000J0D01*
G01*
G37*
G36*
G01*
X166235303Y-87167103D02*
X166785303Y-87167103D01*
G75*
G02*
X166985303Y-87367103I0J-200000D01*
G01*
X166985303Y-87767103D01*
G75*
G02*
X166785303Y-87967103I-200000J0D01*
G01*
X166235303Y-87967103D01*
G75*
G02*
X166035303Y-87767103I0J200000D01*
G01*
X166035303Y-87367103D01*
G75*
G02*
X166235303Y-87167103I200000J0D01*
G01*
G37*
%TD*%
%TO.C,R7*%
G36*
G01*
X147137800Y-95270000D02*
X146587800Y-95270000D01*
G75*
G02*
X146387800Y-95070000I0J200000D01*
G01*
X146387800Y-94670000D01*
G75*
G02*
X146587800Y-94470000I200000J0D01*
G01*
X147137800Y-94470000D01*
G75*
G02*
X147337800Y-94670000I0J-200000D01*
G01*
X147337800Y-95070000D01*
G75*
G02*
X147137800Y-95270000I-200000J0D01*
G01*
G37*
G36*
G01*
X147137800Y-96920000D02*
X146587800Y-96920000D01*
G75*
G02*
X146387800Y-96720000I0J200000D01*
G01*
X146387800Y-96320000D01*
G75*
G02*
X146587800Y-96120000I200000J0D01*
G01*
X147137800Y-96120000D01*
G75*
G02*
X147337800Y-96320000I0J-200000D01*
G01*
X147337800Y-96720000D01*
G75*
G02*
X147137800Y-96920000I-200000J0D01*
G01*
G37*
%TD*%
%TO.C,R6*%
G36*
G01*
X161538303Y-108136703D02*
X161538303Y-107586703D01*
G75*
G02*
X161738303Y-107386703I200000J0D01*
G01*
X162138303Y-107386703D01*
G75*
G02*
X162338303Y-107586703I0J-200000D01*
G01*
X162338303Y-108136703D01*
G75*
G02*
X162138303Y-108336703I-200000J0D01*
G01*
X161738303Y-108336703D01*
G75*
G02*
X161538303Y-108136703I0J200000D01*
G01*
G37*
G36*
G01*
X159888303Y-108136703D02*
X159888303Y-107586703D01*
G75*
G02*
X160088303Y-107386703I200000J0D01*
G01*
X160488303Y-107386703D01*
G75*
G02*
X160688303Y-107586703I0J-200000D01*
G01*
X160688303Y-108136703D01*
G75*
G02*
X160488303Y-108336703I-200000J0D01*
G01*
X160088303Y-108336703D01*
G75*
G02*
X159888303Y-108136703I0J200000D01*
G01*
G37*
%TD*%
%TO.C,R5*%
G36*
G01*
X161537303Y-109609903D02*
X161537303Y-109059903D01*
G75*
G02*
X161737303Y-108859903I200000J0D01*
G01*
X162137303Y-108859903D01*
G75*
G02*
X162337303Y-109059903I0J-200000D01*
G01*
X162337303Y-109609903D01*
G75*
G02*
X162137303Y-109809903I-200000J0D01*
G01*
X161737303Y-109809903D01*
G75*
G02*
X161537303Y-109609903I0J200000D01*
G01*
G37*
G36*
G01*
X159887303Y-109609903D02*
X159887303Y-109059903D01*
G75*
G02*
X160087303Y-108859903I200000J0D01*
G01*
X160487303Y-108859903D01*
G75*
G02*
X160687303Y-109059903I0J-200000D01*
G01*
X160687303Y-109609903D01*
G75*
G02*
X160487303Y-109809903I-200000J0D01*
G01*
X160087303Y-109809903D01*
G75*
G02*
X159887303Y-109609903I0J200000D01*
G01*
G37*
%TD*%
%TO.C,R4*%
G36*
G01*
X148431903Y-82379897D02*
X148431903Y-81829897D01*
G75*
G02*
X148631903Y-81629897I200000J0D01*
G01*
X149031903Y-81629897D01*
G75*
G02*
X149231903Y-81829897I0J-200000D01*
G01*
X149231903Y-82379897D01*
G75*
G02*
X149031903Y-82579897I-200000J0D01*
G01*
X148631903Y-82579897D01*
G75*
G02*
X148431903Y-82379897I0J200000D01*
G01*
G37*
G36*
G01*
X146781903Y-82379897D02*
X146781903Y-81829897D01*
G75*
G02*
X146981903Y-81629897I200000J0D01*
G01*
X147381903Y-81629897D01*
G75*
G02*
X147581903Y-81829897I0J-200000D01*
G01*
X147581903Y-82379897D01*
G75*
G02*
X147381903Y-82579897I-200000J0D01*
G01*
X146981903Y-82579897D01*
G75*
G02*
X146781903Y-82379897I0J200000D01*
G01*
G37*
%TD*%
%TO.C,R3*%
G36*
G01*
X161537303Y-111083103D02*
X161537303Y-110533103D01*
G75*
G02*
X161737303Y-110333103I200000J0D01*
G01*
X162137303Y-110333103D01*
G75*
G02*
X162337303Y-110533103I0J-200000D01*
G01*
X162337303Y-111083103D01*
G75*
G02*
X162137303Y-111283103I-200000J0D01*
G01*
X161737303Y-111283103D01*
G75*
G02*
X161537303Y-111083103I0J200000D01*
G01*
G37*
G36*
G01*
X159887303Y-111083103D02*
X159887303Y-110533103D01*
G75*
G02*
X160087303Y-110333103I200000J0D01*
G01*
X160487303Y-110333103D01*
G75*
G02*
X160687303Y-110533103I0J-200000D01*
G01*
X160687303Y-111083103D01*
G75*
G02*
X160487303Y-111283103I-200000J0D01*
G01*
X160087303Y-111283103D01*
G75*
G02*
X159887303Y-111083103I0J200000D01*
G01*
G37*
%TD*%
%TO.C,R2*%
G36*
G01*
X161537303Y-112556303D02*
X161537303Y-112006303D01*
G75*
G02*
X161737303Y-111806303I200000J0D01*
G01*
X162137303Y-111806303D01*
G75*
G02*
X162337303Y-112006303I0J-200000D01*
G01*
X162337303Y-112556303D01*
G75*
G02*
X162137303Y-112756303I-200000J0D01*
G01*
X161737303Y-112756303D01*
G75*
G02*
X161537303Y-112556303I0J200000D01*
G01*
G37*
G36*
G01*
X159887303Y-112556303D02*
X159887303Y-112006303D01*
G75*
G02*
X160087303Y-111806303I200000J0D01*
G01*
X160487303Y-111806303D01*
G75*
G02*
X160687303Y-112006303I0J-200000D01*
G01*
X160687303Y-112556303D01*
G75*
G02*
X160487303Y-112756303I-200000J0D01*
G01*
X160087303Y-112756303D01*
G75*
G02*
X159887303Y-112556303I0J200000D01*
G01*
G37*
%TD*%
%TO.C,R1*%
G36*
G01*
X154454206Y-93949200D02*
X153904206Y-93949200D01*
G75*
G02*
X153704206Y-93749200I0J200000D01*
G01*
X153704206Y-93349200D01*
G75*
G02*
X153904206Y-93149200I200000J0D01*
G01*
X154454206Y-93149200D01*
G75*
G02*
X154654206Y-93349200I0J-200000D01*
G01*
X154654206Y-93749200D01*
G75*
G02*
X154454206Y-93949200I-200000J0D01*
G01*
G37*
G36*
G01*
X154454206Y-95599200D02*
X153904206Y-95599200D01*
G75*
G02*
X153704206Y-95399200I0J200000D01*
G01*
X153704206Y-94999200D01*
G75*
G02*
X153904206Y-94799200I200000J0D01*
G01*
X154454206Y-94799200D01*
G75*
G02*
X154654206Y-94999200I0J-200000D01*
G01*
X154654206Y-95399200D01*
G75*
G02*
X154454206Y-95599200I-200000J0D01*
G01*
G37*
%TD*%
D26*
%TO.C,Q10*%
X126088900Y-89471500D03*
X128088900Y-88521500D03*
X128088900Y-90421500D03*
%TD*%
D27*
%TO.C,Q7*%
X196751503Y-83559400D03*
X198651503Y-83559400D03*
X197701503Y-81559400D03*
%TD*%
%TO.C,Q6*%
X182220203Y-83724083D03*
X184120203Y-83724083D03*
X183170203Y-81724083D03*
%TD*%
%TO.C,Q5*%
X180980683Y-100342097D03*
X180030683Y-98342097D03*
X181930683Y-98342097D03*
%TD*%
%TO.C,Q4*%
X181933183Y-109366717D03*
X180033183Y-109366717D03*
X180983183Y-111366717D03*
%TD*%
%TO.C,Q3*%
X175415543Y-123395137D03*
X174465543Y-121395137D03*
X176365543Y-121395137D03*
%TD*%
%TO.C,Q2*%
X189894303Y-123301000D03*
X188944303Y-121301000D03*
X190844303Y-121301000D03*
%TD*%
D26*
%TO.C,Q1*%
X163468903Y-100479297D03*
X165468903Y-99529297D03*
X165468903Y-101429297D03*
%TD*%
D28*
%TO.C,LTC68101*%
X168189903Y-108005097D03*
X168189903Y-107505097D03*
X168189903Y-107005097D03*
X168189903Y-106505097D03*
X168189903Y-106005097D03*
X168189903Y-105505097D03*
X168189903Y-105005097D03*
X168189903Y-104505097D03*
X168189903Y-104005097D03*
X168189903Y-103505097D03*
X168189903Y-103005097D03*
X168189903Y-102505097D03*
X168189903Y-102005097D03*
X168189903Y-101505097D03*
X168189903Y-101005097D03*
X168189903Y-100505097D03*
X168189903Y-100005097D03*
X168189903Y-99505097D03*
X168189903Y-99005097D03*
X168189903Y-98505097D03*
X168189903Y-98005097D03*
X168189903Y-97505097D03*
X174939903Y-97505097D03*
X174939903Y-98005097D03*
X174939903Y-98505097D03*
X174939903Y-99005097D03*
X174939903Y-99505097D03*
X174939903Y-100005097D03*
X174939903Y-100505097D03*
X174939903Y-101005097D03*
X174939903Y-101505097D03*
X174939903Y-102005097D03*
X174939903Y-102505097D03*
X174939903Y-103005097D03*
X174939903Y-103505097D03*
X174939903Y-104005097D03*
X174939903Y-104505097D03*
X174939903Y-105005097D03*
X174939903Y-105505097D03*
X174939903Y-106005097D03*
X174939903Y-106505097D03*
X174939903Y-107005097D03*
X174939903Y-107505097D03*
X174939903Y-108005097D03*
%TD*%
%TO.C,L1*%
G36*
G01*
X139380853Y-107881603D02*
X139893353Y-107881603D01*
G75*
G02*
X140112103Y-108100353I0J-218750D01*
G01*
X140112103Y-108537853D01*
G75*
G02*
X139893353Y-108756603I-218750J0D01*
G01*
X139380853Y-108756603D01*
G75*
G02*
X139162103Y-108537853I0J218750D01*
G01*
X139162103Y-108100353D01*
G75*
G02*
X139380853Y-107881603I218750J0D01*
G01*
G37*
G36*
G01*
X139380853Y-106306603D02*
X139893353Y-106306603D01*
G75*
G02*
X140112103Y-106525353I0J-218750D01*
G01*
X140112103Y-106962853D01*
G75*
G02*
X139893353Y-107181603I-218750J0D01*
G01*
X139380853Y-107181603D01*
G75*
G02*
X139162103Y-106962853I0J218750D01*
G01*
X139162103Y-106525353D01*
G75*
G02*
X139380853Y-106306603I218750J0D01*
G01*
G37*
%TD*%
D29*
%TO.C,JP2*%
X144767903Y-84644897D03*
D30*
X144767903Y-87184897D03*
%TD*%
D31*
%TO.C,J3*%
X168951303Y-82193703D03*
X162951303Y-82193703D03*
D32*
X167551303Y-85643703D03*
X166751303Y-85643703D03*
X165951303Y-85643703D03*
X165151303Y-85643703D03*
X164351303Y-85643703D03*
D33*
X170701303Y-84493703D03*
X161201303Y-84493703D03*
%TD*%
D29*
%TO.C,J1*%
X147815903Y-90932000D03*
X150355903Y-90932000D03*
X152895903Y-90932000D03*
X155435903Y-90932000D03*
X157975903Y-90932000D03*
D30*
X160515903Y-90932000D03*
%TD*%
%TO.C,FB3*%
G36*
G01*
X157414853Y-85198197D02*
X157927353Y-85198197D01*
G75*
G02*
X158146103Y-85416947I0J-218750D01*
G01*
X158146103Y-85854447D01*
G75*
G02*
X157927353Y-86073197I-218750J0D01*
G01*
X157414853Y-86073197D01*
G75*
G02*
X157196103Y-85854447I0J218750D01*
G01*
X157196103Y-85416947D01*
G75*
G02*
X157414853Y-85198197I218750J0D01*
G01*
G37*
G36*
G01*
X157414853Y-83623197D02*
X157927353Y-83623197D01*
G75*
G02*
X158146103Y-83841947I0J-218750D01*
G01*
X158146103Y-84279447D01*
G75*
G02*
X157927353Y-84498197I-218750J0D01*
G01*
X157414853Y-84498197D01*
G75*
G02*
X157196103Y-84279447I0J218750D01*
G01*
X157196103Y-83841947D01*
G75*
G02*
X157414853Y-83623197I218750J0D01*
G01*
G37*
%TD*%
%TO.C,FB2*%
G36*
G01*
X150666403Y-81848647D02*
X150666403Y-82361147D01*
G75*
G02*
X150447653Y-82579897I-218750J0D01*
G01*
X150010153Y-82579897D01*
G75*
G02*
X149791403Y-82361147I0J218750D01*
G01*
X149791403Y-81848647D01*
G75*
G02*
X150010153Y-81629897I218750J0D01*
G01*
X150447653Y-81629897D01*
G75*
G02*
X150666403Y-81848647I0J-218750D01*
G01*
G37*
G36*
G01*
X152241403Y-81848647D02*
X152241403Y-82361147D01*
G75*
G02*
X152022653Y-82579897I-218750J0D01*
G01*
X151585153Y-82579897D01*
G75*
G02*
X151366403Y-82361147I0J218750D01*
G01*
X151366403Y-81848647D01*
G75*
G02*
X151585153Y-81629897I218750J0D01*
G01*
X152022653Y-81629897D01*
G75*
G02*
X152241403Y-81848647I0J-218750D01*
G01*
G37*
%TD*%
%TO.C,FB1*%
G36*
G01*
X122684250Y-116820500D02*
X122171750Y-116820500D01*
G75*
G02*
X121953000Y-116601750I0J218750D01*
G01*
X121953000Y-116164250D01*
G75*
G02*
X122171750Y-115945500I218750J0D01*
G01*
X122684250Y-115945500D01*
G75*
G02*
X122903000Y-116164250I0J-218750D01*
G01*
X122903000Y-116601750D01*
G75*
G02*
X122684250Y-116820500I-218750J0D01*
G01*
G37*
G36*
G01*
X122684250Y-115245500D02*
X122171750Y-115245500D01*
G75*
G02*
X121953000Y-115026750I0J218750D01*
G01*
X121953000Y-114589250D01*
G75*
G02*
X122171750Y-114370500I218750J0D01*
G01*
X122684250Y-114370500D01*
G75*
G02*
X122903000Y-114589250I0J-218750D01*
G01*
X122903000Y-115026750D01*
G75*
G02*
X122684250Y-115245500I-218750J0D01*
G01*
G37*
%TD*%
D34*
%TO.C,D18*%
X124447903Y-111760000D03*
X120147903Y-111760000D03*
%TD*%
%TO.C,D16*%
G36*
G01*
X195695523Y-81341853D02*
X195695523Y-81854353D01*
G75*
G02*
X195476773Y-82073103I-218750J0D01*
G01*
X195039273Y-82073103D01*
G75*
G02*
X194820523Y-81854353I0J218750D01*
G01*
X194820523Y-81341853D01*
G75*
G02*
X195039273Y-81123103I218750J0D01*
G01*
X195476773Y-81123103D01*
G75*
G02*
X195695523Y-81341853I0J-218750D01*
G01*
G37*
G36*
G01*
X194120523Y-81341853D02*
X194120523Y-81854353D01*
G75*
G02*
X193901773Y-82073103I-218750J0D01*
G01*
X193464273Y-82073103D01*
G75*
G02*
X193245523Y-81854353I0J218750D01*
G01*
X193245523Y-81341853D01*
G75*
G02*
X193464273Y-81123103I218750J0D01*
G01*
X193901773Y-81123103D01*
G75*
G02*
X194120523Y-81341853I0J-218750D01*
G01*
G37*
%TD*%
%TO.C,D14*%
G36*
G01*
X181164183Y-81496793D02*
X181164183Y-82009293D01*
G75*
G02*
X180945433Y-82228043I-218750J0D01*
G01*
X180507933Y-82228043D01*
G75*
G02*
X180289183Y-82009293I0J218750D01*
G01*
X180289183Y-81496793D01*
G75*
G02*
X180507933Y-81278043I218750J0D01*
G01*
X180945433Y-81278043D01*
G75*
G02*
X181164183Y-81496793I0J-218750D01*
G01*
G37*
G36*
G01*
X179589183Y-81496793D02*
X179589183Y-82009293D01*
G75*
G02*
X179370433Y-82228043I-218750J0D01*
G01*
X178932933Y-82228043D01*
G75*
G02*
X178714183Y-82009293I0J218750D01*
G01*
X178714183Y-81496793D01*
G75*
G02*
X178932933Y-81278043I218750J0D01*
G01*
X179370433Y-81278043D01*
G75*
G02*
X179589183Y-81496793I0J-218750D01*
G01*
G37*
%TD*%
%TO.C,D12*%
G36*
G01*
X184569283Y-100572947D02*
X184569283Y-100060447D01*
G75*
G02*
X184788033Y-99841697I218750J0D01*
G01*
X185225533Y-99841697D01*
G75*
G02*
X185444283Y-100060447I0J-218750D01*
G01*
X185444283Y-100572947D01*
G75*
G02*
X185225533Y-100791697I-218750J0D01*
G01*
X184788033Y-100791697D01*
G75*
G02*
X184569283Y-100572947I0J218750D01*
G01*
G37*
G36*
G01*
X182994283Y-100572947D02*
X182994283Y-100060447D01*
G75*
G02*
X183213033Y-99841697I218750J0D01*
G01*
X183650533Y-99841697D01*
G75*
G02*
X183869283Y-100060447I0J-218750D01*
G01*
X183869283Y-100572947D01*
G75*
G02*
X183650533Y-100791697I-218750J0D01*
G01*
X183213033Y-100791697D01*
G75*
G02*
X182994283Y-100572947I0J218750D01*
G01*
G37*
%TD*%
%TO.C,D10*%
G36*
G01*
X182994083Y-111591467D02*
X182994083Y-111078967D01*
G75*
G02*
X183212833Y-110860217I218750J0D01*
G01*
X183650333Y-110860217D01*
G75*
G02*
X183869083Y-111078967I0J-218750D01*
G01*
X183869083Y-111591467D01*
G75*
G02*
X183650333Y-111810217I-218750J0D01*
G01*
X183212833Y-111810217D01*
G75*
G02*
X182994083Y-111591467I0J218750D01*
G01*
G37*
G36*
G01*
X184569083Y-111591467D02*
X184569083Y-111078967D01*
G75*
G02*
X184787833Y-110860217I218750J0D01*
G01*
X185225333Y-110860217D01*
G75*
G02*
X185444083Y-111078967I0J-218750D01*
G01*
X185444083Y-111591467D01*
G75*
G02*
X185225333Y-111810217I-218750J0D01*
G01*
X184787833Y-111810217D01*
G75*
G02*
X184569083Y-111591467I0J218750D01*
G01*
G37*
%TD*%
%TO.C,D8*%
G36*
G01*
X179001603Y-123623447D02*
X179001603Y-123110947D01*
G75*
G02*
X179220353Y-122892197I218750J0D01*
G01*
X179657853Y-122892197D01*
G75*
G02*
X179876603Y-123110947I0J-218750D01*
G01*
X179876603Y-123623447D01*
G75*
G02*
X179657853Y-123842197I-218750J0D01*
G01*
X179220353Y-123842197D01*
G75*
G02*
X179001603Y-123623447I0J218750D01*
G01*
G37*
G36*
G01*
X177426603Y-123623447D02*
X177426603Y-123110947D01*
G75*
G02*
X177645353Y-122892197I218750J0D01*
G01*
X178082853Y-122892197D01*
G75*
G02*
X178301603Y-123110947I0J-218750D01*
G01*
X178301603Y-123623447D01*
G75*
G02*
X178082853Y-123842197I-218750J0D01*
G01*
X177645353Y-123842197D01*
G75*
G02*
X177426603Y-123623447I0J218750D01*
G01*
G37*
%TD*%
%TO.C,D6*%
G36*
G01*
X193441403Y-123700250D02*
X193441403Y-123187750D01*
G75*
G02*
X193660153Y-122969000I218750J0D01*
G01*
X194097653Y-122969000D01*
G75*
G02*
X194316403Y-123187750I0J-218750D01*
G01*
X194316403Y-123700250D01*
G75*
G02*
X194097653Y-123919000I-218750J0D01*
G01*
X193660153Y-123919000D01*
G75*
G02*
X193441403Y-123700250I0J218750D01*
G01*
G37*
G36*
G01*
X191866403Y-123700250D02*
X191866403Y-123187750D01*
G75*
G02*
X192085153Y-122969000I218750J0D01*
G01*
X192522653Y-122969000D01*
G75*
G02*
X192741403Y-123187750I0J-218750D01*
G01*
X192741403Y-123700250D01*
G75*
G02*
X192522653Y-123919000I-218750J0D01*
G01*
X192085153Y-123919000D01*
G75*
G02*
X191866403Y-123700250I0J218750D01*
G01*
G37*
%TD*%
%TO.C,D5*%
G36*
G01*
X158503803Y-108117953D02*
X158503803Y-107605453D01*
G75*
G02*
X158722553Y-107386703I218750J0D01*
G01*
X159160053Y-107386703D01*
G75*
G02*
X159378803Y-107605453I0J-218750D01*
G01*
X159378803Y-108117953D01*
G75*
G02*
X159160053Y-108336703I-218750J0D01*
G01*
X158722553Y-108336703D01*
G75*
G02*
X158503803Y-108117953I0J218750D01*
G01*
G37*
G36*
G01*
X156928803Y-108117953D02*
X156928803Y-107605453D01*
G75*
G02*
X157147553Y-107386703I218750J0D01*
G01*
X157585053Y-107386703D01*
G75*
G02*
X157803803Y-107605453I0J-218750D01*
G01*
X157803803Y-108117953D01*
G75*
G02*
X157585053Y-108336703I-218750J0D01*
G01*
X157147553Y-108336703D01*
G75*
G02*
X156928803Y-108117953I0J218750D01*
G01*
G37*
%TD*%
%TO.C,D4*%
G36*
G01*
X158503803Y-109591153D02*
X158503803Y-109078653D01*
G75*
G02*
X158722553Y-108859903I218750J0D01*
G01*
X159160053Y-108859903D01*
G75*
G02*
X159378803Y-109078653I0J-218750D01*
G01*
X159378803Y-109591153D01*
G75*
G02*
X159160053Y-109809903I-218750J0D01*
G01*
X158722553Y-109809903D01*
G75*
G02*
X158503803Y-109591153I0J218750D01*
G01*
G37*
G36*
G01*
X156928803Y-109591153D02*
X156928803Y-109078653D01*
G75*
G02*
X157147553Y-108859903I218750J0D01*
G01*
X157585053Y-108859903D01*
G75*
G02*
X157803803Y-109078653I0J-218750D01*
G01*
X157803803Y-109591153D01*
G75*
G02*
X157585053Y-109809903I-218750J0D01*
G01*
X157147553Y-109809903D01*
G75*
G02*
X156928803Y-109591153I0J218750D01*
G01*
G37*
%TD*%
%TO.C,D3*%
G36*
G01*
X158503803Y-111064353D02*
X158503803Y-110551853D01*
G75*
G02*
X158722553Y-110333103I218750J0D01*
G01*
X159160053Y-110333103D01*
G75*
G02*
X159378803Y-110551853I0J-218750D01*
G01*
X159378803Y-111064353D01*
G75*
G02*
X159160053Y-111283103I-218750J0D01*
G01*
X158722553Y-111283103D01*
G75*
G02*
X158503803Y-111064353I0J218750D01*
G01*
G37*
G36*
G01*
X156928803Y-111064353D02*
X156928803Y-110551853D01*
G75*
G02*
X157147553Y-110333103I218750J0D01*
G01*
X157585053Y-110333103D01*
G75*
G02*
X157803803Y-110551853I0J-218750D01*
G01*
X157803803Y-111064353D01*
G75*
G02*
X157585053Y-111283103I-218750J0D01*
G01*
X157147553Y-111283103D01*
G75*
G02*
X156928803Y-111064353I0J218750D01*
G01*
G37*
%TD*%
D15*
%TO.C,D2*%
G36*
X134551409Y-97395170D02*
G01*
X134758464Y-98167911D01*
X133889131Y-98400848D01*
X133682076Y-97628107D01*
X134551409Y-97395170D01*
G37*
G36*
X136237383Y-95959902D02*
G01*
X136444438Y-96732643D01*
X135575105Y-96965580D01*
X135368050Y-96192839D01*
X136237383Y-95959902D01*
G37*
G36*
X136729139Y-97795161D02*
G01*
X136936194Y-98567902D01*
X136066861Y-98800839D01*
X135859806Y-98028098D01*
X136729139Y-97795161D01*
G37*
%TD*%
%TO.C,D1*%
G36*
G01*
X158503603Y-112537553D02*
X158503603Y-112025053D01*
G75*
G02*
X158722353Y-111806303I218750J0D01*
G01*
X159159853Y-111806303D01*
G75*
G02*
X159378603Y-112025053I0J-218750D01*
G01*
X159378603Y-112537553D01*
G75*
G02*
X159159853Y-112756303I-218750J0D01*
G01*
X158722353Y-112756303D01*
G75*
G02*
X158503603Y-112537553I0J218750D01*
G01*
G37*
G36*
G01*
X156928603Y-112537553D02*
X156928603Y-112025053D01*
G75*
G02*
X157147353Y-111806303I218750J0D01*
G01*
X157584853Y-111806303D01*
G75*
G02*
X157803603Y-112025053I0J-218750D01*
G01*
X157803603Y-112537553D01*
G75*
G02*
X157584853Y-112756303I-218750J0D01*
G01*
X157147353Y-112756303D01*
G75*
G02*
X156928603Y-112537553I0J218750D01*
G01*
G37*
%TD*%
%TO.C,C43*%
G36*
G01*
X142705000Y-89988200D02*
X142705000Y-89488200D01*
G75*
G02*
X142930000Y-89263200I225000J0D01*
G01*
X143380000Y-89263200D01*
G75*
G02*
X143605000Y-89488200I0J-225000D01*
G01*
X143605000Y-89988200D01*
G75*
G02*
X143380000Y-90213200I-225000J0D01*
G01*
X142930000Y-90213200D01*
G75*
G02*
X142705000Y-89988200I0J225000D01*
G01*
G37*
G36*
G01*
X141155000Y-89988200D02*
X141155000Y-89488200D01*
G75*
G02*
X141380000Y-89263200I225000J0D01*
G01*
X141830000Y-89263200D01*
G75*
G02*
X142055000Y-89488200I0J-225000D01*
G01*
X142055000Y-89988200D01*
G75*
G02*
X141830000Y-90213200I-225000J0D01*
G01*
X141380000Y-90213200D01*
G75*
G02*
X141155000Y-89988200I0J225000D01*
G01*
G37*
%TD*%
%TO.C,C42*%
G36*
G01*
X141355000Y-93327400D02*
X141855000Y-93327400D01*
G75*
G02*
X142080000Y-93552400I0J-225000D01*
G01*
X142080000Y-94002400D01*
G75*
G02*
X141855000Y-94227400I-225000J0D01*
G01*
X141355000Y-94227400D01*
G75*
G02*
X141130000Y-94002400I0J225000D01*
G01*
X141130000Y-93552400D01*
G75*
G02*
X141355000Y-93327400I225000J0D01*
G01*
G37*
G36*
G01*
X141355000Y-91777400D02*
X141855000Y-91777400D01*
G75*
G02*
X142080000Y-92002400I0J-225000D01*
G01*
X142080000Y-92452400D01*
G75*
G02*
X141855000Y-92677400I-225000J0D01*
G01*
X141355000Y-92677400D01*
G75*
G02*
X141130000Y-92452400I0J225000D01*
G01*
X141130000Y-92002400D01*
G75*
G02*
X141355000Y-91777400I225000J0D01*
G01*
G37*
%TD*%
%TO.C,C41*%
G36*
G01*
X122116603Y-89793000D02*
X122116603Y-90293000D01*
G75*
G02*
X121891603Y-90518000I-225000J0D01*
G01*
X121441603Y-90518000D01*
G75*
G02*
X121216603Y-90293000I0J225000D01*
G01*
X121216603Y-89793000D01*
G75*
G02*
X121441603Y-89568000I225000J0D01*
G01*
X121891603Y-89568000D01*
G75*
G02*
X122116603Y-89793000I0J-225000D01*
G01*
G37*
G36*
G01*
X123666603Y-89793000D02*
X123666603Y-90293000D01*
G75*
G02*
X123441603Y-90518000I-225000J0D01*
G01*
X122991603Y-90518000D01*
G75*
G02*
X122766603Y-90293000I0J225000D01*
G01*
X122766603Y-89793000D01*
G75*
G02*
X122991603Y-89568000I225000J0D01*
G01*
X123441603Y-89568000D01*
G75*
G02*
X123666603Y-89793000I0J-225000D01*
G01*
G37*
%TD*%
%TO.C,C40*%
G36*
G01*
X146071103Y-115566000D02*
X146071103Y-115066000D01*
G75*
G02*
X146296103Y-114841000I225000J0D01*
G01*
X146746103Y-114841000D01*
G75*
G02*
X146971103Y-115066000I0J-225000D01*
G01*
X146971103Y-115566000D01*
G75*
G02*
X146746103Y-115791000I-225000J0D01*
G01*
X146296103Y-115791000D01*
G75*
G02*
X146071103Y-115566000I0J225000D01*
G01*
G37*
G36*
G01*
X144521103Y-115566000D02*
X144521103Y-115066000D01*
G75*
G02*
X144746103Y-114841000I225000J0D01*
G01*
X145196103Y-114841000D01*
G75*
G02*
X145421103Y-115066000I0J-225000D01*
G01*
X145421103Y-115566000D01*
G75*
G02*
X145196103Y-115791000I-225000J0D01*
G01*
X144746103Y-115791000D01*
G75*
G02*
X144521103Y-115566000I0J225000D01*
G01*
G37*
%TD*%
%TO.C,C39*%
G36*
G01*
X146071103Y-114092800D02*
X146071103Y-113592800D01*
G75*
G02*
X146296103Y-113367800I225000J0D01*
G01*
X146746103Y-113367800D01*
G75*
G02*
X146971103Y-113592800I0J-225000D01*
G01*
X146971103Y-114092800D01*
G75*
G02*
X146746103Y-114317800I-225000J0D01*
G01*
X146296103Y-114317800D01*
G75*
G02*
X146071103Y-114092800I0J225000D01*
G01*
G37*
G36*
G01*
X144521103Y-114092800D02*
X144521103Y-113592800D01*
G75*
G02*
X144746103Y-113367800I225000J0D01*
G01*
X145196103Y-113367800D01*
G75*
G02*
X145421103Y-113592800I0J-225000D01*
G01*
X145421103Y-114092800D01*
G75*
G02*
X145196103Y-114317800I-225000J0D01*
G01*
X144746103Y-114317800D01*
G75*
G02*
X144521103Y-114092800I0J225000D01*
G01*
G37*
%TD*%
%TO.C,C37*%
G36*
G01*
X131386103Y-119108400D02*
X131886103Y-119108400D01*
G75*
G02*
X132111103Y-119333400I0J-225000D01*
G01*
X132111103Y-119783400D01*
G75*
G02*
X131886103Y-120008400I-225000J0D01*
G01*
X131386103Y-120008400D01*
G75*
G02*
X131161103Y-119783400I0J225000D01*
G01*
X131161103Y-119333400D01*
G75*
G02*
X131386103Y-119108400I225000J0D01*
G01*
G37*
G36*
G01*
X131386103Y-117558400D02*
X131886103Y-117558400D01*
G75*
G02*
X132111103Y-117783400I0J-225000D01*
G01*
X132111103Y-118233400D01*
G75*
G02*
X131886103Y-118458400I-225000J0D01*
G01*
X131386103Y-118458400D01*
G75*
G02*
X131161103Y-118233400I0J225000D01*
G01*
X131161103Y-117783400D01*
G75*
G02*
X131386103Y-117558400I225000J0D01*
G01*
G37*
%TD*%
%TO.C,C36*%
G36*
G01*
X146702303Y-121139800D02*
X147202303Y-121139800D01*
G75*
G02*
X147427303Y-121364800I0J-225000D01*
G01*
X147427303Y-121814800D01*
G75*
G02*
X147202303Y-122039800I-225000J0D01*
G01*
X146702303Y-122039800D01*
G75*
G02*
X146477303Y-121814800I0J225000D01*
G01*
X146477303Y-121364800D01*
G75*
G02*
X146702303Y-121139800I225000J0D01*
G01*
G37*
G36*
G01*
X146702303Y-119589800D02*
X147202303Y-119589800D01*
G75*
G02*
X147427303Y-119814800I0J-225000D01*
G01*
X147427303Y-120264800D01*
G75*
G02*
X147202303Y-120489800I-225000J0D01*
G01*
X146702303Y-120489800D01*
G75*
G02*
X146477303Y-120264800I0J225000D01*
G01*
X146477303Y-119814800D01*
G75*
G02*
X146702303Y-119589800I225000J0D01*
G01*
G37*
%TD*%
%TO.C,C35*%
G36*
G01*
X132060703Y-116310600D02*
X132060703Y-116810600D01*
G75*
G02*
X131835703Y-117035600I-225000J0D01*
G01*
X131385703Y-117035600D01*
G75*
G02*
X131160703Y-116810600I0J225000D01*
G01*
X131160703Y-116310600D01*
G75*
G02*
X131385703Y-116085600I225000J0D01*
G01*
X131835703Y-116085600D01*
G75*
G02*
X132060703Y-116310600I0J-225000D01*
G01*
G37*
G36*
G01*
X133610703Y-116310600D02*
X133610703Y-116810600D01*
G75*
G02*
X133385703Y-117035600I-225000J0D01*
G01*
X132935703Y-117035600D01*
G75*
G02*
X132710703Y-116810600I0J225000D01*
G01*
X132710703Y-116310600D01*
G75*
G02*
X132935703Y-116085600I225000J0D01*
G01*
X133385703Y-116085600D01*
G75*
G02*
X133610703Y-116310600I0J-225000D01*
G01*
G37*
%TD*%
%TO.C,C34*%
G36*
G01*
X145458000Y-118241000D02*
X145458000Y-118741000D01*
G75*
G02*
X145233000Y-118966000I-225000J0D01*
G01*
X144783000Y-118966000D01*
G75*
G02*
X144558000Y-118741000I0J225000D01*
G01*
X144558000Y-118241000D01*
G75*
G02*
X144783000Y-118016000I225000J0D01*
G01*
X145233000Y-118016000D01*
G75*
G02*
X145458000Y-118241000I0J-225000D01*
G01*
G37*
G36*
G01*
X147008000Y-118241000D02*
X147008000Y-118741000D01*
G75*
G02*
X146783000Y-118966000I-225000J0D01*
G01*
X146333000Y-118966000D01*
G75*
G02*
X146108000Y-118741000I0J225000D01*
G01*
X146108000Y-118241000D01*
G75*
G02*
X146333000Y-118016000I225000J0D01*
G01*
X146783000Y-118016000D01*
G75*
G02*
X147008000Y-118241000I0J-225000D01*
G01*
G37*
%TD*%
%TO.C,C33*%
G36*
G01*
X119804000Y-117606000D02*
X119804000Y-118106000D01*
G75*
G02*
X119579000Y-118331000I-225000J0D01*
G01*
X119129000Y-118331000D01*
G75*
G02*
X118904000Y-118106000I0J225000D01*
G01*
X118904000Y-117606000D01*
G75*
G02*
X119129000Y-117381000I225000J0D01*
G01*
X119579000Y-117381000D01*
G75*
G02*
X119804000Y-117606000I0J-225000D01*
G01*
G37*
G36*
G01*
X121354000Y-117606000D02*
X121354000Y-118106000D01*
G75*
G02*
X121129000Y-118331000I-225000J0D01*
G01*
X120679000Y-118331000D01*
G75*
G02*
X120454000Y-118106000I0J225000D01*
G01*
X120454000Y-117606000D01*
G75*
G02*
X120679000Y-117381000I225000J0D01*
G01*
X121129000Y-117381000D01*
G75*
G02*
X121354000Y-117606000I0J-225000D01*
G01*
G37*
%TD*%
%TO.C,C32*%
G36*
G01*
X119804000Y-116082000D02*
X119804000Y-116582000D01*
G75*
G02*
X119579000Y-116807000I-225000J0D01*
G01*
X119129000Y-116807000D01*
G75*
G02*
X118904000Y-116582000I0J225000D01*
G01*
X118904000Y-116082000D01*
G75*
G02*
X119129000Y-115857000I225000J0D01*
G01*
X119579000Y-115857000D01*
G75*
G02*
X119804000Y-116082000I0J-225000D01*
G01*
G37*
G36*
G01*
X121354000Y-116082000D02*
X121354000Y-116582000D01*
G75*
G02*
X121129000Y-116807000I-225000J0D01*
G01*
X120679000Y-116807000D01*
G75*
G02*
X120454000Y-116582000I0J225000D01*
G01*
X120454000Y-116082000D01*
G75*
G02*
X120679000Y-115857000I225000J0D01*
G01*
X121129000Y-115857000D01*
G75*
G02*
X121354000Y-116082000I0J-225000D01*
G01*
G37*
%TD*%
%TO.C,C31*%
G36*
G01*
X119804000Y-114558000D02*
X119804000Y-115058000D01*
G75*
G02*
X119579000Y-115283000I-225000J0D01*
G01*
X119129000Y-115283000D01*
G75*
G02*
X118904000Y-115058000I0J225000D01*
G01*
X118904000Y-114558000D01*
G75*
G02*
X119129000Y-114333000I225000J0D01*
G01*
X119579000Y-114333000D01*
G75*
G02*
X119804000Y-114558000I0J-225000D01*
G01*
G37*
G36*
G01*
X121354000Y-114558000D02*
X121354000Y-115058000D01*
G75*
G02*
X121129000Y-115283000I-225000J0D01*
G01*
X120679000Y-115283000D01*
G75*
G02*
X120454000Y-115058000I0J225000D01*
G01*
X120454000Y-114558000D01*
G75*
G02*
X120679000Y-114333000I225000J0D01*
G01*
X121129000Y-114333000D01*
G75*
G02*
X121354000Y-114558000I0J-225000D01*
G01*
G37*
%TD*%
%TO.C,C30*%
G36*
G01*
X166704200Y-116035000D02*
X167204200Y-116035000D01*
G75*
G02*
X167429200Y-116260000I0J-225000D01*
G01*
X167429200Y-116710000D01*
G75*
G02*
X167204200Y-116935000I-225000J0D01*
G01*
X166704200Y-116935000D01*
G75*
G02*
X166479200Y-116710000I0J225000D01*
G01*
X166479200Y-116260000D01*
G75*
G02*
X166704200Y-116035000I225000J0D01*
G01*
G37*
G36*
G01*
X166704200Y-114485000D02*
X167204200Y-114485000D01*
G75*
G02*
X167429200Y-114710000I0J-225000D01*
G01*
X167429200Y-115160000D01*
G75*
G02*
X167204200Y-115385000I-225000J0D01*
G01*
X166704200Y-115385000D01*
G75*
G02*
X166479200Y-115160000I0J225000D01*
G01*
X166479200Y-114710000D01*
G75*
G02*
X166704200Y-114485000I225000J0D01*
G01*
G37*
%TD*%
%TO.C,C29*%
G36*
G01*
X163630800Y-116022000D02*
X164130800Y-116022000D01*
G75*
G02*
X164355800Y-116247000I0J-225000D01*
G01*
X164355800Y-116697000D01*
G75*
G02*
X164130800Y-116922000I-225000J0D01*
G01*
X163630800Y-116922000D01*
G75*
G02*
X163405800Y-116697000I0J225000D01*
G01*
X163405800Y-116247000D01*
G75*
G02*
X163630800Y-116022000I225000J0D01*
G01*
G37*
G36*
G01*
X163630800Y-114472000D02*
X164130800Y-114472000D01*
G75*
G02*
X164355800Y-114697000I0J-225000D01*
G01*
X164355800Y-115147000D01*
G75*
G02*
X164130800Y-115372000I-225000J0D01*
G01*
X163630800Y-115372000D01*
G75*
G02*
X163405800Y-115147000I0J225000D01*
G01*
X163405800Y-114697000D01*
G75*
G02*
X163630800Y-114472000I225000J0D01*
G01*
G37*
%TD*%
%TO.C,C28*%
G36*
G01*
X160557400Y-116035000D02*
X161057400Y-116035000D01*
G75*
G02*
X161282400Y-116260000I0J-225000D01*
G01*
X161282400Y-116710000D01*
G75*
G02*
X161057400Y-116935000I-225000J0D01*
G01*
X160557400Y-116935000D01*
G75*
G02*
X160332400Y-116710000I0J225000D01*
G01*
X160332400Y-116260000D01*
G75*
G02*
X160557400Y-116035000I225000J0D01*
G01*
G37*
G36*
G01*
X160557400Y-114485000D02*
X161057400Y-114485000D01*
G75*
G02*
X161282400Y-114710000I0J-225000D01*
G01*
X161282400Y-115160000D01*
G75*
G02*
X161057400Y-115385000I-225000J0D01*
G01*
X160557400Y-115385000D01*
G75*
G02*
X160332400Y-115160000I0J225000D01*
G01*
X160332400Y-114710000D01*
G75*
G02*
X160557400Y-114485000I225000J0D01*
G01*
G37*
%TD*%
%TO.C,C27*%
G36*
G01*
X157484000Y-116034400D02*
X157984000Y-116034400D01*
G75*
G02*
X158209000Y-116259400I0J-225000D01*
G01*
X158209000Y-116709400D01*
G75*
G02*
X157984000Y-116934400I-225000J0D01*
G01*
X157484000Y-116934400D01*
G75*
G02*
X157259000Y-116709400I0J225000D01*
G01*
X157259000Y-116259400D01*
G75*
G02*
X157484000Y-116034400I225000J0D01*
G01*
G37*
G36*
G01*
X157484000Y-114484400D02*
X157984000Y-114484400D01*
G75*
G02*
X158209000Y-114709400I0J-225000D01*
G01*
X158209000Y-115159400D01*
G75*
G02*
X157984000Y-115384400I-225000J0D01*
G01*
X157484000Y-115384400D01*
G75*
G02*
X157259000Y-115159400I0J225000D01*
G01*
X157259000Y-114709400D01*
G75*
G02*
X157484000Y-114484400I225000J0D01*
G01*
G37*
%TD*%
%TO.C,C26*%
G36*
G01*
X154410600Y-116022000D02*
X154910600Y-116022000D01*
G75*
G02*
X155135600Y-116247000I0J-225000D01*
G01*
X155135600Y-116697000D01*
G75*
G02*
X154910600Y-116922000I-225000J0D01*
G01*
X154410600Y-116922000D01*
G75*
G02*
X154185600Y-116697000I0J225000D01*
G01*
X154185600Y-116247000D01*
G75*
G02*
X154410600Y-116022000I225000J0D01*
G01*
G37*
G36*
G01*
X154410600Y-114472000D02*
X154910600Y-114472000D01*
G75*
G02*
X155135600Y-114697000I0J-225000D01*
G01*
X155135600Y-115147000D01*
G75*
G02*
X154910600Y-115372000I-225000J0D01*
G01*
X154410600Y-115372000D01*
G75*
G02*
X154185600Y-115147000I0J225000D01*
G01*
X154185600Y-114697000D01*
G75*
G02*
X154410600Y-114472000I225000J0D01*
G01*
G37*
%TD*%
%TO.C,C25*%
G36*
G01*
X151337200Y-116035000D02*
X151837200Y-116035000D01*
G75*
G02*
X152062200Y-116260000I0J-225000D01*
G01*
X152062200Y-116710000D01*
G75*
G02*
X151837200Y-116935000I-225000J0D01*
G01*
X151337200Y-116935000D01*
G75*
G02*
X151112200Y-116710000I0J225000D01*
G01*
X151112200Y-116260000D01*
G75*
G02*
X151337200Y-116035000I225000J0D01*
G01*
G37*
G36*
G01*
X151337200Y-114485000D02*
X151837200Y-114485000D01*
G75*
G02*
X152062200Y-114710000I0J-225000D01*
G01*
X152062200Y-115160000D01*
G75*
G02*
X151837200Y-115385000I-225000J0D01*
G01*
X151337200Y-115385000D01*
G75*
G02*
X151112200Y-115160000I0J225000D01*
G01*
X151112200Y-114710000D01*
G75*
G02*
X151337200Y-114485000I225000J0D01*
G01*
G37*
%TD*%
%TO.C,C24*%
G36*
G01*
X175346106Y-95121480D02*
X174846106Y-95121480D01*
G75*
G02*
X174621106Y-94896480I0J225000D01*
G01*
X174621106Y-94446480D01*
G75*
G02*
X174846106Y-94221480I225000J0D01*
G01*
X175346106Y-94221480D01*
G75*
G02*
X175571106Y-94446480I0J-225000D01*
G01*
X175571106Y-94896480D01*
G75*
G02*
X175346106Y-95121480I-225000J0D01*
G01*
G37*
G36*
G01*
X175346106Y-93571480D02*
X174846106Y-93571480D01*
G75*
G02*
X174621106Y-93346480I0J225000D01*
G01*
X174621106Y-92896480D01*
G75*
G02*
X174846106Y-92671480I225000J0D01*
G01*
X175346106Y-92671480D01*
G75*
G02*
X175571106Y-92896480I0J-225000D01*
G01*
X175571106Y-93346480D01*
G75*
G02*
X175346106Y-93571480I-225000J0D01*
G01*
G37*
%TD*%
%TO.C,C23*%
G36*
G01*
X170951303Y-95115197D02*
X170451303Y-95115197D01*
G75*
G02*
X170226303Y-94890197I0J225000D01*
G01*
X170226303Y-94440197D01*
G75*
G02*
X170451303Y-94215197I225000J0D01*
G01*
X170951303Y-94215197D01*
G75*
G02*
X171176303Y-94440197I0J-225000D01*
G01*
X171176303Y-94890197D01*
G75*
G02*
X170951303Y-95115197I-225000J0D01*
G01*
G37*
G36*
G01*
X170951303Y-93565197D02*
X170451303Y-93565197D01*
G75*
G02*
X170226303Y-93340197I0J225000D01*
G01*
X170226303Y-92890197D01*
G75*
G02*
X170451303Y-92665197I225000J0D01*
G01*
X170951303Y-92665197D01*
G75*
G02*
X171176303Y-92890197I0J-225000D01*
G01*
X171176303Y-93340197D01*
G75*
G02*
X170951303Y-93565197I-225000J0D01*
G01*
G37*
%TD*%
%TO.C,C22*%
G36*
G01*
X169478103Y-93566400D02*
X168978103Y-93566400D01*
G75*
G02*
X168753103Y-93341400I0J225000D01*
G01*
X168753103Y-92891400D01*
G75*
G02*
X168978103Y-92666400I225000J0D01*
G01*
X169478103Y-92666400D01*
G75*
G02*
X169703103Y-92891400I0J-225000D01*
G01*
X169703103Y-93341400D01*
G75*
G02*
X169478103Y-93566400I-225000J0D01*
G01*
G37*
G36*
G01*
X169478103Y-95116400D02*
X168978103Y-95116400D01*
G75*
G02*
X168753103Y-94891400I0J225000D01*
G01*
X168753103Y-94441400D01*
G75*
G02*
X168978103Y-94216400I225000J0D01*
G01*
X169478103Y-94216400D01*
G75*
G02*
X169703103Y-94441400I0J-225000D01*
G01*
X169703103Y-94891400D01*
G75*
G02*
X169478103Y-95116400I-225000J0D01*
G01*
G37*
%TD*%
%TO.C,C21*%
G36*
G01*
X167784303Y-110014600D02*
X168284303Y-110014600D01*
G75*
G02*
X168509303Y-110239600I0J-225000D01*
G01*
X168509303Y-110689600D01*
G75*
G02*
X168284303Y-110914600I-225000J0D01*
G01*
X167784303Y-110914600D01*
G75*
G02*
X167559303Y-110689600I0J225000D01*
G01*
X167559303Y-110239600D01*
G75*
G02*
X167784303Y-110014600I225000J0D01*
G01*
G37*
G36*
G01*
X167784303Y-111564600D02*
X168284303Y-111564600D01*
G75*
G02*
X168509303Y-111789600I0J-225000D01*
G01*
X168509303Y-112239600D01*
G75*
G02*
X168284303Y-112464600I-225000J0D01*
G01*
X167784303Y-112464600D01*
G75*
G02*
X167559303Y-112239600I0J225000D01*
G01*
X167559303Y-111789600D01*
G75*
G02*
X167784303Y-111564600I225000J0D01*
G01*
G37*
%TD*%
%TO.C,C20*%
G36*
G01*
X170718003Y-111576097D02*
X171218003Y-111576097D01*
G75*
G02*
X171443003Y-111801097I0J-225000D01*
G01*
X171443003Y-112251097D01*
G75*
G02*
X171218003Y-112476097I-225000J0D01*
G01*
X170718003Y-112476097D01*
G75*
G02*
X170493003Y-112251097I0J225000D01*
G01*
X170493003Y-111801097D01*
G75*
G02*
X170718003Y-111576097I225000J0D01*
G01*
G37*
G36*
G01*
X170718003Y-110026097D02*
X171218003Y-110026097D01*
G75*
G02*
X171443003Y-110251097I0J-225000D01*
G01*
X171443003Y-110701097D01*
G75*
G02*
X171218003Y-110926097I-225000J0D01*
G01*
X170718003Y-110926097D01*
G75*
G02*
X170493003Y-110701097I0J225000D01*
G01*
X170493003Y-110251097D01*
G75*
G02*
X170718003Y-110026097I225000J0D01*
G01*
G37*
%TD*%
%TO.C,C19*%
G36*
G01*
X173651703Y-111577000D02*
X174151703Y-111577000D01*
G75*
G02*
X174376703Y-111802000I0J-225000D01*
G01*
X174376703Y-112252000D01*
G75*
G02*
X174151703Y-112477000I-225000J0D01*
G01*
X173651703Y-112477000D01*
G75*
G02*
X173426703Y-112252000I0J225000D01*
G01*
X173426703Y-111802000D01*
G75*
G02*
X173651703Y-111577000I225000J0D01*
G01*
G37*
G36*
G01*
X173651703Y-110027000D02*
X174151703Y-110027000D01*
G75*
G02*
X174376703Y-110252000I0J-225000D01*
G01*
X174376703Y-110702000D01*
G75*
G02*
X174151703Y-110927000I-225000J0D01*
G01*
X173651703Y-110927000D01*
G75*
G02*
X173426703Y-110702000I0J225000D01*
G01*
X173426703Y-110252000D01*
G75*
G02*
X173651703Y-110027000I225000J0D01*
G01*
G37*
%TD*%
%TO.C,C18*%
G36*
G01*
X160829403Y-100944497D02*
X160329403Y-100944497D01*
G75*
G02*
X160104403Y-100719497I0J225000D01*
G01*
X160104403Y-100269497D01*
G75*
G02*
X160329403Y-100044497I225000J0D01*
G01*
X160829403Y-100044497D01*
G75*
G02*
X161054403Y-100269497I0J-225000D01*
G01*
X161054403Y-100719497D01*
G75*
G02*
X160829403Y-100944497I-225000J0D01*
G01*
G37*
G36*
G01*
X160829403Y-102494497D02*
X160329403Y-102494497D01*
G75*
G02*
X160104403Y-102269497I0J225000D01*
G01*
X160104403Y-101819497D01*
G75*
G02*
X160329403Y-101594497I225000J0D01*
G01*
X160829403Y-101594497D01*
G75*
G02*
X161054403Y-101819497I0J-225000D01*
G01*
X161054403Y-102269497D01*
G75*
G02*
X160829403Y-102494497I-225000J0D01*
G01*
G37*
%TD*%
%TO.C,C17*%
G36*
G01*
X164368903Y-97729897D02*
X164368903Y-98229897D01*
G75*
G02*
X164143903Y-98454897I-225000J0D01*
G01*
X163693903Y-98454897D01*
G75*
G02*
X163468903Y-98229897I0J225000D01*
G01*
X163468903Y-97729897D01*
G75*
G02*
X163693903Y-97504897I225000J0D01*
G01*
X164143903Y-97504897D01*
G75*
G02*
X164368903Y-97729897I0J-225000D01*
G01*
G37*
G36*
G01*
X165918903Y-97729897D02*
X165918903Y-98229897D01*
G75*
G02*
X165693903Y-98454897I-225000J0D01*
G01*
X165243903Y-98454897D01*
G75*
G02*
X165018903Y-98229897I0J225000D01*
G01*
X165018903Y-97729897D01*
G75*
G02*
X165243903Y-97504897I225000J0D01*
G01*
X165693903Y-97504897D01*
G75*
G02*
X165918903Y-97729897I0J-225000D01*
G01*
G37*
%TD*%
%TO.C,C16*%
G36*
G01*
X164368903Y-96256697D02*
X164368903Y-96756697D01*
G75*
G02*
X164143903Y-96981697I-225000J0D01*
G01*
X163693903Y-96981697D01*
G75*
G02*
X163468903Y-96756697I0J225000D01*
G01*
X163468903Y-96256697D01*
G75*
G02*
X163693903Y-96031697I225000J0D01*
G01*
X164143903Y-96031697D01*
G75*
G02*
X164368903Y-96256697I0J-225000D01*
G01*
G37*
G36*
G01*
X165918903Y-96256697D02*
X165918903Y-96756697D01*
G75*
G02*
X165693903Y-96981697I-225000J0D01*
G01*
X165243903Y-96981697D01*
G75*
G02*
X165018903Y-96756697I0J225000D01*
G01*
X165018903Y-96256697D01*
G75*
G02*
X165243903Y-96031697I225000J0D01*
G01*
X165693903Y-96031697D01*
G75*
G02*
X165918903Y-96256697I0J-225000D01*
G01*
G37*
%TD*%
%TO.C,C15*%
G36*
G01*
X164369503Y-94796800D02*
X164369503Y-95296800D01*
G75*
G02*
X164144503Y-95521800I-225000J0D01*
G01*
X163694503Y-95521800D01*
G75*
G02*
X163469503Y-95296800I0J225000D01*
G01*
X163469503Y-94796800D01*
G75*
G02*
X163694503Y-94571800I225000J0D01*
G01*
X164144503Y-94571800D01*
G75*
G02*
X164369503Y-94796800I0J-225000D01*
G01*
G37*
G36*
G01*
X165919503Y-94796800D02*
X165919503Y-95296800D01*
G75*
G02*
X165694503Y-95521800I-225000J0D01*
G01*
X165244503Y-95521800D01*
G75*
G02*
X165019503Y-95296800I0J225000D01*
G01*
X165019503Y-94796800D01*
G75*
G02*
X165244503Y-94571800I225000J0D01*
G01*
X165694503Y-94571800D01*
G75*
G02*
X165919503Y-94796800I0J-225000D01*
G01*
G37*
%TD*%
%TO.C,C14*%
G36*
G01*
X158843503Y-105963297D02*
X159343503Y-105963297D01*
G75*
G02*
X159568503Y-106188297I0J-225000D01*
G01*
X159568503Y-106638297D01*
G75*
G02*
X159343503Y-106863297I-225000J0D01*
G01*
X158843503Y-106863297D01*
G75*
G02*
X158618503Y-106638297I0J225000D01*
G01*
X158618503Y-106188297D01*
G75*
G02*
X158843503Y-105963297I225000J0D01*
G01*
G37*
G36*
G01*
X158843503Y-104413297D02*
X159343503Y-104413297D01*
G75*
G02*
X159568503Y-104638297I0J-225000D01*
G01*
X159568503Y-105088297D01*
G75*
G02*
X159343503Y-105313297I-225000J0D01*
G01*
X158843503Y-105313297D01*
G75*
G02*
X158618503Y-105088297I0J225000D01*
G01*
X158618503Y-104638297D01*
G75*
G02*
X158843503Y-104413297I225000J0D01*
G01*
G37*
%TD*%
%TO.C,C13*%
G36*
G01*
X159343503Y-102353597D02*
X158843503Y-102353597D01*
G75*
G02*
X158618503Y-102128597I0J225000D01*
G01*
X158618503Y-101678597D01*
G75*
G02*
X158843503Y-101453597I225000J0D01*
G01*
X159343503Y-101453597D01*
G75*
G02*
X159568503Y-101678597I0J-225000D01*
G01*
X159568503Y-102128597D01*
G75*
G02*
X159343503Y-102353597I-225000J0D01*
G01*
G37*
G36*
G01*
X159343503Y-103903597D02*
X158843503Y-103903597D01*
G75*
G02*
X158618503Y-103678597I0J225000D01*
G01*
X158618503Y-103228597D01*
G75*
G02*
X158843503Y-103003597I225000J0D01*
G01*
X159343503Y-103003597D01*
G75*
G02*
X159568503Y-103228597I0J-225000D01*
G01*
X159568503Y-103678597D01*
G75*
G02*
X159343503Y-103903597I-225000J0D01*
G01*
G37*
%TD*%
%TO.C,C12*%
G36*
G01*
X140847903Y-107856503D02*
X141347903Y-107856503D01*
G75*
G02*
X141572903Y-108081503I0J-225000D01*
G01*
X141572903Y-108531503D01*
G75*
G02*
X141347903Y-108756503I-225000J0D01*
G01*
X140847903Y-108756503D01*
G75*
G02*
X140622903Y-108531503I0J225000D01*
G01*
X140622903Y-108081503D01*
G75*
G02*
X140847903Y-107856503I225000J0D01*
G01*
G37*
G36*
G01*
X140847903Y-106306503D02*
X141347903Y-106306503D01*
G75*
G02*
X141572903Y-106531503I0J-225000D01*
G01*
X141572903Y-106981503D01*
G75*
G02*
X141347903Y-107206503I-225000J0D01*
G01*
X140847903Y-107206503D01*
G75*
G02*
X140622903Y-106981503I0J225000D01*
G01*
X140622903Y-106531503D01*
G75*
G02*
X140847903Y-106306503I225000J0D01*
G01*
G37*
%TD*%
%TO.C,C11*%
G36*
G01*
X144597903Y-96516000D02*
X144597903Y-96016000D01*
G75*
G02*
X144822903Y-95791000I225000J0D01*
G01*
X145272903Y-95791000D01*
G75*
G02*
X145497903Y-96016000I0J-225000D01*
G01*
X145497903Y-96516000D01*
G75*
G02*
X145272903Y-96741000I-225000J0D01*
G01*
X144822903Y-96741000D01*
G75*
G02*
X144597903Y-96516000I0J225000D01*
G01*
G37*
G36*
G01*
X143047903Y-96516000D02*
X143047903Y-96016000D01*
G75*
G02*
X143272903Y-95791000I225000J0D01*
G01*
X143722903Y-95791000D01*
G75*
G02*
X143947903Y-96016000I0J-225000D01*
G01*
X143947903Y-96516000D01*
G75*
G02*
X143722903Y-96741000I-225000J0D01*
G01*
X143272903Y-96741000D01*
G75*
G02*
X143047903Y-96516000I0J225000D01*
G01*
G37*
%TD*%
%TO.C,C10*%
G36*
G01*
X155947903Y-100160000D02*
X156447903Y-100160000D01*
G75*
G02*
X156672903Y-100385000I0J-225000D01*
G01*
X156672903Y-100835000D01*
G75*
G02*
X156447903Y-101060000I-225000J0D01*
G01*
X155947903Y-101060000D01*
G75*
G02*
X155722903Y-100835000I0J225000D01*
G01*
X155722903Y-100385000D01*
G75*
G02*
X155947903Y-100160000I225000J0D01*
G01*
G37*
G36*
G01*
X155947903Y-98610000D02*
X156447903Y-98610000D01*
G75*
G02*
X156672903Y-98835000I0J-225000D01*
G01*
X156672903Y-99285000D01*
G75*
G02*
X156447903Y-99510000I-225000J0D01*
G01*
X155947903Y-99510000D01*
G75*
G02*
X155722903Y-99285000I0J225000D01*
G01*
X155722903Y-98835000D01*
G75*
G02*
X155947903Y-98610000I225000J0D01*
G01*
G37*
%TD*%
%TO.C,C9*%
G36*
G01*
X154351503Y-82354897D02*
X154351503Y-81854897D01*
G75*
G02*
X154576503Y-81629897I225000J0D01*
G01*
X155026503Y-81629897D01*
G75*
G02*
X155251503Y-81854897I0J-225000D01*
G01*
X155251503Y-82354897D01*
G75*
G02*
X155026503Y-82579897I-225000J0D01*
G01*
X154576503Y-82579897D01*
G75*
G02*
X154351503Y-82354897I0J225000D01*
G01*
G37*
G36*
G01*
X152801503Y-82354897D02*
X152801503Y-81854897D01*
G75*
G02*
X153026503Y-81629897I225000J0D01*
G01*
X153476503Y-81629897D01*
G75*
G02*
X153701503Y-81854897I0J-225000D01*
G01*
X153701503Y-82354897D01*
G75*
G02*
X153476503Y-82579897I-225000J0D01*
G01*
X153026503Y-82579897D01*
G75*
G02*
X152801503Y-82354897I0J225000D01*
G01*
G37*
%TD*%
%TO.C,C8*%
G36*
G01*
X154474703Y-85173097D02*
X154974703Y-85173097D01*
G75*
G02*
X155199703Y-85398097I0J-225000D01*
G01*
X155199703Y-85848097D01*
G75*
G02*
X154974703Y-86073097I-225000J0D01*
G01*
X154474703Y-86073097D01*
G75*
G02*
X154249703Y-85848097I0J225000D01*
G01*
X154249703Y-85398097D01*
G75*
G02*
X154474703Y-85173097I225000J0D01*
G01*
G37*
G36*
G01*
X154474703Y-83623097D02*
X154974703Y-83623097D01*
G75*
G02*
X155199703Y-83848097I0J-225000D01*
G01*
X155199703Y-84298097D01*
G75*
G02*
X154974703Y-84523097I-225000J0D01*
G01*
X154474703Y-84523097D01*
G75*
G02*
X154249703Y-84298097I0J225000D01*
G01*
X154249703Y-83848097D01*
G75*
G02*
X154474703Y-83623097I225000J0D01*
G01*
G37*
%TD*%
%TO.C,C7*%
G36*
G01*
X155947903Y-85170857D02*
X156447903Y-85170857D01*
G75*
G02*
X156672903Y-85395857I0J-225000D01*
G01*
X156672903Y-85845857D01*
G75*
G02*
X156447903Y-86070857I-225000J0D01*
G01*
X155947903Y-86070857D01*
G75*
G02*
X155722903Y-85845857I0J225000D01*
G01*
X155722903Y-85395857D01*
G75*
G02*
X155947903Y-85170857I225000J0D01*
G01*
G37*
G36*
G01*
X155947903Y-83620857D02*
X156447903Y-83620857D01*
G75*
G02*
X156672903Y-83845857I0J-225000D01*
G01*
X156672903Y-84295857D01*
G75*
G02*
X156447903Y-84520857I-225000J0D01*
G01*
X155947903Y-84520857D01*
G75*
G02*
X155722903Y-84295857I0J225000D01*
G01*
X155722903Y-83845857D01*
G75*
G02*
X155947903Y-83620857I225000J0D01*
G01*
G37*
%TD*%
%TO.C,C6*%
G36*
G01*
X141334903Y-103726400D02*
X140834903Y-103726400D01*
G75*
G02*
X140609903Y-103501400I0J225000D01*
G01*
X140609903Y-103051400D01*
G75*
G02*
X140834903Y-102826400I225000J0D01*
G01*
X141334903Y-102826400D01*
G75*
G02*
X141559903Y-103051400I0J-225000D01*
G01*
X141559903Y-103501400D01*
G75*
G02*
X141334903Y-103726400I-225000J0D01*
G01*
G37*
G36*
G01*
X141334903Y-105276400D02*
X140834903Y-105276400D01*
G75*
G02*
X140609903Y-105051400I0J225000D01*
G01*
X140609903Y-104601400D01*
G75*
G02*
X140834903Y-104376400I225000J0D01*
G01*
X141334903Y-104376400D01*
G75*
G02*
X141559903Y-104601400I0J-225000D01*
G01*
X141559903Y-105051400D01*
G75*
G02*
X141334903Y-105276400I-225000J0D01*
G01*
G37*
%TD*%
%TO.C,C5*%
G36*
G01*
X140834903Y-101404000D02*
X141334903Y-101404000D01*
G75*
G02*
X141559903Y-101629000I0J-225000D01*
G01*
X141559903Y-102079000D01*
G75*
G02*
X141334903Y-102304000I-225000J0D01*
G01*
X140834903Y-102304000D01*
G75*
G02*
X140609903Y-102079000I0J225000D01*
G01*
X140609903Y-101629000D01*
G75*
G02*
X140834903Y-101404000I225000J0D01*
G01*
G37*
G36*
G01*
X140834903Y-99854000D02*
X141334903Y-99854000D01*
G75*
G02*
X141559903Y-100079000I0J-225000D01*
G01*
X141559903Y-100529000D01*
G75*
G02*
X141334903Y-100754000I-225000J0D01*
G01*
X140834903Y-100754000D01*
G75*
G02*
X140609903Y-100529000I0J225000D01*
G01*
X140609903Y-100079000D01*
G75*
G02*
X140834903Y-99854000I225000J0D01*
G01*
G37*
%TD*%
%TO.C,C4*%
G36*
G01*
X152583903Y-111129000D02*
X152583903Y-111629000D01*
G75*
G02*
X152358903Y-111854000I-225000J0D01*
G01*
X151908903Y-111854000D01*
G75*
G02*
X151683903Y-111629000I0J225000D01*
G01*
X151683903Y-111129000D01*
G75*
G02*
X151908903Y-110904000I225000J0D01*
G01*
X152358903Y-110904000D01*
G75*
G02*
X152583903Y-111129000I0J-225000D01*
G01*
G37*
G36*
G01*
X154133903Y-111129000D02*
X154133903Y-111629000D01*
G75*
G02*
X153908903Y-111854000I-225000J0D01*
G01*
X153458903Y-111854000D01*
G75*
G02*
X153233903Y-111629000I0J225000D01*
G01*
X153233903Y-111129000D01*
G75*
G02*
X153458903Y-110904000I225000J0D01*
G01*
X153908903Y-110904000D01*
G75*
G02*
X154133903Y-111129000I0J-225000D01*
G01*
G37*
%TD*%
%TO.C,C3*%
G36*
G01*
X144455303Y-111179800D02*
X144455303Y-111679800D01*
G75*
G02*
X144230303Y-111904800I-225000J0D01*
G01*
X143780303Y-111904800D01*
G75*
G02*
X143555303Y-111679800I0J225000D01*
G01*
X143555303Y-111179800D01*
G75*
G02*
X143780303Y-110954800I225000J0D01*
G01*
X144230303Y-110954800D01*
G75*
G02*
X144455303Y-111179800I0J-225000D01*
G01*
G37*
G36*
G01*
X146005303Y-111179800D02*
X146005303Y-111679800D01*
G75*
G02*
X145780303Y-111904800I-225000J0D01*
G01*
X145330303Y-111904800D01*
G75*
G02*
X145105303Y-111679800I0J225000D01*
G01*
X145105303Y-111179800D01*
G75*
G02*
X145330303Y-110954800I225000J0D01*
G01*
X145780303Y-110954800D01*
G75*
G02*
X146005303Y-111179800I0J-225000D01*
G01*
G37*
%TD*%
%TO.C,C2*%
G36*
G01*
X141013000Y-98556000D02*
X141013000Y-99056000D01*
G75*
G02*
X140788000Y-99281000I-225000J0D01*
G01*
X140338000Y-99281000D01*
G75*
G02*
X140113000Y-99056000I0J225000D01*
G01*
X140113000Y-98556000D01*
G75*
G02*
X140338000Y-98331000I225000J0D01*
G01*
X140788000Y-98331000D01*
G75*
G02*
X141013000Y-98556000I0J-225000D01*
G01*
G37*
G36*
G01*
X142563000Y-98556000D02*
X142563000Y-99056000D01*
G75*
G02*
X142338000Y-99281000I-225000J0D01*
G01*
X141888000Y-99281000D01*
G75*
G02*
X141663000Y-99056000I0J225000D01*
G01*
X141663000Y-98556000D01*
G75*
G02*
X141888000Y-98331000I225000J0D01*
G01*
X142338000Y-98331000D01*
G75*
G02*
X142563000Y-98556000I0J-225000D01*
G01*
G37*
%TD*%
%TO.C,C1*%
G36*
G01*
X155402406Y-94699000D02*
X155902406Y-94699000D01*
G75*
G02*
X156127406Y-94924000I0J-225000D01*
G01*
X156127406Y-95374000D01*
G75*
G02*
X155902406Y-95599000I-225000J0D01*
G01*
X155402406Y-95599000D01*
G75*
G02*
X155177406Y-95374000I0J225000D01*
G01*
X155177406Y-94924000D01*
G75*
G02*
X155402406Y-94699000I225000J0D01*
G01*
G37*
G36*
G01*
X155402406Y-93149000D02*
X155902406Y-93149000D01*
G75*
G02*
X156127406Y-93374000I0J-225000D01*
G01*
X156127406Y-93824000D01*
G75*
G02*
X155902406Y-94049000I-225000J0D01*
G01*
X155402406Y-94049000D01*
G75*
G02*
X155177406Y-93824000I0J225000D01*
G01*
X155177406Y-93374000D01*
G75*
G02*
X155402406Y-93149000I225000J0D01*
G01*
G37*
%TD*%
M02*
