%TF.GenerationSoftware,KiCad,Pcbnew,(5.1.10)-1*%
%TF.CreationDate,2022-01-24T18:42:49+01:00*%
%TF.ProjectId,BMS_LV_2022,424d535f-4c56-45f3-9230-32322e6b6963,rev?*%
%TF.SameCoordinates,Original*%
%TF.FileFunction,Soldermask,Bot*%
%TF.FilePolarity,Negative*%
%FSLAX46Y46*%
G04 Gerber Fmt 4.6, Leading zero omitted, Abs format (unit mm)*
G04 Created by KiCad (PCBNEW (5.1.10)-1) date 2022-01-24 18:42:49*
%MOMM*%
%LPD*%
G01*
G04 APERTURE LIST*
%ADD10C,1.250000*%
%ADD11C,2.250000*%
%ADD12C,2.400000*%
%ADD13O,1.700000X1.950000*%
%ADD14O,1.950000X1.700000*%
%ADD15O,1.700000X1.700000*%
%ADD16R,1.700000X1.700000*%
%ADD17C,1.000000*%
G04 APERTURE END LIST*
D10*
%TO.C,J2*%
X120231046Y-97067655D03*
X119581625Y-100923463D03*
X120481682Y-103996441D03*
X129384344Y-105566221D03*
X131281142Y-102986403D03*
X131854181Y-99736537D03*
X130954124Y-96663559D03*
X128374306Y-94766761D03*
D11*
X124132609Y-105980561D03*
X127953248Y-99515794D03*
X124257906Y-94731419D03*
X123482558Y-101144206D03*
%TD*%
D12*
%TO.C,F2*%
X126344903Y-82198000D03*
X139814903Y-82198000D03*
X126344903Y-85598000D03*
X139814903Y-85598000D03*
%TD*%
D13*
%TO.C,J6*%
X170729903Y-120904000D03*
X168229903Y-120904000D03*
X165729903Y-120904000D03*
X163229903Y-120904000D03*
X160729903Y-120904000D03*
X158229903Y-120904000D03*
X155729903Y-120904000D03*
X153229903Y-120904000D03*
G36*
G01*
X149879903Y-121629000D02*
X149879903Y-120179000D01*
G75*
G02*
X150129903Y-119929000I250000J0D01*
G01*
X151329903Y-119929000D01*
G75*
G02*
X151579903Y-120179000I0J-250000D01*
G01*
X151579903Y-121629000D01*
G75*
G02*
X151329903Y-121879000I-250000J0D01*
G01*
X150129903Y-121879000D01*
G75*
G02*
X149879903Y-121629000I0J250000D01*
G01*
G37*
%TD*%
D14*
%TO.C,J11*%
X195313903Y-93966000D03*
X195313903Y-96466000D03*
X195313903Y-98966000D03*
X195313903Y-101466000D03*
X195313903Y-103966000D03*
X195313903Y-106466000D03*
G36*
G01*
X196038903Y-109816000D02*
X194588903Y-109816000D01*
G75*
G02*
X194338903Y-109566000I0J250000D01*
G01*
X194338903Y-108366000D01*
G75*
G02*
X194588903Y-108116000I250000J0D01*
G01*
X196038903Y-108116000D01*
G75*
G02*
X196288903Y-108366000I0J-250000D01*
G01*
X196288903Y-109566000D01*
G75*
G02*
X196038903Y-109816000I-250000J0D01*
G01*
G37*
%TD*%
D15*
%TO.C,JP2*%
X144767903Y-84644897D03*
D16*
X144767903Y-87184897D03*
%TD*%
D17*
%TO.C,J3*%
X168951303Y-82193703D03*
X162951303Y-82193703D03*
%TD*%
D15*
%TO.C,J1*%
X147815903Y-90932000D03*
X150355903Y-90932000D03*
X152895903Y-90932000D03*
X155435903Y-90932000D03*
X157975903Y-90932000D03*
D16*
X160515903Y-90932000D03*
%TD*%
M02*
