%TF.GenerationSoftware,KiCad,Pcbnew,(5.1.10)-1*%
%TF.CreationDate,2022-01-24T18:42:49+01:00*%
%TF.ProjectId,BMS_LV_2022,424d535f-4c56-45f3-9230-32322e6b6963,rev?*%
%TF.SameCoordinates,Original*%
%TF.FileFunction,Legend,Bot*%
%TF.FilePolarity,Positive*%
%FSLAX46Y46*%
G04 Gerber Fmt 4.6, Leading zero omitted, Abs format (unit mm)*
G04 Created by KiCad (PCBNEW (5.1.10)-1) date 2022-01-24 18:42:49*
%MOMM*%
%LPD*%
G01*
G04 APERTURE LIST*
%ADD10C,0.150000*%
%ADD11C,0.300000*%
%ADD12C,0.180000*%
%ADD13C,0.010000*%
G04 APERTURE END LIST*
D10*
X164579712Y-104354380D02*
X164246379Y-105354380D01*
X163913045Y-104354380D01*
X163055903Y-105354380D02*
X163627331Y-105354380D01*
X163341617Y-105354380D02*
X163341617Y-104354380D01*
X163436855Y-104497238D01*
X163532093Y-104592476D01*
X163627331Y-104640095D01*
X162627331Y-105259142D02*
X162579712Y-105306761D01*
X162627331Y-105354380D01*
X162674950Y-105306761D01*
X162627331Y-105259142D01*
X162627331Y-105354380D01*
X161960664Y-104354380D02*
X161865426Y-104354380D01*
X161770188Y-104402000D01*
X161722569Y-104449619D01*
X161674950Y-104544857D01*
X161627331Y-104735333D01*
X161627331Y-104973428D01*
X161674950Y-105163904D01*
X161722569Y-105259142D01*
X161770188Y-105306761D01*
X161865426Y-105354380D01*
X161960664Y-105354380D01*
X162055903Y-105306761D01*
X162103522Y-105259142D01*
X162151141Y-105163904D01*
X162198760Y-104973428D01*
X162198760Y-104735333D01*
X162151141Y-104544857D01*
X162103522Y-104449619D01*
X162055903Y-104402000D01*
X161960664Y-104354380D01*
X169596188Y-104449619D02*
X169548569Y-104402000D01*
X169453331Y-104354380D01*
X169215236Y-104354380D01*
X169119998Y-104402000D01*
X169072379Y-104449619D01*
X169024760Y-104544857D01*
X169024760Y-104640095D01*
X169072379Y-104782952D01*
X169643807Y-105354380D01*
X169024760Y-105354380D01*
X168405712Y-104354380D02*
X168310474Y-104354380D01*
X168215236Y-104402000D01*
X168167617Y-104449619D01*
X168119998Y-104544857D01*
X168072379Y-104735333D01*
X168072379Y-104973428D01*
X168119998Y-105163904D01*
X168167617Y-105259142D01*
X168215236Y-105306761D01*
X168310474Y-105354380D01*
X168405712Y-105354380D01*
X168500950Y-105306761D01*
X168548569Y-105259142D01*
X168596188Y-105163904D01*
X168643807Y-104973428D01*
X168643807Y-104735333D01*
X168596188Y-104544857D01*
X168548569Y-104449619D01*
X168500950Y-104402000D01*
X168405712Y-104354380D01*
X167691426Y-104449619D02*
X167643807Y-104402000D01*
X167548569Y-104354380D01*
X167310474Y-104354380D01*
X167215236Y-104402000D01*
X167167617Y-104449619D01*
X167119998Y-104544857D01*
X167119998Y-104640095D01*
X167167617Y-104782952D01*
X167739045Y-105354380D01*
X167119998Y-105354380D01*
X166739045Y-104449619D02*
X166691426Y-104402000D01*
X166596188Y-104354380D01*
X166358093Y-104354380D01*
X166262855Y-104402000D01*
X166215236Y-104449619D01*
X166167617Y-104544857D01*
X166167617Y-104640095D01*
X166215236Y-104782952D01*
X166786664Y-105354380D01*
X166167617Y-105354380D01*
X174358807Y-120404000D02*
X174454045Y-120356380D01*
X174596903Y-120356380D01*
X174739760Y-120404000D01*
X174834998Y-120499238D01*
X174882617Y-120594476D01*
X174930236Y-120784952D01*
X174930236Y-120927809D01*
X174882617Y-121118285D01*
X174834998Y-121213523D01*
X174739760Y-121308761D01*
X174596903Y-121356380D01*
X174501664Y-121356380D01*
X174358807Y-121308761D01*
X174311188Y-121261142D01*
X174311188Y-120927809D01*
X174501664Y-120927809D01*
X173882617Y-121356380D02*
X173882617Y-120356380D01*
X173311188Y-121356380D01*
X173311188Y-120356380D01*
X172834998Y-121356380D02*
X172834998Y-120356380D01*
X172596903Y-120356380D01*
X172454045Y-120404000D01*
X172358807Y-120499238D01*
X172311188Y-120594476D01*
X172263569Y-120784952D01*
X172263569Y-120927809D01*
X172311188Y-121118285D01*
X172358807Y-121213523D01*
X172454045Y-121308761D01*
X172596903Y-121356380D01*
X172834998Y-121356380D01*
X149291903Y-120356380D02*
X148720474Y-120356380D01*
X149006188Y-121356380D02*
X149006188Y-120356380D01*
X148387141Y-121356380D02*
X148387141Y-120356380D01*
X147958569Y-121356380D02*
X147958569Y-120832571D01*
X148006188Y-120737333D01*
X148101426Y-120689714D01*
X148244283Y-120689714D01*
X148339522Y-120737333D01*
X148387141Y-120784952D01*
X147101426Y-121308761D02*
X147196664Y-121356380D01*
X147387141Y-121356380D01*
X147482379Y-121308761D01*
X147529998Y-121213523D01*
X147529998Y-120832571D01*
X147482379Y-120737333D01*
X147387141Y-120689714D01*
X147196664Y-120689714D01*
X147101426Y-120737333D01*
X147053807Y-120832571D01*
X147053807Y-120927809D01*
X147529998Y-121023047D01*
X146625236Y-121356380D02*
X146625236Y-120689714D01*
X146625236Y-120880190D02*
X146577617Y-120784952D01*
X146529998Y-120737333D01*
X146434760Y-120689714D01*
X146339522Y-120689714D01*
X146006188Y-121356380D02*
X146006188Y-120689714D01*
X146006188Y-120784952D02*
X145958569Y-120737333D01*
X145863331Y-120689714D01*
X145720474Y-120689714D01*
X145625236Y-120737333D01*
X145577617Y-120832571D01*
X145577617Y-121356380D01*
X145577617Y-120832571D02*
X145529998Y-120737333D01*
X145434760Y-120689714D01*
X145291903Y-120689714D01*
X145196664Y-120737333D01*
X145149045Y-120832571D01*
X145149045Y-121356380D01*
X144910950Y-121451619D02*
X144149045Y-121451619D01*
X143387141Y-121356380D02*
X143958569Y-121356380D01*
X143672855Y-121356380D02*
X143672855Y-120356380D01*
X143768093Y-120499238D01*
X143863331Y-120594476D01*
X143958569Y-120642095D01*
X193384950Y-109148571D02*
X193242093Y-109196190D01*
X193194474Y-109243809D01*
X193146855Y-109339047D01*
X193146855Y-109481904D01*
X193194474Y-109577142D01*
X193242093Y-109624761D01*
X193337331Y-109672380D01*
X193718283Y-109672380D01*
X193718283Y-108672380D01*
X193384950Y-108672380D01*
X193289712Y-108720000D01*
X193242093Y-108767619D01*
X193194474Y-108862857D01*
X193194474Y-108958095D01*
X193242093Y-109053333D01*
X193289712Y-109100952D01*
X193384950Y-109148571D01*
X193718283Y-109148571D01*
X192765903Y-109386666D02*
X192289712Y-109386666D01*
X192861141Y-109672380D02*
X192527807Y-108672380D01*
X192194474Y-109672380D01*
X192003998Y-108672380D02*
X191432569Y-108672380D01*
X191718283Y-109672380D02*
X191718283Y-108672380D01*
X191242093Y-108672380D02*
X190670664Y-108672380D01*
X190956379Y-109672380D02*
X190956379Y-108672380D01*
X193027807Y-93480000D02*
X193123045Y-93432380D01*
X193265903Y-93432380D01*
X193408760Y-93480000D01*
X193503998Y-93575238D01*
X193551617Y-93670476D01*
X193599236Y-93860952D01*
X193599236Y-94003809D01*
X193551617Y-94194285D01*
X193503998Y-94289523D01*
X193408760Y-94384761D01*
X193265903Y-94432380D01*
X193170664Y-94432380D01*
X193027807Y-94384761D01*
X192980188Y-94337142D01*
X192980188Y-94003809D01*
X193170664Y-94003809D01*
X192551617Y-94432380D02*
X192551617Y-93432380D01*
X191980188Y-94432380D01*
X191980188Y-93432380D01*
X191503998Y-94432380D02*
X191503998Y-93432380D01*
X191265903Y-93432380D01*
X191123045Y-93480000D01*
X191027807Y-93575238D01*
X190980188Y-93670476D01*
X190932569Y-93860952D01*
X190932569Y-94003809D01*
X190980188Y-94194285D01*
X191027807Y-94289523D01*
X191123045Y-94384761D01*
X191265903Y-94432380D01*
X191503998Y-94432380D01*
D11*
X118322855Y-120639190D02*
X117999045Y-120639190D01*
X118322855Y-119991571D02*
X117999045Y-119991571D01*
X118322855Y-119505857D02*
X118322855Y-118534428D01*
X116622855Y-119020142D02*
X118322855Y-119020142D01*
X116622855Y-117724904D02*
X116703807Y-117886809D01*
X116784760Y-117967761D01*
X116946664Y-118048714D01*
X117432379Y-118048714D01*
X117594283Y-117967761D01*
X117675236Y-117886809D01*
X117756188Y-117724904D01*
X117756188Y-117482047D01*
X117675236Y-117320142D01*
X117594283Y-117239190D01*
X117432379Y-117158238D01*
X116946664Y-117158238D01*
X116784760Y-117239190D01*
X116703807Y-117320142D01*
X116622855Y-117482047D01*
X116622855Y-117724904D01*
X116622855Y-115134428D02*
X117756188Y-115134428D01*
X117594283Y-115134428D02*
X117675236Y-115053476D01*
X117756188Y-114891571D01*
X117756188Y-114648714D01*
X117675236Y-114486809D01*
X117513331Y-114405857D01*
X116622855Y-114405857D01*
X117513331Y-114405857D02*
X117675236Y-114324904D01*
X117756188Y-114163000D01*
X117756188Y-113920142D01*
X117675236Y-113758238D01*
X117513331Y-113677285D01*
X116622855Y-113677285D01*
X116622855Y-112139190D02*
X117513331Y-112139190D01*
X117675236Y-112220142D01*
X117756188Y-112382047D01*
X117756188Y-112705857D01*
X117675236Y-112867761D01*
X116703807Y-112139190D02*
X116622855Y-112301095D01*
X116622855Y-112705857D01*
X116703807Y-112867761D01*
X116865712Y-112948714D01*
X117027617Y-112948714D01*
X117189522Y-112867761D01*
X117270474Y-112705857D01*
X117270474Y-112301095D01*
X117351426Y-112139190D01*
X116622855Y-111086809D02*
X116703807Y-111248714D01*
X116865712Y-111329666D01*
X118322855Y-111329666D01*
X117432379Y-111572523D02*
X117756188Y-111086809D01*
X117756188Y-110601095D02*
X116622855Y-110196333D01*
X117756188Y-109791571D02*
X116622855Y-110196333D01*
X116218093Y-110358238D01*
X116137141Y-110439190D01*
X116056188Y-110601095D01*
X116622855Y-107848714D02*
X118322855Y-107848714D01*
X117270474Y-107686809D02*
X116622855Y-107201095D01*
X117756188Y-107201095D02*
X117108569Y-107848714D01*
X116622855Y-106472523D02*
X117756188Y-106472523D01*
X117432379Y-106472523D02*
X117594283Y-106391571D01*
X117675236Y-106310619D01*
X117756188Y-106148714D01*
X117756188Y-105986809D01*
X116622855Y-105177285D02*
X116703807Y-105339190D01*
X116784760Y-105420142D01*
X116946664Y-105501095D01*
X117432379Y-105501095D01*
X117594283Y-105420142D01*
X117675236Y-105339190D01*
X117756188Y-105177285D01*
X117756188Y-104934428D01*
X117675236Y-104772523D01*
X117594283Y-104691571D01*
X117432379Y-104610619D01*
X116946664Y-104610619D01*
X116784760Y-104691571D01*
X116703807Y-104772523D01*
X116622855Y-104934428D01*
X116622855Y-105177285D01*
X116622855Y-103882047D02*
X118322855Y-103882047D01*
X117270474Y-103720142D02*
X116622855Y-103234428D01*
X117756188Y-103234428D02*
X117108569Y-103882047D01*
X116622855Y-100482047D02*
X118322855Y-100482047D01*
X116703807Y-100482047D02*
X116622855Y-100643952D01*
X116622855Y-100967761D01*
X116703807Y-101129666D01*
X116784760Y-101210619D01*
X116946664Y-101291571D01*
X117432379Y-101291571D01*
X117594283Y-101210619D01*
X117675236Y-101129666D01*
X117756188Y-100967761D01*
X117756188Y-100643952D01*
X117675236Y-100482047D01*
X116622855Y-99429666D02*
X116703807Y-99591571D01*
X116865712Y-99672523D01*
X118322855Y-99672523D01*
X116622855Y-98053476D02*
X117513331Y-98053476D01*
X117675236Y-98134428D01*
X117756188Y-98296333D01*
X117756188Y-98620142D01*
X117675236Y-98782047D01*
X116703807Y-98053476D02*
X116622855Y-98215380D01*
X116622855Y-98620142D01*
X116703807Y-98782047D01*
X116865712Y-98863000D01*
X117027617Y-98863000D01*
X117189522Y-98782047D01*
X117270474Y-98620142D01*
X117270474Y-98215380D01*
X117351426Y-98053476D01*
X116622855Y-95705857D02*
X116703807Y-95867761D01*
X116865712Y-95948714D01*
X118322855Y-95948714D01*
X117756188Y-94329666D02*
X116622855Y-94329666D01*
X117756188Y-95058238D02*
X116865712Y-95058238D01*
X116703807Y-94977285D01*
X116622855Y-94815380D01*
X116622855Y-94572523D01*
X116703807Y-94410619D01*
X116784760Y-94329666D01*
X116622855Y-92791571D02*
X118322855Y-92791571D01*
X116703807Y-92791571D02*
X116622855Y-92953476D01*
X116622855Y-93277285D01*
X116703807Y-93439190D01*
X116784760Y-93520142D01*
X116946664Y-93601095D01*
X117432379Y-93601095D01*
X117594283Y-93520142D01*
X117675236Y-93439190D01*
X117756188Y-93277285D01*
X117756188Y-92953476D01*
X117675236Y-92791571D01*
X117756188Y-92143952D02*
X117756188Y-91253476D01*
X116622855Y-92143952D01*
X116622855Y-91253476D01*
X116622855Y-90605857D02*
X118322855Y-90605857D01*
X117270474Y-90443952D02*
X116622855Y-89958238D01*
X117756188Y-89958238D02*
X117108569Y-90605857D01*
X116622855Y-88986809D02*
X116703807Y-89148714D01*
X116784760Y-89229666D01*
X116946664Y-89310619D01*
X117432379Y-89310619D01*
X117594283Y-89229666D01*
X117675236Y-89148714D01*
X117756188Y-88986809D01*
X117756188Y-88743952D01*
X117675236Y-88582047D01*
X117594283Y-88501095D01*
X117432379Y-88420142D01*
X116946664Y-88420142D01*
X116784760Y-88501095D01*
X116703807Y-88582047D01*
X116622855Y-88743952D01*
X116622855Y-88986809D01*
X116703807Y-87772523D02*
X116622855Y-87610619D01*
X116622855Y-87286809D01*
X116703807Y-87124904D01*
X116865712Y-87043952D01*
X116946664Y-87043952D01*
X117108569Y-87124904D01*
X117189522Y-87286809D01*
X117189522Y-87529666D01*
X117270474Y-87691571D01*
X117432379Y-87772523D01*
X117513331Y-87772523D01*
X117675236Y-87691571D01*
X117756188Y-87529666D01*
X117756188Y-87286809D01*
X117675236Y-87124904D01*
X118403807Y-87286809D02*
X118160950Y-87529666D01*
X116703807Y-85586809D02*
X116622855Y-85748714D01*
X116622855Y-86072523D01*
X116703807Y-86234428D01*
X116784760Y-86315380D01*
X116946664Y-86396333D01*
X117432379Y-86396333D01*
X117594283Y-86315380D01*
X117675236Y-86234428D01*
X117756188Y-86072523D01*
X117756188Y-85748714D01*
X117675236Y-85586809D01*
X116622855Y-84858238D02*
X117756188Y-84858238D01*
X118322855Y-84858238D02*
X118241903Y-84939190D01*
X118160950Y-84858238D01*
X118241903Y-84777285D01*
X118322855Y-84858238D01*
X118160950Y-84858238D01*
X116703807Y-83967761D02*
X116622855Y-83967761D01*
X116460950Y-84048714D01*
X116379998Y-84129666D01*
X113772855Y-118534428D02*
X114663331Y-118534428D01*
X114825236Y-118615380D01*
X114906188Y-118777285D01*
X114906188Y-119101095D01*
X114825236Y-119263000D01*
X113853807Y-118534428D02*
X113772855Y-118696333D01*
X113772855Y-119101095D01*
X113853807Y-119263000D01*
X114015712Y-119343952D01*
X114177617Y-119343952D01*
X114339522Y-119263000D01*
X114420474Y-119101095D01*
X114420474Y-118696333D01*
X114501426Y-118534428D01*
X113772855Y-117482047D02*
X113853807Y-117643952D01*
X114015712Y-117724904D01*
X115472855Y-117724904D01*
X113853807Y-116186809D02*
X113772855Y-116348714D01*
X113772855Y-116672523D01*
X113853807Y-116834428D01*
X114015712Y-116915380D01*
X114663331Y-116915380D01*
X114825236Y-116834428D01*
X114906188Y-116672523D01*
X114906188Y-116348714D01*
X114825236Y-116186809D01*
X114663331Y-116105857D01*
X114501426Y-116105857D01*
X114339522Y-116915380D01*
X113772855Y-113353476D02*
X115472855Y-113353476D01*
X113853807Y-113353476D02*
X113772855Y-113515380D01*
X113772855Y-113839190D01*
X113853807Y-114001095D01*
X113934760Y-114082047D01*
X114096664Y-114163000D01*
X114582379Y-114163000D01*
X114744283Y-114082047D01*
X114825236Y-114001095D01*
X114906188Y-113839190D01*
X114906188Y-113515380D01*
X114825236Y-113353476D01*
X113772855Y-112301095D02*
X113853807Y-112463000D01*
X114015712Y-112543952D01*
X115472855Y-112543952D01*
X113772855Y-110924904D02*
X114663331Y-110924904D01*
X114825236Y-111005857D01*
X114906188Y-111167761D01*
X114906188Y-111491571D01*
X114825236Y-111653476D01*
X113853807Y-110924904D02*
X113772855Y-111086809D01*
X113772855Y-111491571D01*
X113853807Y-111653476D01*
X114015712Y-111734428D01*
X114177617Y-111734428D01*
X114339522Y-111653476D01*
X114420474Y-111491571D01*
X114420474Y-111086809D01*
X114501426Y-110924904D01*
X113772855Y-108820142D02*
X115472855Y-108820142D01*
X114420474Y-108658238D02*
X113772855Y-108172523D01*
X114906188Y-108172523D02*
X114258569Y-108820142D01*
X113772855Y-106715380D02*
X114663331Y-106715380D01*
X114825236Y-106796333D01*
X114906188Y-106958238D01*
X114906188Y-107282047D01*
X114825236Y-107443952D01*
X113853807Y-106715380D02*
X113772855Y-106877285D01*
X113772855Y-107282047D01*
X113853807Y-107443952D01*
X114015712Y-107524904D01*
X114177617Y-107524904D01*
X114339522Y-107443952D01*
X114420474Y-107282047D01*
X114420474Y-106877285D01*
X114501426Y-106715380D01*
X113772855Y-105905857D02*
X114906188Y-105905857D01*
X114582379Y-105905857D02*
X114744283Y-105824904D01*
X114825236Y-105743952D01*
X114906188Y-105582047D01*
X114906188Y-105420142D01*
X113772855Y-104610619D02*
X113853807Y-104772523D01*
X114015712Y-104853476D01*
X115472855Y-104853476D01*
X114582379Y-105096333D02*
X114906188Y-104610619D01*
X113772855Y-103234428D02*
X114663331Y-103234428D01*
X114825236Y-103315380D01*
X114906188Y-103477285D01*
X114906188Y-103801095D01*
X114825236Y-103963000D01*
X113853807Y-103234428D02*
X113772855Y-103396333D01*
X113772855Y-103801095D01*
X113853807Y-103963000D01*
X114015712Y-104043952D01*
X114177617Y-104043952D01*
X114339522Y-103963000D01*
X114420474Y-103801095D01*
X114420474Y-103396333D01*
X114501426Y-103234428D01*
X114906188Y-101129666D02*
X113772855Y-101129666D01*
X114744283Y-101129666D02*
X114825236Y-101048714D01*
X114906188Y-100886809D01*
X114906188Y-100643952D01*
X114825236Y-100482047D01*
X114663331Y-100401095D01*
X113772855Y-100401095D01*
X113772855Y-99348714D02*
X113853807Y-99510619D01*
X113934760Y-99591571D01*
X114096664Y-99672523D01*
X114582379Y-99672523D01*
X114744283Y-99591571D01*
X114825236Y-99510619D01*
X114906188Y-99348714D01*
X114906188Y-99105857D01*
X114825236Y-98943952D01*
X114744283Y-98863000D01*
X114582379Y-98782047D01*
X114096664Y-98782047D01*
X113934760Y-98863000D01*
X113853807Y-98943952D01*
X113772855Y-99105857D01*
X113772855Y-99348714D01*
X113772855Y-98053476D02*
X114906188Y-98053476D01*
X114582379Y-98053476D02*
X114744283Y-97972523D01*
X114825236Y-97891571D01*
X114906188Y-97729666D01*
X114906188Y-97567761D01*
X113772855Y-97001095D02*
X114906188Y-97001095D01*
X114744283Y-97001095D02*
X114825236Y-96920142D01*
X114906188Y-96758238D01*
X114906188Y-96515380D01*
X114825236Y-96353476D01*
X114663331Y-96272523D01*
X113772855Y-96272523D01*
X114663331Y-96272523D02*
X114825236Y-96191571D01*
X114906188Y-96029666D01*
X114906188Y-95786809D01*
X114825236Y-95624904D01*
X114663331Y-95543952D01*
X113772855Y-95543952D01*
X113772855Y-94005857D02*
X114663331Y-94005857D01*
X114825236Y-94086809D01*
X114906188Y-94248714D01*
X114906188Y-94572523D01*
X114825236Y-94734428D01*
X113853807Y-94005857D02*
X113772855Y-94167761D01*
X113772855Y-94572523D01*
X113853807Y-94734428D01*
X114015712Y-94815380D01*
X114177617Y-94815380D01*
X114339522Y-94734428D01*
X114420474Y-94572523D01*
X114420474Y-94167761D01*
X114501426Y-94005857D01*
X113772855Y-92953476D02*
X113853807Y-93115380D01*
X114015712Y-93196333D01*
X115472855Y-93196333D01*
X114906188Y-92305857D02*
X113772855Y-92305857D01*
X114744283Y-92305857D02*
X114825236Y-92224904D01*
X114906188Y-92063000D01*
X114906188Y-91820142D01*
X114825236Y-91658238D01*
X114663331Y-91577285D01*
X113772855Y-91577285D01*
X114906188Y-90929666D02*
X113772855Y-90524904D01*
X114906188Y-90120142D02*
X113772855Y-90524904D01*
X113368093Y-90686809D01*
X113287141Y-90767761D01*
X113206188Y-90929666D01*
X115472855Y-89553476D02*
X115149045Y-89553476D01*
X115472855Y-88905857D02*
X115149045Y-88905857D01*
X111003807Y-98620142D02*
X110922855Y-98377285D01*
X110922855Y-97972523D01*
X111003807Y-97810619D01*
X111084760Y-97729666D01*
X111246664Y-97648714D01*
X111408569Y-97648714D01*
X111570474Y-97729666D01*
X111651426Y-97810619D01*
X111732379Y-97972523D01*
X111813331Y-98296333D01*
X111894283Y-98458238D01*
X111975236Y-98539190D01*
X112137141Y-98620142D01*
X112299045Y-98620142D01*
X112460950Y-98539190D01*
X112541903Y-98458238D01*
X112622855Y-98296333D01*
X112622855Y-97891571D01*
X112541903Y-97648714D01*
X111003807Y-96272523D02*
X110922855Y-96434428D01*
X110922855Y-96758238D01*
X111003807Y-96920142D01*
X111165712Y-97001095D01*
X111813331Y-97001095D01*
X111975236Y-96920142D01*
X112056188Y-96758238D01*
X112056188Y-96434428D01*
X111975236Y-96272523D01*
X111813331Y-96191571D01*
X111651426Y-96191571D01*
X111489522Y-97001095D01*
X110922855Y-95462999D02*
X112622855Y-95462999D01*
X111975236Y-95462999D02*
X112056188Y-95301095D01*
X112056188Y-94977285D01*
X111975236Y-94815380D01*
X111894283Y-94734428D01*
X111732379Y-94653476D01*
X111246664Y-94653476D01*
X111084760Y-94734428D01*
X111003807Y-94815380D01*
X110922855Y-94977285D01*
X110922855Y-95301095D01*
X111003807Y-95462999D01*
X111003807Y-93277285D02*
X110922855Y-93439190D01*
X110922855Y-93762999D01*
X111003807Y-93924904D01*
X111165712Y-94005857D01*
X111813331Y-94005857D01*
X111975236Y-93924904D01*
X112056188Y-93762999D01*
X112056188Y-93439190D01*
X111975236Y-93277285D01*
X111813331Y-93196333D01*
X111651426Y-93196333D01*
X111489522Y-94005857D01*
X110922855Y-92467761D02*
X112622855Y-92467761D01*
X111570474Y-92305857D02*
X110922855Y-91820142D01*
X112056188Y-91820142D02*
X111408569Y-92467761D01*
X111813331Y-89229666D02*
X111732379Y-88986809D01*
X111651426Y-88905857D01*
X111489522Y-88824904D01*
X111246664Y-88824904D01*
X111084760Y-88905857D01*
X111003807Y-88986809D01*
X110922855Y-89148714D01*
X110922855Y-89796333D01*
X112622855Y-89796333D01*
X112622855Y-89229666D01*
X112541903Y-89067761D01*
X112460950Y-88986809D01*
X112299045Y-88905857D01*
X112137141Y-88905857D01*
X111975236Y-88986809D01*
X111894283Y-89067761D01*
X111813331Y-89229666D01*
X111813331Y-89796333D01*
X110922855Y-87367761D02*
X111813331Y-87367761D01*
X111975236Y-87448714D01*
X112056188Y-87610619D01*
X112056188Y-87934428D01*
X111975236Y-88096333D01*
X111003807Y-87367761D02*
X110922855Y-87529666D01*
X110922855Y-87934428D01*
X111003807Y-88096333D01*
X111165712Y-88177285D01*
X111327617Y-88177285D01*
X111489522Y-88096333D01*
X111570474Y-87934428D01*
X111570474Y-87529666D01*
X111651426Y-87367761D01*
X110922855Y-87367761D02*
X110760950Y-87529666D01*
X110599045Y-87610619D01*
X110437141Y-87529666D01*
X110356188Y-87367761D01*
X110356188Y-87205857D01*
X110922855Y-86558238D02*
X112622855Y-86558238D01*
X111570474Y-86396333D02*
X110922855Y-85910619D01*
X112056188Y-85910619D02*
X111408569Y-86558238D01*
D12*
X171136845Y-115756542D02*
X170951131Y-115818447D01*
X170889226Y-115880352D01*
X170827322Y-116004161D01*
X170827322Y-116189876D01*
X170889226Y-116313685D01*
X170951131Y-116375590D01*
X171074941Y-116437495D01*
X171570179Y-116437495D01*
X171570179Y-115137495D01*
X171136845Y-115137495D01*
X171013036Y-115199400D01*
X170951131Y-115261304D01*
X170889226Y-115385114D01*
X170889226Y-115508923D01*
X170951131Y-115632733D01*
X171013036Y-115694638D01*
X171136845Y-115756542D01*
X171570179Y-115756542D01*
X169713036Y-116437495D02*
X169713036Y-115756542D01*
X169774941Y-115632733D01*
X169898750Y-115570828D01*
X170146369Y-115570828D01*
X170270179Y-115632733D01*
X169713036Y-116375590D02*
X169836845Y-116437495D01*
X170146369Y-116437495D01*
X170270179Y-116375590D01*
X170332083Y-116251780D01*
X170332083Y-116127971D01*
X170270179Y-116004161D01*
X170146369Y-115942257D01*
X169836845Y-115942257D01*
X169713036Y-115880352D01*
X169279703Y-115570828D02*
X168784464Y-115570828D01*
X169093988Y-115137495D02*
X169093988Y-116251780D01*
X169032083Y-116375590D01*
X168908274Y-116437495D01*
X168784464Y-116437495D01*
X168536845Y-115570828D02*
X168041607Y-115570828D01*
X168351131Y-115137495D02*
X168351131Y-116251780D01*
X168289226Y-116375590D01*
X168165417Y-116437495D01*
X168041607Y-116437495D01*
X167113036Y-116375590D02*
X167236845Y-116437495D01*
X167484464Y-116437495D01*
X167608274Y-116375590D01*
X167670179Y-116251780D01*
X167670179Y-115756542D01*
X167608274Y-115632733D01*
X167484464Y-115570828D01*
X167236845Y-115570828D01*
X167113036Y-115632733D01*
X167051131Y-115756542D01*
X167051131Y-115880352D01*
X167670179Y-116004161D01*
X166493988Y-116437495D02*
X166493988Y-115570828D01*
X166493988Y-115818447D02*
X166432083Y-115694638D01*
X166370179Y-115632733D01*
X166246369Y-115570828D01*
X166122560Y-115570828D01*
X165813036Y-115570828D02*
X165503512Y-116437495D01*
X165193988Y-115570828D02*
X165503512Y-116437495D01*
X165627322Y-116747019D01*
X165689226Y-116808923D01*
X165813036Y-116870828D01*
X163708274Y-116437495D02*
X163708274Y-115137495D01*
X163274941Y-116066066D01*
X162841607Y-115137495D01*
X162841607Y-116437495D01*
X161665417Y-116437495D02*
X161665417Y-115756542D01*
X161727322Y-115632733D01*
X161851131Y-115570828D01*
X162098750Y-115570828D01*
X162222560Y-115632733D01*
X161665417Y-116375590D02*
X161789226Y-116437495D01*
X162098750Y-116437495D01*
X162222560Y-116375590D01*
X162284464Y-116251780D01*
X162284464Y-116127971D01*
X162222560Y-116004161D01*
X162098750Y-115942257D01*
X161789226Y-115942257D01*
X161665417Y-115880352D01*
X161046369Y-115570828D02*
X161046369Y-116437495D01*
X161046369Y-115694638D02*
X160984464Y-115632733D01*
X160860655Y-115570828D01*
X160674941Y-115570828D01*
X160551131Y-115632733D01*
X160489226Y-115756542D01*
X160489226Y-116437495D01*
X159313036Y-116437495D02*
X159313036Y-115756542D01*
X159374941Y-115632733D01*
X159498750Y-115570828D01*
X159746369Y-115570828D01*
X159870179Y-115632733D01*
X159313036Y-116375590D02*
X159436845Y-116437495D01*
X159746369Y-116437495D01*
X159870179Y-116375590D01*
X159932083Y-116251780D01*
X159932083Y-116127971D01*
X159870179Y-116004161D01*
X159746369Y-115942257D01*
X159436845Y-115942257D01*
X159313036Y-115880352D01*
X158136845Y-115570828D02*
X158136845Y-116623209D01*
X158198750Y-116747019D01*
X158260655Y-116808923D01*
X158384464Y-116870828D01*
X158570179Y-116870828D01*
X158693988Y-116808923D01*
X158136845Y-116375590D02*
X158260655Y-116437495D01*
X158508274Y-116437495D01*
X158632083Y-116375590D01*
X158693988Y-116313685D01*
X158755893Y-116189876D01*
X158755893Y-115818447D01*
X158693988Y-115694638D01*
X158632083Y-115632733D01*
X158508274Y-115570828D01*
X158260655Y-115570828D01*
X158136845Y-115632733D01*
X157022560Y-116375590D02*
X157146369Y-116437495D01*
X157393988Y-116437495D01*
X157517798Y-116375590D01*
X157579703Y-116251780D01*
X157579703Y-115756542D01*
X157517798Y-115632733D01*
X157393988Y-115570828D01*
X157146369Y-115570828D01*
X157022560Y-115632733D01*
X156960655Y-115756542D01*
X156960655Y-115880352D01*
X157579703Y-116004161D01*
X156403512Y-116437495D02*
X156403512Y-115570828D01*
X156403512Y-115694638D02*
X156341607Y-115632733D01*
X156217798Y-115570828D01*
X156032083Y-115570828D01*
X155908274Y-115632733D01*
X155846369Y-115756542D01*
X155846369Y-116437495D01*
X155846369Y-115756542D02*
X155784464Y-115632733D01*
X155660655Y-115570828D01*
X155474941Y-115570828D01*
X155351131Y-115632733D01*
X155289226Y-115756542D01*
X155289226Y-116437495D01*
X154174941Y-116375590D02*
X154298750Y-116437495D01*
X154546369Y-116437495D01*
X154670179Y-116375590D01*
X154732083Y-116251780D01*
X154732083Y-115756542D01*
X154670179Y-115632733D01*
X154546369Y-115570828D01*
X154298750Y-115570828D01*
X154174941Y-115632733D01*
X154113036Y-115756542D01*
X154113036Y-115880352D01*
X154732083Y-116004161D01*
X153555893Y-115570828D02*
X153555893Y-116437495D01*
X153555893Y-115694638D02*
X153493988Y-115632733D01*
X153370179Y-115570828D01*
X153184464Y-115570828D01*
X153060655Y-115632733D01*
X152998750Y-115756542D01*
X152998750Y-116437495D01*
X152565417Y-115570828D02*
X152070179Y-115570828D01*
X152379703Y-115137495D02*
X152379703Y-116251780D01*
X152317798Y-116375590D01*
X152193988Y-116437495D01*
X152070179Y-116437495D01*
X150708274Y-116375590D02*
X150522560Y-116437495D01*
X150213036Y-116437495D01*
X150089226Y-116375590D01*
X150027322Y-116313685D01*
X149965417Y-116189876D01*
X149965417Y-116066066D01*
X150027322Y-115942257D01*
X150089226Y-115880352D01*
X150213036Y-115818447D01*
X150460655Y-115756542D01*
X150584464Y-115694638D01*
X150646369Y-115632733D01*
X150708274Y-115508923D01*
X150708274Y-115385114D01*
X150646369Y-115261304D01*
X150584464Y-115199400D01*
X150460655Y-115137495D01*
X150151131Y-115137495D01*
X149965417Y-115199400D01*
X149532083Y-115570828D02*
X149222560Y-116437495D01*
X148913036Y-115570828D02*
X149222560Y-116437495D01*
X149346369Y-116747019D01*
X149408274Y-116808923D01*
X149532083Y-116870828D01*
X148479703Y-116375590D02*
X148355893Y-116437495D01*
X148108274Y-116437495D01*
X147984464Y-116375590D01*
X147922560Y-116251780D01*
X147922560Y-116189876D01*
X147984464Y-116066066D01*
X148108274Y-116004161D01*
X148293988Y-116004161D01*
X148417798Y-115942257D01*
X148479703Y-115818447D01*
X148479703Y-115756542D01*
X148417798Y-115632733D01*
X148293988Y-115570828D01*
X148108274Y-115570828D01*
X147984464Y-115632733D01*
X147551131Y-115570828D02*
X147055893Y-115570828D01*
X147365417Y-115137495D02*
X147365417Y-116251780D01*
X147303512Y-116375590D01*
X147179703Y-116437495D01*
X147055893Y-116437495D01*
X146127322Y-116375590D02*
X146251131Y-116437495D01*
X146498750Y-116437495D01*
X146622560Y-116375590D01*
X146684464Y-116251780D01*
X146684464Y-115756542D01*
X146622560Y-115632733D01*
X146498750Y-115570828D01*
X146251131Y-115570828D01*
X146127322Y-115632733D01*
X146065417Y-115756542D01*
X146065417Y-115880352D01*
X146684464Y-116004161D01*
X145508274Y-116437495D02*
X145508274Y-115570828D01*
X145508274Y-115694638D02*
X145446369Y-115632733D01*
X145322560Y-115570828D01*
X145136845Y-115570828D01*
X145013036Y-115632733D01*
X144951131Y-115756542D01*
X144951131Y-116437495D01*
X144951131Y-115756542D02*
X144889226Y-115632733D01*
X144765417Y-115570828D01*
X144579703Y-115570828D01*
X144455893Y-115632733D01*
X144393988Y-115756542D01*
X144393988Y-116437495D01*
D10*
X171607126Y-113714161D02*
X171464269Y-113761780D01*
X171226174Y-113761780D01*
X171130936Y-113714161D01*
X171083317Y-113666542D01*
X171035698Y-113571304D01*
X171035698Y-113476066D01*
X171083317Y-113380828D01*
X171130936Y-113333209D01*
X171226174Y-113285590D01*
X171416650Y-113237971D01*
X171511888Y-113190352D01*
X171559507Y-113142733D01*
X171607126Y-113047495D01*
X171607126Y-112952257D01*
X171559507Y-112857019D01*
X171511888Y-112809400D01*
X171416650Y-112761780D01*
X171178555Y-112761780D01*
X171035698Y-112809400D01*
X170702364Y-113095114D02*
X170178555Y-113095114D01*
X170702364Y-113761780D01*
X170178555Y-113761780D01*
X169892841Y-113095114D02*
X169654745Y-113761780D01*
X169416650Y-113095114D02*
X169654745Y-113761780D01*
X169749983Y-113999876D01*
X169797603Y-114047495D01*
X169892841Y-114095114D01*
X169035698Y-113761780D02*
X169035698Y-113095114D01*
X169035698Y-113190352D02*
X168988079Y-113142733D01*
X168892841Y-113095114D01*
X168749983Y-113095114D01*
X168654745Y-113142733D01*
X168607126Y-113237971D01*
X168607126Y-113761780D01*
X168607126Y-113237971D02*
X168559507Y-113142733D01*
X168464269Y-113095114D01*
X168321412Y-113095114D01*
X168226174Y-113142733D01*
X168178555Y-113237971D01*
X168178555Y-113761780D01*
X167559507Y-113761780D02*
X167654745Y-113714161D01*
X167702364Y-113666542D01*
X167749983Y-113571304D01*
X167749983Y-113285590D01*
X167702364Y-113190352D01*
X167654745Y-113142733D01*
X167559507Y-113095114D01*
X167416650Y-113095114D01*
X167321412Y-113142733D01*
X167273793Y-113190352D01*
X167226174Y-113285590D01*
X167226174Y-113571304D01*
X167273793Y-113666542D01*
X167321412Y-113714161D01*
X167416650Y-113761780D01*
X167559507Y-113761780D01*
X166797603Y-113095114D02*
X166797603Y-113761780D01*
X166797603Y-113190352D02*
X166749983Y-113142733D01*
X166654745Y-113095114D01*
X166511888Y-113095114D01*
X166416650Y-113142733D01*
X166369031Y-113237971D01*
X166369031Y-113761780D01*
X165178555Y-113714161D02*
X165035698Y-113761780D01*
X164797603Y-113761780D01*
X164702364Y-113714161D01*
X164654745Y-113666542D01*
X164607126Y-113571304D01*
X164607126Y-113476066D01*
X164654745Y-113380828D01*
X164702364Y-113333209D01*
X164797603Y-113285590D01*
X164988079Y-113237971D01*
X165083317Y-113190352D01*
X165130936Y-113142733D01*
X165178555Y-113047495D01*
X165178555Y-112952257D01*
X165130936Y-112857019D01*
X165083317Y-112809400D01*
X164988079Y-112761780D01*
X164749983Y-112761780D01*
X164607126Y-112809400D01*
X163749983Y-113761780D02*
X163749983Y-113237971D01*
X163797603Y-113142733D01*
X163892841Y-113095114D01*
X164083317Y-113095114D01*
X164178555Y-113142733D01*
X163749983Y-113714161D02*
X163845222Y-113761780D01*
X164083317Y-113761780D01*
X164178555Y-113714161D01*
X164226174Y-113618923D01*
X164226174Y-113523685D01*
X164178555Y-113428447D01*
X164083317Y-113380828D01*
X163845222Y-113380828D01*
X163749983Y-113333209D01*
X163273793Y-113761780D02*
X163273793Y-113095114D01*
X163273793Y-113190352D02*
X163226174Y-113142733D01*
X163130936Y-113095114D01*
X162988079Y-113095114D01*
X162892841Y-113142733D01*
X162845222Y-113237971D01*
X162845222Y-113761780D01*
X162845222Y-113237971D02*
X162797603Y-113142733D01*
X162702364Y-113095114D01*
X162559507Y-113095114D01*
X162464269Y-113142733D01*
X162416650Y-113237971D01*
X162416650Y-113761780D01*
X161940460Y-113761780D02*
X161940460Y-112761780D01*
X161940460Y-113142733D02*
X161845222Y-113095114D01*
X161654745Y-113095114D01*
X161559507Y-113142733D01*
X161511888Y-113190352D01*
X161464269Y-113285590D01*
X161464269Y-113571304D01*
X161511888Y-113666542D01*
X161559507Y-113714161D01*
X161654745Y-113761780D01*
X161845222Y-113761780D01*
X161940460Y-113714161D01*
X160892841Y-113761780D02*
X160988079Y-113714161D01*
X161035698Y-113666542D01*
X161083317Y-113571304D01*
X161083317Y-113285590D01*
X161035698Y-113190352D01*
X160988079Y-113142733D01*
X160892841Y-113095114D01*
X160749983Y-113095114D01*
X160654745Y-113142733D01*
X160607126Y-113190352D01*
X160559507Y-113285590D01*
X160559507Y-113571304D01*
X160607126Y-113666542D01*
X160654745Y-113714161D01*
X160749983Y-113761780D01*
X160892841Y-113761780D01*
X160130936Y-113761780D02*
X160130936Y-113095114D01*
X160130936Y-113285590D02*
X160083317Y-113190352D01*
X160035698Y-113142733D01*
X159940460Y-113095114D01*
X159845222Y-113095114D01*
D11*
X171520760Y-111727371D02*
X171520760Y-110227371D01*
X171020760Y-111298800D01*
X170520760Y-110227371D01*
X170520760Y-111727371D01*
X169163617Y-111727371D02*
X169163617Y-110941657D01*
X169235045Y-110798800D01*
X169377903Y-110727371D01*
X169663617Y-110727371D01*
X169806474Y-110798800D01*
X169163617Y-111655942D02*
X169306474Y-111727371D01*
X169663617Y-111727371D01*
X169806474Y-111655942D01*
X169877903Y-111513085D01*
X169877903Y-111370228D01*
X169806474Y-111227371D01*
X169663617Y-111155942D01*
X169306474Y-111155942D01*
X169163617Y-111084514D01*
X168449331Y-111727371D02*
X168449331Y-110227371D01*
X168306474Y-111155942D02*
X167877903Y-111727371D01*
X167877903Y-110727371D02*
X168449331Y-111298800D01*
X167306474Y-111655942D02*
X167163617Y-111727371D01*
X166877903Y-111727371D01*
X166735045Y-111655942D01*
X166663617Y-111513085D01*
X166663617Y-111441657D01*
X166735045Y-111298800D01*
X166877903Y-111227371D01*
X167092188Y-111227371D01*
X167235045Y-111155942D01*
X167306474Y-111013085D01*
X167306474Y-110941657D01*
X167235045Y-110798800D01*
X167092188Y-110727371D01*
X166877903Y-110727371D01*
X166735045Y-110798800D01*
X166163617Y-110727371D02*
X165806474Y-111727371D01*
X165449331Y-110727371D02*
X165806474Y-111727371D01*
X165949331Y-112084514D01*
X166020760Y-112155942D01*
X166163617Y-112227371D01*
X164877903Y-111727371D02*
X164877903Y-110727371D01*
X164877903Y-110870228D02*
X164806474Y-110798800D01*
X164663617Y-110727371D01*
X164449331Y-110727371D01*
X164306474Y-110798800D01*
X164235045Y-110941657D01*
X164235045Y-111727371D01*
X164235045Y-110941657D02*
X164163617Y-110798800D01*
X164020760Y-110727371D01*
X163806474Y-110727371D01*
X163663617Y-110798800D01*
X163592188Y-110941657D01*
X163592188Y-111727371D01*
X162877903Y-111727371D02*
X162877903Y-110727371D01*
X162877903Y-110227371D02*
X162949331Y-110298800D01*
X162877903Y-110370228D01*
X162806474Y-110298800D01*
X162877903Y-110227371D01*
X162877903Y-110370228D01*
X161949331Y-111727371D02*
X162092188Y-111655942D01*
X162163617Y-111513085D01*
X162163617Y-110227371D01*
X161377903Y-111727371D02*
X161377903Y-110727371D01*
X161377903Y-110227371D02*
X161449331Y-110298800D01*
X161377903Y-110370228D01*
X161306474Y-110298800D01*
X161377903Y-110227371D01*
X161377903Y-110370228D01*
X160020760Y-111727371D02*
X160020760Y-110941657D01*
X160092188Y-110798800D01*
X160235045Y-110727371D01*
X160520760Y-110727371D01*
X160663617Y-110798800D01*
X160020760Y-111655942D02*
X160163617Y-111727371D01*
X160520760Y-111727371D01*
X160663617Y-111655942D01*
X160735045Y-111513085D01*
X160735045Y-111370228D01*
X160663617Y-111227371D01*
X160520760Y-111155942D01*
X160163617Y-111155942D01*
X160020760Y-111084514D01*
X159306474Y-110727371D02*
X159306474Y-111727371D01*
X159306474Y-110870228D02*
X159235045Y-110798800D01*
X159092188Y-110727371D01*
X158877903Y-110727371D01*
X158735045Y-110798800D01*
X158663617Y-110941657D01*
X158663617Y-111727371D01*
X156377903Y-110227371D02*
X156377903Y-111298800D01*
X156449331Y-111513085D01*
X156592188Y-111655942D01*
X156806474Y-111727371D01*
X156949331Y-111727371D01*
X155020760Y-111727371D02*
X155020760Y-110941657D01*
X155092188Y-110798800D01*
X155235045Y-110727371D01*
X155520760Y-110727371D01*
X155663617Y-110798800D01*
X155020760Y-111655942D02*
X155163617Y-111727371D01*
X155520760Y-111727371D01*
X155663617Y-111655942D01*
X155735045Y-111513085D01*
X155735045Y-111370228D01*
X155663617Y-111227371D01*
X155520760Y-111155942D01*
X155163617Y-111155942D01*
X155020760Y-111084514D01*
X154306474Y-111727371D02*
X154306474Y-110727371D01*
X154306474Y-111013085D02*
X154235045Y-110870228D01*
X154163617Y-110798800D01*
X154020760Y-110727371D01*
X153877903Y-110727371D01*
X152735045Y-110727371D02*
X152735045Y-111727371D01*
X153377903Y-110727371D02*
X153377903Y-111513085D01*
X153306474Y-111655942D01*
X153163617Y-111727371D01*
X152949331Y-111727371D01*
X152806474Y-111655942D01*
X152735045Y-111584514D01*
X151377903Y-110727371D02*
X151377903Y-111941657D01*
X151449331Y-112084514D01*
X151520760Y-112155942D01*
X151663617Y-112227371D01*
X151877903Y-112227371D01*
X152020760Y-112155942D01*
X151377903Y-111655942D02*
X151520760Y-111727371D01*
X151806474Y-111727371D01*
X151949331Y-111655942D01*
X152020760Y-111584514D01*
X152092188Y-111441657D01*
X152092188Y-111013085D01*
X152020760Y-110870228D01*
X151949331Y-110798800D01*
X151806474Y-110727371D01*
X151520760Y-110727371D01*
X151377903Y-110798800D01*
X150020760Y-111727371D02*
X150020760Y-110941657D01*
X150092188Y-110798800D01*
X150235045Y-110727371D01*
X150520760Y-110727371D01*
X150663617Y-110798800D01*
X150020760Y-111655942D02*
X150163617Y-111727371D01*
X150520760Y-111727371D01*
X150663617Y-111655942D01*
X150735045Y-111513085D01*
X150735045Y-111370228D01*
X150663617Y-111227371D01*
X150520760Y-111155942D01*
X150163617Y-111155942D01*
X150020760Y-111084514D01*
D13*
%TO.C,G\u002A\u002A\u002A*%
G36*
X143066103Y-118008400D02*
G01*
X173088903Y-118008400D01*
X173088903Y-106629200D01*
X172479303Y-106629200D01*
X172479303Y-117398800D01*
X143675703Y-117398800D01*
X143675703Y-106629200D01*
X172479303Y-106629200D01*
X173088903Y-106629200D01*
X173088903Y-106019600D01*
X143066103Y-106019600D01*
X143066103Y-118008400D01*
G37*
X143066103Y-118008400D02*
X173088903Y-118008400D01*
X173088903Y-106629200D01*
X172479303Y-106629200D01*
X172479303Y-117398800D01*
X143675703Y-117398800D01*
X143675703Y-106629200D01*
X172479303Y-106629200D01*
X173088903Y-106629200D01*
X173088903Y-106019600D01*
X143066103Y-106019600D01*
X143066103Y-118008400D01*
G36*
X166020358Y-107590770D02*
G01*
X165995735Y-107718410D01*
X165979255Y-107905712D01*
X165970938Y-108131869D01*
X165970804Y-108376074D01*
X165978875Y-108617520D01*
X165995171Y-108835399D01*
X166019711Y-109008906D01*
X166051560Y-109115415D01*
X166182707Y-109264251D01*
X166379782Y-109344231D01*
X166630428Y-109351259D01*
X166720898Y-109337243D01*
X166848407Y-109278565D01*
X166947237Y-109176697D01*
X166986871Y-109065625D01*
X166984656Y-109043525D01*
X166961817Y-109000560D01*
X166907203Y-109012910D01*
X166798710Y-109085984D01*
X166792534Y-109090545D01*
X166656450Y-109172480D01*
X166532892Y-109217200D01*
X166506062Y-109220000D01*
X166353031Y-109173351D01*
X166229774Y-109049752D01*
X166161524Y-108877100D01*
X166143075Y-108763857D01*
X166157031Y-108722618D01*
X166224942Y-108742739D01*
X166329317Y-108794224D01*
X166528021Y-108845465D01*
X166713362Y-108807407D01*
X166870462Y-108692342D01*
X166984446Y-108512560D01*
X167040437Y-108280351D01*
X167042660Y-108228369D01*
X166840503Y-108228369D01*
X166806444Y-108443653D01*
X166713847Y-108602372D01*
X166577086Y-108690996D01*
X166410534Y-108696000D01*
X166360179Y-108680443D01*
X166267817Y-108602125D01*
X166185821Y-108463932D01*
X166135716Y-108306976D01*
X166129303Y-108239503D01*
X166161263Y-108030008D01*
X166246446Y-107861627D01*
X166368805Y-107750198D01*
X166512298Y-107711562D01*
X166631530Y-107743710D01*
X166755038Y-107849066D01*
X166822019Y-108012074D01*
X166840503Y-108228369D01*
X167042660Y-108228369D01*
X167043703Y-108203999D01*
X167007565Y-107958732D01*
X166909066Y-107762282D01*
X166763082Y-107626940D01*
X166584491Y-107564998D01*
X166388168Y-107588745D01*
X166329317Y-107613775D01*
X166205406Y-107673739D01*
X166147437Y-107689275D01*
X166130353Y-107661136D01*
X166129303Y-107619800D01*
X166088640Y-107552450D01*
X166053103Y-107543600D01*
X166020358Y-107590770D01*
G37*
X166020358Y-107590770D02*
X165995735Y-107718410D01*
X165979255Y-107905712D01*
X165970938Y-108131869D01*
X165970804Y-108376074D01*
X165978875Y-108617520D01*
X165995171Y-108835399D01*
X166019711Y-109008906D01*
X166051560Y-109115415D01*
X166182707Y-109264251D01*
X166379782Y-109344231D01*
X166630428Y-109351259D01*
X166720898Y-109337243D01*
X166848407Y-109278565D01*
X166947237Y-109176697D01*
X166986871Y-109065625D01*
X166984656Y-109043525D01*
X166961817Y-109000560D01*
X166907203Y-109012910D01*
X166798710Y-109085984D01*
X166792534Y-109090545D01*
X166656450Y-109172480D01*
X166532892Y-109217200D01*
X166506062Y-109220000D01*
X166353031Y-109173351D01*
X166229774Y-109049752D01*
X166161524Y-108877100D01*
X166143075Y-108763857D01*
X166157031Y-108722618D01*
X166224942Y-108742739D01*
X166329317Y-108794224D01*
X166528021Y-108845465D01*
X166713362Y-108807407D01*
X166870462Y-108692342D01*
X166984446Y-108512560D01*
X167040437Y-108280351D01*
X167042660Y-108228369D01*
X166840503Y-108228369D01*
X166806444Y-108443653D01*
X166713847Y-108602372D01*
X166577086Y-108690996D01*
X166410534Y-108696000D01*
X166360179Y-108680443D01*
X166267817Y-108602125D01*
X166185821Y-108463932D01*
X166135716Y-108306976D01*
X166129303Y-108239503D01*
X166161263Y-108030008D01*
X166246446Y-107861627D01*
X166368805Y-107750198D01*
X166512298Y-107711562D01*
X166631530Y-107743710D01*
X166755038Y-107849066D01*
X166822019Y-108012074D01*
X166840503Y-108228369D01*
X167042660Y-108228369D01*
X167043703Y-108203999D01*
X167007565Y-107958732D01*
X166909066Y-107762282D01*
X166763082Y-107626940D01*
X166584491Y-107564998D01*
X166388168Y-107588745D01*
X166329317Y-107613775D01*
X166205406Y-107673739D01*
X166147437Y-107689275D01*
X166130353Y-107661136D01*
X166129303Y-107619800D01*
X166088640Y-107552450D01*
X166053103Y-107543600D01*
X166020358Y-107590770D01*
G36*
X158487957Y-107548868D02*
G01*
X158480101Y-107555869D01*
X158488291Y-107609445D01*
X158526796Y-107741791D01*
X158590331Y-107936518D01*
X158673613Y-108177236D01*
X158740071Y-108362245D01*
X158881582Y-108733626D01*
X159000708Y-109009866D01*
X159096845Y-109189645D01*
X159150915Y-109258100D01*
X159294663Y-109356220D01*
X159405932Y-109362431D01*
X159440637Y-109338533D01*
X159477013Y-109253842D01*
X159429228Y-109188021D01*
X159346414Y-109169200D01*
X159222394Y-109128077D01*
X159158984Y-109038960D01*
X159134095Y-108968834D01*
X159126502Y-108889726D01*
X159139865Y-108785753D01*
X159177844Y-108641032D01*
X159244099Y-108439679D01*
X159342289Y-108165810D01*
X159390185Y-108035492D01*
X159471126Y-107813599D01*
X159518823Y-107670452D01*
X159535805Y-107589704D01*
X159524601Y-107555005D01*
X159487739Y-107550009D01*
X159464822Y-107552892D01*
X159410027Y-107576333D01*
X159358026Y-107640022D01*
X159300403Y-107760075D01*
X159228745Y-107952610D01*
X159177916Y-108102400D01*
X159000370Y-108635800D01*
X158825573Y-108111409D01*
X158721383Y-107825979D01*
X158631346Y-107638626D01*
X158554018Y-107547029D01*
X158487957Y-107548868D01*
G37*
X158487957Y-107548868D02*
X158480101Y-107555869D01*
X158488291Y-107609445D01*
X158526796Y-107741791D01*
X158590331Y-107936518D01*
X158673613Y-108177236D01*
X158740071Y-108362245D01*
X158881582Y-108733626D01*
X159000708Y-109009866D01*
X159096845Y-109189645D01*
X159150915Y-109258100D01*
X159294663Y-109356220D01*
X159405932Y-109362431D01*
X159440637Y-109338533D01*
X159477013Y-109253842D01*
X159429228Y-109188021D01*
X159346414Y-109169200D01*
X159222394Y-109128077D01*
X159158984Y-109038960D01*
X159134095Y-108968834D01*
X159126502Y-108889726D01*
X159139865Y-108785753D01*
X159177844Y-108641032D01*
X159244099Y-108439679D01*
X159342289Y-108165810D01*
X159390185Y-108035492D01*
X159471126Y-107813599D01*
X159518823Y-107670452D01*
X159535805Y-107589704D01*
X159524601Y-107555005D01*
X159487739Y-107550009D01*
X159464822Y-107552892D01*
X159410027Y-107576333D01*
X159358026Y-107640022D01*
X159300403Y-107760075D01*
X159228745Y-107952610D01*
X159177916Y-108102400D01*
X159000370Y-108635800D01*
X158825573Y-108111409D01*
X158721383Y-107825979D01*
X158631346Y-107638626D01*
X158554018Y-107547029D01*
X158487957Y-107548868D01*
G36*
X146926517Y-107035600D02*
G01*
X146423456Y-107035818D01*
X146011618Y-107036800D01*
X145680627Y-107039031D01*
X145420106Y-107042999D01*
X145219679Y-107049190D01*
X145068969Y-107058092D01*
X144957601Y-107070192D01*
X144875197Y-107085976D01*
X144811381Y-107105932D01*
X144755777Y-107130548D01*
X144740536Y-107138203D01*
X144514358Y-107306340D01*
X144354064Y-107533523D01*
X144262786Y-107798895D01*
X144243658Y-108081595D01*
X144299813Y-108360765D01*
X144434384Y-108615547D01*
X144505844Y-108700692D01*
X144578918Y-108773413D01*
X144654608Y-108834060D01*
X144742434Y-108883722D01*
X144851916Y-108923495D01*
X144992574Y-108954468D01*
X145173929Y-108977737D01*
X145405501Y-108994392D01*
X145696810Y-109005526D01*
X146057377Y-109012233D01*
X146496722Y-109015604D01*
X147024364Y-109016732D01*
X147260399Y-109016800D01*
X147776124Y-109016926D01*
X148199502Y-109017601D01*
X148539783Y-109019268D01*
X148806221Y-109022370D01*
X149008067Y-109027351D01*
X149154573Y-109034654D01*
X149254992Y-109044724D01*
X149318575Y-109058002D01*
X149354574Y-109074934D01*
X149372241Y-109095962D01*
X149380023Y-109118400D01*
X149446072Y-109202494D01*
X149538348Y-109220000D01*
X149636187Y-109214571D01*
X149670103Y-109203649D01*
X149655171Y-109150391D01*
X149617088Y-109032716D01*
X149589128Y-108949649D01*
X149508153Y-108712000D01*
X144881500Y-108712000D01*
X144716612Y-108537167D01*
X144565770Y-108311470D01*
X144505324Y-108065226D01*
X144532313Y-107817973D01*
X144643778Y-107589250D01*
X144836756Y-107398598D01*
X144894903Y-107360657D01*
X144961074Y-107349988D01*
X145117485Y-107338929D01*
X145352777Y-107327866D01*
X145655595Y-107317186D01*
X146014580Y-107307274D01*
X146418375Y-107298518D01*
X146855624Y-107291304D01*
X146983553Y-107289600D01*
X148996002Y-107264200D01*
X148953690Y-107149899D01*
X148911377Y-107035599D01*
X146926517Y-107035600D01*
G37*
X146926517Y-107035600D02*
X146423456Y-107035818D01*
X146011618Y-107036800D01*
X145680627Y-107039031D01*
X145420106Y-107042999D01*
X145219679Y-107049190D01*
X145068969Y-107058092D01*
X144957601Y-107070192D01*
X144875197Y-107085976D01*
X144811381Y-107105932D01*
X144755777Y-107130548D01*
X144740536Y-107138203D01*
X144514358Y-107306340D01*
X144354064Y-107533523D01*
X144262786Y-107798895D01*
X144243658Y-108081595D01*
X144299813Y-108360765D01*
X144434384Y-108615547D01*
X144505844Y-108700692D01*
X144578918Y-108773413D01*
X144654608Y-108834060D01*
X144742434Y-108883722D01*
X144851916Y-108923495D01*
X144992574Y-108954468D01*
X145173929Y-108977737D01*
X145405501Y-108994392D01*
X145696810Y-109005526D01*
X146057377Y-109012233D01*
X146496722Y-109015604D01*
X147024364Y-109016732D01*
X147260399Y-109016800D01*
X147776124Y-109016926D01*
X148199502Y-109017601D01*
X148539783Y-109019268D01*
X148806221Y-109022370D01*
X149008067Y-109027351D01*
X149154573Y-109034654D01*
X149254992Y-109044724D01*
X149318575Y-109058002D01*
X149354574Y-109074934D01*
X149372241Y-109095962D01*
X149380023Y-109118400D01*
X149446072Y-109202494D01*
X149538348Y-109220000D01*
X149636187Y-109214571D01*
X149670103Y-109203649D01*
X149655171Y-109150391D01*
X149617088Y-109032716D01*
X149589128Y-108949649D01*
X149508153Y-108712000D01*
X144881500Y-108712000D01*
X144716612Y-108537167D01*
X144565770Y-108311470D01*
X144505324Y-108065226D01*
X144532313Y-107817973D01*
X144643778Y-107589250D01*
X144836756Y-107398598D01*
X144894903Y-107360657D01*
X144961074Y-107349988D01*
X145117485Y-107338929D01*
X145352777Y-107327866D01*
X145655595Y-107317186D01*
X146014580Y-107307274D01*
X146418375Y-107298518D01*
X146855624Y-107291304D01*
X146983553Y-107289600D01*
X148996002Y-107264200D01*
X148953690Y-107149899D01*
X148911377Y-107035599D01*
X146926517Y-107035600D01*
G36*
X171394478Y-107095065D02*
G01*
X171105093Y-107117052D01*
X170895843Y-107159605D01*
X170745923Y-107231750D01*
X170634524Y-107342514D01*
X170564372Y-107455178D01*
X170500901Y-107649397D01*
X170475333Y-107897177D01*
X170487447Y-108157908D01*
X170537018Y-108390976D01*
X170569970Y-108472937D01*
X170670290Y-108626687D01*
X170807793Y-108734365D01*
X171000529Y-108804025D01*
X171266550Y-108843720D01*
X171425203Y-108854476D01*
X171869703Y-108876827D01*
X171869703Y-107289600D01*
X171666503Y-107289600D01*
X171666503Y-108661200D01*
X171343154Y-108661200D01*
X171133650Y-108651642D01*
X170990866Y-108617855D01*
X170887179Y-108556876D01*
X170758745Y-108396412D01*
X170684918Y-108179103D01*
X170667063Y-107934633D01*
X170706546Y-107692689D01*
X170804733Y-107482959D01*
X170835896Y-107442241D01*
X170912042Y-107361048D01*
X170989446Y-107315241D01*
X171099614Y-107294791D01*
X171274050Y-107289668D01*
X171315419Y-107289600D01*
X171666503Y-107289600D01*
X171869703Y-107289600D01*
X171869703Y-107074281D01*
X171394478Y-107095065D01*
G37*
X171394478Y-107095065D02*
X171105093Y-107117052D01*
X170895843Y-107159605D01*
X170745923Y-107231750D01*
X170634524Y-107342514D01*
X170564372Y-107455178D01*
X170500901Y-107649397D01*
X170475333Y-107897177D01*
X170487447Y-108157908D01*
X170537018Y-108390976D01*
X170569970Y-108472937D01*
X170670290Y-108626687D01*
X170807793Y-108734365D01*
X171000529Y-108804025D01*
X171266550Y-108843720D01*
X171425203Y-108854476D01*
X171869703Y-108876827D01*
X171869703Y-107289600D01*
X171666503Y-107289600D01*
X171666503Y-108661200D01*
X171343154Y-108661200D01*
X171133650Y-108651642D01*
X170990866Y-108617855D01*
X170887179Y-108556876D01*
X170758745Y-108396412D01*
X170684918Y-108179103D01*
X170667063Y-107934633D01*
X170706546Y-107692689D01*
X170804733Y-107482959D01*
X170835896Y-107442241D01*
X170912042Y-107361048D01*
X170989446Y-107315241D01*
X171099614Y-107294791D01*
X171274050Y-107289668D01*
X171315419Y-107289600D01*
X171666503Y-107289600D01*
X171869703Y-107289600D01*
X171869703Y-107074281D01*
X171394478Y-107095065D01*
G36*
X169437738Y-107596235D02*
G01*
X169259359Y-107695489D01*
X169131653Y-107852253D01*
X169076425Y-108053742D01*
X169075703Y-108080897D01*
X169075703Y-108254800D01*
X169532903Y-108254800D01*
X169751480Y-108256934D01*
X169887434Y-108265830D01*
X169959695Y-108285227D01*
X169987197Y-108318864D01*
X169990103Y-108345096D01*
X169950075Y-108495545D01*
X169847139Y-108607633D01*
X169707022Y-108675217D01*
X169555447Y-108692154D01*
X169418140Y-108652302D01*
X169320825Y-108549517D01*
X169304321Y-108508853D01*
X169258532Y-108421648D01*
X169186908Y-108422808D01*
X169133845Y-108452387D01*
X169095406Y-108520582D01*
X169132318Y-108609980D01*
X169225350Y-108704669D01*
X169355275Y-108788739D01*
X169502864Y-108846279D01*
X169629384Y-108862411D01*
X169729666Y-108841536D01*
X169864840Y-108793358D01*
X169877705Y-108787864D01*
X170040612Y-108667177D01*
X170143713Y-108489040D01*
X170187395Y-108277853D01*
X170172042Y-108058017D01*
X170159906Y-108024549D01*
X169993175Y-108024549D01*
X169931837Y-108075410D01*
X169778456Y-108098844D01*
X169634503Y-108102400D01*
X169446379Y-108099172D01*
X169338545Y-108085835D01*
X169289798Y-108056910D01*
X169278903Y-108010509D01*
X169325277Y-107860934D01*
X169453406Y-107754055D01*
X169567636Y-107716407D01*
X169699844Y-107710278D01*
X169807973Y-107767142D01*
X169859736Y-107815014D01*
X169967474Y-107939878D01*
X169993175Y-108024549D01*
X170159906Y-108024549D01*
X170098038Y-107853933D01*
X169965770Y-107690003D01*
X169859301Y-107621400D01*
X169644987Y-107567276D01*
X169437738Y-107596235D01*
G37*
X169437738Y-107596235D02*
X169259359Y-107695489D01*
X169131653Y-107852253D01*
X169076425Y-108053742D01*
X169075703Y-108080897D01*
X169075703Y-108254800D01*
X169532903Y-108254800D01*
X169751480Y-108256934D01*
X169887434Y-108265830D01*
X169959695Y-108285227D01*
X169987197Y-108318864D01*
X169990103Y-108345096D01*
X169950075Y-108495545D01*
X169847139Y-108607633D01*
X169707022Y-108675217D01*
X169555447Y-108692154D01*
X169418140Y-108652302D01*
X169320825Y-108549517D01*
X169304321Y-108508853D01*
X169258532Y-108421648D01*
X169186908Y-108422808D01*
X169133845Y-108452387D01*
X169095406Y-108520582D01*
X169132318Y-108609980D01*
X169225350Y-108704669D01*
X169355275Y-108788739D01*
X169502864Y-108846279D01*
X169629384Y-108862411D01*
X169729666Y-108841536D01*
X169864840Y-108793358D01*
X169877705Y-108787864D01*
X170040612Y-108667177D01*
X170143713Y-108489040D01*
X170187395Y-108277853D01*
X170172042Y-108058017D01*
X170159906Y-108024549D01*
X169993175Y-108024549D01*
X169931837Y-108075410D01*
X169778456Y-108098844D01*
X169634503Y-108102400D01*
X169446379Y-108099172D01*
X169338545Y-108085835D01*
X169289798Y-108056910D01*
X169278903Y-108010509D01*
X169325277Y-107860934D01*
X169453406Y-107754055D01*
X169567636Y-107716407D01*
X169699844Y-107710278D01*
X169807973Y-107767142D01*
X169859736Y-107815014D01*
X169967474Y-107939878D01*
X169993175Y-108024549D01*
X170159906Y-108024549D01*
X170098038Y-107853933D01*
X169965770Y-107690003D01*
X169859301Y-107621400D01*
X169644987Y-107567276D01*
X169437738Y-107596235D01*
G36*
X168226543Y-107569621D02*
G01*
X168146086Y-107591039D01*
X168016389Y-107657907D01*
X167927892Y-107746995D01*
X167893742Y-107835495D01*
X167927085Y-107900601D01*
X167959722Y-107914342D01*
X168052461Y-107900237D01*
X168086722Y-107843300D01*
X168155924Y-107760379D01*
X168275694Y-107718343D01*
X168413148Y-107715755D01*
X168535402Y-107751182D01*
X168609573Y-107823191D01*
X168618503Y-107866490D01*
X168595000Y-107943393D01*
X168513881Y-108009211D01*
X168359238Y-108073701D01*
X168200621Y-108122732D01*
X167972671Y-108214367D01*
X167840915Y-108329534D01*
X167806627Y-108465694D01*
X167871084Y-108620307D01*
X167920003Y-108681446D01*
X168076087Y-108787998D01*
X168284996Y-108840523D01*
X168503191Y-108830181D01*
X168604749Y-108777976D01*
X168713985Y-108680331D01*
X168796984Y-108572197D01*
X168821703Y-108501949D01*
X168787905Y-108458405D01*
X168703829Y-108474149D01*
X168595449Y-108541332D01*
X168546922Y-108585000D01*
X168385275Y-108690128D01*
X168215282Y-108702338D01*
X168089289Y-108645142D01*
X168016134Y-108548888D01*
X168036392Y-108448047D01*
X168143639Y-108356866D01*
X168237815Y-108315843D01*
X168471874Y-108232302D01*
X168625498Y-108166637D01*
X168715371Y-108106877D01*
X168758174Y-108041049D01*
X168770591Y-107957183D01*
X168770903Y-107933295D01*
X168727412Y-107756097D01*
X168609563Y-107629503D01*
X168436294Y-107563886D01*
X168226543Y-107569621D01*
G37*
X168226543Y-107569621D02*
X168146086Y-107591039D01*
X168016389Y-107657907D01*
X167927892Y-107746995D01*
X167893742Y-107835495D01*
X167927085Y-107900601D01*
X167959722Y-107914342D01*
X168052461Y-107900237D01*
X168086722Y-107843300D01*
X168155924Y-107760379D01*
X168275694Y-107718343D01*
X168413148Y-107715755D01*
X168535402Y-107751182D01*
X168609573Y-107823191D01*
X168618503Y-107866490D01*
X168595000Y-107943393D01*
X168513881Y-108009211D01*
X168359238Y-108073701D01*
X168200621Y-108122732D01*
X167972671Y-108214367D01*
X167840915Y-108329534D01*
X167806627Y-108465694D01*
X167871084Y-108620307D01*
X167920003Y-108681446D01*
X168076087Y-108787998D01*
X168284996Y-108840523D01*
X168503191Y-108830181D01*
X168604749Y-108777976D01*
X168713985Y-108680331D01*
X168796984Y-108572197D01*
X168821703Y-108501949D01*
X168787905Y-108458405D01*
X168703829Y-108474149D01*
X168595449Y-108541332D01*
X168546922Y-108585000D01*
X168385275Y-108690128D01*
X168215282Y-108702338D01*
X168089289Y-108645142D01*
X168016134Y-108548888D01*
X168036392Y-108448047D01*
X168143639Y-108356866D01*
X168237815Y-108315843D01*
X168471874Y-108232302D01*
X168625498Y-108166637D01*
X168715371Y-108106877D01*
X168758174Y-108041049D01*
X168770591Y-107957183D01*
X168770903Y-107933295D01*
X168727412Y-107756097D01*
X168609563Y-107629503D01*
X168436294Y-107563886D01*
X168226543Y-107569621D01*
G36*
X167392968Y-107558317D02*
G01*
X167371216Y-107612490D01*
X167357715Y-107721145D01*
X167350731Y-107899311D01*
X167348529Y-108162018D01*
X167348503Y-108204000D01*
X167350202Y-108479043D01*
X167356452Y-108667555D01*
X167368989Y-108784562D01*
X167389547Y-108845094D01*
X167419859Y-108864179D01*
X167424703Y-108864400D01*
X167456439Y-108849682D01*
X167478191Y-108795509D01*
X167491692Y-108686854D01*
X167498676Y-108508688D01*
X167500878Y-108245981D01*
X167500903Y-108204000D01*
X167499205Y-107928956D01*
X167492955Y-107740444D01*
X167480418Y-107623437D01*
X167459860Y-107562905D01*
X167429548Y-107543820D01*
X167424703Y-107543600D01*
X167392968Y-107558317D01*
G37*
X167392968Y-107558317D02*
X167371216Y-107612490D01*
X167357715Y-107721145D01*
X167350731Y-107899311D01*
X167348529Y-108162018D01*
X167348503Y-108204000D01*
X167350202Y-108479043D01*
X167356452Y-108667555D01*
X167368989Y-108784562D01*
X167389547Y-108845094D01*
X167419859Y-108864179D01*
X167424703Y-108864400D01*
X167456439Y-108849682D01*
X167478191Y-108795509D01*
X167491692Y-108686854D01*
X167498676Y-108508688D01*
X167500878Y-108245981D01*
X167500903Y-108204000D01*
X167499205Y-107928956D01*
X167492955Y-107740444D01*
X167480418Y-107623437D01*
X167459860Y-107562905D01*
X167429548Y-107543820D01*
X167424703Y-107543600D01*
X167392968Y-107558317D01*
G36*
X165436181Y-107577978D02*
G01*
X165418103Y-107653073D01*
X165413194Y-107727099D01*
X165381388Y-107725959D01*
X165312446Y-107666927D01*
X165161651Y-107587452D01*
X164980360Y-107569003D01*
X164808921Y-107610051D01*
X164701480Y-107690082D01*
X164656568Y-107761470D01*
X164627880Y-107856840D01*
X164612089Y-107998559D01*
X164605868Y-108208994D01*
X164605303Y-108336627D01*
X164606603Y-108573103D01*
X164612817Y-108726043D01*
X164627423Y-108813503D01*
X164653895Y-108853538D01*
X164695710Y-108864202D01*
X164706903Y-108864400D01*
X164753189Y-108857414D01*
X164782801Y-108824183D01*
X164799429Y-108746297D01*
X164806764Y-108605346D01*
X164808496Y-108382921D01*
X164808503Y-108357571D01*
X164810060Y-108124838D01*
X164817692Y-107972043D01*
X164835840Y-107877534D01*
X164868948Y-107819663D01*
X164921457Y-107776778D01*
X164928647Y-107772021D01*
X165080338Y-107726604D01*
X165234412Y-107764599D01*
X165353969Y-107875722D01*
X165364215Y-107893428D01*
X165389064Y-107989201D01*
X165407854Y-108155578D01*
X165417471Y-108361604D01*
X165418103Y-108429260D01*
X165419967Y-108640180D01*
X165428638Y-108769319D01*
X165448739Y-108836469D01*
X165484892Y-108861427D01*
X165519703Y-108864400D01*
X165561181Y-108858798D01*
X165589520Y-108831200D01*
X165607210Y-108765414D01*
X165616743Y-108645249D01*
X165620609Y-108454513D01*
X165621303Y-108204000D01*
X165620442Y-107934395D01*
X165616196Y-107750195D01*
X165606075Y-107635208D01*
X165587588Y-107573244D01*
X165558244Y-107548111D01*
X165519703Y-107543600D01*
X165436181Y-107577978D01*
G37*
X165436181Y-107577978D02*
X165418103Y-107653073D01*
X165413194Y-107727099D01*
X165381388Y-107725959D01*
X165312446Y-107666927D01*
X165161651Y-107587452D01*
X164980360Y-107569003D01*
X164808921Y-107610051D01*
X164701480Y-107690082D01*
X164656568Y-107761470D01*
X164627880Y-107856840D01*
X164612089Y-107998559D01*
X164605868Y-108208994D01*
X164605303Y-108336627D01*
X164606603Y-108573103D01*
X164612817Y-108726043D01*
X164627423Y-108813503D01*
X164653895Y-108853538D01*
X164695710Y-108864202D01*
X164706903Y-108864400D01*
X164753189Y-108857414D01*
X164782801Y-108824183D01*
X164799429Y-108746297D01*
X164806764Y-108605346D01*
X164808496Y-108382921D01*
X164808503Y-108357571D01*
X164810060Y-108124838D01*
X164817692Y-107972043D01*
X164835840Y-107877534D01*
X164868948Y-107819663D01*
X164921457Y-107776778D01*
X164928647Y-107772021D01*
X165080338Y-107726604D01*
X165234412Y-107764599D01*
X165353969Y-107875722D01*
X165364215Y-107893428D01*
X165389064Y-107989201D01*
X165407854Y-108155578D01*
X165417471Y-108361604D01*
X165418103Y-108429260D01*
X165419967Y-108640180D01*
X165428638Y-108769319D01*
X165448739Y-108836469D01*
X165484892Y-108861427D01*
X165519703Y-108864400D01*
X165561181Y-108858798D01*
X165589520Y-108831200D01*
X165607210Y-108765414D01*
X165616743Y-108645249D01*
X165620609Y-108454513D01*
X165621303Y-108204000D01*
X165620442Y-107934395D01*
X165616196Y-107750195D01*
X165606075Y-107635208D01*
X165587588Y-107573244D01*
X165558244Y-107548111D01*
X165519703Y-107543600D01*
X165436181Y-107577978D01*
G36*
X163544938Y-107596235D02*
G01*
X163366559Y-107695489D01*
X163238853Y-107852253D01*
X163183625Y-108053742D01*
X163182903Y-108080897D01*
X163182903Y-108254800D01*
X163640103Y-108254800D01*
X163858680Y-108256934D01*
X163994634Y-108265830D01*
X164066895Y-108285227D01*
X164094397Y-108318864D01*
X164097303Y-108345096D01*
X164057275Y-108495545D01*
X163954339Y-108607633D01*
X163814222Y-108675217D01*
X163662647Y-108692154D01*
X163525340Y-108652302D01*
X163428025Y-108549517D01*
X163411521Y-108508853D01*
X163365732Y-108421648D01*
X163294108Y-108422808D01*
X163241045Y-108452387D01*
X163202606Y-108520582D01*
X163239518Y-108609980D01*
X163332550Y-108704669D01*
X163462475Y-108788739D01*
X163610064Y-108846279D01*
X163736584Y-108862411D01*
X163836866Y-108841536D01*
X163972040Y-108793358D01*
X163984905Y-108787864D01*
X164147812Y-108667177D01*
X164250913Y-108489040D01*
X164294595Y-108277853D01*
X164279242Y-108058017D01*
X164267106Y-108024549D01*
X164100375Y-108024549D01*
X164039037Y-108075410D01*
X163885656Y-108098844D01*
X163741703Y-108102400D01*
X163553579Y-108099172D01*
X163445745Y-108085835D01*
X163396998Y-108056910D01*
X163386103Y-108010509D01*
X163432477Y-107860934D01*
X163560606Y-107754055D01*
X163674836Y-107716407D01*
X163807044Y-107710278D01*
X163915173Y-107767142D01*
X163966936Y-107815014D01*
X164074674Y-107939878D01*
X164100375Y-108024549D01*
X164267106Y-108024549D01*
X164205238Y-107853933D01*
X164072970Y-107690003D01*
X163966501Y-107621400D01*
X163752187Y-107567276D01*
X163544938Y-107596235D01*
G37*
X163544938Y-107596235D02*
X163366559Y-107695489D01*
X163238853Y-107852253D01*
X163183625Y-108053742D01*
X163182903Y-108080897D01*
X163182903Y-108254800D01*
X163640103Y-108254800D01*
X163858680Y-108256934D01*
X163994634Y-108265830D01*
X164066895Y-108285227D01*
X164094397Y-108318864D01*
X164097303Y-108345096D01*
X164057275Y-108495545D01*
X163954339Y-108607633D01*
X163814222Y-108675217D01*
X163662647Y-108692154D01*
X163525340Y-108652302D01*
X163428025Y-108549517D01*
X163411521Y-108508853D01*
X163365732Y-108421648D01*
X163294108Y-108422808D01*
X163241045Y-108452387D01*
X163202606Y-108520582D01*
X163239518Y-108609980D01*
X163332550Y-108704669D01*
X163462475Y-108788739D01*
X163610064Y-108846279D01*
X163736584Y-108862411D01*
X163836866Y-108841536D01*
X163972040Y-108793358D01*
X163984905Y-108787864D01*
X164147812Y-108667177D01*
X164250913Y-108489040D01*
X164294595Y-108277853D01*
X164279242Y-108058017D01*
X164267106Y-108024549D01*
X164100375Y-108024549D01*
X164039037Y-108075410D01*
X163885656Y-108098844D01*
X163741703Y-108102400D01*
X163553579Y-108099172D01*
X163445745Y-108085835D01*
X163396998Y-108056910D01*
X163386103Y-108010509D01*
X163432477Y-107860934D01*
X163560606Y-107754055D01*
X163674836Y-107716407D01*
X163807044Y-107710278D01*
X163915173Y-107767142D01*
X163966936Y-107815014D01*
X164074674Y-107939878D01*
X164100375Y-108024549D01*
X164267106Y-108024549D01*
X164205238Y-107853933D01*
X164072970Y-107690003D01*
X163966501Y-107621400D01*
X163752187Y-107567276D01*
X163544938Y-107596235D01*
G36*
X161927144Y-107090826D02*
G01*
X161900596Y-107113428D01*
X161882463Y-107168195D01*
X161871146Y-107269112D01*
X161865046Y-107430167D01*
X161862565Y-107665348D01*
X161862103Y-107975400D01*
X161863218Y-108300648D01*
X161867313Y-108537491D01*
X161875519Y-108699105D01*
X161888965Y-108798668D01*
X161908781Y-108849356D01*
X161936096Y-108864347D01*
X161938303Y-108864400D01*
X162005653Y-108823736D01*
X162014503Y-108788200D01*
X162020046Y-108729862D01*
X162053614Y-108719683D01*
X162140617Y-108757620D01*
X162199197Y-108787887D01*
X162321387Y-108844214D01*
X162416935Y-108855478D01*
X162532916Y-108821676D01*
X162613305Y-108787864D01*
X162775910Y-108667498D01*
X162878674Y-108490054D01*
X162923193Y-108279375D01*
X162919039Y-108204000D01*
X162725703Y-108204000D01*
X162713857Y-108382951D01*
X162669216Y-108504099D01*
X162601013Y-108587309D01*
X162459868Y-108690884D01*
X162321530Y-108702301D01*
X162218432Y-108661589D01*
X162109846Y-108551036D01*
X162049399Y-108382073D01*
X162037579Y-108186026D01*
X162074873Y-107994218D01*
X162161769Y-107837973D01*
X162204975Y-107796708D01*
X162344084Y-107712275D01*
X162460004Y-107714479D01*
X162585337Y-107805292D01*
X162601013Y-107820690D01*
X162681581Y-107925829D01*
X162718468Y-108055306D01*
X162725703Y-108204000D01*
X162919039Y-108204000D01*
X162911063Y-108059303D01*
X162843880Y-107853679D01*
X162723240Y-107686347D01*
X162550740Y-107581147D01*
X162532135Y-107575372D01*
X162398420Y-107553861D01*
X162286361Y-107591010D01*
X162215555Y-107638755D01*
X162065303Y-107749841D01*
X162065303Y-107418120D01*
X162062165Y-107238924D01*
X162048176Y-107138844D01*
X162016473Y-107095476D01*
X161963703Y-107086400D01*
X161927144Y-107090826D01*
G37*
X161927144Y-107090826D02*
X161900596Y-107113428D01*
X161882463Y-107168195D01*
X161871146Y-107269112D01*
X161865046Y-107430167D01*
X161862565Y-107665348D01*
X161862103Y-107975400D01*
X161863218Y-108300648D01*
X161867313Y-108537491D01*
X161875519Y-108699105D01*
X161888965Y-108798668D01*
X161908781Y-108849356D01*
X161936096Y-108864347D01*
X161938303Y-108864400D01*
X162005653Y-108823736D01*
X162014503Y-108788200D01*
X162020046Y-108729862D01*
X162053614Y-108719683D01*
X162140617Y-108757620D01*
X162199197Y-108787887D01*
X162321387Y-108844214D01*
X162416935Y-108855478D01*
X162532916Y-108821676D01*
X162613305Y-108787864D01*
X162775910Y-108667498D01*
X162878674Y-108490054D01*
X162923193Y-108279375D01*
X162919039Y-108204000D01*
X162725703Y-108204000D01*
X162713857Y-108382951D01*
X162669216Y-108504099D01*
X162601013Y-108587309D01*
X162459868Y-108690884D01*
X162321530Y-108702301D01*
X162218432Y-108661589D01*
X162109846Y-108551036D01*
X162049399Y-108382073D01*
X162037579Y-108186026D01*
X162074873Y-107994218D01*
X162161769Y-107837973D01*
X162204975Y-107796708D01*
X162344084Y-107712275D01*
X162460004Y-107714479D01*
X162585337Y-107805292D01*
X162601013Y-107820690D01*
X162681581Y-107925829D01*
X162718468Y-108055306D01*
X162725703Y-108204000D01*
X162919039Y-108204000D01*
X162911063Y-108059303D01*
X162843880Y-107853679D01*
X162723240Y-107686347D01*
X162550740Y-107581147D01*
X162532135Y-107575372D01*
X162398420Y-107553861D01*
X162286361Y-107591010D01*
X162215555Y-107638755D01*
X162065303Y-107749841D01*
X162065303Y-107418120D01*
X162062165Y-107238924D01*
X162048176Y-107138844D01*
X162016473Y-107095476D01*
X161963703Y-107086400D01*
X161927144Y-107090826D01*
G36*
X160687758Y-107097521D02*
G01*
X160657095Y-107146375D01*
X160644771Y-107256198D01*
X160642903Y-107391200D01*
X160640238Y-107551985D01*
X160633311Y-107662433D01*
X160625308Y-107696000D01*
X160572750Y-107675671D01*
X160467345Y-107625928D01*
X160451180Y-107617910D01*
X160253682Y-107566180D01*
X160069824Y-107615038D01*
X159906154Y-107756242D01*
X159807208Y-107944420D01*
X159769561Y-108175470D01*
X159793149Y-108411288D01*
X159877907Y-108613769D01*
X159907677Y-108653567D01*
X160066653Y-108783148D01*
X160247932Y-108840844D01*
X160424639Y-108825185D01*
X160569898Y-108734697D01*
X160604026Y-108691695D01*
X160632687Y-108687239D01*
X160642126Y-108750100D01*
X160672603Y-108843078D01*
X160744503Y-108864400D01*
X160781063Y-108859973D01*
X160807611Y-108837371D01*
X160825744Y-108782604D01*
X160837061Y-108681687D01*
X160843161Y-108520632D01*
X160845642Y-108285451D01*
X160845763Y-108204000D01*
X160642903Y-108204000D01*
X160631057Y-108382951D01*
X160586416Y-108504099D01*
X160518213Y-108587309D01*
X160390972Y-108687441D01*
X160276522Y-108699990D01*
X160142296Y-108626658D01*
X160118243Y-108608198D01*
X160003160Y-108466336D01*
X159949069Y-108288648D01*
X159950828Y-108099395D01*
X160003292Y-107922836D01*
X160101316Y-107783233D01*
X160239756Y-107704846D01*
X160311673Y-107696000D01*
X160401413Y-107729830D01*
X160509462Y-107812132D01*
X160518213Y-107820690D01*
X160598781Y-107925829D01*
X160635668Y-108055306D01*
X160642903Y-108204000D01*
X160845763Y-108204000D01*
X160846103Y-107975400D01*
X160845598Y-107655500D01*
X160843015Y-107423212D01*
X160836755Y-107264549D01*
X160825222Y-107165523D01*
X160806816Y-107112148D01*
X160779938Y-107090437D01*
X160744503Y-107086400D01*
X160687758Y-107097521D01*
G37*
X160687758Y-107097521D02*
X160657095Y-107146375D01*
X160644771Y-107256198D01*
X160642903Y-107391200D01*
X160640238Y-107551985D01*
X160633311Y-107662433D01*
X160625308Y-107696000D01*
X160572750Y-107675671D01*
X160467345Y-107625928D01*
X160451180Y-107617910D01*
X160253682Y-107566180D01*
X160069824Y-107615038D01*
X159906154Y-107756242D01*
X159807208Y-107944420D01*
X159769561Y-108175470D01*
X159793149Y-108411288D01*
X159877907Y-108613769D01*
X159907677Y-108653567D01*
X160066653Y-108783148D01*
X160247932Y-108840844D01*
X160424639Y-108825185D01*
X160569898Y-108734697D01*
X160604026Y-108691695D01*
X160632687Y-108687239D01*
X160642126Y-108750100D01*
X160672603Y-108843078D01*
X160744503Y-108864400D01*
X160781063Y-108859973D01*
X160807611Y-108837371D01*
X160825744Y-108782604D01*
X160837061Y-108681687D01*
X160843161Y-108520632D01*
X160845642Y-108285451D01*
X160845763Y-108204000D01*
X160642903Y-108204000D01*
X160631057Y-108382951D01*
X160586416Y-108504099D01*
X160518213Y-108587309D01*
X160390972Y-108687441D01*
X160276522Y-108699990D01*
X160142296Y-108626658D01*
X160118243Y-108608198D01*
X160003160Y-108466336D01*
X159949069Y-108288648D01*
X159950828Y-108099395D01*
X160003292Y-107922836D01*
X160101316Y-107783233D01*
X160239756Y-107704846D01*
X160311673Y-107696000D01*
X160401413Y-107729830D01*
X160509462Y-107812132D01*
X160518213Y-107820690D01*
X160598781Y-107925829D01*
X160635668Y-108055306D01*
X160642903Y-108204000D01*
X160845763Y-108204000D01*
X160846103Y-107975400D01*
X160845598Y-107655500D01*
X160843015Y-107423212D01*
X160836755Y-107264549D01*
X160825222Y-107165523D01*
X160806816Y-107112148D01*
X160779938Y-107090437D01*
X160744503Y-107086400D01*
X160687758Y-107097521D01*
G36*
X157972433Y-108640165D02*
G01*
X157950503Y-108737400D01*
X157974316Y-108836988D01*
X158052103Y-108864400D01*
X158131774Y-108834634D01*
X158153703Y-108737400D01*
X158129891Y-108637811D01*
X158052103Y-108610400D01*
X157972433Y-108640165D01*
G37*
X157972433Y-108640165D02*
X157950503Y-108737400D01*
X157974316Y-108836988D01*
X158052103Y-108864400D01*
X158131774Y-108834634D01*
X158153703Y-108737400D01*
X158129891Y-108637811D01*
X158052103Y-108610400D01*
X157972433Y-108640165D01*
G36*
X148829611Y-107469799D02*
G01*
X148806503Y-107518200D01*
X148796113Y-107538164D01*
X148758769Y-107554377D01*
X148685214Y-107567213D01*
X148566189Y-107577049D01*
X148392435Y-107584262D01*
X148154696Y-107589226D01*
X147843712Y-107592320D01*
X147450225Y-107593918D01*
X146964978Y-107594398D01*
X146931419Y-107594400D01*
X145056335Y-107594400D01*
X144920319Y-107756046D01*
X144822751Y-107935507D01*
X144819329Y-108116112D01*
X144908960Y-108278175D01*
X144951484Y-108318300D01*
X144984211Y-108340058D01*
X145031315Y-108357970D01*
X145102192Y-108372407D01*
X145206241Y-108383737D01*
X145352856Y-108392331D01*
X145551437Y-108398557D01*
X145811379Y-108402786D01*
X146142080Y-108405387D01*
X146552936Y-108406729D01*
X147053345Y-108407182D01*
X147211931Y-108407200D01*
X147758105Y-108406596D01*
X148210099Y-108404638D01*
X148575330Y-108401109D01*
X148861210Y-108395788D01*
X149075156Y-108388458D01*
X149224581Y-108378899D01*
X149316901Y-108366893D01*
X149359529Y-108352221D01*
X149364526Y-108343700D01*
X149361627Y-108297813D01*
X149348159Y-108259960D01*
X149315115Y-108229297D01*
X149253491Y-108204978D01*
X149154283Y-108186160D01*
X149008484Y-108171997D01*
X148807091Y-108161647D01*
X148541099Y-108154263D01*
X148201502Y-108149003D01*
X147779295Y-108145021D01*
X147265475Y-108141473D01*
X147203663Y-108141078D01*
X145123503Y-108127800D01*
X145123503Y-107873800D01*
X147020396Y-107860477D01*
X147509034Y-107857181D01*
X147905807Y-107855148D01*
X148220450Y-107854828D01*
X148462696Y-107856671D01*
X148642278Y-107861126D01*
X148768930Y-107868643D01*
X148852383Y-107879673D01*
X148902372Y-107894664D01*
X148928630Y-107914067D01*
X148940889Y-107938332D01*
X148944021Y-107949377D01*
X149002963Y-108030105D01*
X149117228Y-108051600D01*
X149221743Y-108045313D01*
X149263703Y-108030720D01*
X149246977Y-107975915D01*
X149203567Y-107854905D01*
X149155053Y-107725920D01*
X149085232Y-107562142D01*
X149024520Y-107475207D01*
X148955765Y-107443810D01*
X148926453Y-107442000D01*
X148829611Y-107469799D01*
G37*
X148829611Y-107469799D02*
X148806503Y-107518200D01*
X148796113Y-107538164D01*
X148758769Y-107554377D01*
X148685214Y-107567213D01*
X148566189Y-107577049D01*
X148392435Y-107584262D01*
X148154696Y-107589226D01*
X147843712Y-107592320D01*
X147450225Y-107593918D01*
X146964978Y-107594398D01*
X146931419Y-107594400D01*
X145056335Y-107594400D01*
X144920319Y-107756046D01*
X144822751Y-107935507D01*
X144819329Y-108116112D01*
X144908960Y-108278175D01*
X144951484Y-108318300D01*
X144984211Y-108340058D01*
X145031315Y-108357970D01*
X145102192Y-108372407D01*
X145206241Y-108383737D01*
X145352856Y-108392331D01*
X145551437Y-108398557D01*
X145811379Y-108402786D01*
X146142080Y-108405387D01*
X146552936Y-108406729D01*
X147053345Y-108407182D01*
X147211931Y-108407200D01*
X147758105Y-108406596D01*
X148210099Y-108404638D01*
X148575330Y-108401109D01*
X148861210Y-108395788D01*
X149075156Y-108388458D01*
X149224581Y-108378899D01*
X149316901Y-108366893D01*
X149359529Y-108352221D01*
X149364526Y-108343700D01*
X149361627Y-108297813D01*
X149348159Y-108259960D01*
X149315115Y-108229297D01*
X149253491Y-108204978D01*
X149154283Y-108186160D01*
X149008484Y-108171997D01*
X148807091Y-108161647D01*
X148541099Y-108154263D01*
X148201502Y-108149003D01*
X147779295Y-108145021D01*
X147265475Y-108141473D01*
X147203663Y-108141078D01*
X145123503Y-108127800D01*
X145123503Y-107873800D01*
X147020396Y-107860477D01*
X147509034Y-107857181D01*
X147905807Y-107855148D01*
X148220450Y-107854828D01*
X148462696Y-107856671D01*
X148642278Y-107861126D01*
X148768930Y-107868643D01*
X148852383Y-107879673D01*
X148902372Y-107894664D01*
X148928630Y-107914067D01*
X148940889Y-107938332D01*
X148944021Y-107949377D01*
X149002963Y-108030105D01*
X149117228Y-108051600D01*
X149221743Y-108045313D01*
X149263703Y-108030720D01*
X149246977Y-107975915D01*
X149203567Y-107854905D01*
X149155053Y-107725920D01*
X149085232Y-107562142D01*
X149024520Y-107475207D01*
X148955765Y-107443810D01*
X148926453Y-107442000D01*
X148829611Y-107469799D01*
G36*
X157972433Y-107624165D02*
G01*
X157950503Y-107721400D01*
X157974316Y-107820988D01*
X158052103Y-107848400D01*
X158131774Y-107818634D01*
X158153703Y-107721400D01*
X158129891Y-107621811D01*
X158052103Y-107594400D01*
X157972433Y-107624165D01*
G37*
X157972433Y-107624165D02*
X157950503Y-107721400D01*
X157974316Y-107820988D01*
X158052103Y-107848400D01*
X158131774Y-107818634D01*
X158153703Y-107721400D01*
X158129891Y-107621811D01*
X158052103Y-107594400D01*
X157972433Y-107624165D01*
G36*
X167363418Y-107130560D02*
G01*
X167348503Y-107213400D01*
X167375000Y-107315543D01*
X167424703Y-107340400D01*
X167485989Y-107296239D01*
X167500903Y-107213400D01*
X167474407Y-107111256D01*
X167424703Y-107086400D01*
X167363418Y-107130560D01*
G37*
X167363418Y-107130560D02*
X167348503Y-107213400D01*
X167375000Y-107315543D01*
X167424703Y-107340400D01*
X167485989Y-107296239D01*
X167500903Y-107213400D01*
X167474407Y-107111256D01*
X167424703Y-107086400D01*
X167363418Y-107130560D01*
G36*
X153934906Y-92584233D02*
G01*
X153507476Y-92584257D01*
X153098387Y-92584305D01*
X152707440Y-92584376D01*
X152334438Y-92584470D01*
X151979183Y-92584587D01*
X151641478Y-92584727D01*
X151321123Y-92584892D01*
X151017921Y-92585080D01*
X150731675Y-92585292D01*
X150462186Y-92585528D01*
X150209257Y-92585788D01*
X149972689Y-92586073D01*
X149752284Y-92586382D01*
X149547845Y-92586716D01*
X149359174Y-92587075D01*
X149186073Y-92587459D01*
X149028343Y-92587868D01*
X148885788Y-92588302D01*
X148758208Y-92588762D01*
X148645407Y-92589247D01*
X148547185Y-92589759D01*
X148463346Y-92590296D01*
X148393691Y-92590859D01*
X148338023Y-92591449D01*
X148296143Y-92592064D01*
X148267853Y-92592707D01*
X148257863Y-92593079D01*
X147923656Y-92615536D01*
X147604528Y-92650617D01*
X147299280Y-92698789D01*
X147006712Y-92760514D01*
X146725626Y-92836257D01*
X146454821Y-92926482D01*
X146193098Y-93031653D01*
X145939258Y-93152235D01*
X145692101Y-93288691D01*
X145450427Y-93441486D01*
X145213037Y-93611084D01*
X144978732Y-93797949D01*
X144844103Y-93914135D01*
X144777514Y-93975138D01*
X144701991Y-94047609D01*
X144621245Y-94127737D01*
X144538983Y-94211709D01*
X144458912Y-94295713D01*
X144384741Y-94375937D01*
X144320177Y-94448569D01*
X144291316Y-94482450D01*
X144085072Y-94744894D01*
X143896256Y-95017514D01*
X143725031Y-95299766D01*
X143571564Y-95591106D01*
X143436018Y-95890990D01*
X143318559Y-96198875D01*
X143219352Y-96514216D01*
X143138561Y-96836469D01*
X143076352Y-97165090D01*
X143032889Y-97499536D01*
X143008338Y-97839262D01*
X143002863Y-98183725D01*
X143016628Y-98532381D01*
X143026078Y-98655940D01*
X143065356Y-98999427D01*
X143123398Y-99335166D01*
X143200194Y-99663128D01*
X143295736Y-99983282D01*
X143410017Y-100295601D01*
X143543028Y-100600054D01*
X143609965Y-100736400D01*
X143761320Y-101014291D01*
X143926141Y-101278373D01*
X144105822Y-101530554D01*
X144301757Y-101772744D01*
X144515343Y-102006852D01*
X144602057Y-102094721D01*
X144723469Y-102212540D01*
X144837800Y-102317495D01*
X144949653Y-102413348D01*
X145063629Y-102503858D01*
X145184331Y-102592789D01*
X145316362Y-102683901D01*
X145352103Y-102707742D01*
X145585102Y-102853951D01*
X145817425Y-102982648D01*
X146053501Y-103095990D01*
X146297757Y-103196132D01*
X146505263Y-103269256D01*
X146672095Y-103322586D01*
X146829471Y-103369448D01*
X146980787Y-103410520D01*
X147129441Y-103446479D01*
X147278832Y-103478002D01*
X147432355Y-103505766D01*
X147593409Y-103530449D01*
X147765391Y-103552727D01*
X147951698Y-103573278D01*
X148105463Y-103588204D01*
X148117027Y-103588861D01*
X148137497Y-103589500D01*
X148167150Y-103590122D01*
X148206264Y-103590729D01*
X148255114Y-103591319D01*
X148313979Y-103591894D01*
X148383134Y-103592454D01*
X148462857Y-103593000D01*
X148553424Y-103593531D01*
X148655112Y-103594049D01*
X148768198Y-103594554D01*
X148892959Y-103595045D01*
X149029672Y-103595525D01*
X149178613Y-103595992D01*
X149340059Y-103596448D01*
X149514288Y-103596893D01*
X149701575Y-103597327D01*
X149902198Y-103597750D01*
X150116433Y-103598164D01*
X150344557Y-103598569D01*
X150586848Y-103598965D01*
X150843582Y-103599352D01*
X151115035Y-103599731D01*
X151401485Y-103600102D01*
X151703209Y-103600467D01*
X152020482Y-103600824D01*
X152353583Y-103601175D01*
X152702787Y-103601520D01*
X153068373Y-103601860D01*
X153450615Y-103602194D01*
X153849792Y-103602524D01*
X154266180Y-103602850D01*
X154700056Y-103603172D01*
X155151697Y-103603490D01*
X155621379Y-103603806D01*
X156109379Y-103604119D01*
X156615975Y-103604430D01*
X157141443Y-103604739D01*
X157686059Y-103605048D01*
X158250101Y-103605355D01*
X158833846Y-103605662D01*
X159437570Y-103605969D01*
X159579847Y-103606040D01*
X170922150Y-103611680D01*
X171384696Y-104922320D01*
X173144436Y-104927512D01*
X173105860Y-104818236D01*
X173097941Y-104795803D01*
X173083676Y-104755394D01*
X173063484Y-104698194D01*
X173037782Y-104625388D01*
X173006990Y-104538160D01*
X172971525Y-104437696D01*
X172931806Y-104325180D01*
X172888250Y-104201797D01*
X172841277Y-104068732D01*
X172791304Y-103927171D01*
X172738751Y-103778297D01*
X172684034Y-103623297D01*
X172627573Y-103463354D01*
X172580431Y-103329812D01*
X172093578Y-101950664D01*
X160104601Y-101947782D01*
X159508886Y-101947638D01*
X158933146Y-101947496D01*
X158377038Y-101947356D01*
X157840216Y-101947217D01*
X157322336Y-101947079D01*
X156823054Y-101946941D01*
X156342026Y-101946803D01*
X155878906Y-101946663D01*
X155433350Y-101946522D01*
X155005015Y-101946378D01*
X154593554Y-101946232D01*
X154198625Y-101946082D01*
X153819882Y-101945929D01*
X153456982Y-101945770D01*
X153109578Y-101945607D01*
X152777328Y-101945437D01*
X152459887Y-101945262D01*
X152156910Y-101945079D01*
X151868053Y-101944889D01*
X151592971Y-101944691D01*
X151331320Y-101944484D01*
X151082755Y-101944268D01*
X150846932Y-101944042D01*
X150623507Y-101943806D01*
X150412134Y-101943559D01*
X150212471Y-101943300D01*
X150024171Y-101943029D01*
X149846891Y-101942745D01*
X149680286Y-101942448D01*
X149524012Y-101942136D01*
X149377724Y-101941811D01*
X149241078Y-101941470D01*
X149113730Y-101941114D01*
X148995334Y-101940741D01*
X148885546Y-101940351D01*
X148784023Y-101939944D01*
X148690419Y-101939520D01*
X148604391Y-101939076D01*
X148525593Y-101938613D01*
X148453681Y-101938131D01*
X148388310Y-101937628D01*
X148329137Y-101937104D01*
X148275817Y-101936559D01*
X148228005Y-101935992D01*
X148185357Y-101935401D01*
X148147529Y-101934788D01*
X148114175Y-101934151D01*
X148084952Y-101933489D01*
X148059515Y-101932803D01*
X148037519Y-101932091D01*
X148018621Y-101931352D01*
X148002475Y-101930587D01*
X147988737Y-101929795D01*
X147977064Y-101928974D01*
X147967109Y-101928125D01*
X147958529Y-101927247D01*
X147958143Y-101927204D01*
X147800230Y-101907571D01*
X147657759Y-101885635D01*
X147525899Y-101860460D01*
X147399818Y-101831111D01*
X147274686Y-101796651D01*
X147257103Y-101791407D01*
X147003245Y-101706107D01*
X146763828Y-101607120D01*
X146537670Y-101493753D01*
X146323590Y-101365312D01*
X146120406Y-101221104D01*
X145926936Y-101060436D01*
X145788225Y-100929440D01*
X145710640Y-100851001D01*
X145644850Y-100781351D01*
X145587201Y-100716074D01*
X145534044Y-100650754D01*
X145481726Y-100580974D01*
X145426598Y-100502320D01*
X145389158Y-100446790D01*
X145259261Y-100233903D01*
X145144598Y-100007821D01*
X145045253Y-99768892D01*
X144961309Y-99517462D01*
X144892848Y-99253876D01*
X144839953Y-98978482D01*
X144802707Y-98691624D01*
X144781194Y-98393649D01*
X144775496Y-98084904D01*
X144779444Y-97901760D01*
X144798524Y-97603555D01*
X144833996Y-97315194D01*
X144885698Y-97037104D01*
X144953466Y-96769710D01*
X145037136Y-96513439D01*
X145136545Y-96268716D01*
X145251529Y-96035967D01*
X145381924Y-95815618D01*
X145527566Y-95608095D01*
X145688293Y-95413824D01*
X145768282Y-95327956D01*
X145931959Y-95169013D01*
X146101253Y-95025518D01*
X146279518Y-94895048D01*
X146470107Y-94775182D01*
X146676374Y-94663495D01*
X146713543Y-94644998D01*
X146922619Y-94549235D01*
X147133131Y-94467303D01*
X147348409Y-94398244D01*
X147571787Y-94341106D01*
X147806596Y-94294932D01*
X148056168Y-94258768D01*
X148064823Y-94257719D01*
X148074741Y-94257041D01*
X148093263Y-94256383D01*
X148120680Y-94255746D01*
X148157285Y-94255128D01*
X148203367Y-94254529D01*
X148259219Y-94253950D01*
X148325132Y-94253388D01*
X148401397Y-94252845D01*
X148488305Y-94252319D01*
X148586147Y-94251811D01*
X148695215Y-94251319D01*
X148815800Y-94250843D01*
X148948193Y-94250383D01*
X149092685Y-94249939D01*
X149249568Y-94249510D01*
X149419133Y-94249095D01*
X149601671Y-94248694D01*
X149797473Y-94248307D01*
X150006831Y-94247934D01*
X150230035Y-94247573D01*
X150467378Y-94247225D01*
X150719150Y-94246889D01*
X150985643Y-94246565D01*
X151267148Y-94246251D01*
X151563955Y-94245949D01*
X151876357Y-94245657D01*
X152204645Y-94245375D01*
X152549109Y-94245102D01*
X152910041Y-94244839D01*
X153287733Y-94244584D01*
X153682475Y-94244337D01*
X154094559Y-94244098D01*
X154524276Y-94243867D01*
X154971917Y-94243643D01*
X155437774Y-94243425D01*
X155922137Y-94243213D01*
X156425299Y-94243007D01*
X156947549Y-94242807D01*
X157489180Y-94242611D01*
X158050483Y-94242420D01*
X158631749Y-94242232D01*
X158765843Y-94242191D01*
X159229536Y-94242040D01*
X159688292Y-94241876D01*
X160141690Y-94241700D01*
X160589309Y-94241512D01*
X161030728Y-94241313D01*
X161465525Y-94241103D01*
X161893281Y-94240882D01*
X162313573Y-94240652D01*
X162725980Y-94240411D01*
X163130081Y-94240161D01*
X163525456Y-94239903D01*
X163911683Y-94239635D01*
X164288340Y-94239360D01*
X164655008Y-94239078D01*
X165011263Y-94238788D01*
X165356687Y-94238492D01*
X165690856Y-94238189D01*
X166013351Y-94237881D01*
X166323750Y-94237567D01*
X166621632Y-94237248D01*
X166906576Y-94236925D01*
X167178160Y-94236598D01*
X167435964Y-94236267D01*
X167679566Y-94235933D01*
X167908546Y-94235596D01*
X168122481Y-94235256D01*
X168320952Y-94234915D01*
X168503537Y-94234572D01*
X168669814Y-94234229D01*
X168819363Y-94233884D01*
X168951763Y-94233540D01*
X169066591Y-94233195D01*
X169163428Y-94232851D01*
X169241853Y-94232509D01*
X169301443Y-94232168D01*
X169341778Y-94231829D01*
X169362436Y-94231492D01*
X169365263Y-94231315D01*
X169361958Y-94220803D01*
X169352368Y-94192538D01*
X169336986Y-94147927D01*
X169316303Y-94088373D01*
X169290810Y-94015283D01*
X169260999Y-93930060D01*
X169227360Y-93834111D01*
X169190386Y-93728840D01*
X169150567Y-93615653D01*
X169108395Y-93495954D01*
X169076629Y-93405901D01*
X168787994Y-92588080D01*
X158639769Y-92585013D01*
X158038365Y-92584839D01*
X157457084Y-92584687D01*
X156895727Y-92584556D01*
X156354096Y-92584446D01*
X155831993Y-92584359D01*
X155329221Y-92584294D01*
X154845581Y-92584251D01*
X154380875Y-92584231D01*
X153934906Y-92584233D01*
G37*
X153934906Y-92584233D02*
X153507476Y-92584257D01*
X153098387Y-92584305D01*
X152707440Y-92584376D01*
X152334438Y-92584470D01*
X151979183Y-92584587D01*
X151641478Y-92584727D01*
X151321123Y-92584892D01*
X151017921Y-92585080D01*
X150731675Y-92585292D01*
X150462186Y-92585528D01*
X150209257Y-92585788D01*
X149972689Y-92586073D01*
X149752284Y-92586382D01*
X149547845Y-92586716D01*
X149359174Y-92587075D01*
X149186073Y-92587459D01*
X149028343Y-92587868D01*
X148885788Y-92588302D01*
X148758208Y-92588762D01*
X148645407Y-92589247D01*
X148547185Y-92589759D01*
X148463346Y-92590296D01*
X148393691Y-92590859D01*
X148338023Y-92591449D01*
X148296143Y-92592064D01*
X148267853Y-92592707D01*
X148257863Y-92593079D01*
X147923656Y-92615536D01*
X147604528Y-92650617D01*
X147299280Y-92698789D01*
X147006712Y-92760514D01*
X146725626Y-92836257D01*
X146454821Y-92926482D01*
X146193098Y-93031653D01*
X145939258Y-93152235D01*
X145692101Y-93288691D01*
X145450427Y-93441486D01*
X145213037Y-93611084D01*
X144978732Y-93797949D01*
X144844103Y-93914135D01*
X144777514Y-93975138D01*
X144701991Y-94047609D01*
X144621245Y-94127737D01*
X144538983Y-94211709D01*
X144458912Y-94295713D01*
X144384741Y-94375937D01*
X144320177Y-94448569D01*
X144291316Y-94482450D01*
X144085072Y-94744894D01*
X143896256Y-95017514D01*
X143725031Y-95299766D01*
X143571564Y-95591106D01*
X143436018Y-95890990D01*
X143318559Y-96198875D01*
X143219352Y-96514216D01*
X143138561Y-96836469D01*
X143076352Y-97165090D01*
X143032889Y-97499536D01*
X143008338Y-97839262D01*
X143002863Y-98183725D01*
X143016628Y-98532381D01*
X143026078Y-98655940D01*
X143065356Y-98999427D01*
X143123398Y-99335166D01*
X143200194Y-99663128D01*
X143295736Y-99983282D01*
X143410017Y-100295601D01*
X143543028Y-100600054D01*
X143609965Y-100736400D01*
X143761320Y-101014291D01*
X143926141Y-101278373D01*
X144105822Y-101530554D01*
X144301757Y-101772744D01*
X144515343Y-102006852D01*
X144602057Y-102094721D01*
X144723469Y-102212540D01*
X144837800Y-102317495D01*
X144949653Y-102413348D01*
X145063629Y-102503858D01*
X145184331Y-102592789D01*
X145316362Y-102683901D01*
X145352103Y-102707742D01*
X145585102Y-102853951D01*
X145817425Y-102982648D01*
X146053501Y-103095990D01*
X146297757Y-103196132D01*
X146505263Y-103269256D01*
X146672095Y-103322586D01*
X146829471Y-103369448D01*
X146980787Y-103410520D01*
X147129441Y-103446479D01*
X147278832Y-103478002D01*
X147432355Y-103505766D01*
X147593409Y-103530449D01*
X147765391Y-103552727D01*
X147951698Y-103573278D01*
X148105463Y-103588204D01*
X148117027Y-103588861D01*
X148137497Y-103589500D01*
X148167150Y-103590122D01*
X148206264Y-103590729D01*
X148255114Y-103591319D01*
X148313979Y-103591894D01*
X148383134Y-103592454D01*
X148462857Y-103593000D01*
X148553424Y-103593531D01*
X148655112Y-103594049D01*
X148768198Y-103594554D01*
X148892959Y-103595045D01*
X149029672Y-103595525D01*
X149178613Y-103595992D01*
X149340059Y-103596448D01*
X149514288Y-103596893D01*
X149701575Y-103597327D01*
X149902198Y-103597750D01*
X150116433Y-103598164D01*
X150344557Y-103598569D01*
X150586848Y-103598965D01*
X150843582Y-103599352D01*
X151115035Y-103599731D01*
X151401485Y-103600102D01*
X151703209Y-103600467D01*
X152020482Y-103600824D01*
X152353583Y-103601175D01*
X152702787Y-103601520D01*
X153068373Y-103601860D01*
X153450615Y-103602194D01*
X153849792Y-103602524D01*
X154266180Y-103602850D01*
X154700056Y-103603172D01*
X155151697Y-103603490D01*
X155621379Y-103603806D01*
X156109379Y-103604119D01*
X156615975Y-103604430D01*
X157141443Y-103604739D01*
X157686059Y-103605048D01*
X158250101Y-103605355D01*
X158833846Y-103605662D01*
X159437570Y-103605969D01*
X159579847Y-103606040D01*
X170922150Y-103611680D01*
X171384696Y-104922320D01*
X173144436Y-104927512D01*
X173105860Y-104818236D01*
X173097941Y-104795803D01*
X173083676Y-104755394D01*
X173063484Y-104698194D01*
X173037782Y-104625388D01*
X173006990Y-104538160D01*
X172971525Y-104437696D01*
X172931806Y-104325180D01*
X172888250Y-104201797D01*
X172841277Y-104068732D01*
X172791304Y-103927171D01*
X172738751Y-103778297D01*
X172684034Y-103623297D01*
X172627573Y-103463354D01*
X172580431Y-103329812D01*
X172093578Y-101950664D01*
X160104601Y-101947782D01*
X159508886Y-101947638D01*
X158933146Y-101947496D01*
X158377038Y-101947356D01*
X157840216Y-101947217D01*
X157322336Y-101947079D01*
X156823054Y-101946941D01*
X156342026Y-101946803D01*
X155878906Y-101946663D01*
X155433350Y-101946522D01*
X155005015Y-101946378D01*
X154593554Y-101946232D01*
X154198625Y-101946082D01*
X153819882Y-101945929D01*
X153456982Y-101945770D01*
X153109578Y-101945607D01*
X152777328Y-101945437D01*
X152459887Y-101945262D01*
X152156910Y-101945079D01*
X151868053Y-101944889D01*
X151592971Y-101944691D01*
X151331320Y-101944484D01*
X151082755Y-101944268D01*
X150846932Y-101944042D01*
X150623507Y-101943806D01*
X150412134Y-101943559D01*
X150212471Y-101943300D01*
X150024171Y-101943029D01*
X149846891Y-101942745D01*
X149680286Y-101942448D01*
X149524012Y-101942136D01*
X149377724Y-101941811D01*
X149241078Y-101941470D01*
X149113730Y-101941114D01*
X148995334Y-101940741D01*
X148885546Y-101940351D01*
X148784023Y-101939944D01*
X148690419Y-101939520D01*
X148604391Y-101939076D01*
X148525593Y-101938613D01*
X148453681Y-101938131D01*
X148388310Y-101937628D01*
X148329137Y-101937104D01*
X148275817Y-101936559D01*
X148228005Y-101935992D01*
X148185357Y-101935401D01*
X148147529Y-101934788D01*
X148114175Y-101934151D01*
X148084952Y-101933489D01*
X148059515Y-101932803D01*
X148037519Y-101932091D01*
X148018621Y-101931352D01*
X148002475Y-101930587D01*
X147988737Y-101929795D01*
X147977064Y-101928974D01*
X147967109Y-101928125D01*
X147958529Y-101927247D01*
X147958143Y-101927204D01*
X147800230Y-101907571D01*
X147657759Y-101885635D01*
X147525899Y-101860460D01*
X147399818Y-101831111D01*
X147274686Y-101796651D01*
X147257103Y-101791407D01*
X147003245Y-101706107D01*
X146763828Y-101607120D01*
X146537670Y-101493753D01*
X146323590Y-101365312D01*
X146120406Y-101221104D01*
X145926936Y-101060436D01*
X145788225Y-100929440D01*
X145710640Y-100851001D01*
X145644850Y-100781351D01*
X145587201Y-100716074D01*
X145534044Y-100650754D01*
X145481726Y-100580974D01*
X145426598Y-100502320D01*
X145389158Y-100446790D01*
X145259261Y-100233903D01*
X145144598Y-100007821D01*
X145045253Y-99768892D01*
X144961309Y-99517462D01*
X144892848Y-99253876D01*
X144839953Y-98978482D01*
X144802707Y-98691624D01*
X144781194Y-98393649D01*
X144775496Y-98084904D01*
X144779444Y-97901760D01*
X144798524Y-97603555D01*
X144833996Y-97315194D01*
X144885698Y-97037104D01*
X144953466Y-96769710D01*
X145037136Y-96513439D01*
X145136545Y-96268716D01*
X145251529Y-96035967D01*
X145381924Y-95815618D01*
X145527566Y-95608095D01*
X145688293Y-95413824D01*
X145768282Y-95327956D01*
X145931959Y-95169013D01*
X146101253Y-95025518D01*
X146279518Y-94895048D01*
X146470107Y-94775182D01*
X146676374Y-94663495D01*
X146713543Y-94644998D01*
X146922619Y-94549235D01*
X147133131Y-94467303D01*
X147348409Y-94398244D01*
X147571787Y-94341106D01*
X147806596Y-94294932D01*
X148056168Y-94258768D01*
X148064823Y-94257719D01*
X148074741Y-94257041D01*
X148093263Y-94256383D01*
X148120680Y-94255746D01*
X148157285Y-94255128D01*
X148203367Y-94254529D01*
X148259219Y-94253950D01*
X148325132Y-94253388D01*
X148401397Y-94252845D01*
X148488305Y-94252319D01*
X148586147Y-94251811D01*
X148695215Y-94251319D01*
X148815800Y-94250843D01*
X148948193Y-94250383D01*
X149092685Y-94249939D01*
X149249568Y-94249510D01*
X149419133Y-94249095D01*
X149601671Y-94248694D01*
X149797473Y-94248307D01*
X150006831Y-94247934D01*
X150230035Y-94247573D01*
X150467378Y-94247225D01*
X150719150Y-94246889D01*
X150985643Y-94246565D01*
X151267148Y-94246251D01*
X151563955Y-94245949D01*
X151876357Y-94245657D01*
X152204645Y-94245375D01*
X152549109Y-94245102D01*
X152910041Y-94244839D01*
X153287733Y-94244584D01*
X153682475Y-94244337D01*
X154094559Y-94244098D01*
X154524276Y-94243867D01*
X154971917Y-94243643D01*
X155437774Y-94243425D01*
X155922137Y-94243213D01*
X156425299Y-94243007D01*
X156947549Y-94242807D01*
X157489180Y-94242611D01*
X158050483Y-94242420D01*
X158631749Y-94242232D01*
X158765843Y-94242191D01*
X159229536Y-94242040D01*
X159688292Y-94241876D01*
X160141690Y-94241700D01*
X160589309Y-94241512D01*
X161030728Y-94241313D01*
X161465525Y-94241103D01*
X161893281Y-94240882D01*
X162313573Y-94240652D01*
X162725980Y-94240411D01*
X163130081Y-94240161D01*
X163525456Y-94239903D01*
X163911683Y-94239635D01*
X164288340Y-94239360D01*
X164655008Y-94239078D01*
X165011263Y-94238788D01*
X165356687Y-94238492D01*
X165690856Y-94238189D01*
X166013351Y-94237881D01*
X166323750Y-94237567D01*
X166621632Y-94237248D01*
X166906576Y-94236925D01*
X167178160Y-94236598D01*
X167435964Y-94236267D01*
X167679566Y-94235933D01*
X167908546Y-94235596D01*
X168122481Y-94235256D01*
X168320952Y-94234915D01*
X168503537Y-94234572D01*
X168669814Y-94234229D01*
X168819363Y-94233884D01*
X168951763Y-94233540D01*
X169066591Y-94233195D01*
X169163428Y-94232851D01*
X169241853Y-94232509D01*
X169301443Y-94232168D01*
X169341778Y-94231829D01*
X169362436Y-94231492D01*
X169365263Y-94231315D01*
X169361958Y-94220803D01*
X169352368Y-94192538D01*
X169336986Y-94147927D01*
X169316303Y-94088373D01*
X169290810Y-94015283D01*
X169260999Y-93930060D01*
X169227360Y-93834111D01*
X169190386Y-93728840D01*
X169150567Y-93615653D01*
X169108395Y-93495954D01*
X169076629Y-93405901D01*
X168787994Y-92588080D01*
X158639769Y-92585013D01*
X158038365Y-92584839D01*
X157457084Y-92584687D01*
X156895727Y-92584556D01*
X156354096Y-92584446D01*
X155831993Y-92584359D01*
X155329221Y-92584294D01*
X154845581Y-92584251D01*
X154380875Y-92584231D01*
X153934906Y-92584233D01*
G36*
X168528755Y-94797957D02*
G01*
X168383284Y-94798197D01*
X168256538Y-94798609D01*
X168147718Y-94799204D01*
X168056028Y-94799993D01*
X167980670Y-94800986D01*
X167920846Y-94802193D01*
X167875759Y-94803625D01*
X167844612Y-94805292D01*
X167826607Y-94807206D01*
X167820943Y-94809326D01*
X167824225Y-94821034D01*
X167833609Y-94849881D01*
X167848406Y-94893855D01*
X167867924Y-94950943D01*
X167891473Y-95019134D01*
X167918363Y-95096414D01*
X167947903Y-95180773D01*
X167968263Y-95238632D01*
X167999132Y-95326355D01*
X168027805Y-95408162D01*
X168053595Y-95482065D01*
X168075812Y-95546075D01*
X168093768Y-95598205D01*
X168106775Y-95636466D01*
X168114143Y-95658870D01*
X168115583Y-95664004D01*
X168105496Y-95664347D01*
X168075525Y-95664693D01*
X168026108Y-95665042D01*
X167957679Y-95665391D01*
X167870676Y-95665742D01*
X167765536Y-95666093D01*
X167642695Y-95666444D01*
X167502588Y-95666795D01*
X167345654Y-95667145D01*
X167172327Y-95667494D01*
X166983045Y-95667841D01*
X166778245Y-95668186D01*
X166558361Y-95668528D01*
X166323832Y-95668867D01*
X166075094Y-95669202D01*
X165812582Y-95669534D01*
X165536733Y-95669860D01*
X165247985Y-95670182D01*
X164946773Y-95670498D01*
X164633533Y-95670808D01*
X164308703Y-95671111D01*
X163972719Y-95671408D01*
X163626017Y-95671697D01*
X163269033Y-95671978D01*
X162902204Y-95672251D01*
X162525967Y-95672516D01*
X162140758Y-95672771D01*
X161747014Y-95673016D01*
X161345170Y-95673251D01*
X160935664Y-95673475D01*
X160518932Y-95673688D01*
X160095410Y-95673890D01*
X159665535Y-95674079D01*
X159229743Y-95674256D01*
X158788471Y-95674420D01*
X158342155Y-95674571D01*
X158247683Y-95674601D01*
X148379783Y-95677686D01*
X148251288Y-95699412D01*
X148043348Y-95741612D01*
X147850080Y-95795905D01*
X147669031Y-95863440D01*
X147497751Y-95945369D01*
X147333787Y-96042840D01*
X147174690Y-96157004D01*
X147043806Y-96265944D01*
X146889564Y-96415362D01*
X146748249Y-96578846D01*
X146621080Y-96754378D01*
X146509272Y-96939937D01*
X146414043Y-97133506D01*
X146336609Y-97333066D01*
X146278330Y-97536000D01*
X146238583Y-97745263D01*
X146216447Y-97962243D01*
X146212123Y-98184176D01*
X146219815Y-98341164D01*
X146241622Y-98548429D01*
X146274142Y-98740499D01*
X146317972Y-98919803D01*
X146373711Y-99088772D01*
X146441958Y-99249833D01*
X146445396Y-99257067D01*
X146508761Y-99382295D01*
X146572772Y-99492499D01*
X146640924Y-99592773D01*
X146716712Y-99688213D01*
X146803631Y-99783912D01*
X146814511Y-99795178D01*
X146949555Y-99923419D01*
X147091502Y-100036325D01*
X147244468Y-100136873D01*
X147412566Y-100228035D01*
X147414583Y-100229031D01*
X147543431Y-100288714D01*
X147672725Y-100340441D01*
X147806475Y-100385449D01*
X147948691Y-100424973D01*
X148103381Y-100460249D01*
X148262943Y-100490500D01*
X148389943Y-100512643D01*
X159985043Y-100515341D01*
X160470136Y-100515447D01*
X160950311Y-100515539D01*
X161425164Y-100515616D01*
X161894294Y-100515680D01*
X162357298Y-100515729D01*
X162813773Y-100515765D01*
X163263317Y-100515788D01*
X163705527Y-100515797D01*
X164140000Y-100515792D01*
X164566334Y-100515775D01*
X164984125Y-100515745D01*
X165392972Y-100515703D01*
X165792472Y-100515647D01*
X166182222Y-100515580D01*
X166561819Y-100515500D01*
X166930861Y-100515409D01*
X167288945Y-100515305D01*
X167635669Y-100515191D01*
X167970629Y-100515064D01*
X168293424Y-100514926D01*
X168603650Y-100514778D01*
X168900905Y-100514618D01*
X169184786Y-100514448D01*
X169454891Y-100514267D01*
X169710817Y-100514075D01*
X169952161Y-100513874D01*
X170178521Y-100513662D01*
X170389494Y-100513441D01*
X170584678Y-100513209D01*
X170763669Y-100512969D01*
X170926065Y-100512719D01*
X171071464Y-100512459D01*
X171199462Y-100512191D01*
X171309658Y-100511914D01*
X171401648Y-100511628D01*
X171475030Y-100511334D01*
X171529402Y-100511032D01*
X171564360Y-100510721D01*
X171579501Y-100510403D01*
X171580143Y-100510321D01*
X171576838Y-100499789D01*
X171567248Y-100471506D01*
X171551865Y-100426876D01*
X171531182Y-100367305D01*
X171505688Y-100294198D01*
X171475876Y-100208961D01*
X171442236Y-100112999D01*
X171405261Y-100007717D01*
X171365441Y-99894521D01*
X171323268Y-99774816D01*
X171291509Y-99684781D01*
X171002874Y-98866960D01*
X159742129Y-98861880D01*
X148481383Y-98856800D01*
X148405183Y-98834972D01*
X148293458Y-98795486D01*
X148197494Y-98745187D01*
X148116879Y-98683411D01*
X148051204Y-98609496D01*
X148000056Y-98522776D01*
X147963025Y-98422590D01*
X147939699Y-98308273D01*
X147929666Y-98179161D01*
X147930735Y-98069400D01*
X147944110Y-97930065D01*
X147971912Y-97805037D01*
X148014150Y-97694303D01*
X148070831Y-97597852D01*
X148141965Y-97515672D01*
X148227558Y-97447751D01*
X148327620Y-97394078D01*
X148435861Y-97356337D01*
X148522023Y-97332800D01*
X168707860Y-97332800D01*
X169048372Y-98298000D01*
X169923098Y-98300596D01*
X170082101Y-98300958D01*
X170227106Y-98301062D01*
X170357399Y-98300915D01*
X170472267Y-98300523D01*
X170570998Y-98299891D01*
X170652879Y-98299024D01*
X170717196Y-98297929D01*
X170763237Y-98296612D01*
X170790289Y-98295077D01*
X170797823Y-98293578D01*
X170794492Y-98283136D01*
X170784723Y-98254507D01*
X170768859Y-98208661D01*
X170747240Y-98146569D01*
X170720207Y-98069200D01*
X170688100Y-97977523D01*
X170651260Y-97872509D01*
X170610029Y-97755127D01*
X170564746Y-97626348D01*
X170515753Y-97487142D01*
X170463390Y-97338477D01*
X170407999Y-97181324D01*
X170349919Y-97016654D01*
X170289492Y-96845435D01*
X170227059Y-96668637D01*
X170197193Y-96584101D01*
X170133711Y-96404435D01*
X170071923Y-96229556D01*
X170012181Y-96060460D01*
X169954837Y-95898144D01*
X169900243Y-95743603D01*
X169848750Y-95597832D01*
X169800710Y-95461828D01*
X169756474Y-95336585D01*
X169716394Y-95223100D01*
X169680822Y-95122367D01*
X169650109Y-95035384D01*
X169624608Y-94963145D01*
X169604669Y-94906646D01*
X169590644Y-94866883D01*
X169582886Y-94844851D01*
X169581558Y-94841060D01*
X169566553Y-94797880D01*
X168693748Y-94797880D01*
X168528755Y-94797957D01*
G37*
X168528755Y-94797957D02*
X168383284Y-94798197D01*
X168256538Y-94798609D01*
X168147718Y-94799204D01*
X168056028Y-94799993D01*
X167980670Y-94800986D01*
X167920846Y-94802193D01*
X167875759Y-94803625D01*
X167844612Y-94805292D01*
X167826607Y-94807206D01*
X167820943Y-94809326D01*
X167824225Y-94821034D01*
X167833609Y-94849881D01*
X167848406Y-94893855D01*
X167867924Y-94950943D01*
X167891473Y-95019134D01*
X167918363Y-95096414D01*
X167947903Y-95180773D01*
X167968263Y-95238632D01*
X167999132Y-95326355D01*
X168027805Y-95408162D01*
X168053595Y-95482065D01*
X168075812Y-95546075D01*
X168093768Y-95598205D01*
X168106775Y-95636466D01*
X168114143Y-95658870D01*
X168115583Y-95664004D01*
X168105496Y-95664347D01*
X168075525Y-95664693D01*
X168026108Y-95665042D01*
X167957679Y-95665391D01*
X167870676Y-95665742D01*
X167765536Y-95666093D01*
X167642695Y-95666444D01*
X167502588Y-95666795D01*
X167345654Y-95667145D01*
X167172327Y-95667494D01*
X166983045Y-95667841D01*
X166778245Y-95668186D01*
X166558361Y-95668528D01*
X166323832Y-95668867D01*
X166075094Y-95669202D01*
X165812582Y-95669534D01*
X165536733Y-95669860D01*
X165247985Y-95670182D01*
X164946773Y-95670498D01*
X164633533Y-95670808D01*
X164308703Y-95671111D01*
X163972719Y-95671408D01*
X163626017Y-95671697D01*
X163269033Y-95671978D01*
X162902204Y-95672251D01*
X162525967Y-95672516D01*
X162140758Y-95672771D01*
X161747014Y-95673016D01*
X161345170Y-95673251D01*
X160935664Y-95673475D01*
X160518932Y-95673688D01*
X160095410Y-95673890D01*
X159665535Y-95674079D01*
X159229743Y-95674256D01*
X158788471Y-95674420D01*
X158342155Y-95674571D01*
X158247683Y-95674601D01*
X148379783Y-95677686D01*
X148251288Y-95699412D01*
X148043348Y-95741612D01*
X147850080Y-95795905D01*
X147669031Y-95863440D01*
X147497751Y-95945369D01*
X147333787Y-96042840D01*
X147174690Y-96157004D01*
X147043806Y-96265944D01*
X146889564Y-96415362D01*
X146748249Y-96578846D01*
X146621080Y-96754378D01*
X146509272Y-96939937D01*
X146414043Y-97133506D01*
X146336609Y-97333066D01*
X146278330Y-97536000D01*
X146238583Y-97745263D01*
X146216447Y-97962243D01*
X146212123Y-98184176D01*
X146219815Y-98341164D01*
X146241622Y-98548429D01*
X146274142Y-98740499D01*
X146317972Y-98919803D01*
X146373711Y-99088772D01*
X146441958Y-99249833D01*
X146445396Y-99257067D01*
X146508761Y-99382295D01*
X146572772Y-99492499D01*
X146640924Y-99592773D01*
X146716712Y-99688213D01*
X146803631Y-99783912D01*
X146814511Y-99795178D01*
X146949555Y-99923419D01*
X147091502Y-100036325D01*
X147244468Y-100136873D01*
X147412566Y-100228035D01*
X147414583Y-100229031D01*
X147543431Y-100288714D01*
X147672725Y-100340441D01*
X147806475Y-100385449D01*
X147948691Y-100424973D01*
X148103381Y-100460249D01*
X148262943Y-100490500D01*
X148389943Y-100512643D01*
X159985043Y-100515341D01*
X160470136Y-100515447D01*
X160950311Y-100515539D01*
X161425164Y-100515616D01*
X161894294Y-100515680D01*
X162357298Y-100515729D01*
X162813773Y-100515765D01*
X163263317Y-100515788D01*
X163705527Y-100515797D01*
X164140000Y-100515792D01*
X164566334Y-100515775D01*
X164984125Y-100515745D01*
X165392972Y-100515703D01*
X165792472Y-100515647D01*
X166182222Y-100515580D01*
X166561819Y-100515500D01*
X166930861Y-100515409D01*
X167288945Y-100515305D01*
X167635669Y-100515191D01*
X167970629Y-100515064D01*
X168293424Y-100514926D01*
X168603650Y-100514778D01*
X168900905Y-100514618D01*
X169184786Y-100514448D01*
X169454891Y-100514267D01*
X169710817Y-100514075D01*
X169952161Y-100513874D01*
X170178521Y-100513662D01*
X170389494Y-100513441D01*
X170584678Y-100513209D01*
X170763669Y-100512969D01*
X170926065Y-100512719D01*
X171071464Y-100512459D01*
X171199462Y-100512191D01*
X171309658Y-100511914D01*
X171401648Y-100511628D01*
X171475030Y-100511334D01*
X171529402Y-100511032D01*
X171564360Y-100510721D01*
X171579501Y-100510403D01*
X171580143Y-100510321D01*
X171576838Y-100499789D01*
X171567248Y-100471506D01*
X171551865Y-100426876D01*
X171531182Y-100367305D01*
X171505688Y-100294198D01*
X171475876Y-100208961D01*
X171442236Y-100112999D01*
X171405261Y-100007717D01*
X171365441Y-99894521D01*
X171323268Y-99774816D01*
X171291509Y-99684781D01*
X171002874Y-98866960D01*
X159742129Y-98861880D01*
X148481383Y-98856800D01*
X148405183Y-98834972D01*
X148293458Y-98795486D01*
X148197494Y-98745187D01*
X148116879Y-98683411D01*
X148051204Y-98609496D01*
X148000056Y-98522776D01*
X147963025Y-98422590D01*
X147939699Y-98308273D01*
X147929666Y-98179161D01*
X147930735Y-98069400D01*
X147944110Y-97930065D01*
X147971912Y-97805037D01*
X148014150Y-97694303D01*
X148070831Y-97597852D01*
X148141965Y-97515672D01*
X148227558Y-97447751D01*
X148327620Y-97394078D01*
X148435861Y-97356337D01*
X148522023Y-97332800D01*
X168707860Y-97332800D01*
X169048372Y-98298000D01*
X169923098Y-98300596D01*
X170082101Y-98300958D01*
X170227106Y-98301062D01*
X170357399Y-98300915D01*
X170472267Y-98300523D01*
X170570998Y-98299891D01*
X170652879Y-98299024D01*
X170717196Y-98297929D01*
X170763237Y-98296612D01*
X170790289Y-98295077D01*
X170797823Y-98293578D01*
X170794492Y-98283136D01*
X170784723Y-98254507D01*
X170768859Y-98208661D01*
X170747240Y-98146569D01*
X170720207Y-98069200D01*
X170688100Y-97977523D01*
X170651260Y-97872509D01*
X170610029Y-97755127D01*
X170564746Y-97626348D01*
X170515753Y-97487142D01*
X170463390Y-97338477D01*
X170407999Y-97181324D01*
X170349919Y-97016654D01*
X170289492Y-96845435D01*
X170227059Y-96668637D01*
X170197193Y-96584101D01*
X170133711Y-96404435D01*
X170071923Y-96229556D01*
X170012181Y-96060460D01*
X169954837Y-95898144D01*
X169900243Y-95743603D01*
X169848750Y-95597832D01*
X169800710Y-95461828D01*
X169756474Y-95336585D01*
X169716394Y-95223100D01*
X169680822Y-95122367D01*
X169650109Y-95035384D01*
X169624608Y-94963145D01*
X169604669Y-94906646D01*
X169590644Y-94866883D01*
X169582886Y-94844851D01*
X169581558Y-94841060D01*
X169566553Y-94797880D01*
X168693748Y-94797880D01*
X168528755Y-94797957D01*
%TD*%
M02*
