%TF.GenerationSoftware,KiCad,Pcbnew,(5.1.10)-1*%
%TF.CreationDate,2022-01-24T18:42:49+01:00*%
%TF.ProjectId,BMS_LV_2022,424d535f-4c56-45f3-9230-32322e6b6963,rev?*%
%TF.SameCoordinates,Original*%
%TF.FileFunction,Copper,L2,Inr*%
%TF.FilePolarity,Positive*%
%FSLAX46Y46*%
G04 Gerber Fmt 4.6, Leading zero omitted, Abs format (unit mm)*
G04 Created by KiCad (PCBNEW (5.1.10)-1) date 2022-01-24 18:42:49*
%MOMM*%
%LPD*%
G01*
G04 APERTURE LIST*
%TA.AperFunction,ComponentPad*%
%ADD10C,1.250000*%
%TD*%
%TA.AperFunction,ComponentPad*%
%ADD11C,2.250000*%
%TD*%
%TA.AperFunction,ComponentPad*%
%ADD12C,2.400000*%
%TD*%
%TA.AperFunction,ComponentPad*%
%ADD13O,1.700000X1.950000*%
%TD*%
%TA.AperFunction,ComponentPad*%
%ADD14O,1.950000X1.700000*%
%TD*%
%TA.AperFunction,ComponentPad*%
%ADD15C,0.600000*%
%TD*%
%TA.AperFunction,ComponentPad*%
%ADD16O,1.700000X1.700000*%
%TD*%
%TA.AperFunction,ComponentPad*%
%ADD17R,1.700000X1.700000*%
%TD*%
%TA.AperFunction,ViaPad*%
%ADD18C,0.500000*%
%TD*%
%TA.AperFunction,ViaPad*%
%ADD19C,0.800000*%
%TD*%
%TA.AperFunction,Conductor*%
%ADD20C,1.000000*%
%TD*%
%TA.AperFunction,Conductor*%
%ADD21C,0.254000*%
%TD*%
%TA.AperFunction,Conductor*%
%ADD22C,0.381000*%
%TD*%
%TA.AperFunction,Conductor*%
%ADD23C,0.100000*%
%TD*%
G04 APERTURE END LIST*
D10*
%TO.N,Net-(J2-Pad8)*%
%TO.C,J2*%
X120231046Y-97067655D03*
%TO.N,/VCC_Pin*%
X119581625Y-100923463D03*
%TO.N,VCC*%
X120481682Y-103996441D03*
%TO.N,Net-(J2-Pad5)*%
X129384344Y-105566221D03*
%TO.N,Net-(J2-Pad4)*%
X131281142Y-102986403D03*
%TO.N,/CANL*%
X131854181Y-99736537D03*
%TO.N,/CANH*%
X130954124Y-96663559D03*
%TO.N,Net-(J2-Pad1)*%
X128374306Y-94766761D03*
D11*
%TO.N,GND*%
X124132609Y-105980561D03*
X127953248Y-99515794D03*
%TO.N,/V_Out*%
X124257906Y-94731419D03*
X123482558Y-101144206D03*
%TD*%
D12*
%TO.N,Net-(F2-Pad2)*%
%TO.C,F2*%
X126344903Y-82198000D03*
%TO.N,/CS_IP+*%
X139814903Y-82198000D03*
%TO.N,Net-(F2-Pad2)*%
X126344903Y-85598000D03*
%TO.N,/CS_IP+*%
X139814903Y-85598000D03*
%TD*%
D13*
%TO.N,GND*%
%TO.C,J6*%
X170729903Y-120904000D03*
%TO.N,/Therm_8*%
X168229903Y-120904000D03*
%TO.N,/Therm_7*%
X165729903Y-120904000D03*
%TO.N,/Therm_6*%
X163229903Y-120904000D03*
%TO.N,/Therm_5*%
X160729903Y-120904000D03*
%TO.N,/Therm_4*%
X158229903Y-120904000D03*
%TO.N,/Therm_3*%
X155729903Y-120904000D03*
%TO.N,/Therm_2*%
X153229903Y-120904000D03*
%TO.N,/Therm_1*%
%TA.AperFunction,ComponentPad*%
G36*
G01*
X149879903Y-121629000D02*
X149879903Y-120179000D01*
G75*
G02*
X150129903Y-119929000I250000J0D01*
G01*
X151329903Y-119929000D01*
G75*
G02*
X151579903Y-120179000I0J-250000D01*
G01*
X151579903Y-121629000D01*
G75*
G02*
X151329903Y-121879000I-250000J0D01*
G01*
X150129903Y-121879000D01*
G75*
G02*
X149879903Y-121629000I0J250000D01*
G01*
G37*
%TD.AperFunction*%
%TD*%
D14*
%TO.N,GND*%
%TO.C,J11*%
X195313903Y-93966000D03*
%TO.N,/LTC6810/CellBalance6*%
X195313903Y-96466000D03*
%TO.N,/LTC6810/CellBalance5*%
X195313903Y-98966000D03*
%TO.N,/LTC6810/CellBalance4*%
X195313903Y-101466000D03*
%TO.N,/LTC6810/CellBalance3*%
X195313903Y-103966000D03*
%TO.N,/LTC6810/CellBalance2*%
X195313903Y-106466000D03*
%TO.N,+BATT*%
%TA.AperFunction,ComponentPad*%
G36*
G01*
X196038903Y-109816000D02*
X194588903Y-109816000D01*
G75*
G02*
X194338903Y-109566000I0J250000D01*
G01*
X194338903Y-108366000D01*
G75*
G02*
X194588903Y-108116000I250000J0D01*
G01*
X196038903Y-108116000D01*
G75*
G02*
X196288903Y-108366000I0J-250000D01*
G01*
X196288903Y-109566000D01*
G75*
G02*
X196038903Y-109816000I-250000J0D01*
G01*
G37*
%TD.AperFunction*%
%TD*%
D15*
%TO.N,GND*%
%TO.C,U3*%
X127792000Y-118902000D03*
X127792000Y-117602000D03*
X126492000Y-117602000D03*
X126492000Y-118902000D03*
X127792000Y-115002000D03*
X127792000Y-116302000D03*
X126492000Y-116302000D03*
X126492000Y-115002000D03*
%TD*%
D16*
%TO.N,Net-(JP2-Pad2)*%
%TO.C,JP2*%
X144767903Y-84644897D03*
D17*
%TO.N,/CANH*%
X144767903Y-87184897D03*
%TD*%
D16*
%TO.N,Net-(J1-Pad6)*%
%TO.C,J1*%
X147815903Y-90932000D03*
%TO.N,/NRST*%
X150355903Y-90932000D03*
%TO.N,/SW-DIO*%
X152895903Y-90932000D03*
%TO.N,GND*%
X155435903Y-90932000D03*
%TO.N,/SW-CLK*%
X157975903Y-90932000D03*
D17*
%TO.N,+3V3*%
X160515903Y-90932000D03*
%TD*%
D18*
%TO.N,/NRST*%
X147492902Y-101415001D03*
D19*
%TO.N,GND*%
X124701903Y-120142000D03*
X124701903Y-121158000D03*
X125717903Y-122174000D03*
X123685903Y-121158000D03*
X123685903Y-122174000D03*
X125717903Y-120142000D03*
X125717903Y-121158000D03*
X124701903Y-122174000D03*
X122669903Y-120142000D03*
X123685903Y-120142000D03*
X122669903Y-121158000D03*
X122669903Y-122174000D03*
X121653903Y-122174000D03*
X126733903Y-123190000D03*
X120637903Y-121158000D03*
X121653903Y-120142000D03*
X122669903Y-123190000D03*
X120637903Y-120142000D03*
X121653903Y-123190000D03*
X126733903Y-122174000D03*
X121653903Y-121158000D03*
X126733903Y-121158000D03*
X126733903Y-120142000D03*
X120637903Y-123190000D03*
X124701903Y-123190000D03*
X125717903Y-123190000D03*
X123685903Y-123190000D03*
X120637903Y-122174000D03*
X117589903Y-120142000D03*
X117589903Y-121158000D03*
X118605903Y-122174000D03*
X116573903Y-121158000D03*
X116573903Y-122174000D03*
X118605903Y-120142000D03*
X118605903Y-121158000D03*
X117589903Y-122174000D03*
X115557903Y-120142000D03*
X116573903Y-120142000D03*
X115557903Y-121158000D03*
X115557903Y-122174000D03*
X114541903Y-122174000D03*
X119621903Y-123190000D03*
X113525903Y-121158000D03*
X114541903Y-120142000D03*
X115557903Y-123190000D03*
X113525903Y-120142000D03*
X114541903Y-123190000D03*
X119621903Y-122174000D03*
X114541903Y-121158000D03*
X119621903Y-121158000D03*
X119621903Y-120142000D03*
X113525903Y-123190000D03*
X117589903Y-123190000D03*
X118605903Y-123190000D03*
X116573903Y-123190000D03*
X113525903Y-122174000D03*
X112509903Y-122174000D03*
X112509903Y-123190000D03*
X112509903Y-120142000D03*
X112509903Y-121158000D03*
X115557903Y-113538000D03*
X116573903Y-113538000D03*
X116573903Y-114554000D03*
X115557903Y-114554000D03*
X115557903Y-115570000D03*
X116573903Y-115570000D03*
X116573903Y-116586000D03*
X115557903Y-116586000D03*
X114541903Y-116586000D03*
X114541903Y-115570000D03*
X114541903Y-114554000D03*
X114541903Y-113538000D03*
X113525903Y-113538000D03*
X113525903Y-114554000D03*
X113525903Y-115570000D03*
X113525903Y-116586000D03*
X112509903Y-116586000D03*
X112509903Y-115570000D03*
X112509903Y-114554000D03*
X112509903Y-113538000D03*
X112509903Y-112522000D03*
X113525903Y-112522000D03*
X114541903Y-112522000D03*
X115557903Y-112522000D03*
X116573903Y-112522000D03*
X117589903Y-112522000D03*
X117589903Y-113538000D03*
X117589903Y-114554000D03*
X117589903Y-115570000D03*
X117589903Y-116586000D03*
X117589903Y-117602000D03*
X116573903Y-117602000D03*
X115557903Y-117602000D03*
X114541903Y-117602000D03*
X113525903Y-117602000D03*
X112509903Y-117602000D03*
X111493903Y-117602000D03*
X111493903Y-116586000D03*
X111493903Y-115570000D03*
X111493903Y-114554000D03*
X111493903Y-113538000D03*
X111493903Y-112522000D03*
X151879903Y-112389589D03*
X141465903Y-109728000D03*
X144005303Y-112521400D03*
X139332303Y-98679000D03*
X139306903Y-99745800D03*
X157467903Y-100610000D03*
X156197903Y-82104897D03*
X156197903Y-86784000D03*
X154724703Y-86784000D03*
X145047903Y-94996000D03*
X148577903Y-118237000D03*
X147307903Y-117348000D03*
X148323903Y-116205000D03*
X111493903Y-104394000D03*
X112509903Y-104394000D03*
X113525903Y-104394000D03*
X114541903Y-104394000D03*
X115557903Y-104394000D03*
X116573903Y-104394000D03*
X111493903Y-105410000D03*
X112509903Y-105410000D03*
X113525903Y-105410000D03*
X114541903Y-105410000D03*
X115557903Y-105410000D03*
X116573903Y-105410000D03*
X111493903Y-106426000D03*
X112509903Y-106426000D03*
X113525903Y-106426000D03*
X114541903Y-106426000D03*
X115557903Y-106426000D03*
X116573903Y-106426000D03*
X117589903Y-106426000D03*
X111493903Y-107442000D03*
X112509903Y-107442000D03*
X113525903Y-107442000D03*
X114541903Y-107442000D03*
X115557903Y-107442000D03*
X116573903Y-107442000D03*
X117589903Y-107442000D03*
X118605903Y-107442000D03*
X111493903Y-108458000D03*
X112509903Y-108458000D03*
X113525903Y-108458000D03*
X114541903Y-108458000D03*
X115557903Y-108458000D03*
X116573903Y-108458000D03*
X117589903Y-108458000D03*
X118605903Y-108458000D03*
X119621903Y-108458000D03*
X111493903Y-109474000D03*
X111493903Y-110490000D03*
X111493903Y-111506000D03*
X112509903Y-111506000D03*
X112509903Y-110490000D03*
X112509903Y-109474000D03*
X113525903Y-110490000D03*
X113525903Y-111506000D03*
X113525903Y-109474000D03*
X114541903Y-109474000D03*
X114541903Y-110490000D03*
X114541903Y-111506000D03*
X115557903Y-111506000D03*
X115557903Y-110490000D03*
X115557903Y-109474000D03*
X116573903Y-109474000D03*
X116573903Y-110490000D03*
X116573903Y-111506000D03*
X117589903Y-111506000D03*
X117589903Y-110490000D03*
X117589903Y-109474000D03*
X118605903Y-109474000D03*
X119621903Y-109474000D03*
X116573903Y-103378000D03*
X115557903Y-103378000D03*
X129781903Y-110998000D03*
X130754452Y-111041451D03*
X133160703Y-118110000D03*
D18*
X144517335Y-89690247D03*
D19*
X161658903Y-94538800D03*
D18*
X139687903Y-105137800D03*
D19*
X132967903Y-98330000D03*
X197345903Y-94234000D03*
X198615903Y-94234000D03*
X197345903Y-93218000D03*
X198615903Y-93218000D03*
X197345903Y-92202000D03*
X196075903Y-92202000D03*
X194805903Y-92202000D03*
X198615903Y-92202000D03*
X194805903Y-91186000D03*
X196075903Y-91186000D03*
X197345903Y-91186000D03*
X198615903Y-91186000D03*
X198615903Y-89916000D03*
X198615903Y-88646000D03*
X198107903Y-87630000D03*
X169913903Y-97790000D03*
X169987003Y-100256900D03*
X166744970Y-109099067D03*
X170929903Y-113284000D03*
X169228103Y-91440000D03*
X170701303Y-91440000D03*
X173622906Y-91440000D03*
X176644903Y-93121480D03*
X176806903Y-97790000D03*
X176644903Y-107696000D03*
X159118903Y-100457000D03*
D18*
X163563903Y-101854000D03*
D19*
X163919503Y-93218000D03*
X142497721Y-123967818D03*
X160261903Y-86106000D03*
X160261903Y-87122000D03*
X161277903Y-88138000D03*
X168389903Y-89154000D03*
X170675903Y-87630000D03*
X169405903Y-87630000D03*
X168389903Y-88138000D03*
X170675903Y-86614000D03*
X169405903Y-86614000D03*
X168389903Y-87122000D03*
X168643903Y-85852000D03*
X166357903Y-110236000D03*
X165595903Y-111633000D03*
X166484903Y-112649000D03*
X174993903Y-108966000D03*
X171183903Y-101346000D03*
X172199903Y-102362000D03*
X168389903Y-96520000D03*
X146952303Y-122809000D03*
D18*
X173876303Y-113284004D03*
D19*
X150990903Y-118745000D03*
X154038903Y-118618000D03*
X157213903Y-118618000D03*
X160642903Y-117729000D03*
X163690903Y-117856000D03*
X166738903Y-117983000D03*
X169913903Y-117602000D03*
X172961903Y-117856000D03*
X111493903Y-120142000D03*
X111493903Y-121158000D03*
X111493903Y-122174000D03*
X111493903Y-123190000D03*
X132245703Y-89014300D03*
X126987903Y-104140000D03*
X128257903Y-104140000D03*
X128257903Y-102870000D03*
X126987903Y-102870000D03*
X126987903Y-101600000D03*
X128257903Y-101600000D03*
X129527903Y-101600000D03*
X129527903Y-102870000D03*
X129527903Y-104140000D03*
X129527903Y-100330000D03*
X129527903Y-98425000D03*
X130797903Y-98425000D03*
X130797903Y-101600000D03*
X132067903Y-101600000D03*
X114541903Y-103378000D03*
X113525903Y-103378000D03*
X112509903Y-103378000D03*
X111493903Y-103378000D03*
X111493903Y-102362000D03*
X111493903Y-101346000D03*
X111493903Y-100330000D03*
X111493903Y-99314000D03*
X111493903Y-98298000D03*
X111493903Y-97282000D03*
X112509903Y-102362000D03*
X112509903Y-101346000D03*
X112509903Y-100330000D03*
X112509903Y-99314000D03*
X112509903Y-98298000D03*
X112509903Y-97282000D03*
X113525903Y-97282000D03*
X113525903Y-98298000D03*
X113525903Y-99314000D03*
X113525903Y-100330000D03*
X113525903Y-101346000D03*
X113525903Y-102362000D03*
X114541903Y-102362000D03*
X114541903Y-101346000D03*
X114541903Y-100330000D03*
X114541903Y-99314000D03*
X114541903Y-98298000D03*
X114541903Y-97282000D03*
X115557903Y-97282000D03*
X115557903Y-98298000D03*
X115557903Y-99314000D03*
X115557903Y-100330000D03*
X115557903Y-101346000D03*
X115557903Y-102362000D03*
X116573903Y-102362000D03*
X116573903Y-101346000D03*
X116573903Y-100330000D03*
X116573903Y-99314000D03*
X116573903Y-98298000D03*
X116573903Y-97282000D03*
X143238794Y-93953146D03*
%TO.N,+3V3*%
X150088600Y-117729000D03*
X153187400Y-117729000D03*
X156260800Y-117729000D03*
X159334200Y-117729000D03*
X162407600Y-117729000D03*
X165481000Y-117729000D03*
X153683903Y-112389589D03*
X139941903Y-109728000D03*
X145555303Y-112522000D03*
X143370903Y-97739200D03*
X142354903Y-97180400D03*
X157264703Y-98450400D03*
X152422893Y-93549200D03*
X168542303Y-117729000D03*
X171564903Y-117729000D03*
X148323903Y-120142000D03*
X163055903Y-110363000D03*
X164071903Y-110363000D03*
D18*
X162903503Y-109423200D03*
X164071903Y-111379000D03*
X163055903Y-111379000D03*
%TO.N,Net-(C13-Pad1)*%
X157722506Y-103504397D03*
X172453903Y-107696000D03*
%TO.N,Net-(C14-Pad1)*%
X157975903Y-104914097D03*
X176771903Y-105582097D03*
%TO.N,/Therm_1*%
X148577903Y-114808000D03*
X144894903Y-107823000D03*
%TO.N,/Therm_5*%
X162420903Y-114046000D03*
X148586944Y-112258959D03*
%TO.N,/Therm_6*%
X165468903Y-114046000D03*
X148595985Y-111487918D03*
D19*
%TO.N,VCC*%
X123685903Y-108458000D03*
X125209903Y-108458000D03*
X122161903Y-109728000D03*
X125209903Y-109728000D03*
%TO.N,+5VD*%
X141211903Y-123698000D03*
X162293903Y-86868000D03*
%TO.N,+5V*%
X137655903Y-109982000D03*
X137655903Y-108966000D03*
X136385903Y-108966000D03*
X135115903Y-108966000D03*
X136385903Y-109982000D03*
X135115903Y-109982000D03*
X157721903Y-87884000D03*
D18*
X142608905Y-90932000D03*
%TO.N,/eFuse/Gate*%
X117818503Y-80746600D03*
X117081903Y-84302600D03*
X120002903Y-83820000D03*
X119291705Y-87426800D03*
X123203303Y-91160600D03*
%TO.N,/CANH*%
X137909903Y-96266000D03*
%TO.N,/CANL*%
X149593903Y-84912200D03*
X137909903Y-97790000D03*
D19*
%TO.N,Net-(D6-Pad1)*%
X194932903Y-118745000D03*
X194932903Y-120015000D03*
X194932903Y-121285000D03*
X194932903Y-122555000D03*
X193662903Y-121285000D03*
X193662903Y-120015000D03*
X194932903Y-117475000D03*
X194932903Y-116205000D03*
X194932903Y-114935000D03*
X194932903Y-113665000D03*
X194932903Y-112395000D03*
X193662903Y-113665000D03*
X193662903Y-114935000D03*
X193662903Y-116205000D03*
X193662903Y-117475000D03*
X193662903Y-118745000D03*
D18*
%TO.N,/LTC6810/Balance1/Sx*%
X190487903Y-116840000D03*
X172326903Y-122047000D03*
X177406903Y-104648000D03*
D19*
%TO.N,Net-(D8-Pad1)*%
X180327903Y-114935000D03*
X180327903Y-117475000D03*
X180327903Y-118745000D03*
X180327903Y-120015000D03*
X180327903Y-121285000D03*
X179057903Y-121285000D03*
X179057903Y-120015000D03*
X179057903Y-118745000D03*
X179057903Y-117475000D03*
X179057903Y-114935000D03*
X177787903Y-114935000D03*
X176644903Y-122809000D03*
X176644903Y-123825000D03*
D18*
%TO.N,/LTC6810/Balance2/Sx*%
X178041903Y-104005097D03*
X176165338Y-116846318D03*
D19*
%TO.N,Net-(D10-Pad1)*%
X184899903Y-103632000D03*
X186169903Y-103632000D03*
X186169903Y-104902000D03*
X186169903Y-106172000D03*
X186169903Y-107442000D03*
X186169903Y-108712000D03*
X186169903Y-109982000D03*
X184899903Y-104902000D03*
X184899903Y-106172000D03*
X184899903Y-107442000D03*
X184899903Y-108712000D03*
X184899903Y-109982000D03*
X179819903Y-110998000D03*
X182105903Y-110998000D03*
D18*
%TO.N,/LTC6810/Balance3/Sx*%
X181597903Y-105410000D03*
X179819903Y-103005097D03*
D19*
%TO.N,Net-(D12-Pad1)*%
X186169903Y-92710000D03*
X184899903Y-92710000D03*
X184899903Y-93980000D03*
X186169903Y-93980000D03*
X186169903Y-95250000D03*
X186169903Y-96520000D03*
X186169903Y-97790000D03*
X186169903Y-99060000D03*
X184899903Y-99060000D03*
X184899903Y-97790000D03*
X184899903Y-96520000D03*
X184899903Y-95250000D03*
X179819903Y-100330000D03*
X182105903Y-100330000D03*
D18*
%TO.N,/LTC6810/Balance4/Sx*%
X181851903Y-93726000D03*
X178295903Y-102005097D03*
D19*
%TO.N,Net-(D14-Pad1)*%
X179311903Y-83058000D03*
X179311903Y-84328000D03*
X179311903Y-89408000D03*
X179311903Y-88138000D03*
X179311903Y-86868000D03*
X179311903Y-85598000D03*
X178295903Y-83058000D03*
X178295903Y-84328000D03*
X178295903Y-85598000D03*
X178295903Y-86868000D03*
X178295903Y-88138000D03*
X178295903Y-89408000D03*
D18*
%TO.N,/LTC6810/Balance5/Sx*%
X182359903Y-88392000D03*
X177533903Y-101005097D03*
D19*
%TO.N,Net-(D16-Pad1)*%
X192773903Y-83058000D03*
X193789903Y-83058000D03*
X192773903Y-84328000D03*
X193789903Y-84328000D03*
X193789903Y-85598000D03*
X192773903Y-85598000D03*
X192773903Y-86868000D03*
X192773903Y-88138000D03*
X193789903Y-86868000D03*
X193789903Y-88138000D03*
X193789903Y-89408000D03*
X196583903Y-81534000D03*
X198869903Y-81534000D03*
D18*
%TO.N,/LTC6810/Balance6/Sx*%
X196795303Y-88349400D03*
X178295903Y-100005097D03*
D19*
%TO.N,+24V*%
X117462903Y-92710000D03*
X117462903Y-91440000D03*
X117462903Y-90170000D03*
X117462903Y-88900000D03*
X116192903Y-93980000D03*
X114922903Y-93980000D03*
X114922903Y-92710000D03*
X116192903Y-92710000D03*
X116192903Y-91440000D03*
X114922903Y-91440000D03*
X114922903Y-90170000D03*
X116192903Y-90170000D03*
X116192903Y-88900000D03*
X114922903Y-88900000D03*
X113652903Y-88900000D03*
X113652903Y-90170000D03*
X113652903Y-91440000D03*
X113652903Y-92710000D03*
X113652903Y-93980000D03*
X112382903Y-93980000D03*
X112382903Y-92710000D03*
X112382903Y-91440000D03*
X112382903Y-90170000D03*
X112382903Y-88900000D03*
X111112903Y-93980000D03*
X111112903Y-92710000D03*
X111112903Y-91440000D03*
X111112903Y-90170000D03*
X111112903Y-88900000D03*
X111112903Y-81280000D03*
X112382903Y-81280000D03*
X113652903Y-81280000D03*
X113652903Y-82550000D03*
X112382903Y-82550000D03*
X111112903Y-82550000D03*
X111112903Y-83820000D03*
X111112903Y-85090000D03*
X111112903Y-86360000D03*
X112382903Y-83820000D03*
X112382903Y-85090000D03*
X112382903Y-86360000D03*
X113652903Y-83820000D03*
X113652903Y-85090000D03*
X113652903Y-86360000D03*
X111112903Y-87630000D03*
X112382903Y-87630000D03*
X113652903Y-87630000D03*
X117462903Y-93980000D03*
%TO.N,Net-(F2-Pad2)*%
X131432903Y-81280000D03*
X130162903Y-81280000D03*
X128892903Y-81280000D03*
X128892903Y-82550000D03*
X130162903Y-82550000D03*
X131432903Y-82550000D03*
X131432903Y-83820000D03*
X130162903Y-83820000D03*
X128892903Y-83820000D03*
X128892903Y-85090000D03*
X130162903Y-85090000D03*
X131432903Y-85090000D03*
X128892903Y-86360000D03*
X130162903Y-86360000D03*
X131432903Y-86360000D03*
X123812903Y-81280000D03*
X123812903Y-82550000D03*
X123812903Y-83820000D03*
X123812903Y-85090000D03*
X123812903Y-86360000D03*
X125082903Y-83820000D03*
%TO.N,/CS_IP+*%
X133337903Y-81280000D03*
X134607903Y-81280000D03*
X135877903Y-81280000D03*
X137147903Y-81280000D03*
X137147903Y-82550000D03*
X137147903Y-83820000D03*
X137147903Y-85090000D03*
X137147903Y-86360000D03*
X133337903Y-82550000D03*
X133337903Y-83820000D03*
X133337903Y-85090000D03*
X133337903Y-86360000D03*
X135877903Y-86360000D03*
X134607903Y-86360000D03*
X134607903Y-85090000D03*
X134607903Y-83820000D03*
X134607903Y-82550000D03*
X135877903Y-82550000D03*
X135877903Y-83820000D03*
X135877903Y-85090000D03*
X133337903Y-87630000D03*
X134607903Y-87630000D03*
X135877903Y-87630000D03*
X137147903Y-87630000D03*
X138417903Y-87630000D03*
X139687903Y-87630000D03*
X140957903Y-87630000D03*
X141592903Y-83820000D03*
X138417903Y-83820000D03*
X141592903Y-81280000D03*
D18*
%TO.N,/SW-DIO*%
X152641903Y-101346000D03*
%TO.N,/SW-CLK*%
X151668257Y-96731647D03*
%TO.N,/USB-DP*%
X135115903Y-105714800D03*
X156197903Y-102108000D03*
X166288902Y-90608999D03*
%TO.N,/USB-DM*%
X135115903Y-107188000D03*
X156197903Y-103124000D03*
X165087903Y-91186000D03*
%TO.N,/Interlock*%
X131051903Y-108458000D03*
X149593903Y-112776000D03*
D19*
%TO.N,/V_Out*%
X131813903Y-92964000D03*
X132829903Y-92202000D03*
X132829903Y-93980000D03*
X130543903Y-93218000D03*
X131305903Y-94107000D03*
X129654903Y-92202000D03*
X121907903Y-99822000D03*
X122161903Y-98552000D03*
X122415903Y-97282000D03*
X122669903Y-96012000D03*
X123431903Y-99314000D03*
X123685903Y-98044000D03*
X123939903Y-96774000D03*
X124701903Y-99822000D03*
X124955903Y-98552000D03*
X125209903Y-97282000D03*
X125717903Y-100330000D03*
X126225903Y-98298000D03*
X126987903Y-97282000D03*
X128257903Y-96774000D03*
X126987903Y-96266000D03*
X125717903Y-96266000D03*
X126479903Y-94996000D03*
X125971903Y-93726000D03*
X127241903Y-93726000D03*
X123939903Y-92964000D03*
X125209903Y-92710000D03*
X126479903Y-92456000D03*
X128003903Y-92202000D03*
X128511903Y-93218000D03*
X129527903Y-93726000D03*
X130035903Y-94996000D03*
D18*
%TO.N,/MOSI*%
X171691903Y-104140000D03*
X159499903Y-96520000D03*
%TO.N,/MISO*%
X170675903Y-104140000D03*
X159499903Y-97282000D03*
%TO.N,/SCK*%
X166762952Y-105053049D03*
X159499903Y-98044000D03*
%TO.N,/CS*%
X166746806Y-104005097D03*
X159499903Y-98806000D03*
%TO.N,/Switch_Signal*%
X144513903Y-104394000D03*
D19*
X132321903Y-90487500D03*
D18*
%TO.N,/CAN-TX*%
X151371903Y-88846200D03*
X146037903Y-99822000D03*
%TO.N,/CAN-RX*%
X146799903Y-100838000D03*
X151117903Y-85598000D03*
%TO.N,/CurrentSensor_Out*%
X145529903Y-102870000D03*
X142672403Y-92138500D03*
D19*
%TO.N,/LTC6810/CellBalance2*%
X182232903Y-114935000D03*
X183502903Y-114935000D03*
X182232903Y-116205000D03*
X182232903Y-117475000D03*
X183502903Y-118745000D03*
X182232903Y-118745000D03*
X182232903Y-120015000D03*
X182232903Y-121285000D03*
X184772903Y-114935000D03*
X186042903Y-114935000D03*
X187312903Y-114935000D03*
X188582903Y-114935000D03*
X188582903Y-113665000D03*
X189852903Y-112395000D03*
X189852903Y-113665000D03*
X189852903Y-114935000D03*
X191122903Y-113665000D03*
X191122903Y-112395000D03*
X191122903Y-111125000D03*
X186042903Y-116205000D03*
X187312903Y-116205000D03*
X188582903Y-116205000D03*
X186042903Y-117475000D03*
X187312903Y-117475000D03*
X187312903Y-118745000D03*
X186042903Y-118745000D03*
X186042903Y-120015000D03*
X187312903Y-120015000D03*
X187312903Y-121285000D03*
X186042903Y-121285000D03*
X186042903Y-122809000D03*
X187312903Y-122809000D03*
X187312903Y-123825000D03*
X186042903Y-123825000D03*
X192392903Y-111125000D03*
X192392903Y-112395000D03*
X192392903Y-107315000D03*
X192392903Y-106045000D03*
X193662903Y-106045000D03*
X193662903Y-107315000D03*
X197345903Y-107188000D03*
X198615903Y-107188000D03*
X197345903Y-106172000D03*
X198615903Y-106172000D03*
D18*
X174739903Y-113538000D03*
D19*
%TO.N,/LTC6810/CellBalance3*%
X187439903Y-103632000D03*
X188455903Y-103632000D03*
X187439903Y-104902000D03*
X188455903Y-104902000D03*
X187439903Y-106172000D03*
X187439903Y-107442000D03*
X187439903Y-108712000D03*
X187439903Y-109982000D03*
X188455903Y-106172000D03*
X188455903Y-107442000D03*
X188455903Y-108712000D03*
X190995903Y-103632000D03*
X190995903Y-104648000D03*
X190995903Y-105664000D03*
X192265903Y-103632000D03*
X192265903Y-104648000D03*
X193535903Y-103632000D03*
X193535903Y-104648000D03*
X197345903Y-104648000D03*
X198615903Y-104648000D03*
X197345903Y-103632000D03*
X198615903Y-103632000D03*
%TO.N,/LTC6810/CellBalance4*%
X187439903Y-92710000D03*
X188455903Y-92710000D03*
X187439903Y-93980000D03*
X188455903Y-93980000D03*
X187439903Y-95250000D03*
X188455903Y-95250000D03*
X187439903Y-96520000D03*
X188455903Y-96520000D03*
X187439903Y-97790000D03*
X188455903Y-97790000D03*
X187439903Y-98806000D03*
X188455903Y-98806000D03*
X190995903Y-97282000D03*
X190995903Y-98552000D03*
X190995903Y-99822000D03*
X190995903Y-101092000D03*
X192265903Y-98552000D03*
X192265903Y-99822000D03*
X192265903Y-101092000D03*
X193535903Y-99822000D03*
X193535903Y-101092000D03*
X197345903Y-102108000D03*
X198615903Y-102108000D03*
X198615903Y-101092000D03*
X197345903Y-101092000D03*
X187552196Y-101741707D03*
X188709903Y-101854000D03*
X189979903Y-101854000D03*
X176644903Y-109093000D03*
X169507503Y-113131602D03*
%TO.N,/LTC6810/CellBalance5*%
X177025903Y-83058000D03*
X176009903Y-83058000D03*
X176009903Y-84328000D03*
X176009903Y-85598000D03*
X176009903Y-86868000D03*
X176009903Y-88138000D03*
X176009903Y-89408000D03*
X177025903Y-89408000D03*
X177025903Y-88138000D03*
X177025903Y-86868000D03*
X177025903Y-85598000D03*
X177025903Y-84328000D03*
X176009903Y-90678000D03*
X177279903Y-90678000D03*
X178549903Y-90678000D03*
X180073903Y-93980000D03*
X180073903Y-92710000D03*
X180653490Y-90860413D03*
X181923490Y-90860413D03*
X183193490Y-90860413D03*
X184463490Y-90860413D03*
X185733490Y-90860413D03*
X187003490Y-90860413D03*
X188273490Y-90860413D03*
X191085393Y-93128510D03*
X191085393Y-94652510D03*
X191973604Y-95796299D03*
X193116604Y-96939299D03*
X197345903Y-99568000D03*
X198615903Y-99568000D03*
X197345903Y-98552000D03*
X198615903Y-98552000D03*
X167759983Y-91440000D03*
%TO.N,/LTC6810/CellBalance6*%
X197345903Y-97028000D03*
X198615903Y-97028000D03*
X197345903Y-96012000D03*
X198615903Y-96012000D03*
X185153903Y-82550000D03*
X185153903Y-83820000D03*
X185153903Y-85090000D03*
X185153903Y-86360000D03*
X185153903Y-87630000D03*
X187693903Y-87630000D03*
X186423903Y-87630000D03*
X186423903Y-86360000D03*
X186423903Y-85090000D03*
X186423903Y-83820000D03*
X186423903Y-82550000D03*
X187693903Y-82550000D03*
X187693903Y-83820000D03*
X187693903Y-85090000D03*
X187693903Y-86360000D03*
X191503903Y-83058000D03*
X190487903Y-83058000D03*
X190487903Y-84328000D03*
X191503903Y-84328000D03*
X191503903Y-85598000D03*
X190487903Y-85598000D03*
X190487903Y-86868000D03*
X191503903Y-86868000D03*
X191503903Y-88138000D03*
X190487903Y-88138000D03*
X190995903Y-89154000D03*
X191910303Y-89992200D03*
X193281903Y-93726000D03*
X193789903Y-94996000D03*
%TO.N,+BATT*%
X198742903Y-108585000D03*
X197472903Y-108585000D03*
X197472903Y-109855000D03*
X198742903Y-109855000D03*
X198742903Y-111125000D03*
X197472903Y-111125000D03*
X197472903Y-112395000D03*
X198742903Y-112395000D03*
X198742903Y-113665000D03*
X197472903Y-113665000D03*
X197472903Y-114935000D03*
X197472903Y-116205000D03*
X197472903Y-117475000D03*
X196202903Y-118745000D03*
X197472903Y-118745000D03*
X196202903Y-120015000D03*
X197472903Y-120015000D03*
X197472903Y-121285000D03*
X196202903Y-121285000D03*
X196202903Y-122555000D03*
X196202903Y-117475000D03*
X196202903Y-116205000D03*
X196202903Y-114935000D03*
X196202903Y-113665000D03*
X196202903Y-112395000D03*
X196202903Y-111125000D03*
X160515903Y-106426000D03*
X161531903Y-106426000D03*
X162547903Y-106426000D03*
D18*
%TO.N,Net-(J2-Pad8)*%
X127241903Y-106934000D03*
%TO.N,/Therm_7*%
X167881903Y-113792000D03*
X149212903Y-110954400D03*
%TO.N,/Therm_8*%
X172199903Y-113792000D03*
X149085903Y-107950000D03*
%TO.N,/VoltageFuseMeasure*%
X144640903Y-94043500D03*
X151340000Y-104394000D03*
%TD*%
D20*
%TO.N,+5VD*%
X142989903Y-115570000D02*
X142989903Y-121920000D01*
X162293903Y-86868000D02*
X162293903Y-83566000D01*
X162293903Y-83566000D02*
X159721605Y-80993702D01*
X142989903Y-121920000D02*
X141211903Y-123698000D01*
X134353903Y-102362000D02*
X133083903Y-103632000D01*
X159721605Y-80993702D02*
X145304201Y-80993702D01*
X145304201Y-80993702D02*
X142717903Y-83580000D01*
X142717903Y-83580000D02*
X142717903Y-88330000D01*
X141719903Y-114300000D02*
X142989903Y-115570000D01*
X142717903Y-88330000D02*
X141983902Y-89064001D01*
X133083903Y-103632000D02*
X133083903Y-110998000D01*
X141983902Y-89064001D02*
X140285902Y-89064001D01*
X140285902Y-89064001D02*
X134353903Y-94996000D01*
X134353903Y-94996000D02*
X134353903Y-102362000D01*
X136385903Y-114300000D02*
X141719903Y-114300000D01*
X133083903Y-110998000D02*
X136385903Y-114300000D01*
%TO.N,+5V*%
X140756068Y-90879835D02*
X145574066Y-90879835D01*
X136385903Y-108966000D02*
X136385903Y-95250000D01*
X136385903Y-95250000D02*
X140756068Y-90879835D01*
X145574066Y-90879835D02*
X148569901Y-87884000D01*
X148569901Y-87884000D02*
X157721903Y-87884000D01*
D21*
%TO.N,/LTC6810/Balance1/Sx*%
X190487903Y-119185962D02*
X187626865Y-122047000D01*
X190487903Y-116840000D02*
X190487903Y-119185962D01*
X187626865Y-122047000D02*
X172326903Y-122047000D01*
%TO.N,/LTC6810/Balance4/Sx*%
X179092902Y-96485001D02*
X181851903Y-93726000D01*
X179092902Y-101208098D02*
X179092902Y-96485001D01*
X178295903Y-102005097D02*
X179092902Y-101208098D01*
%TO.N,/LTC6810/Balance5/Sx*%
X182006350Y-88392000D02*
X177533903Y-92864447D01*
X182359903Y-88392000D02*
X182006350Y-88392000D01*
X177533903Y-101005097D02*
X177533903Y-92864447D01*
%TO.N,/LTC6810/Balance6/Sx*%
X195009702Y-90135001D02*
X196795303Y-88349400D01*
X193002940Y-90135001D02*
X195009702Y-90135001D01*
X191993209Y-91144732D02*
X193002940Y-90135001D01*
X190589133Y-91144732D02*
X191993209Y-91144732D01*
X189750866Y-91982999D02*
X190589133Y-91144732D01*
X179724942Y-91982999D02*
X189750866Y-91982999D01*
X178295903Y-93412038D02*
X179724942Y-91982999D01*
X178295903Y-100005097D02*
X178295903Y-93412038D01*
D22*
%TO.N,/LTC6810/CellBalance2*%
X174739903Y-113538000D02*
X174739903Y-114554000D01*
X176390903Y-116205000D02*
X182232903Y-116205000D01*
X174739903Y-114554000D02*
X176390903Y-116205000D01*
%TD*%
D21*
%TO.N,+3V3*%
X160473966Y-88797774D02*
X160618129Y-88941937D01*
X160787647Y-89055205D01*
X160976005Y-89133226D01*
X161175964Y-89173000D01*
X161379842Y-89173000D01*
X161579801Y-89133226D01*
X161768159Y-89055205D01*
X161937677Y-88941937D01*
X162081840Y-88797774D01*
X162098393Y-88773000D01*
X162674903Y-88773000D01*
X162674903Y-94341341D01*
X162654129Y-94236902D01*
X162576108Y-94048544D01*
X162462840Y-93879026D01*
X162318677Y-93734863D01*
X162149159Y-93621595D01*
X161960801Y-93543574D01*
X161760842Y-93503800D01*
X161556964Y-93503800D01*
X161357005Y-93543574D01*
X161168647Y-93621595D01*
X160999129Y-93734863D01*
X160854966Y-93879026D01*
X160741698Y-94048544D01*
X160663677Y-94236902D01*
X160623903Y-94436861D01*
X160623903Y-94640739D01*
X160663677Y-94840698D01*
X160741698Y-95029056D01*
X160854966Y-95198574D01*
X160999129Y-95342737D01*
X161168647Y-95456005D01*
X161357005Y-95534026D01*
X161556964Y-95573800D01*
X161760842Y-95573800D01*
X161960801Y-95534026D01*
X162149159Y-95456005D01*
X162318677Y-95342737D01*
X162462840Y-95198574D01*
X162576108Y-95029056D01*
X162654129Y-94840698D01*
X162674903Y-94736259D01*
X162674903Y-99949000D01*
X160024252Y-99949000D01*
X159922840Y-99797226D01*
X159778677Y-99653063D01*
X159774411Y-99650212D01*
X159919108Y-99590277D01*
X160064058Y-99493424D01*
X160187327Y-99370155D01*
X160284180Y-99225205D01*
X160350893Y-99064145D01*
X160384903Y-98893165D01*
X160384903Y-98718835D01*
X160350893Y-98547855D01*
X160300005Y-98425000D01*
X160350893Y-98302145D01*
X160384903Y-98131165D01*
X160384903Y-97956835D01*
X160350893Y-97785855D01*
X160300005Y-97663000D01*
X160350893Y-97540145D01*
X160384903Y-97369165D01*
X160384903Y-97194835D01*
X160350893Y-97023855D01*
X160300005Y-96901000D01*
X160350893Y-96778145D01*
X160384903Y-96607165D01*
X160384903Y-96432835D01*
X160350893Y-96261855D01*
X160284180Y-96100795D01*
X160187327Y-95955845D01*
X160064058Y-95832576D01*
X159919108Y-95735723D01*
X159758048Y-95669010D01*
X159587068Y-95635000D01*
X159412738Y-95635000D01*
X159241758Y-95669010D01*
X159080698Y-95735723D01*
X158935748Y-95832576D01*
X158812479Y-95955845D01*
X158715626Y-96100795D01*
X158648913Y-96261855D01*
X158614903Y-96432835D01*
X158614903Y-96607165D01*
X158648913Y-96778145D01*
X158699801Y-96901000D01*
X158648913Y-97023855D01*
X158614903Y-97194835D01*
X158614903Y-97369165D01*
X158648913Y-97540145D01*
X158699801Y-97663000D01*
X158648913Y-97785855D01*
X158614903Y-97956835D01*
X158614903Y-98131165D01*
X158648913Y-98302145D01*
X158699801Y-98425000D01*
X158648913Y-98547855D01*
X158614903Y-98718835D01*
X158614903Y-98893165D01*
X158648913Y-99064145D01*
X158715626Y-99225205D01*
X158812479Y-99370155D01*
X158889648Y-99447324D01*
X158817005Y-99461774D01*
X158628647Y-99539795D01*
X158459129Y-99653063D01*
X158314966Y-99797226D01*
X158236409Y-99914795D01*
X158127677Y-99806063D01*
X157958159Y-99692795D01*
X157769801Y-99614774D01*
X157569842Y-99575000D01*
X157365964Y-99575000D01*
X157166005Y-99614774D01*
X156977647Y-99692795D01*
X156808129Y-99806063D01*
X156663966Y-99950226D01*
X156550698Y-100119744D01*
X156472677Y-100308102D01*
X156432903Y-100508061D01*
X156432903Y-100711939D01*
X156472677Y-100911898D01*
X156550698Y-101100256D01*
X156663966Y-101269774D01*
X156808129Y-101413937D01*
X156977647Y-101527205D01*
X157166005Y-101605226D01*
X157365964Y-101645000D01*
X157569842Y-101645000D01*
X157769801Y-101605226D01*
X157958159Y-101527205D01*
X158127677Y-101413937D01*
X158271840Y-101269774D01*
X158350397Y-101152205D01*
X158459129Y-101260937D01*
X158628647Y-101374205D01*
X158817005Y-101452226D01*
X158864903Y-101461753D01*
X158864903Y-107442000D01*
X158867343Y-107466776D01*
X158874570Y-107490601D01*
X158886306Y-107512557D01*
X158902100Y-107531803D01*
X158921346Y-107547597D01*
X158943302Y-107559333D01*
X158967127Y-107566560D01*
X158989787Y-107568982D01*
X159252654Y-107573363D01*
X159304890Y-107637013D01*
X159401116Y-107715983D01*
X159510899Y-107774664D01*
X159630021Y-107810799D01*
X159753903Y-107823000D01*
X166484903Y-107823000D01*
X166484903Y-108095520D01*
X166443072Y-108103841D01*
X166254714Y-108181862D01*
X166085196Y-108295130D01*
X165941033Y-108439293D01*
X165827765Y-108608811D01*
X165749744Y-108797169D01*
X165709970Y-108997128D01*
X165709970Y-109201006D01*
X165749149Y-109397973D01*
X165698129Y-109432063D01*
X165553966Y-109576226D01*
X165440698Y-109745744D01*
X165362677Y-109934102D01*
X165322903Y-110134061D01*
X165322903Y-110337939D01*
X165362677Y-110537898D01*
X165395671Y-110617552D01*
X165294005Y-110637774D01*
X165105647Y-110715795D01*
X164936129Y-110829063D01*
X164791966Y-110973226D01*
X164678698Y-111142744D01*
X164600677Y-111331102D01*
X164560903Y-111531061D01*
X164560903Y-111734939D01*
X164600677Y-111934898D01*
X164678698Y-112123256D01*
X164791966Y-112292774D01*
X164936129Y-112436937D01*
X165105647Y-112550205D01*
X165294005Y-112628226D01*
X165449903Y-112659236D01*
X165449903Y-112750939D01*
X165489677Y-112950898D01*
X165567698Y-113139256D01*
X165586236Y-113167001D01*
X165556068Y-113161000D01*
X165381738Y-113161000D01*
X165210758Y-113195010D01*
X165049698Y-113261723D01*
X164904748Y-113358576D01*
X164781479Y-113481845D01*
X164684626Y-113626795D01*
X164617913Y-113787855D01*
X164583903Y-113958835D01*
X164583903Y-114133165D01*
X164617913Y-114304145D01*
X164684626Y-114465205D01*
X164781479Y-114610155D01*
X164904748Y-114733424D01*
X165049698Y-114830277D01*
X165210758Y-114896990D01*
X165381738Y-114931000D01*
X165556068Y-114931000D01*
X165727048Y-114896990D01*
X165888108Y-114830277D01*
X166033058Y-114733424D01*
X166156327Y-114610155D01*
X166253180Y-114465205D01*
X166319893Y-114304145D01*
X166353903Y-114133165D01*
X166353903Y-113958835D01*
X166319893Y-113787855D01*
X166267349Y-113661003D01*
X166382964Y-113684000D01*
X166484903Y-113684000D01*
X166484903Y-116205000D01*
X166487343Y-116229776D01*
X166494570Y-116253601D01*
X166506306Y-116275557D01*
X166522100Y-116294803D01*
X166541346Y-116310597D01*
X166563302Y-116322333D01*
X166587127Y-116329560D01*
X166611903Y-116332000D01*
X172074236Y-116332000D01*
X172084517Y-117306150D01*
X172044698Y-117365744D01*
X171966677Y-117554102D01*
X171926903Y-117754061D01*
X171926903Y-117957939D01*
X171966677Y-118157898D01*
X172044698Y-118346256D01*
X172096310Y-118423499D01*
X172096956Y-118484687D01*
X170455114Y-118485158D01*
X170573677Y-118405937D01*
X170717840Y-118261774D01*
X170831108Y-118092256D01*
X170909129Y-117903898D01*
X170948903Y-117703939D01*
X170948903Y-117500061D01*
X170909129Y-117300102D01*
X170831108Y-117111744D01*
X170717840Y-116942226D01*
X170573677Y-116798063D01*
X170404159Y-116684795D01*
X170215801Y-116606774D01*
X170015842Y-116567000D01*
X169811964Y-116567000D01*
X169612005Y-116606774D01*
X169423647Y-116684795D01*
X169254129Y-116798063D01*
X169109966Y-116942226D01*
X168996698Y-117111744D01*
X168918677Y-117300102D01*
X168878903Y-117500061D01*
X168878903Y-117703939D01*
X168918677Y-117903898D01*
X168996698Y-118092256D01*
X169109966Y-118261774D01*
X169254129Y-118405937D01*
X169373157Y-118485469D01*
X167647617Y-118485964D01*
X167656108Y-118473256D01*
X167734129Y-118284898D01*
X167773903Y-118084939D01*
X167773903Y-117881061D01*
X167734129Y-117681102D01*
X167656108Y-117492744D01*
X167542840Y-117323226D01*
X167398677Y-117179063D01*
X167229159Y-117065795D01*
X167040801Y-116987774D01*
X166840842Y-116948000D01*
X166636964Y-116948000D01*
X166437005Y-116987774D01*
X166248647Y-117065795D01*
X166079129Y-117179063D01*
X165934966Y-117323226D01*
X165821698Y-117492744D01*
X165743677Y-117681102D01*
X165703903Y-117881061D01*
X165703903Y-118084939D01*
X165743677Y-118284898D01*
X165821698Y-118473256D01*
X165830538Y-118486486D01*
X164514157Y-118486863D01*
X164608108Y-118346256D01*
X164686129Y-118157898D01*
X164725903Y-117957939D01*
X164725903Y-117754061D01*
X164686129Y-117554102D01*
X164608108Y-117365744D01*
X164494840Y-117196226D01*
X164350677Y-117052063D01*
X164181159Y-116938795D01*
X163992801Y-116860774D01*
X163792842Y-116821000D01*
X163588964Y-116821000D01*
X163389005Y-116860774D01*
X163200647Y-116938795D01*
X163031129Y-117052063D01*
X162886966Y-117196226D01*
X162773698Y-117365744D01*
X162695677Y-117554102D01*
X162655903Y-117754061D01*
X162655903Y-117957939D01*
X162695677Y-118157898D01*
X162773698Y-118346256D01*
X162867964Y-118487336D01*
X161347842Y-118487772D01*
X161446840Y-118388774D01*
X161560108Y-118219256D01*
X161638129Y-118030898D01*
X161677903Y-117830939D01*
X161677903Y-117627061D01*
X161638129Y-117427102D01*
X161560108Y-117238744D01*
X161446840Y-117069226D01*
X161302677Y-116925063D01*
X161133159Y-116811795D01*
X160944801Y-116733774D01*
X160744842Y-116694000D01*
X160540964Y-116694000D01*
X160341005Y-116733774D01*
X160152647Y-116811795D01*
X159983129Y-116925063D01*
X159838966Y-117069226D01*
X159725698Y-117238744D01*
X159647677Y-117427102D01*
X159607903Y-117627061D01*
X159607903Y-117830939D01*
X159647677Y-118030898D01*
X159725698Y-118219256D01*
X159838966Y-118388774D01*
X159938369Y-118488177D01*
X158243453Y-118488663D01*
X158209129Y-118316102D01*
X158131108Y-118127744D01*
X158017840Y-117958226D01*
X157873677Y-117814063D01*
X157704159Y-117700795D01*
X157515801Y-117622774D01*
X157315842Y-117583000D01*
X157111964Y-117583000D01*
X156912005Y-117622774D01*
X156723647Y-117700795D01*
X156554129Y-117814063D01*
X156409966Y-117958226D01*
X156296698Y-118127744D01*
X156218677Y-118316102D01*
X156184235Y-118489254D01*
X155068635Y-118489574D01*
X155034129Y-118316102D01*
X154956108Y-118127744D01*
X154842840Y-117958226D01*
X154698677Y-117814063D01*
X154529159Y-117700795D01*
X154340801Y-117622774D01*
X154140842Y-117583000D01*
X153936964Y-117583000D01*
X153737005Y-117622774D01*
X153548647Y-117700795D01*
X153379129Y-117814063D01*
X153234966Y-117958226D01*
X153121698Y-118127744D01*
X153043677Y-118316102D01*
X153009054Y-118490166D01*
X151995548Y-118490456D01*
X151986129Y-118443102D01*
X151908108Y-118254744D01*
X151794840Y-118085226D01*
X151650677Y-117941063D01*
X151481159Y-117827795D01*
X151292801Y-117749774D01*
X151092842Y-117710000D01*
X150888964Y-117710000D01*
X150689005Y-117749774D01*
X150500647Y-117827795D01*
X150331129Y-117941063D01*
X150186966Y-118085226D01*
X150073698Y-118254744D01*
X149995677Y-118443102D01*
X149955903Y-118643061D01*
X149955903Y-118846939D01*
X149974903Y-118942459D01*
X149974903Y-119306194D01*
X149956649Y-119307992D01*
X149790053Y-119358528D01*
X149636517Y-119440595D01*
X149501941Y-119551038D01*
X149391498Y-119685614D01*
X149309431Y-119839150D01*
X149258895Y-120005746D01*
X149241831Y-120179000D01*
X149241831Y-121539000D01*
X144386903Y-121539000D01*
X144386903Y-117246061D01*
X146272903Y-117246061D01*
X146272903Y-117449939D01*
X146312677Y-117649898D01*
X146390698Y-117838256D01*
X146503966Y-118007774D01*
X146648129Y-118151937D01*
X146817647Y-118265205D01*
X147006005Y-118343226D01*
X147205964Y-118383000D01*
X147409842Y-118383000D01*
X147546269Y-118355863D01*
X147582677Y-118538898D01*
X147660698Y-118727256D01*
X147773966Y-118896774D01*
X147918129Y-119040937D01*
X148087647Y-119154205D01*
X148276005Y-119232226D01*
X148475964Y-119272000D01*
X148679842Y-119272000D01*
X148879801Y-119232226D01*
X149068159Y-119154205D01*
X149237677Y-119040937D01*
X149381840Y-118896774D01*
X149495108Y-118727256D01*
X149573129Y-118538898D01*
X149612903Y-118338939D01*
X149612903Y-118135061D01*
X149573129Y-117935102D01*
X149495108Y-117746744D01*
X149381840Y-117577226D01*
X149237677Y-117433063D01*
X149068159Y-117319795D01*
X148879801Y-117241774D01*
X148679842Y-117202000D01*
X148616882Y-117202000D01*
X148625801Y-117200226D01*
X148814159Y-117122205D01*
X148983677Y-117008937D01*
X149127840Y-116864774D01*
X149241108Y-116695256D01*
X149319129Y-116506898D01*
X149358903Y-116306939D01*
X149358903Y-116103061D01*
X149319129Y-115903102D01*
X149241108Y-115714744D01*
X149127840Y-115545226D01*
X149103681Y-115521067D01*
X149142058Y-115495424D01*
X149265327Y-115372155D01*
X149362180Y-115227205D01*
X149428893Y-115066145D01*
X149462903Y-114895165D01*
X149462903Y-114720835D01*
X149428893Y-114549855D01*
X149362180Y-114388795D01*
X149265327Y-114243845D01*
X149142058Y-114120576D01*
X148997108Y-114023723D01*
X148840454Y-113958835D01*
X161535903Y-113958835D01*
X161535903Y-114133165D01*
X161569913Y-114304145D01*
X161636626Y-114465205D01*
X161733479Y-114610155D01*
X161856748Y-114733424D01*
X162001698Y-114830277D01*
X162162758Y-114896990D01*
X162333738Y-114931000D01*
X162508068Y-114931000D01*
X162679048Y-114896990D01*
X162840108Y-114830277D01*
X162985058Y-114733424D01*
X163108327Y-114610155D01*
X163205180Y-114465205D01*
X163271893Y-114304145D01*
X163305903Y-114133165D01*
X163305903Y-113958835D01*
X163271893Y-113787855D01*
X163205180Y-113626795D01*
X163108327Y-113481845D01*
X162985058Y-113358576D01*
X162840108Y-113261723D01*
X162679048Y-113195010D01*
X162508068Y-113161000D01*
X162333738Y-113161000D01*
X162162758Y-113195010D01*
X162001698Y-113261723D01*
X161856748Y-113358576D01*
X161733479Y-113481845D01*
X161636626Y-113626795D01*
X161569913Y-113787855D01*
X161535903Y-113958835D01*
X148840454Y-113958835D01*
X148836048Y-113957010D01*
X148665068Y-113923000D01*
X148490738Y-113923000D01*
X148319758Y-113957010D01*
X148158698Y-114023723D01*
X148013748Y-114120576D01*
X147890479Y-114243845D01*
X147793626Y-114388795D01*
X147726913Y-114549855D01*
X147692903Y-114720835D01*
X147692903Y-114895165D01*
X147726913Y-115066145D01*
X147793626Y-115227205D01*
X147834011Y-115287644D01*
X147833647Y-115287795D01*
X147664129Y-115401063D01*
X147519966Y-115545226D01*
X147406698Y-115714744D01*
X147328677Y-115903102D01*
X147288903Y-116103061D01*
X147288903Y-116306939D01*
X147290109Y-116313000D01*
X147205964Y-116313000D01*
X147006005Y-116352774D01*
X146817647Y-116430795D01*
X146648129Y-116544063D01*
X146503966Y-116688226D01*
X146390698Y-116857744D01*
X146312677Y-117046102D01*
X146272903Y-117246061D01*
X144386903Y-117246061D01*
X144386903Y-113483612D01*
X144495559Y-113438605D01*
X144665077Y-113325337D01*
X144809240Y-113181174D01*
X144922508Y-113011656D01*
X145000529Y-112823298D01*
X145040303Y-112623339D01*
X145040303Y-112419461D01*
X145000529Y-112219502D01*
X144980768Y-112171794D01*
X147701944Y-112171794D01*
X147701944Y-112346124D01*
X147735954Y-112517104D01*
X147802667Y-112678164D01*
X147899520Y-112823114D01*
X148022789Y-112946383D01*
X148167739Y-113043236D01*
X148328799Y-113109949D01*
X148499779Y-113143959D01*
X148674109Y-113143959D01*
X148779699Y-113122956D01*
X148809626Y-113195205D01*
X148906479Y-113340155D01*
X149029748Y-113463424D01*
X149174698Y-113560277D01*
X149335758Y-113626990D01*
X149506738Y-113661000D01*
X149681068Y-113661000D01*
X149852048Y-113626990D01*
X150013108Y-113560277D01*
X150158058Y-113463424D01*
X150281327Y-113340155D01*
X150378180Y-113195205D01*
X150444893Y-113034145D01*
X150478903Y-112863165D01*
X150478903Y-112688835D01*
X150444893Y-112517855D01*
X150378180Y-112356795D01*
X150331979Y-112287650D01*
X150844903Y-112287650D01*
X150844903Y-112491528D01*
X150884677Y-112691487D01*
X150962698Y-112879845D01*
X151075966Y-113049363D01*
X151220129Y-113193526D01*
X151389647Y-113306794D01*
X151578005Y-113384815D01*
X151777964Y-113424589D01*
X151981842Y-113424589D01*
X152181801Y-113384815D01*
X152370159Y-113306794D01*
X152539677Y-113193526D01*
X152683840Y-113049363D01*
X152797108Y-112879845D01*
X152875129Y-112691487D01*
X152914903Y-112491528D01*
X152914903Y-112287650D01*
X152875129Y-112087691D01*
X152797108Y-111899333D01*
X152683840Y-111729815D01*
X152539677Y-111585652D01*
X152370159Y-111472384D01*
X152181801Y-111394363D01*
X151981842Y-111354589D01*
X151777964Y-111354589D01*
X151578005Y-111394363D01*
X151389647Y-111472384D01*
X151220129Y-111585652D01*
X151075966Y-111729815D01*
X150962698Y-111899333D01*
X150884677Y-112087691D01*
X150844903Y-112287650D01*
X150331979Y-112287650D01*
X150281327Y-112211845D01*
X150158058Y-112088576D01*
X150013108Y-111991723D01*
X149852048Y-111925010D01*
X149681068Y-111891000D01*
X149506738Y-111891000D01*
X149401148Y-111912003D01*
X149389694Y-111884352D01*
X149418033Y-111815935D01*
X149471048Y-111805390D01*
X149632108Y-111738677D01*
X149777058Y-111641824D01*
X149900327Y-111518555D01*
X149997180Y-111373605D01*
X150063893Y-111212545D01*
X150097903Y-111041565D01*
X150097903Y-110867235D01*
X150063893Y-110696255D01*
X149997180Y-110535195D01*
X149900327Y-110390245D01*
X149777058Y-110266976D01*
X149632108Y-110170123D01*
X149471048Y-110103410D01*
X149300068Y-110069400D01*
X149125738Y-110069400D01*
X148954758Y-110103410D01*
X148793698Y-110170123D01*
X148648748Y-110266976D01*
X148525479Y-110390245D01*
X148428626Y-110535195D01*
X148390855Y-110626383D01*
X148337840Y-110636928D01*
X148176780Y-110703641D01*
X148031830Y-110800494D01*
X147908561Y-110923763D01*
X147811708Y-111068713D01*
X147744995Y-111229773D01*
X147710985Y-111400753D01*
X147710985Y-111575083D01*
X147744995Y-111746063D01*
X147793235Y-111862525D01*
X147735954Y-112000814D01*
X147701944Y-112171794D01*
X144980768Y-112171794D01*
X144922508Y-112031144D01*
X144809240Y-111861626D01*
X144665077Y-111717463D01*
X144495559Y-111604195D01*
X144307201Y-111526174D01*
X144107242Y-111486400D01*
X143903364Y-111486400D01*
X143703405Y-111526174D01*
X143515047Y-111604195D01*
X143345529Y-111717463D01*
X143201366Y-111861626D01*
X143088098Y-112031144D01*
X143010077Y-112219502D01*
X142970303Y-112419461D01*
X142970303Y-112623339D01*
X143010077Y-112823298D01*
X143088098Y-113011656D01*
X143185213Y-113157000D01*
X138544903Y-113157000D01*
X138544903Y-110514468D01*
X138573108Y-110472256D01*
X138651129Y-110283898D01*
X138690903Y-110083939D01*
X138690903Y-109880061D01*
X138651129Y-109680102D01*
X138628745Y-109626061D01*
X140430903Y-109626061D01*
X140430903Y-109829939D01*
X140470677Y-110029898D01*
X140548698Y-110218256D01*
X140661966Y-110387774D01*
X140806129Y-110531937D01*
X140975647Y-110645205D01*
X141164005Y-110723226D01*
X141363964Y-110763000D01*
X141567842Y-110763000D01*
X141767801Y-110723226D01*
X141956159Y-110645205D01*
X142125677Y-110531937D01*
X142269840Y-110387774D01*
X142383108Y-110218256D01*
X142461129Y-110029898D01*
X142500903Y-109829939D01*
X142500903Y-109626061D01*
X142461129Y-109426102D01*
X142383108Y-109237744D01*
X142269840Y-109068226D01*
X142125677Y-108924063D01*
X141956159Y-108810795D01*
X141767801Y-108732774D01*
X141567842Y-108693000D01*
X141363964Y-108693000D01*
X141164005Y-108732774D01*
X140975647Y-108810795D01*
X140806129Y-108924063D01*
X140661966Y-109068226D01*
X140548698Y-109237744D01*
X140470677Y-109426102D01*
X140430903Y-109626061D01*
X138628745Y-109626061D01*
X138573108Y-109491744D01*
X138561252Y-109474000D01*
X138573108Y-109456256D01*
X138651129Y-109267898D01*
X138690903Y-109067939D01*
X138690903Y-108864061D01*
X138651129Y-108664102D01*
X138573108Y-108475744D01*
X138544903Y-108433532D01*
X138544903Y-107735835D01*
X144009903Y-107735835D01*
X144009903Y-107910165D01*
X144043913Y-108081145D01*
X144110626Y-108242205D01*
X144207479Y-108387155D01*
X144330748Y-108510424D01*
X144475698Y-108607277D01*
X144636758Y-108673990D01*
X144807738Y-108708000D01*
X144982068Y-108708000D01*
X145153048Y-108673990D01*
X145314108Y-108607277D01*
X145459058Y-108510424D01*
X145582327Y-108387155D01*
X145679180Y-108242205D01*
X145745893Y-108081145D01*
X145779903Y-107910165D01*
X145779903Y-107862835D01*
X148200903Y-107862835D01*
X148200903Y-108037165D01*
X148234913Y-108208145D01*
X148301626Y-108369205D01*
X148398479Y-108514155D01*
X148521748Y-108637424D01*
X148666698Y-108734277D01*
X148827758Y-108800990D01*
X148998738Y-108835000D01*
X149173068Y-108835000D01*
X149344048Y-108800990D01*
X149505108Y-108734277D01*
X149650058Y-108637424D01*
X149773327Y-108514155D01*
X149870180Y-108369205D01*
X149936893Y-108208145D01*
X149970903Y-108037165D01*
X149970903Y-107862835D01*
X149936893Y-107691855D01*
X149870180Y-107530795D01*
X149773327Y-107385845D01*
X149650058Y-107262576D01*
X149505108Y-107165723D01*
X149344048Y-107099010D01*
X149173068Y-107065000D01*
X148998738Y-107065000D01*
X148827758Y-107099010D01*
X148666698Y-107165723D01*
X148521748Y-107262576D01*
X148398479Y-107385845D01*
X148301626Y-107530795D01*
X148234913Y-107691855D01*
X148200903Y-107862835D01*
X145779903Y-107862835D01*
X145779903Y-107735835D01*
X145745893Y-107564855D01*
X145679180Y-107403795D01*
X145582327Y-107258845D01*
X145459058Y-107135576D01*
X145314108Y-107038723D01*
X145153048Y-106972010D01*
X144982068Y-106938000D01*
X144807738Y-106938000D01*
X144636758Y-106972010D01*
X144475698Y-107038723D01*
X144330748Y-107135576D01*
X144207479Y-107258845D01*
X144110626Y-107403795D01*
X144043913Y-107564855D01*
X144009903Y-107735835D01*
X138544903Y-107735835D01*
X138544903Y-105050635D01*
X138802903Y-105050635D01*
X138802903Y-105224965D01*
X138836913Y-105395945D01*
X138903626Y-105557005D01*
X139000479Y-105701955D01*
X139123748Y-105825224D01*
X139268698Y-105922077D01*
X139429758Y-105988790D01*
X139600738Y-106022800D01*
X139775068Y-106022800D01*
X139946048Y-105988790D01*
X140107108Y-105922077D01*
X140252058Y-105825224D01*
X140375327Y-105701955D01*
X140472180Y-105557005D01*
X140538893Y-105395945D01*
X140572903Y-105224965D01*
X140572903Y-105050635D01*
X140538893Y-104879655D01*
X140472180Y-104718595D01*
X140375327Y-104573645D01*
X140252058Y-104450376D01*
X140107108Y-104353523D01*
X139994393Y-104306835D01*
X143628903Y-104306835D01*
X143628903Y-104481165D01*
X143662913Y-104652145D01*
X143729626Y-104813205D01*
X143826479Y-104958155D01*
X143949748Y-105081424D01*
X144094698Y-105178277D01*
X144255758Y-105244990D01*
X144426738Y-105279000D01*
X144601068Y-105279000D01*
X144772048Y-105244990D01*
X144933108Y-105178277D01*
X145078058Y-105081424D01*
X145201327Y-104958155D01*
X145298180Y-104813205D01*
X145364893Y-104652145D01*
X145398903Y-104481165D01*
X145398903Y-104306835D01*
X150455000Y-104306835D01*
X150455000Y-104481165D01*
X150489010Y-104652145D01*
X150555723Y-104813205D01*
X150652576Y-104958155D01*
X150775845Y-105081424D01*
X150920795Y-105178277D01*
X151081855Y-105244990D01*
X151252835Y-105279000D01*
X151427165Y-105279000D01*
X151598145Y-105244990D01*
X151759205Y-105178277D01*
X151904155Y-105081424D01*
X152027424Y-104958155D01*
X152124277Y-104813205D01*
X152190990Y-104652145D01*
X152225000Y-104481165D01*
X152225000Y-104306835D01*
X152190990Y-104135855D01*
X152124277Y-103974795D01*
X152027424Y-103829845D01*
X151904155Y-103706576D01*
X151759205Y-103609723D01*
X151598145Y-103543010D01*
X151427165Y-103509000D01*
X151252835Y-103509000D01*
X151081855Y-103543010D01*
X150920795Y-103609723D01*
X150775845Y-103706576D01*
X150652576Y-103829845D01*
X150555723Y-103974795D01*
X150489010Y-104135855D01*
X150455000Y-104306835D01*
X145398903Y-104306835D01*
X145364893Y-104135855D01*
X145298180Y-103974795D01*
X145201327Y-103829845D01*
X145078058Y-103706576D01*
X144933108Y-103609723D01*
X144772048Y-103543010D01*
X144601068Y-103509000D01*
X144426738Y-103509000D01*
X144255758Y-103543010D01*
X144094698Y-103609723D01*
X143949748Y-103706576D01*
X143826479Y-103829845D01*
X143729626Y-103974795D01*
X143662913Y-104135855D01*
X143628903Y-104306835D01*
X139994393Y-104306835D01*
X139946048Y-104286810D01*
X139775068Y-104252800D01*
X139600738Y-104252800D01*
X139429758Y-104286810D01*
X139268698Y-104353523D01*
X139123748Y-104450376D01*
X139000479Y-104573645D01*
X138903626Y-104718595D01*
X138836913Y-104879655D01*
X138802903Y-105050635D01*
X138544903Y-105050635D01*
X138544903Y-102782835D01*
X144644903Y-102782835D01*
X144644903Y-102957165D01*
X144678913Y-103128145D01*
X144745626Y-103289205D01*
X144842479Y-103434155D01*
X144965748Y-103557424D01*
X145110698Y-103654277D01*
X145271758Y-103720990D01*
X145442738Y-103755000D01*
X145617068Y-103755000D01*
X145788048Y-103720990D01*
X145949108Y-103654277D01*
X146094058Y-103557424D01*
X146217327Y-103434155D01*
X146314180Y-103289205D01*
X146380893Y-103128145D01*
X146414903Y-102957165D01*
X146414903Y-102782835D01*
X146380893Y-102611855D01*
X146314180Y-102450795D01*
X146217327Y-102305845D01*
X146094058Y-102182576D01*
X145949108Y-102085723D01*
X145788048Y-102019010D01*
X145617068Y-101985000D01*
X145442738Y-101985000D01*
X145271758Y-102019010D01*
X145110698Y-102085723D01*
X144965748Y-102182576D01*
X144842479Y-102305845D01*
X144745626Y-102450795D01*
X144678913Y-102611855D01*
X144644903Y-102782835D01*
X138544903Y-102782835D01*
X138544903Y-100447511D01*
X138647129Y-100549737D01*
X138816647Y-100663005D01*
X139005005Y-100741026D01*
X139204964Y-100780800D01*
X139408842Y-100780800D01*
X139608801Y-100741026D01*
X139797159Y-100663005D01*
X139966677Y-100549737D01*
X140110840Y-100405574D01*
X140224108Y-100236056D01*
X140302129Y-100047698D01*
X140341903Y-99847739D01*
X140341903Y-99734835D01*
X145152903Y-99734835D01*
X145152903Y-99909165D01*
X145186913Y-100080145D01*
X145253626Y-100241205D01*
X145350479Y-100386155D01*
X145473748Y-100509424D01*
X145618698Y-100606277D01*
X145779758Y-100672990D01*
X145924654Y-100701812D01*
X145914903Y-100750835D01*
X145914903Y-100925165D01*
X145948913Y-101096145D01*
X146015626Y-101257205D01*
X146112479Y-101402155D01*
X146235748Y-101525424D01*
X146380698Y-101622277D01*
X146541758Y-101688990D01*
X146658057Y-101712123D01*
X146708625Y-101834206D01*
X146805478Y-101979156D01*
X146928747Y-102102425D01*
X147073697Y-102199278D01*
X147234757Y-102265991D01*
X147405737Y-102300001D01*
X147580067Y-102300001D01*
X147751047Y-102265991D01*
X147912107Y-102199278D01*
X148057057Y-102102425D01*
X148180326Y-101979156D01*
X148277179Y-101834206D01*
X148343892Y-101673146D01*
X148377902Y-101502166D01*
X148377902Y-101327836D01*
X148364177Y-101258835D01*
X151756903Y-101258835D01*
X151756903Y-101433165D01*
X151790913Y-101604145D01*
X151857626Y-101765205D01*
X151954479Y-101910155D01*
X152077748Y-102033424D01*
X152222698Y-102130277D01*
X152383758Y-102196990D01*
X152554738Y-102231000D01*
X152729068Y-102231000D01*
X152900048Y-102196990D01*
X153061108Y-102130277D01*
X153206058Y-102033424D01*
X153218647Y-102020835D01*
X155312903Y-102020835D01*
X155312903Y-102195165D01*
X155346913Y-102366145D01*
X155413626Y-102527205D01*
X155472957Y-102616000D01*
X155413626Y-102704795D01*
X155346913Y-102865855D01*
X155312903Y-103036835D01*
X155312903Y-103211165D01*
X155346913Y-103382145D01*
X155413626Y-103543205D01*
X155510479Y-103688155D01*
X155633748Y-103811424D01*
X155778698Y-103908277D01*
X155939758Y-103974990D01*
X156110738Y-104009000D01*
X156285068Y-104009000D01*
X156456048Y-103974990D01*
X156617108Y-103908277D01*
X156762058Y-103811424D01*
X156861466Y-103712016D01*
X156871516Y-103762542D01*
X156938229Y-103923602D01*
X157035082Y-104068552D01*
X157158351Y-104191821D01*
X157303301Y-104288674D01*
X157336143Y-104302278D01*
X157288479Y-104349942D01*
X157191626Y-104494892D01*
X157124913Y-104655952D01*
X157090903Y-104826932D01*
X157090903Y-105001262D01*
X157124913Y-105172242D01*
X157191626Y-105333302D01*
X157288479Y-105478252D01*
X157411748Y-105601521D01*
X157556698Y-105698374D01*
X157717758Y-105765087D01*
X157888738Y-105799097D01*
X158063068Y-105799097D01*
X158234048Y-105765087D01*
X158395108Y-105698374D01*
X158540058Y-105601521D01*
X158663327Y-105478252D01*
X158760180Y-105333302D01*
X158826893Y-105172242D01*
X158860903Y-105001262D01*
X158860903Y-104826932D01*
X158826893Y-104655952D01*
X158760180Y-104494892D01*
X158663327Y-104349942D01*
X158540058Y-104226673D01*
X158395108Y-104129820D01*
X158362266Y-104116216D01*
X158409930Y-104068552D01*
X158506783Y-103923602D01*
X158573496Y-103762542D01*
X158607506Y-103591562D01*
X158607506Y-103417232D01*
X158573496Y-103246252D01*
X158506783Y-103085192D01*
X158409930Y-102940242D01*
X158286661Y-102816973D01*
X158141711Y-102720120D01*
X157980651Y-102653407D01*
X157809671Y-102619397D01*
X157635341Y-102619397D01*
X157464361Y-102653407D01*
X157303301Y-102720120D01*
X157158351Y-102816973D01*
X157058943Y-102916381D01*
X157048893Y-102865855D01*
X156982180Y-102704795D01*
X156922849Y-102616000D01*
X156982180Y-102527205D01*
X157048893Y-102366145D01*
X157082903Y-102195165D01*
X157082903Y-102020835D01*
X157048893Y-101849855D01*
X156982180Y-101688795D01*
X156885327Y-101543845D01*
X156762058Y-101420576D01*
X156617108Y-101323723D01*
X156456048Y-101257010D01*
X156285068Y-101223000D01*
X156110738Y-101223000D01*
X155939758Y-101257010D01*
X155778698Y-101323723D01*
X155633748Y-101420576D01*
X155510479Y-101543845D01*
X155413626Y-101688795D01*
X155346913Y-101849855D01*
X155312903Y-102020835D01*
X153218647Y-102020835D01*
X153329327Y-101910155D01*
X153426180Y-101765205D01*
X153492893Y-101604145D01*
X153526903Y-101433165D01*
X153526903Y-101258835D01*
X153492893Y-101087855D01*
X153426180Y-100926795D01*
X153329327Y-100781845D01*
X153206058Y-100658576D01*
X153061108Y-100561723D01*
X152900048Y-100495010D01*
X152729068Y-100461000D01*
X152554738Y-100461000D01*
X152383758Y-100495010D01*
X152222698Y-100561723D01*
X152077748Y-100658576D01*
X151954479Y-100781845D01*
X151857626Y-100926795D01*
X151790913Y-101087855D01*
X151756903Y-101258835D01*
X148364177Y-101258835D01*
X148343892Y-101156856D01*
X148277179Y-100995796D01*
X148180326Y-100850846D01*
X148057057Y-100727577D01*
X147912107Y-100630724D01*
X147751047Y-100564011D01*
X147634748Y-100540878D01*
X147584180Y-100418795D01*
X147487327Y-100273845D01*
X147364058Y-100150576D01*
X147219108Y-100053723D01*
X147058048Y-99987010D01*
X146913152Y-99958188D01*
X146922903Y-99909165D01*
X146922903Y-99734835D01*
X146888893Y-99563855D01*
X146822180Y-99402795D01*
X146725327Y-99257845D01*
X146602058Y-99134576D01*
X146457108Y-99037723D01*
X146296048Y-98971010D01*
X146125068Y-98937000D01*
X145950738Y-98937000D01*
X145779758Y-98971010D01*
X145618698Y-99037723D01*
X145473748Y-99134576D01*
X145350479Y-99257845D01*
X145253626Y-99402795D01*
X145186913Y-99563855D01*
X145152903Y-99734835D01*
X140341903Y-99734835D01*
X140341903Y-99643861D01*
X140302129Y-99443902D01*
X140224108Y-99255544D01*
X140207980Y-99231407D01*
X140249508Y-99169256D01*
X140327529Y-98980898D01*
X140367303Y-98780939D01*
X140367303Y-98577061D01*
X140327529Y-98377102D01*
X140249508Y-98188744D01*
X140136240Y-98019226D01*
X139992077Y-97875063D01*
X139822559Y-97761795D01*
X139634201Y-97683774D01*
X139434242Y-97644000D01*
X139230364Y-97644000D01*
X139030405Y-97683774D01*
X138842047Y-97761795D01*
X138794903Y-97793296D01*
X138794903Y-97702835D01*
X138760893Y-97531855D01*
X138694180Y-97370795D01*
X138597327Y-97225845D01*
X138544903Y-97173421D01*
X138544903Y-96882579D01*
X138597327Y-96830155D01*
X138694180Y-96685205D01*
X138711047Y-96644482D01*
X150783257Y-96644482D01*
X150783257Y-96818812D01*
X150817267Y-96989792D01*
X150883980Y-97150852D01*
X150980833Y-97295802D01*
X151104102Y-97419071D01*
X151249052Y-97515924D01*
X151410112Y-97582637D01*
X151581092Y-97616647D01*
X151755422Y-97616647D01*
X151926402Y-97582637D01*
X152087462Y-97515924D01*
X152232412Y-97419071D01*
X152355681Y-97295802D01*
X152452534Y-97150852D01*
X152519247Y-96989792D01*
X152553257Y-96818812D01*
X152553257Y-96644482D01*
X152519247Y-96473502D01*
X152452534Y-96312442D01*
X152355681Y-96167492D01*
X152232412Y-96044223D01*
X152087462Y-95947370D01*
X151926402Y-95880657D01*
X151755422Y-95846647D01*
X151581092Y-95846647D01*
X151410112Y-95880657D01*
X151249052Y-95947370D01*
X151104102Y-96044223D01*
X150980833Y-96167492D01*
X150883980Y-96312442D01*
X150817267Y-96473502D01*
X150783257Y-96644482D01*
X138711047Y-96644482D01*
X138760893Y-96524145D01*
X138794903Y-96353165D01*
X138794903Y-96178835D01*
X138760893Y-96007855D01*
X138694180Y-95846795D01*
X138597327Y-95701845D01*
X138544903Y-95649421D01*
X138544903Y-94859055D01*
X142389609Y-94545201D01*
X142434857Y-94612920D01*
X142579020Y-94757083D01*
X142748538Y-94870351D01*
X142936896Y-94948372D01*
X143136855Y-94988146D01*
X143340733Y-94988146D01*
X143540692Y-94948372D01*
X143729050Y-94870351D01*
X143898568Y-94757083D01*
X144000738Y-94654914D01*
X144050561Y-94704737D01*
X144012903Y-94894061D01*
X144012903Y-95097939D01*
X144052677Y-95297898D01*
X144130698Y-95486256D01*
X144243966Y-95655774D01*
X144388129Y-95799937D01*
X144557647Y-95913205D01*
X144746005Y-95991226D01*
X144945964Y-96031000D01*
X145149842Y-96031000D01*
X145349801Y-95991226D01*
X145538159Y-95913205D01*
X145707677Y-95799937D01*
X145851840Y-95655774D01*
X145965108Y-95486256D01*
X146043129Y-95297898D01*
X146082903Y-95097939D01*
X146082903Y-94894061D01*
X146043129Y-94694102D01*
X145965108Y-94505744D01*
X145851840Y-94336226D01*
X145783743Y-94268129D01*
X150874236Y-93852579D01*
X150898732Y-93848131D01*
X150921889Y-93838989D01*
X150942818Y-93825506D01*
X150960714Y-93808198D01*
X150974890Y-93787732D01*
X150983773Y-93767955D01*
X151678515Y-91782979D01*
X151742428Y-91878632D01*
X151949271Y-92085475D01*
X152192492Y-92247990D01*
X152462745Y-92359932D01*
X152749643Y-92417000D01*
X153042163Y-92417000D01*
X153329061Y-92359932D01*
X153599314Y-92247990D01*
X153842535Y-92085475D01*
X154049378Y-91878632D01*
X154165903Y-91704240D01*
X154282428Y-91878632D01*
X154489271Y-92085475D01*
X154732492Y-92247990D01*
X155002745Y-92359932D01*
X155289643Y-92417000D01*
X155582163Y-92417000D01*
X155869061Y-92359932D01*
X156139314Y-92247990D01*
X156382535Y-92085475D01*
X156589378Y-91878632D01*
X156705903Y-91704240D01*
X156822428Y-91878632D01*
X157029271Y-92085475D01*
X157272492Y-92247990D01*
X157542745Y-92359932D01*
X157829643Y-92417000D01*
X158122163Y-92417000D01*
X158409061Y-92359932D01*
X158679314Y-92247990D01*
X158922535Y-92085475D01*
X159129378Y-91878632D01*
X159291893Y-91635411D01*
X159403835Y-91365158D01*
X159460903Y-91078260D01*
X159460903Y-90785740D01*
X159403835Y-90498842D01*
X159291893Y-90228589D01*
X159129378Y-89985368D01*
X158922535Y-89778525D01*
X158679314Y-89616010D01*
X158409061Y-89504068D01*
X158122163Y-89447000D01*
X157829643Y-89447000D01*
X157542745Y-89504068D01*
X157272492Y-89616010D01*
X157029271Y-89778525D01*
X156822428Y-89985368D01*
X156705903Y-90159760D01*
X156589378Y-89985368D01*
X156382535Y-89778525D01*
X156139314Y-89616010D01*
X155869061Y-89504068D01*
X155582163Y-89447000D01*
X155289643Y-89447000D01*
X155002745Y-89504068D01*
X154732492Y-89616010D01*
X154489271Y-89778525D01*
X154282428Y-89985368D01*
X154165903Y-90159760D01*
X154049378Y-89985368D01*
X153842535Y-89778525D01*
X153599314Y-89616010D01*
X153329061Y-89504068D01*
X153042163Y-89447000D01*
X152749643Y-89447000D01*
X152477135Y-89501206D01*
X152645907Y-89019000D01*
X157777655Y-89019000D01*
X157944402Y-89002577D01*
X158158350Y-88937676D01*
X158355526Y-88832284D01*
X158427764Y-88773000D01*
X160457413Y-88773000D01*
X160473966Y-88797774D01*
%TA.AperFunction,Conductor*%
D23*
G36*
X160473966Y-88797774D02*
G01*
X160618129Y-88941937D01*
X160787647Y-89055205D01*
X160976005Y-89133226D01*
X161175964Y-89173000D01*
X161379842Y-89173000D01*
X161579801Y-89133226D01*
X161768159Y-89055205D01*
X161937677Y-88941937D01*
X162081840Y-88797774D01*
X162098393Y-88773000D01*
X162674903Y-88773000D01*
X162674903Y-94341341D01*
X162654129Y-94236902D01*
X162576108Y-94048544D01*
X162462840Y-93879026D01*
X162318677Y-93734863D01*
X162149159Y-93621595D01*
X161960801Y-93543574D01*
X161760842Y-93503800D01*
X161556964Y-93503800D01*
X161357005Y-93543574D01*
X161168647Y-93621595D01*
X160999129Y-93734863D01*
X160854966Y-93879026D01*
X160741698Y-94048544D01*
X160663677Y-94236902D01*
X160623903Y-94436861D01*
X160623903Y-94640739D01*
X160663677Y-94840698D01*
X160741698Y-95029056D01*
X160854966Y-95198574D01*
X160999129Y-95342737D01*
X161168647Y-95456005D01*
X161357005Y-95534026D01*
X161556964Y-95573800D01*
X161760842Y-95573800D01*
X161960801Y-95534026D01*
X162149159Y-95456005D01*
X162318677Y-95342737D01*
X162462840Y-95198574D01*
X162576108Y-95029056D01*
X162654129Y-94840698D01*
X162674903Y-94736259D01*
X162674903Y-99949000D01*
X160024252Y-99949000D01*
X159922840Y-99797226D01*
X159778677Y-99653063D01*
X159774411Y-99650212D01*
X159919108Y-99590277D01*
X160064058Y-99493424D01*
X160187327Y-99370155D01*
X160284180Y-99225205D01*
X160350893Y-99064145D01*
X160384903Y-98893165D01*
X160384903Y-98718835D01*
X160350893Y-98547855D01*
X160300005Y-98425000D01*
X160350893Y-98302145D01*
X160384903Y-98131165D01*
X160384903Y-97956835D01*
X160350893Y-97785855D01*
X160300005Y-97663000D01*
X160350893Y-97540145D01*
X160384903Y-97369165D01*
X160384903Y-97194835D01*
X160350893Y-97023855D01*
X160300005Y-96901000D01*
X160350893Y-96778145D01*
X160384903Y-96607165D01*
X160384903Y-96432835D01*
X160350893Y-96261855D01*
X160284180Y-96100795D01*
X160187327Y-95955845D01*
X160064058Y-95832576D01*
X159919108Y-95735723D01*
X159758048Y-95669010D01*
X159587068Y-95635000D01*
X159412738Y-95635000D01*
X159241758Y-95669010D01*
X159080698Y-95735723D01*
X158935748Y-95832576D01*
X158812479Y-95955845D01*
X158715626Y-96100795D01*
X158648913Y-96261855D01*
X158614903Y-96432835D01*
X158614903Y-96607165D01*
X158648913Y-96778145D01*
X158699801Y-96901000D01*
X158648913Y-97023855D01*
X158614903Y-97194835D01*
X158614903Y-97369165D01*
X158648913Y-97540145D01*
X158699801Y-97663000D01*
X158648913Y-97785855D01*
X158614903Y-97956835D01*
X158614903Y-98131165D01*
X158648913Y-98302145D01*
X158699801Y-98425000D01*
X158648913Y-98547855D01*
X158614903Y-98718835D01*
X158614903Y-98893165D01*
X158648913Y-99064145D01*
X158715626Y-99225205D01*
X158812479Y-99370155D01*
X158889648Y-99447324D01*
X158817005Y-99461774D01*
X158628647Y-99539795D01*
X158459129Y-99653063D01*
X158314966Y-99797226D01*
X158236409Y-99914795D01*
X158127677Y-99806063D01*
X157958159Y-99692795D01*
X157769801Y-99614774D01*
X157569842Y-99575000D01*
X157365964Y-99575000D01*
X157166005Y-99614774D01*
X156977647Y-99692795D01*
X156808129Y-99806063D01*
X156663966Y-99950226D01*
X156550698Y-100119744D01*
X156472677Y-100308102D01*
X156432903Y-100508061D01*
X156432903Y-100711939D01*
X156472677Y-100911898D01*
X156550698Y-101100256D01*
X156663966Y-101269774D01*
X156808129Y-101413937D01*
X156977647Y-101527205D01*
X157166005Y-101605226D01*
X157365964Y-101645000D01*
X157569842Y-101645000D01*
X157769801Y-101605226D01*
X157958159Y-101527205D01*
X158127677Y-101413937D01*
X158271840Y-101269774D01*
X158350397Y-101152205D01*
X158459129Y-101260937D01*
X158628647Y-101374205D01*
X158817005Y-101452226D01*
X158864903Y-101461753D01*
X158864903Y-107442000D01*
X158867343Y-107466776D01*
X158874570Y-107490601D01*
X158886306Y-107512557D01*
X158902100Y-107531803D01*
X158921346Y-107547597D01*
X158943302Y-107559333D01*
X158967127Y-107566560D01*
X158989787Y-107568982D01*
X159252654Y-107573363D01*
X159304890Y-107637013D01*
X159401116Y-107715983D01*
X159510899Y-107774664D01*
X159630021Y-107810799D01*
X159753903Y-107823000D01*
X166484903Y-107823000D01*
X166484903Y-108095520D01*
X166443072Y-108103841D01*
X166254714Y-108181862D01*
X166085196Y-108295130D01*
X165941033Y-108439293D01*
X165827765Y-108608811D01*
X165749744Y-108797169D01*
X165709970Y-108997128D01*
X165709970Y-109201006D01*
X165749149Y-109397973D01*
X165698129Y-109432063D01*
X165553966Y-109576226D01*
X165440698Y-109745744D01*
X165362677Y-109934102D01*
X165322903Y-110134061D01*
X165322903Y-110337939D01*
X165362677Y-110537898D01*
X165395671Y-110617552D01*
X165294005Y-110637774D01*
X165105647Y-110715795D01*
X164936129Y-110829063D01*
X164791966Y-110973226D01*
X164678698Y-111142744D01*
X164600677Y-111331102D01*
X164560903Y-111531061D01*
X164560903Y-111734939D01*
X164600677Y-111934898D01*
X164678698Y-112123256D01*
X164791966Y-112292774D01*
X164936129Y-112436937D01*
X165105647Y-112550205D01*
X165294005Y-112628226D01*
X165449903Y-112659236D01*
X165449903Y-112750939D01*
X165489677Y-112950898D01*
X165567698Y-113139256D01*
X165586236Y-113167001D01*
X165556068Y-113161000D01*
X165381738Y-113161000D01*
X165210758Y-113195010D01*
X165049698Y-113261723D01*
X164904748Y-113358576D01*
X164781479Y-113481845D01*
X164684626Y-113626795D01*
X164617913Y-113787855D01*
X164583903Y-113958835D01*
X164583903Y-114133165D01*
X164617913Y-114304145D01*
X164684626Y-114465205D01*
X164781479Y-114610155D01*
X164904748Y-114733424D01*
X165049698Y-114830277D01*
X165210758Y-114896990D01*
X165381738Y-114931000D01*
X165556068Y-114931000D01*
X165727048Y-114896990D01*
X165888108Y-114830277D01*
X166033058Y-114733424D01*
X166156327Y-114610155D01*
X166253180Y-114465205D01*
X166319893Y-114304145D01*
X166353903Y-114133165D01*
X166353903Y-113958835D01*
X166319893Y-113787855D01*
X166267349Y-113661003D01*
X166382964Y-113684000D01*
X166484903Y-113684000D01*
X166484903Y-116205000D01*
X166487343Y-116229776D01*
X166494570Y-116253601D01*
X166506306Y-116275557D01*
X166522100Y-116294803D01*
X166541346Y-116310597D01*
X166563302Y-116322333D01*
X166587127Y-116329560D01*
X166611903Y-116332000D01*
X172074236Y-116332000D01*
X172084517Y-117306150D01*
X172044698Y-117365744D01*
X171966677Y-117554102D01*
X171926903Y-117754061D01*
X171926903Y-117957939D01*
X171966677Y-118157898D01*
X172044698Y-118346256D01*
X172096310Y-118423499D01*
X172096956Y-118484687D01*
X170455114Y-118485158D01*
X170573677Y-118405937D01*
X170717840Y-118261774D01*
X170831108Y-118092256D01*
X170909129Y-117903898D01*
X170948903Y-117703939D01*
X170948903Y-117500061D01*
X170909129Y-117300102D01*
X170831108Y-117111744D01*
X170717840Y-116942226D01*
X170573677Y-116798063D01*
X170404159Y-116684795D01*
X170215801Y-116606774D01*
X170015842Y-116567000D01*
X169811964Y-116567000D01*
X169612005Y-116606774D01*
X169423647Y-116684795D01*
X169254129Y-116798063D01*
X169109966Y-116942226D01*
X168996698Y-117111744D01*
X168918677Y-117300102D01*
X168878903Y-117500061D01*
X168878903Y-117703939D01*
X168918677Y-117903898D01*
X168996698Y-118092256D01*
X169109966Y-118261774D01*
X169254129Y-118405937D01*
X169373157Y-118485469D01*
X167647617Y-118485964D01*
X167656108Y-118473256D01*
X167734129Y-118284898D01*
X167773903Y-118084939D01*
X167773903Y-117881061D01*
X167734129Y-117681102D01*
X167656108Y-117492744D01*
X167542840Y-117323226D01*
X167398677Y-117179063D01*
X167229159Y-117065795D01*
X167040801Y-116987774D01*
X166840842Y-116948000D01*
X166636964Y-116948000D01*
X166437005Y-116987774D01*
X166248647Y-117065795D01*
X166079129Y-117179063D01*
X165934966Y-117323226D01*
X165821698Y-117492744D01*
X165743677Y-117681102D01*
X165703903Y-117881061D01*
X165703903Y-118084939D01*
X165743677Y-118284898D01*
X165821698Y-118473256D01*
X165830538Y-118486486D01*
X164514157Y-118486863D01*
X164608108Y-118346256D01*
X164686129Y-118157898D01*
X164725903Y-117957939D01*
X164725903Y-117754061D01*
X164686129Y-117554102D01*
X164608108Y-117365744D01*
X164494840Y-117196226D01*
X164350677Y-117052063D01*
X164181159Y-116938795D01*
X163992801Y-116860774D01*
X163792842Y-116821000D01*
X163588964Y-116821000D01*
X163389005Y-116860774D01*
X163200647Y-116938795D01*
X163031129Y-117052063D01*
X162886966Y-117196226D01*
X162773698Y-117365744D01*
X162695677Y-117554102D01*
X162655903Y-117754061D01*
X162655903Y-117957939D01*
X162695677Y-118157898D01*
X162773698Y-118346256D01*
X162867964Y-118487336D01*
X161347842Y-118487772D01*
X161446840Y-118388774D01*
X161560108Y-118219256D01*
X161638129Y-118030898D01*
X161677903Y-117830939D01*
X161677903Y-117627061D01*
X161638129Y-117427102D01*
X161560108Y-117238744D01*
X161446840Y-117069226D01*
X161302677Y-116925063D01*
X161133159Y-116811795D01*
X160944801Y-116733774D01*
X160744842Y-116694000D01*
X160540964Y-116694000D01*
X160341005Y-116733774D01*
X160152647Y-116811795D01*
X159983129Y-116925063D01*
X159838966Y-117069226D01*
X159725698Y-117238744D01*
X159647677Y-117427102D01*
X159607903Y-117627061D01*
X159607903Y-117830939D01*
X159647677Y-118030898D01*
X159725698Y-118219256D01*
X159838966Y-118388774D01*
X159938369Y-118488177D01*
X158243453Y-118488663D01*
X158209129Y-118316102D01*
X158131108Y-118127744D01*
X158017840Y-117958226D01*
X157873677Y-117814063D01*
X157704159Y-117700795D01*
X157515801Y-117622774D01*
X157315842Y-117583000D01*
X157111964Y-117583000D01*
X156912005Y-117622774D01*
X156723647Y-117700795D01*
X156554129Y-117814063D01*
X156409966Y-117958226D01*
X156296698Y-118127744D01*
X156218677Y-118316102D01*
X156184235Y-118489254D01*
X155068635Y-118489574D01*
X155034129Y-118316102D01*
X154956108Y-118127744D01*
X154842840Y-117958226D01*
X154698677Y-117814063D01*
X154529159Y-117700795D01*
X154340801Y-117622774D01*
X154140842Y-117583000D01*
X153936964Y-117583000D01*
X153737005Y-117622774D01*
X153548647Y-117700795D01*
X153379129Y-117814063D01*
X153234966Y-117958226D01*
X153121698Y-118127744D01*
X153043677Y-118316102D01*
X153009054Y-118490166D01*
X151995548Y-118490456D01*
X151986129Y-118443102D01*
X151908108Y-118254744D01*
X151794840Y-118085226D01*
X151650677Y-117941063D01*
X151481159Y-117827795D01*
X151292801Y-117749774D01*
X151092842Y-117710000D01*
X150888964Y-117710000D01*
X150689005Y-117749774D01*
X150500647Y-117827795D01*
X150331129Y-117941063D01*
X150186966Y-118085226D01*
X150073698Y-118254744D01*
X149995677Y-118443102D01*
X149955903Y-118643061D01*
X149955903Y-118846939D01*
X149974903Y-118942459D01*
X149974903Y-119306194D01*
X149956649Y-119307992D01*
X149790053Y-119358528D01*
X149636517Y-119440595D01*
X149501941Y-119551038D01*
X149391498Y-119685614D01*
X149309431Y-119839150D01*
X149258895Y-120005746D01*
X149241831Y-120179000D01*
X149241831Y-121539000D01*
X144386903Y-121539000D01*
X144386903Y-117246061D01*
X146272903Y-117246061D01*
X146272903Y-117449939D01*
X146312677Y-117649898D01*
X146390698Y-117838256D01*
X146503966Y-118007774D01*
X146648129Y-118151937D01*
X146817647Y-118265205D01*
X147006005Y-118343226D01*
X147205964Y-118383000D01*
X147409842Y-118383000D01*
X147546269Y-118355863D01*
X147582677Y-118538898D01*
X147660698Y-118727256D01*
X147773966Y-118896774D01*
X147918129Y-119040937D01*
X148087647Y-119154205D01*
X148276005Y-119232226D01*
X148475964Y-119272000D01*
X148679842Y-119272000D01*
X148879801Y-119232226D01*
X149068159Y-119154205D01*
X149237677Y-119040937D01*
X149381840Y-118896774D01*
X149495108Y-118727256D01*
X149573129Y-118538898D01*
X149612903Y-118338939D01*
X149612903Y-118135061D01*
X149573129Y-117935102D01*
X149495108Y-117746744D01*
X149381840Y-117577226D01*
X149237677Y-117433063D01*
X149068159Y-117319795D01*
X148879801Y-117241774D01*
X148679842Y-117202000D01*
X148616882Y-117202000D01*
X148625801Y-117200226D01*
X148814159Y-117122205D01*
X148983677Y-117008937D01*
X149127840Y-116864774D01*
X149241108Y-116695256D01*
X149319129Y-116506898D01*
X149358903Y-116306939D01*
X149358903Y-116103061D01*
X149319129Y-115903102D01*
X149241108Y-115714744D01*
X149127840Y-115545226D01*
X149103681Y-115521067D01*
X149142058Y-115495424D01*
X149265327Y-115372155D01*
X149362180Y-115227205D01*
X149428893Y-115066145D01*
X149462903Y-114895165D01*
X149462903Y-114720835D01*
X149428893Y-114549855D01*
X149362180Y-114388795D01*
X149265327Y-114243845D01*
X149142058Y-114120576D01*
X148997108Y-114023723D01*
X148840454Y-113958835D01*
X161535903Y-113958835D01*
X161535903Y-114133165D01*
X161569913Y-114304145D01*
X161636626Y-114465205D01*
X161733479Y-114610155D01*
X161856748Y-114733424D01*
X162001698Y-114830277D01*
X162162758Y-114896990D01*
X162333738Y-114931000D01*
X162508068Y-114931000D01*
X162679048Y-114896990D01*
X162840108Y-114830277D01*
X162985058Y-114733424D01*
X163108327Y-114610155D01*
X163205180Y-114465205D01*
X163271893Y-114304145D01*
X163305903Y-114133165D01*
X163305903Y-113958835D01*
X163271893Y-113787855D01*
X163205180Y-113626795D01*
X163108327Y-113481845D01*
X162985058Y-113358576D01*
X162840108Y-113261723D01*
X162679048Y-113195010D01*
X162508068Y-113161000D01*
X162333738Y-113161000D01*
X162162758Y-113195010D01*
X162001698Y-113261723D01*
X161856748Y-113358576D01*
X161733479Y-113481845D01*
X161636626Y-113626795D01*
X161569913Y-113787855D01*
X161535903Y-113958835D01*
X148840454Y-113958835D01*
X148836048Y-113957010D01*
X148665068Y-113923000D01*
X148490738Y-113923000D01*
X148319758Y-113957010D01*
X148158698Y-114023723D01*
X148013748Y-114120576D01*
X147890479Y-114243845D01*
X147793626Y-114388795D01*
X147726913Y-114549855D01*
X147692903Y-114720835D01*
X147692903Y-114895165D01*
X147726913Y-115066145D01*
X147793626Y-115227205D01*
X147834011Y-115287644D01*
X147833647Y-115287795D01*
X147664129Y-115401063D01*
X147519966Y-115545226D01*
X147406698Y-115714744D01*
X147328677Y-115903102D01*
X147288903Y-116103061D01*
X147288903Y-116306939D01*
X147290109Y-116313000D01*
X147205964Y-116313000D01*
X147006005Y-116352774D01*
X146817647Y-116430795D01*
X146648129Y-116544063D01*
X146503966Y-116688226D01*
X146390698Y-116857744D01*
X146312677Y-117046102D01*
X146272903Y-117246061D01*
X144386903Y-117246061D01*
X144386903Y-113483612D01*
X144495559Y-113438605D01*
X144665077Y-113325337D01*
X144809240Y-113181174D01*
X144922508Y-113011656D01*
X145000529Y-112823298D01*
X145040303Y-112623339D01*
X145040303Y-112419461D01*
X145000529Y-112219502D01*
X144980768Y-112171794D01*
X147701944Y-112171794D01*
X147701944Y-112346124D01*
X147735954Y-112517104D01*
X147802667Y-112678164D01*
X147899520Y-112823114D01*
X148022789Y-112946383D01*
X148167739Y-113043236D01*
X148328799Y-113109949D01*
X148499779Y-113143959D01*
X148674109Y-113143959D01*
X148779699Y-113122956D01*
X148809626Y-113195205D01*
X148906479Y-113340155D01*
X149029748Y-113463424D01*
X149174698Y-113560277D01*
X149335758Y-113626990D01*
X149506738Y-113661000D01*
X149681068Y-113661000D01*
X149852048Y-113626990D01*
X150013108Y-113560277D01*
X150158058Y-113463424D01*
X150281327Y-113340155D01*
X150378180Y-113195205D01*
X150444893Y-113034145D01*
X150478903Y-112863165D01*
X150478903Y-112688835D01*
X150444893Y-112517855D01*
X150378180Y-112356795D01*
X150331979Y-112287650D01*
X150844903Y-112287650D01*
X150844903Y-112491528D01*
X150884677Y-112691487D01*
X150962698Y-112879845D01*
X151075966Y-113049363D01*
X151220129Y-113193526D01*
X151389647Y-113306794D01*
X151578005Y-113384815D01*
X151777964Y-113424589D01*
X151981842Y-113424589D01*
X152181801Y-113384815D01*
X152370159Y-113306794D01*
X152539677Y-113193526D01*
X152683840Y-113049363D01*
X152797108Y-112879845D01*
X152875129Y-112691487D01*
X152914903Y-112491528D01*
X152914903Y-112287650D01*
X152875129Y-112087691D01*
X152797108Y-111899333D01*
X152683840Y-111729815D01*
X152539677Y-111585652D01*
X152370159Y-111472384D01*
X152181801Y-111394363D01*
X151981842Y-111354589D01*
X151777964Y-111354589D01*
X151578005Y-111394363D01*
X151389647Y-111472384D01*
X151220129Y-111585652D01*
X151075966Y-111729815D01*
X150962698Y-111899333D01*
X150884677Y-112087691D01*
X150844903Y-112287650D01*
X150331979Y-112287650D01*
X150281327Y-112211845D01*
X150158058Y-112088576D01*
X150013108Y-111991723D01*
X149852048Y-111925010D01*
X149681068Y-111891000D01*
X149506738Y-111891000D01*
X149401148Y-111912003D01*
X149389694Y-111884352D01*
X149418033Y-111815935D01*
X149471048Y-111805390D01*
X149632108Y-111738677D01*
X149777058Y-111641824D01*
X149900327Y-111518555D01*
X149997180Y-111373605D01*
X150063893Y-111212545D01*
X150097903Y-111041565D01*
X150097903Y-110867235D01*
X150063893Y-110696255D01*
X149997180Y-110535195D01*
X149900327Y-110390245D01*
X149777058Y-110266976D01*
X149632108Y-110170123D01*
X149471048Y-110103410D01*
X149300068Y-110069400D01*
X149125738Y-110069400D01*
X148954758Y-110103410D01*
X148793698Y-110170123D01*
X148648748Y-110266976D01*
X148525479Y-110390245D01*
X148428626Y-110535195D01*
X148390855Y-110626383D01*
X148337840Y-110636928D01*
X148176780Y-110703641D01*
X148031830Y-110800494D01*
X147908561Y-110923763D01*
X147811708Y-111068713D01*
X147744995Y-111229773D01*
X147710985Y-111400753D01*
X147710985Y-111575083D01*
X147744995Y-111746063D01*
X147793235Y-111862525D01*
X147735954Y-112000814D01*
X147701944Y-112171794D01*
X144980768Y-112171794D01*
X144922508Y-112031144D01*
X144809240Y-111861626D01*
X144665077Y-111717463D01*
X144495559Y-111604195D01*
X144307201Y-111526174D01*
X144107242Y-111486400D01*
X143903364Y-111486400D01*
X143703405Y-111526174D01*
X143515047Y-111604195D01*
X143345529Y-111717463D01*
X143201366Y-111861626D01*
X143088098Y-112031144D01*
X143010077Y-112219502D01*
X142970303Y-112419461D01*
X142970303Y-112623339D01*
X143010077Y-112823298D01*
X143088098Y-113011656D01*
X143185213Y-113157000D01*
X138544903Y-113157000D01*
X138544903Y-110514468D01*
X138573108Y-110472256D01*
X138651129Y-110283898D01*
X138690903Y-110083939D01*
X138690903Y-109880061D01*
X138651129Y-109680102D01*
X138628745Y-109626061D01*
X140430903Y-109626061D01*
X140430903Y-109829939D01*
X140470677Y-110029898D01*
X140548698Y-110218256D01*
X140661966Y-110387774D01*
X140806129Y-110531937D01*
X140975647Y-110645205D01*
X141164005Y-110723226D01*
X141363964Y-110763000D01*
X141567842Y-110763000D01*
X141767801Y-110723226D01*
X141956159Y-110645205D01*
X142125677Y-110531937D01*
X142269840Y-110387774D01*
X142383108Y-110218256D01*
X142461129Y-110029898D01*
X142500903Y-109829939D01*
X142500903Y-109626061D01*
X142461129Y-109426102D01*
X142383108Y-109237744D01*
X142269840Y-109068226D01*
X142125677Y-108924063D01*
X141956159Y-108810795D01*
X141767801Y-108732774D01*
X141567842Y-108693000D01*
X141363964Y-108693000D01*
X141164005Y-108732774D01*
X140975647Y-108810795D01*
X140806129Y-108924063D01*
X140661966Y-109068226D01*
X140548698Y-109237744D01*
X140470677Y-109426102D01*
X140430903Y-109626061D01*
X138628745Y-109626061D01*
X138573108Y-109491744D01*
X138561252Y-109474000D01*
X138573108Y-109456256D01*
X138651129Y-109267898D01*
X138690903Y-109067939D01*
X138690903Y-108864061D01*
X138651129Y-108664102D01*
X138573108Y-108475744D01*
X138544903Y-108433532D01*
X138544903Y-107735835D01*
X144009903Y-107735835D01*
X144009903Y-107910165D01*
X144043913Y-108081145D01*
X144110626Y-108242205D01*
X144207479Y-108387155D01*
X144330748Y-108510424D01*
X144475698Y-108607277D01*
X144636758Y-108673990D01*
X144807738Y-108708000D01*
X144982068Y-108708000D01*
X145153048Y-108673990D01*
X145314108Y-108607277D01*
X145459058Y-108510424D01*
X145582327Y-108387155D01*
X145679180Y-108242205D01*
X145745893Y-108081145D01*
X145779903Y-107910165D01*
X145779903Y-107862835D01*
X148200903Y-107862835D01*
X148200903Y-108037165D01*
X148234913Y-108208145D01*
X148301626Y-108369205D01*
X148398479Y-108514155D01*
X148521748Y-108637424D01*
X148666698Y-108734277D01*
X148827758Y-108800990D01*
X148998738Y-108835000D01*
X149173068Y-108835000D01*
X149344048Y-108800990D01*
X149505108Y-108734277D01*
X149650058Y-108637424D01*
X149773327Y-108514155D01*
X149870180Y-108369205D01*
X149936893Y-108208145D01*
X149970903Y-108037165D01*
X149970903Y-107862835D01*
X149936893Y-107691855D01*
X149870180Y-107530795D01*
X149773327Y-107385845D01*
X149650058Y-107262576D01*
X149505108Y-107165723D01*
X149344048Y-107099010D01*
X149173068Y-107065000D01*
X148998738Y-107065000D01*
X148827758Y-107099010D01*
X148666698Y-107165723D01*
X148521748Y-107262576D01*
X148398479Y-107385845D01*
X148301626Y-107530795D01*
X148234913Y-107691855D01*
X148200903Y-107862835D01*
X145779903Y-107862835D01*
X145779903Y-107735835D01*
X145745893Y-107564855D01*
X145679180Y-107403795D01*
X145582327Y-107258845D01*
X145459058Y-107135576D01*
X145314108Y-107038723D01*
X145153048Y-106972010D01*
X144982068Y-106938000D01*
X144807738Y-106938000D01*
X144636758Y-106972010D01*
X144475698Y-107038723D01*
X144330748Y-107135576D01*
X144207479Y-107258845D01*
X144110626Y-107403795D01*
X144043913Y-107564855D01*
X144009903Y-107735835D01*
X138544903Y-107735835D01*
X138544903Y-105050635D01*
X138802903Y-105050635D01*
X138802903Y-105224965D01*
X138836913Y-105395945D01*
X138903626Y-105557005D01*
X139000479Y-105701955D01*
X139123748Y-105825224D01*
X139268698Y-105922077D01*
X139429758Y-105988790D01*
X139600738Y-106022800D01*
X139775068Y-106022800D01*
X139946048Y-105988790D01*
X140107108Y-105922077D01*
X140252058Y-105825224D01*
X140375327Y-105701955D01*
X140472180Y-105557005D01*
X140538893Y-105395945D01*
X140572903Y-105224965D01*
X140572903Y-105050635D01*
X140538893Y-104879655D01*
X140472180Y-104718595D01*
X140375327Y-104573645D01*
X140252058Y-104450376D01*
X140107108Y-104353523D01*
X139994393Y-104306835D01*
X143628903Y-104306835D01*
X143628903Y-104481165D01*
X143662913Y-104652145D01*
X143729626Y-104813205D01*
X143826479Y-104958155D01*
X143949748Y-105081424D01*
X144094698Y-105178277D01*
X144255758Y-105244990D01*
X144426738Y-105279000D01*
X144601068Y-105279000D01*
X144772048Y-105244990D01*
X144933108Y-105178277D01*
X145078058Y-105081424D01*
X145201327Y-104958155D01*
X145298180Y-104813205D01*
X145364893Y-104652145D01*
X145398903Y-104481165D01*
X145398903Y-104306835D01*
X150455000Y-104306835D01*
X150455000Y-104481165D01*
X150489010Y-104652145D01*
X150555723Y-104813205D01*
X150652576Y-104958155D01*
X150775845Y-105081424D01*
X150920795Y-105178277D01*
X151081855Y-105244990D01*
X151252835Y-105279000D01*
X151427165Y-105279000D01*
X151598145Y-105244990D01*
X151759205Y-105178277D01*
X151904155Y-105081424D01*
X152027424Y-104958155D01*
X152124277Y-104813205D01*
X152190990Y-104652145D01*
X152225000Y-104481165D01*
X152225000Y-104306835D01*
X152190990Y-104135855D01*
X152124277Y-103974795D01*
X152027424Y-103829845D01*
X151904155Y-103706576D01*
X151759205Y-103609723D01*
X151598145Y-103543010D01*
X151427165Y-103509000D01*
X151252835Y-103509000D01*
X151081855Y-103543010D01*
X150920795Y-103609723D01*
X150775845Y-103706576D01*
X150652576Y-103829845D01*
X150555723Y-103974795D01*
X150489010Y-104135855D01*
X150455000Y-104306835D01*
X145398903Y-104306835D01*
X145364893Y-104135855D01*
X145298180Y-103974795D01*
X145201327Y-103829845D01*
X145078058Y-103706576D01*
X144933108Y-103609723D01*
X144772048Y-103543010D01*
X144601068Y-103509000D01*
X144426738Y-103509000D01*
X144255758Y-103543010D01*
X144094698Y-103609723D01*
X143949748Y-103706576D01*
X143826479Y-103829845D01*
X143729626Y-103974795D01*
X143662913Y-104135855D01*
X143628903Y-104306835D01*
X139994393Y-104306835D01*
X139946048Y-104286810D01*
X139775068Y-104252800D01*
X139600738Y-104252800D01*
X139429758Y-104286810D01*
X139268698Y-104353523D01*
X139123748Y-104450376D01*
X139000479Y-104573645D01*
X138903626Y-104718595D01*
X138836913Y-104879655D01*
X138802903Y-105050635D01*
X138544903Y-105050635D01*
X138544903Y-102782835D01*
X144644903Y-102782835D01*
X144644903Y-102957165D01*
X144678913Y-103128145D01*
X144745626Y-103289205D01*
X144842479Y-103434155D01*
X144965748Y-103557424D01*
X145110698Y-103654277D01*
X145271758Y-103720990D01*
X145442738Y-103755000D01*
X145617068Y-103755000D01*
X145788048Y-103720990D01*
X145949108Y-103654277D01*
X146094058Y-103557424D01*
X146217327Y-103434155D01*
X146314180Y-103289205D01*
X146380893Y-103128145D01*
X146414903Y-102957165D01*
X146414903Y-102782835D01*
X146380893Y-102611855D01*
X146314180Y-102450795D01*
X146217327Y-102305845D01*
X146094058Y-102182576D01*
X145949108Y-102085723D01*
X145788048Y-102019010D01*
X145617068Y-101985000D01*
X145442738Y-101985000D01*
X145271758Y-102019010D01*
X145110698Y-102085723D01*
X144965748Y-102182576D01*
X144842479Y-102305845D01*
X144745626Y-102450795D01*
X144678913Y-102611855D01*
X144644903Y-102782835D01*
X138544903Y-102782835D01*
X138544903Y-100447511D01*
X138647129Y-100549737D01*
X138816647Y-100663005D01*
X139005005Y-100741026D01*
X139204964Y-100780800D01*
X139408842Y-100780800D01*
X139608801Y-100741026D01*
X139797159Y-100663005D01*
X139966677Y-100549737D01*
X140110840Y-100405574D01*
X140224108Y-100236056D01*
X140302129Y-100047698D01*
X140341903Y-99847739D01*
X140341903Y-99734835D01*
X145152903Y-99734835D01*
X145152903Y-99909165D01*
X145186913Y-100080145D01*
X145253626Y-100241205D01*
X145350479Y-100386155D01*
X145473748Y-100509424D01*
X145618698Y-100606277D01*
X145779758Y-100672990D01*
X145924654Y-100701812D01*
X145914903Y-100750835D01*
X145914903Y-100925165D01*
X145948913Y-101096145D01*
X146015626Y-101257205D01*
X146112479Y-101402155D01*
X146235748Y-101525424D01*
X146380698Y-101622277D01*
X146541758Y-101688990D01*
X146658057Y-101712123D01*
X146708625Y-101834206D01*
X146805478Y-101979156D01*
X146928747Y-102102425D01*
X147073697Y-102199278D01*
X147234757Y-102265991D01*
X147405737Y-102300001D01*
X147580067Y-102300001D01*
X147751047Y-102265991D01*
X147912107Y-102199278D01*
X148057057Y-102102425D01*
X148180326Y-101979156D01*
X148277179Y-101834206D01*
X148343892Y-101673146D01*
X148377902Y-101502166D01*
X148377902Y-101327836D01*
X148364177Y-101258835D01*
X151756903Y-101258835D01*
X151756903Y-101433165D01*
X151790913Y-101604145D01*
X151857626Y-101765205D01*
X151954479Y-101910155D01*
X152077748Y-102033424D01*
X152222698Y-102130277D01*
X152383758Y-102196990D01*
X152554738Y-102231000D01*
X152729068Y-102231000D01*
X152900048Y-102196990D01*
X153061108Y-102130277D01*
X153206058Y-102033424D01*
X153218647Y-102020835D01*
X155312903Y-102020835D01*
X155312903Y-102195165D01*
X155346913Y-102366145D01*
X155413626Y-102527205D01*
X155472957Y-102616000D01*
X155413626Y-102704795D01*
X155346913Y-102865855D01*
X155312903Y-103036835D01*
X155312903Y-103211165D01*
X155346913Y-103382145D01*
X155413626Y-103543205D01*
X155510479Y-103688155D01*
X155633748Y-103811424D01*
X155778698Y-103908277D01*
X155939758Y-103974990D01*
X156110738Y-104009000D01*
X156285068Y-104009000D01*
X156456048Y-103974990D01*
X156617108Y-103908277D01*
X156762058Y-103811424D01*
X156861466Y-103712016D01*
X156871516Y-103762542D01*
X156938229Y-103923602D01*
X157035082Y-104068552D01*
X157158351Y-104191821D01*
X157303301Y-104288674D01*
X157336143Y-104302278D01*
X157288479Y-104349942D01*
X157191626Y-104494892D01*
X157124913Y-104655952D01*
X157090903Y-104826932D01*
X157090903Y-105001262D01*
X157124913Y-105172242D01*
X157191626Y-105333302D01*
X157288479Y-105478252D01*
X157411748Y-105601521D01*
X157556698Y-105698374D01*
X157717758Y-105765087D01*
X157888738Y-105799097D01*
X158063068Y-105799097D01*
X158234048Y-105765087D01*
X158395108Y-105698374D01*
X158540058Y-105601521D01*
X158663327Y-105478252D01*
X158760180Y-105333302D01*
X158826893Y-105172242D01*
X158860903Y-105001262D01*
X158860903Y-104826932D01*
X158826893Y-104655952D01*
X158760180Y-104494892D01*
X158663327Y-104349942D01*
X158540058Y-104226673D01*
X158395108Y-104129820D01*
X158362266Y-104116216D01*
X158409930Y-104068552D01*
X158506783Y-103923602D01*
X158573496Y-103762542D01*
X158607506Y-103591562D01*
X158607506Y-103417232D01*
X158573496Y-103246252D01*
X158506783Y-103085192D01*
X158409930Y-102940242D01*
X158286661Y-102816973D01*
X158141711Y-102720120D01*
X157980651Y-102653407D01*
X157809671Y-102619397D01*
X157635341Y-102619397D01*
X157464361Y-102653407D01*
X157303301Y-102720120D01*
X157158351Y-102816973D01*
X157058943Y-102916381D01*
X157048893Y-102865855D01*
X156982180Y-102704795D01*
X156922849Y-102616000D01*
X156982180Y-102527205D01*
X157048893Y-102366145D01*
X157082903Y-102195165D01*
X157082903Y-102020835D01*
X157048893Y-101849855D01*
X156982180Y-101688795D01*
X156885327Y-101543845D01*
X156762058Y-101420576D01*
X156617108Y-101323723D01*
X156456048Y-101257010D01*
X156285068Y-101223000D01*
X156110738Y-101223000D01*
X155939758Y-101257010D01*
X155778698Y-101323723D01*
X155633748Y-101420576D01*
X155510479Y-101543845D01*
X155413626Y-101688795D01*
X155346913Y-101849855D01*
X155312903Y-102020835D01*
X153218647Y-102020835D01*
X153329327Y-101910155D01*
X153426180Y-101765205D01*
X153492893Y-101604145D01*
X153526903Y-101433165D01*
X153526903Y-101258835D01*
X153492893Y-101087855D01*
X153426180Y-100926795D01*
X153329327Y-100781845D01*
X153206058Y-100658576D01*
X153061108Y-100561723D01*
X152900048Y-100495010D01*
X152729068Y-100461000D01*
X152554738Y-100461000D01*
X152383758Y-100495010D01*
X152222698Y-100561723D01*
X152077748Y-100658576D01*
X151954479Y-100781845D01*
X151857626Y-100926795D01*
X151790913Y-101087855D01*
X151756903Y-101258835D01*
X148364177Y-101258835D01*
X148343892Y-101156856D01*
X148277179Y-100995796D01*
X148180326Y-100850846D01*
X148057057Y-100727577D01*
X147912107Y-100630724D01*
X147751047Y-100564011D01*
X147634748Y-100540878D01*
X147584180Y-100418795D01*
X147487327Y-100273845D01*
X147364058Y-100150576D01*
X147219108Y-100053723D01*
X147058048Y-99987010D01*
X146913152Y-99958188D01*
X146922903Y-99909165D01*
X146922903Y-99734835D01*
X146888893Y-99563855D01*
X146822180Y-99402795D01*
X146725327Y-99257845D01*
X146602058Y-99134576D01*
X146457108Y-99037723D01*
X146296048Y-98971010D01*
X146125068Y-98937000D01*
X145950738Y-98937000D01*
X145779758Y-98971010D01*
X145618698Y-99037723D01*
X145473748Y-99134576D01*
X145350479Y-99257845D01*
X145253626Y-99402795D01*
X145186913Y-99563855D01*
X145152903Y-99734835D01*
X140341903Y-99734835D01*
X140341903Y-99643861D01*
X140302129Y-99443902D01*
X140224108Y-99255544D01*
X140207980Y-99231407D01*
X140249508Y-99169256D01*
X140327529Y-98980898D01*
X140367303Y-98780939D01*
X140367303Y-98577061D01*
X140327529Y-98377102D01*
X140249508Y-98188744D01*
X140136240Y-98019226D01*
X139992077Y-97875063D01*
X139822559Y-97761795D01*
X139634201Y-97683774D01*
X139434242Y-97644000D01*
X139230364Y-97644000D01*
X139030405Y-97683774D01*
X138842047Y-97761795D01*
X138794903Y-97793296D01*
X138794903Y-97702835D01*
X138760893Y-97531855D01*
X138694180Y-97370795D01*
X138597327Y-97225845D01*
X138544903Y-97173421D01*
X138544903Y-96882579D01*
X138597327Y-96830155D01*
X138694180Y-96685205D01*
X138711047Y-96644482D01*
X150783257Y-96644482D01*
X150783257Y-96818812D01*
X150817267Y-96989792D01*
X150883980Y-97150852D01*
X150980833Y-97295802D01*
X151104102Y-97419071D01*
X151249052Y-97515924D01*
X151410112Y-97582637D01*
X151581092Y-97616647D01*
X151755422Y-97616647D01*
X151926402Y-97582637D01*
X152087462Y-97515924D01*
X152232412Y-97419071D01*
X152355681Y-97295802D01*
X152452534Y-97150852D01*
X152519247Y-96989792D01*
X152553257Y-96818812D01*
X152553257Y-96644482D01*
X152519247Y-96473502D01*
X152452534Y-96312442D01*
X152355681Y-96167492D01*
X152232412Y-96044223D01*
X152087462Y-95947370D01*
X151926402Y-95880657D01*
X151755422Y-95846647D01*
X151581092Y-95846647D01*
X151410112Y-95880657D01*
X151249052Y-95947370D01*
X151104102Y-96044223D01*
X150980833Y-96167492D01*
X150883980Y-96312442D01*
X150817267Y-96473502D01*
X150783257Y-96644482D01*
X138711047Y-96644482D01*
X138760893Y-96524145D01*
X138794903Y-96353165D01*
X138794903Y-96178835D01*
X138760893Y-96007855D01*
X138694180Y-95846795D01*
X138597327Y-95701845D01*
X138544903Y-95649421D01*
X138544903Y-94859055D01*
X142389609Y-94545201D01*
X142434857Y-94612920D01*
X142579020Y-94757083D01*
X142748538Y-94870351D01*
X142936896Y-94948372D01*
X143136855Y-94988146D01*
X143340733Y-94988146D01*
X143540692Y-94948372D01*
X143729050Y-94870351D01*
X143898568Y-94757083D01*
X144000738Y-94654914D01*
X144050561Y-94704737D01*
X144012903Y-94894061D01*
X144012903Y-95097939D01*
X144052677Y-95297898D01*
X144130698Y-95486256D01*
X144243966Y-95655774D01*
X144388129Y-95799937D01*
X144557647Y-95913205D01*
X144746005Y-95991226D01*
X144945964Y-96031000D01*
X145149842Y-96031000D01*
X145349801Y-95991226D01*
X145538159Y-95913205D01*
X145707677Y-95799937D01*
X145851840Y-95655774D01*
X145965108Y-95486256D01*
X146043129Y-95297898D01*
X146082903Y-95097939D01*
X146082903Y-94894061D01*
X146043129Y-94694102D01*
X145965108Y-94505744D01*
X145851840Y-94336226D01*
X145783743Y-94268129D01*
X150874236Y-93852579D01*
X150898732Y-93848131D01*
X150921889Y-93838989D01*
X150942818Y-93825506D01*
X150960714Y-93808198D01*
X150974890Y-93787732D01*
X150983773Y-93767955D01*
X151678515Y-91782979D01*
X151742428Y-91878632D01*
X151949271Y-92085475D01*
X152192492Y-92247990D01*
X152462745Y-92359932D01*
X152749643Y-92417000D01*
X153042163Y-92417000D01*
X153329061Y-92359932D01*
X153599314Y-92247990D01*
X153842535Y-92085475D01*
X154049378Y-91878632D01*
X154165903Y-91704240D01*
X154282428Y-91878632D01*
X154489271Y-92085475D01*
X154732492Y-92247990D01*
X155002745Y-92359932D01*
X155289643Y-92417000D01*
X155582163Y-92417000D01*
X155869061Y-92359932D01*
X156139314Y-92247990D01*
X156382535Y-92085475D01*
X156589378Y-91878632D01*
X156705903Y-91704240D01*
X156822428Y-91878632D01*
X157029271Y-92085475D01*
X157272492Y-92247990D01*
X157542745Y-92359932D01*
X157829643Y-92417000D01*
X158122163Y-92417000D01*
X158409061Y-92359932D01*
X158679314Y-92247990D01*
X158922535Y-92085475D01*
X159129378Y-91878632D01*
X159291893Y-91635411D01*
X159403835Y-91365158D01*
X159460903Y-91078260D01*
X159460903Y-90785740D01*
X159403835Y-90498842D01*
X159291893Y-90228589D01*
X159129378Y-89985368D01*
X158922535Y-89778525D01*
X158679314Y-89616010D01*
X158409061Y-89504068D01*
X158122163Y-89447000D01*
X157829643Y-89447000D01*
X157542745Y-89504068D01*
X157272492Y-89616010D01*
X157029271Y-89778525D01*
X156822428Y-89985368D01*
X156705903Y-90159760D01*
X156589378Y-89985368D01*
X156382535Y-89778525D01*
X156139314Y-89616010D01*
X155869061Y-89504068D01*
X155582163Y-89447000D01*
X155289643Y-89447000D01*
X155002745Y-89504068D01*
X154732492Y-89616010D01*
X154489271Y-89778525D01*
X154282428Y-89985368D01*
X154165903Y-90159760D01*
X154049378Y-89985368D01*
X153842535Y-89778525D01*
X153599314Y-89616010D01*
X153329061Y-89504068D01*
X153042163Y-89447000D01*
X152749643Y-89447000D01*
X152477135Y-89501206D01*
X152645907Y-89019000D01*
X157777655Y-89019000D01*
X157944402Y-89002577D01*
X158158350Y-88937676D01*
X158355526Y-88832284D01*
X158427764Y-88773000D01*
X160457413Y-88773000D01*
X160473966Y-88797774D01*
G37*
%TD.AperFunction*%
%TD*%
D21*
%TO.N,+5V*%
X137782903Y-110617000D02*
X134734903Y-110617000D01*
X134734903Y-108585000D01*
X137782903Y-108585000D01*
X137782903Y-110617000D01*
%TA.AperFunction,Conductor*%
D23*
G36*
X137782903Y-110617000D02*
G01*
X134734903Y-110617000D01*
X134734903Y-108585000D01*
X137782903Y-108585000D01*
X137782903Y-110617000D01*
G37*
%TD.AperFunction*%
%TD*%
D21*
%TO.N,/LTC6810/CellBalance2*%
X189725903Y-116387455D02*
X189703626Y-116420795D01*
X189636913Y-116581855D01*
X189602903Y-116752835D01*
X189602903Y-116927165D01*
X189636913Y-117098145D01*
X189703626Y-117259205D01*
X189725903Y-117292545D01*
X189725903Y-118870331D01*
X187311235Y-121285000D01*
X181978903Y-121285000D01*
X181978903Y-116840000D01*
X181966702Y-116716118D01*
X181930567Y-116596996D01*
X181871886Y-116487213D01*
X181792916Y-116390987D01*
X181724903Y-116335171D01*
X181724903Y-114935000D01*
X189725903Y-114935000D01*
X189725903Y-116387455D01*
%TA.AperFunction,Conductor*%
D23*
G36*
X189725903Y-116387455D02*
G01*
X189703626Y-116420795D01*
X189636913Y-116581855D01*
X189602903Y-116752835D01*
X189602903Y-116927165D01*
X189636913Y-117098145D01*
X189703626Y-117259205D01*
X189725903Y-117292545D01*
X189725903Y-118870331D01*
X187311235Y-121285000D01*
X181978903Y-121285000D01*
X181978903Y-116840000D01*
X181966702Y-116716118D01*
X181930567Y-116596996D01*
X181871886Y-116487213D01*
X181792916Y-116390987D01*
X181724903Y-116335171D01*
X181724903Y-114935000D01*
X189725903Y-114935000D01*
X189725903Y-116387455D01*
G37*
%TD.AperFunction*%
%TD*%
D21*
%TO.N,+BATT*%
X162674903Y-104013000D02*
X162677343Y-104037776D01*
X162684570Y-104061601D01*
X162696306Y-104083557D01*
X162712100Y-104102803D01*
X162731346Y-104118597D01*
X162753302Y-104130333D01*
X162777127Y-104137560D01*
X162801903Y-104140000D01*
X165871302Y-104140000D01*
X165895816Y-104263242D01*
X165962529Y-104424302D01*
X166040608Y-104541155D01*
X165978675Y-104633844D01*
X165911962Y-104794904D01*
X165877952Y-104965884D01*
X165877952Y-105140214D01*
X165911962Y-105311194D01*
X165978675Y-105472254D01*
X166075528Y-105617204D01*
X166198797Y-105740473D01*
X166343747Y-105837326D01*
X166504807Y-105904039D01*
X166675787Y-105938049D01*
X166850117Y-105938049D01*
X167021097Y-105904039D01*
X167182157Y-105837326D01*
X167327107Y-105740473D01*
X167450376Y-105617204D01*
X167547229Y-105472254D01*
X167613942Y-105311194D01*
X167647952Y-105140214D01*
X167647952Y-104965884D01*
X167613942Y-104794904D01*
X167547229Y-104633844D01*
X167469150Y-104516991D01*
X167531083Y-104424302D01*
X167597796Y-104263242D01*
X167622310Y-104140000D01*
X169790903Y-104140000D01*
X169790903Y-104227165D01*
X169824913Y-104398145D01*
X169891626Y-104559205D01*
X169988479Y-104704155D01*
X170111748Y-104827424D01*
X170256698Y-104924277D01*
X170417758Y-104990990D01*
X170588738Y-105025000D01*
X170763068Y-105025000D01*
X170934048Y-104990990D01*
X171095108Y-104924277D01*
X171183903Y-104864946D01*
X171272698Y-104924277D01*
X171433758Y-104990990D01*
X171604738Y-105025000D01*
X171779068Y-105025000D01*
X171950048Y-104990990D01*
X172111108Y-104924277D01*
X172256058Y-104827424D01*
X172379327Y-104704155D01*
X172476180Y-104559205D01*
X172542893Y-104398145D01*
X172576903Y-104227165D01*
X172576903Y-104140000D01*
X176681957Y-104140000D01*
X176622626Y-104228795D01*
X176555913Y-104389855D01*
X176521903Y-104560835D01*
X176521903Y-104729487D01*
X176513758Y-104731107D01*
X176352698Y-104797820D01*
X176207748Y-104894673D01*
X176084479Y-105017942D01*
X175987626Y-105162892D01*
X175920913Y-105323952D01*
X175886903Y-105494932D01*
X175886903Y-105669262D01*
X175920913Y-105840242D01*
X175987626Y-106001302D01*
X176084479Y-106146252D01*
X176207748Y-106269521D01*
X176352698Y-106366374D01*
X176513758Y-106433087D01*
X176684738Y-106467097D01*
X176859068Y-106467097D01*
X177030048Y-106433087D01*
X177191108Y-106366374D01*
X177336058Y-106269521D01*
X177459327Y-106146252D01*
X177556180Y-106001302D01*
X177622893Y-105840242D01*
X177656903Y-105669262D01*
X177656903Y-105500610D01*
X177665048Y-105498990D01*
X177826108Y-105432277D01*
X177971058Y-105335424D01*
X178094327Y-105212155D01*
X178191180Y-105067205D01*
X178257893Y-104906145D01*
X178266524Y-104862755D01*
X178300048Y-104856087D01*
X178461108Y-104789374D01*
X178606058Y-104692521D01*
X178729327Y-104569252D01*
X178826180Y-104424302D01*
X178892893Y-104263242D01*
X178917407Y-104140000D01*
X178930903Y-104140000D01*
X178930903Y-110465532D01*
X178902698Y-110507744D01*
X178824677Y-110696102D01*
X178784903Y-110896061D01*
X178784903Y-111099939D01*
X178824677Y-111299898D01*
X178902698Y-111488256D01*
X178930903Y-111530468D01*
X178930903Y-111760000D01*
X178933343Y-111784776D01*
X178940570Y-111808601D01*
X178952306Y-111830557D01*
X178968100Y-111849803D01*
X178987346Y-111865597D01*
X179009302Y-111877333D01*
X179033127Y-111884560D01*
X179057903Y-111887000D01*
X179287435Y-111887000D01*
X179329647Y-111915205D01*
X179518005Y-111993226D01*
X179717964Y-112033000D01*
X179921842Y-112033000D01*
X180121801Y-111993226D01*
X180310159Y-111915205D01*
X180352371Y-111887000D01*
X181573435Y-111887000D01*
X181615647Y-111915205D01*
X181804005Y-111993226D01*
X182003964Y-112033000D01*
X182207842Y-112033000D01*
X182407801Y-111993226D01*
X182596159Y-111915205D01*
X182638371Y-111887000D01*
X186677903Y-111887000D01*
X186702679Y-111884560D01*
X186726504Y-111877333D01*
X186748460Y-111865597D01*
X186774669Y-111842251D01*
X187476132Y-111017000D01*
X187541842Y-111017000D01*
X187741801Y-110977226D01*
X187930159Y-110899205D01*
X188099677Y-110785937D01*
X188243840Y-110641774D01*
X188357108Y-110472256D01*
X188435129Y-110283898D01*
X188474903Y-110083939D01*
X188474903Y-109880061D01*
X188468764Y-109849198D01*
X188555632Y-109747000D01*
X188557842Y-109747000D01*
X188757801Y-109707226D01*
X188946159Y-109629205D01*
X189115677Y-109515937D01*
X189259840Y-109371774D01*
X189373108Y-109202256D01*
X189451129Y-109013898D01*
X189490903Y-108813939D01*
X189490903Y-108610061D01*
X189474966Y-108529942D01*
X189792026Y-108077000D01*
X191691192Y-108077000D01*
X191733129Y-108118937D01*
X191902647Y-108232205D01*
X192091005Y-108310226D01*
X192290964Y-108350000D01*
X192494842Y-108350000D01*
X192694801Y-108310226D01*
X192883159Y-108232205D01*
X193027903Y-108135490D01*
X193172647Y-108232205D01*
X193361005Y-108310226D01*
X193560964Y-108350000D01*
X193764842Y-108350000D01*
X193964801Y-108310226D01*
X194153159Y-108232205D01*
X194322677Y-108118937D01*
X194364614Y-108077000D01*
X196813435Y-108077000D01*
X196855647Y-108105205D01*
X197044005Y-108183226D01*
X197243964Y-108223000D01*
X197447842Y-108223000D01*
X197647801Y-108183226D01*
X197836159Y-108105205D01*
X197878371Y-108077000D01*
X198083435Y-108077000D01*
X198125647Y-108105205D01*
X198314005Y-108183226D01*
X198513964Y-108223000D01*
X198717842Y-108223000D01*
X198917801Y-108183226D01*
X199106159Y-108105205D01*
X199148371Y-108077000D01*
X199315001Y-108077000D01*
X199315001Y-122936000D01*
X195895364Y-122936000D01*
X195928129Y-122856898D01*
X195967903Y-122656939D01*
X195967903Y-122453061D01*
X195928129Y-122253102D01*
X195850108Y-122064744D01*
X195753393Y-121920000D01*
X195850108Y-121775256D01*
X195928129Y-121586898D01*
X195967903Y-121386939D01*
X195967903Y-121183061D01*
X195928129Y-120983102D01*
X195850108Y-120794744D01*
X195753393Y-120650000D01*
X195850108Y-120505256D01*
X195928129Y-120316898D01*
X195967903Y-120116939D01*
X195967903Y-119913061D01*
X195928129Y-119713102D01*
X195850108Y-119524744D01*
X195753393Y-119380000D01*
X195850108Y-119235256D01*
X195928129Y-119046898D01*
X195967903Y-118846939D01*
X195967903Y-118643061D01*
X195928129Y-118443102D01*
X195850108Y-118254744D01*
X195753393Y-118110000D01*
X195850108Y-117965256D01*
X195928129Y-117776898D01*
X195967903Y-117576939D01*
X195967903Y-117373061D01*
X195928129Y-117173102D01*
X195850108Y-116984744D01*
X195753393Y-116840000D01*
X195850108Y-116695256D01*
X195928129Y-116506898D01*
X195967903Y-116306939D01*
X195967903Y-116103061D01*
X195928129Y-115903102D01*
X195850108Y-115714744D01*
X195753393Y-115570000D01*
X195850108Y-115425256D01*
X195928129Y-115236898D01*
X195967903Y-115036939D01*
X195967903Y-114833061D01*
X195928129Y-114633102D01*
X195850108Y-114444744D01*
X195753393Y-114300000D01*
X195850108Y-114155256D01*
X195928129Y-113966898D01*
X195967903Y-113766939D01*
X195967903Y-113563061D01*
X195928129Y-113363102D01*
X195850108Y-113174744D01*
X195753393Y-113030000D01*
X195850108Y-112885256D01*
X195928129Y-112696898D01*
X195967903Y-112496939D01*
X195967903Y-112293061D01*
X195928129Y-112093102D01*
X195850108Y-111904744D01*
X195736840Y-111735226D01*
X195592677Y-111591063D01*
X195423159Y-111477795D01*
X195340143Y-111443409D01*
X194657573Y-110419553D01*
X194641799Y-110400291D01*
X194622571Y-110384477D01*
X194600627Y-110372718D01*
X194576810Y-110365466D01*
X194551903Y-110363000D01*
X193094614Y-110363000D01*
X193052677Y-110321063D01*
X192883159Y-110207795D01*
X192694801Y-110129774D01*
X192494842Y-110090000D01*
X192290964Y-110090000D01*
X192091005Y-110129774D01*
X191902647Y-110207795D01*
X191757903Y-110304510D01*
X191613159Y-110207795D01*
X191424801Y-110129774D01*
X191224842Y-110090000D01*
X191020964Y-110090000D01*
X190821005Y-110129774D01*
X190632647Y-110207795D01*
X190463129Y-110321063D01*
X190318966Y-110465226D01*
X190205698Y-110634744D01*
X190127677Y-110823102D01*
X190087903Y-111023061D01*
X190087903Y-111226939D01*
X190120942Y-111393039D01*
X189954842Y-111360000D01*
X189750964Y-111360000D01*
X189551005Y-111399774D01*
X189362647Y-111477795D01*
X189193129Y-111591063D01*
X189048966Y-111735226D01*
X188935698Y-111904744D01*
X188857677Y-112093102D01*
X188817903Y-112293061D01*
X188817903Y-112496939D01*
X188850942Y-112663039D01*
X188684842Y-112630000D01*
X188480964Y-112630000D01*
X188281005Y-112669774D01*
X188092647Y-112747795D01*
X187923129Y-112861063D01*
X187778966Y-113005226D01*
X187665698Y-113174744D01*
X187587677Y-113363102D01*
X187547903Y-113563061D01*
X187547903Y-113766939D01*
X187580942Y-113933039D01*
X187414842Y-113900000D01*
X187210964Y-113900000D01*
X187011005Y-113939774D01*
X186822647Y-114017795D01*
X186677903Y-114114510D01*
X186533159Y-114017795D01*
X186344801Y-113939774D01*
X186144842Y-113900000D01*
X185940964Y-113900000D01*
X185741005Y-113939774D01*
X185552647Y-114017795D01*
X185407903Y-114114510D01*
X185263159Y-114017795D01*
X185074801Y-113939774D01*
X184874842Y-113900000D01*
X184670964Y-113900000D01*
X184471005Y-113939774D01*
X184282647Y-114017795D01*
X184137903Y-114114510D01*
X183993159Y-114017795D01*
X183804801Y-113939774D01*
X183604842Y-113900000D01*
X183400964Y-113900000D01*
X183201005Y-113939774D01*
X183012647Y-114017795D01*
X182867903Y-114114510D01*
X182723159Y-114017795D01*
X182534801Y-113939774D01*
X182334842Y-113900000D01*
X182130964Y-113900000D01*
X181931005Y-113939774D01*
X181742647Y-114017795D01*
X181573129Y-114131063D01*
X181531192Y-114173000D01*
X181029614Y-114173000D01*
X180987677Y-114131063D01*
X180818159Y-114017795D01*
X180629801Y-113939774D01*
X180429842Y-113900000D01*
X180225964Y-113900000D01*
X180026005Y-113939774D01*
X179837647Y-114017795D01*
X179692903Y-114114510D01*
X179548159Y-114017795D01*
X179359801Y-113939774D01*
X179159842Y-113900000D01*
X178955964Y-113900000D01*
X178756005Y-113939774D01*
X178567647Y-114017795D01*
X178422903Y-114114510D01*
X178278159Y-114017795D01*
X178089801Y-113939774D01*
X177889842Y-113900000D01*
X177685964Y-113900000D01*
X177486005Y-113939774D01*
X177297647Y-114017795D01*
X177128129Y-114131063D01*
X177086192Y-114173000D01*
X175565403Y-114173000D01*
X175565403Y-113857684D01*
X175590893Y-113796145D01*
X175624903Y-113625165D01*
X175624903Y-113450835D01*
X175590893Y-113279855D01*
X175524180Y-113118795D01*
X175427327Y-112973845D01*
X175304058Y-112850576D01*
X175159108Y-112753723D01*
X174998048Y-112687010D01*
X174827068Y-112653000D01*
X174652738Y-112653000D01*
X174522737Y-112678859D01*
X174440458Y-112596580D01*
X174295508Y-112499727D01*
X174134448Y-112433014D01*
X173963468Y-112399004D01*
X173789138Y-112399004D01*
X173618158Y-112433014D01*
X173457098Y-112499727D01*
X173312148Y-112596580D01*
X173188879Y-112719849D01*
X173092026Y-112864799D01*
X173025313Y-113025859D01*
X172991303Y-113196839D01*
X172991303Y-113371169D01*
X172998506Y-113407381D01*
X172984180Y-113372795D01*
X172887327Y-113227845D01*
X172764058Y-113104576D01*
X172619108Y-113007723D01*
X172458048Y-112941010D01*
X172287068Y-112907000D01*
X172112738Y-112907000D01*
X171941758Y-112941010D01*
X171913036Y-112952907D01*
X171847108Y-112793744D01*
X171733840Y-112624226D01*
X171589677Y-112480063D01*
X171420159Y-112366795D01*
X171231801Y-112288774D01*
X171031842Y-112249000D01*
X170827964Y-112249000D01*
X170675903Y-112279247D01*
X170675903Y-108864061D01*
X173958903Y-108864061D01*
X173958903Y-109067939D01*
X173998677Y-109267898D01*
X174076698Y-109456256D01*
X174189966Y-109625774D01*
X174334129Y-109769937D01*
X174503647Y-109883205D01*
X174692005Y-109961226D01*
X174891964Y-110001000D01*
X175095842Y-110001000D01*
X175295801Y-109961226D01*
X175484159Y-109883205D01*
X175653677Y-109769937D01*
X175772823Y-109650791D01*
X175840966Y-109752774D01*
X175985129Y-109896937D01*
X176154647Y-110010205D01*
X176343005Y-110088226D01*
X176542964Y-110128000D01*
X176746842Y-110128000D01*
X176946801Y-110088226D01*
X177135159Y-110010205D01*
X177304677Y-109896937D01*
X177448840Y-109752774D01*
X177562108Y-109583256D01*
X177640129Y-109394898D01*
X177679903Y-109194939D01*
X177679903Y-108991061D01*
X177640129Y-108791102D01*
X177562108Y-108602744D01*
X177448840Y-108433226D01*
X177410114Y-108394500D01*
X177448840Y-108355774D01*
X177562108Y-108186256D01*
X177640129Y-107997898D01*
X177679903Y-107797939D01*
X177679903Y-107594061D01*
X177640129Y-107394102D01*
X177562108Y-107205744D01*
X177448840Y-107036226D01*
X177304677Y-106892063D01*
X177135159Y-106778795D01*
X176946801Y-106700774D01*
X176746842Y-106661000D01*
X176542964Y-106661000D01*
X176343005Y-106700774D01*
X176154647Y-106778795D01*
X175985129Y-106892063D01*
X175840966Y-107036226D01*
X175727698Y-107205744D01*
X175649677Y-107394102D01*
X175609903Y-107594061D01*
X175609903Y-107797939D01*
X175649677Y-107997898D01*
X175727698Y-108186256D01*
X175840966Y-108355774D01*
X175879692Y-108394500D01*
X175865983Y-108408209D01*
X175797840Y-108306226D01*
X175653677Y-108162063D01*
X175484159Y-108048795D01*
X175295801Y-107970774D01*
X175095842Y-107931000D01*
X174891964Y-107931000D01*
X174692005Y-107970774D01*
X174503647Y-108048795D01*
X174334129Y-108162063D01*
X174189966Y-108306226D01*
X174076698Y-108475744D01*
X173998677Y-108664102D01*
X173958903Y-108864061D01*
X170675903Y-108864061D01*
X170675903Y-107608835D01*
X171568903Y-107608835D01*
X171568903Y-107783165D01*
X171602913Y-107954145D01*
X171669626Y-108115205D01*
X171766479Y-108260155D01*
X171889748Y-108383424D01*
X172034698Y-108480277D01*
X172195758Y-108546990D01*
X172366738Y-108581000D01*
X172541068Y-108581000D01*
X172712048Y-108546990D01*
X172873108Y-108480277D01*
X173018058Y-108383424D01*
X173141327Y-108260155D01*
X173238180Y-108115205D01*
X173304893Y-107954145D01*
X173338903Y-107783165D01*
X173338903Y-107608835D01*
X173304893Y-107437855D01*
X173238180Y-107276795D01*
X173141327Y-107131845D01*
X173018058Y-107008576D01*
X172873108Y-106911723D01*
X172712048Y-106845010D01*
X172541068Y-106811000D01*
X172366738Y-106811000D01*
X172195758Y-106845010D01*
X172034698Y-106911723D01*
X171889748Y-107008576D01*
X171766479Y-107131845D01*
X171669626Y-107276795D01*
X171602913Y-107437855D01*
X171568903Y-107608835D01*
X170675903Y-107608835D01*
X170675903Y-107188000D01*
X170673463Y-107163224D01*
X170666236Y-107139399D01*
X170654500Y-107117443D01*
X170638706Y-107098197D01*
X170619460Y-107082403D01*
X170597504Y-107070667D01*
X170573679Y-107063440D01*
X170548903Y-107061000D01*
X159880903Y-107061000D01*
X159880903Y-101473000D01*
X162674903Y-101473000D01*
X162674903Y-104013000D01*
%TA.AperFunction,Conductor*%
D23*
G36*
X162674903Y-104013000D02*
G01*
X162677343Y-104037776D01*
X162684570Y-104061601D01*
X162696306Y-104083557D01*
X162712100Y-104102803D01*
X162731346Y-104118597D01*
X162753302Y-104130333D01*
X162777127Y-104137560D01*
X162801903Y-104140000D01*
X165871302Y-104140000D01*
X165895816Y-104263242D01*
X165962529Y-104424302D01*
X166040608Y-104541155D01*
X165978675Y-104633844D01*
X165911962Y-104794904D01*
X165877952Y-104965884D01*
X165877952Y-105140214D01*
X165911962Y-105311194D01*
X165978675Y-105472254D01*
X166075528Y-105617204D01*
X166198797Y-105740473D01*
X166343747Y-105837326D01*
X166504807Y-105904039D01*
X166675787Y-105938049D01*
X166850117Y-105938049D01*
X167021097Y-105904039D01*
X167182157Y-105837326D01*
X167327107Y-105740473D01*
X167450376Y-105617204D01*
X167547229Y-105472254D01*
X167613942Y-105311194D01*
X167647952Y-105140214D01*
X167647952Y-104965884D01*
X167613942Y-104794904D01*
X167547229Y-104633844D01*
X167469150Y-104516991D01*
X167531083Y-104424302D01*
X167597796Y-104263242D01*
X167622310Y-104140000D01*
X169790903Y-104140000D01*
X169790903Y-104227165D01*
X169824913Y-104398145D01*
X169891626Y-104559205D01*
X169988479Y-104704155D01*
X170111748Y-104827424D01*
X170256698Y-104924277D01*
X170417758Y-104990990D01*
X170588738Y-105025000D01*
X170763068Y-105025000D01*
X170934048Y-104990990D01*
X171095108Y-104924277D01*
X171183903Y-104864946D01*
X171272698Y-104924277D01*
X171433758Y-104990990D01*
X171604738Y-105025000D01*
X171779068Y-105025000D01*
X171950048Y-104990990D01*
X172111108Y-104924277D01*
X172256058Y-104827424D01*
X172379327Y-104704155D01*
X172476180Y-104559205D01*
X172542893Y-104398145D01*
X172576903Y-104227165D01*
X172576903Y-104140000D01*
X176681957Y-104140000D01*
X176622626Y-104228795D01*
X176555913Y-104389855D01*
X176521903Y-104560835D01*
X176521903Y-104729487D01*
X176513758Y-104731107D01*
X176352698Y-104797820D01*
X176207748Y-104894673D01*
X176084479Y-105017942D01*
X175987626Y-105162892D01*
X175920913Y-105323952D01*
X175886903Y-105494932D01*
X175886903Y-105669262D01*
X175920913Y-105840242D01*
X175987626Y-106001302D01*
X176084479Y-106146252D01*
X176207748Y-106269521D01*
X176352698Y-106366374D01*
X176513758Y-106433087D01*
X176684738Y-106467097D01*
X176859068Y-106467097D01*
X177030048Y-106433087D01*
X177191108Y-106366374D01*
X177336058Y-106269521D01*
X177459327Y-106146252D01*
X177556180Y-106001302D01*
X177622893Y-105840242D01*
X177656903Y-105669262D01*
X177656903Y-105500610D01*
X177665048Y-105498990D01*
X177826108Y-105432277D01*
X177971058Y-105335424D01*
X178094327Y-105212155D01*
X178191180Y-105067205D01*
X178257893Y-104906145D01*
X178266524Y-104862755D01*
X178300048Y-104856087D01*
X178461108Y-104789374D01*
X178606058Y-104692521D01*
X178729327Y-104569252D01*
X178826180Y-104424302D01*
X178892893Y-104263242D01*
X178917407Y-104140000D01*
X178930903Y-104140000D01*
X178930903Y-110465532D01*
X178902698Y-110507744D01*
X178824677Y-110696102D01*
X178784903Y-110896061D01*
X178784903Y-111099939D01*
X178824677Y-111299898D01*
X178902698Y-111488256D01*
X178930903Y-111530468D01*
X178930903Y-111760000D01*
X178933343Y-111784776D01*
X178940570Y-111808601D01*
X178952306Y-111830557D01*
X178968100Y-111849803D01*
X178987346Y-111865597D01*
X179009302Y-111877333D01*
X179033127Y-111884560D01*
X179057903Y-111887000D01*
X179287435Y-111887000D01*
X179329647Y-111915205D01*
X179518005Y-111993226D01*
X179717964Y-112033000D01*
X179921842Y-112033000D01*
X180121801Y-111993226D01*
X180310159Y-111915205D01*
X180352371Y-111887000D01*
X181573435Y-111887000D01*
X181615647Y-111915205D01*
X181804005Y-111993226D01*
X182003964Y-112033000D01*
X182207842Y-112033000D01*
X182407801Y-111993226D01*
X182596159Y-111915205D01*
X182638371Y-111887000D01*
X186677903Y-111887000D01*
X186702679Y-111884560D01*
X186726504Y-111877333D01*
X186748460Y-111865597D01*
X186774669Y-111842251D01*
X187476132Y-111017000D01*
X187541842Y-111017000D01*
X187741801Y-110977226D01*
X187930159Y-110899205D01*
X188099677Y-110785937D01*
X188243840Y-110641774D01*
X188357108Y-110472256D01*
X188435129Y-110283898D01*
X188474903Y-110083939D01*
X188474903Y-109880061D01*
X188468764Y-109849198D01*
X188555632Y-109747000D01*
X188557842Y-109747000D01*
X188757801Y-109707226D01*
X188946159Y-109629205D01*
X189115677Y-109515937D01*
X189259840Y-109371774D01*
X189373108Y-109202256D01*
X189451129Y-109013898D01*
X189490903Y-108813939D01*
X189490903Y-108610061D01*
X189474966Y-108529942D01*
X189792026Y-108077000D01*
X191691192Y-108077000D01*
X191733129Y-108118937D01*
X191902647Y-108232205D01*
X192091005Y-108310226D01*
X192290964Y-108350000D01*
X192494842Y-108350000D01*
X192694801Y-108310226D01*
X192883159Y-108232205D01*
X193027903Y-108135490D01*
X193172647Y-108232205D01*
X193361005Y-108310226D01*
X193560964Y-108350000D01*
X193764842Y-108350000D01*
X193964801Y-108310226D01*
X194153159Y-108232205D01*
X194322677Y-108118937D01*
X194364614Y-108077000D01*
X196813435Y-108077000D01*
X196855647Y-108105205D01*
X197044005Y-108183226D01*
X197243964Y-108223000D01*
X197447842Y-108223000D01*
X197647801Y-108183226D01*
X197836159Y-108105205D01*
X197878371Y-108077000D01*
X198083435Y-108077000D01*
X198125647Y-108105205D01*
X198314005Y-108183226D01*
X198513964Y-108223000D01*
X198717842Y-108223000D01*
X198917801Y-108183226D01*
X199106159Y-108105205D01*
X199148371Y-108077000D01*
X199315001Y-108077000D01*
X199315001Y-122936000D01*
X195895364Y-122936000D01*
X195928129Y-122856898D01*
X195967903Y-122656939D01*
X195967903Y-122453061D01*
X195928129Y-122253102D01*
X195850108Y-122064744D01*
X195753393Y-121920000D01*
X195850108Y-121775256D01*
X195928129Y-121586898D01*
X195967903Y-121386939D01*
X195967903Y-121183061D01*
X195928129Y-120983102D01*
X195850108Y-120794744D01*
X195753393Y-120650000D01*
X195850108Y-120505256D01*
X195928129Y-120316898D01*
X195967903Y-120116939D01*
X195967903Y-119913061D01*
X195928129Y-119713102D01*
X195850108Y-119524744D01*
X195753393Y-119380000D01*
X195850108Y-119235256D01*
X195928129Y-119046898D01*
X195967903Y-118846939D01*
X195967903Y-118643061D01*
X195928129Y-118443102D01*
X195850108Y-118254744D01*
X195753393Y-118110000D01*
X195850108Y-117965256D01*
X195928129Y-117776898D01*
X195967903Y-117576939D01*
X195967903Y-117373061D01*
X195928129Y-117173102D01*
X195850108Y-116984744D01*
X195753393Y-116840000D01*
X195850108Y-116695256D01*
X195928129Y-116506898D01*
X195967903Y-116306939D01*
X195967903Y-116103061D01*
X195928129Y-115903102D01*
X195850108Y-115714744D01*
X195753393Y-115570000D01*
X195850108Y-115425256D01*
X195928129Y-115236898D01*
X195967903Y-115036939D01*
X195967903Y-114833061D01*
X195928129Y-114633102D01*
X195850108Y-114444744D01*
X195753393Y-114300000D01*
X195850108Y-114155256D01*
X195928129Y-113966898D01*
X195967903Y-113766939D01*
X195967903Y-113563061D01*
X195928129Y-113363102D01*
X195850108Y-113174744D01*
X195753393Y-113030000D01*
X195850108Y-112885256D01*
X195928129Y-112696898D01*
X195967903Y-112496939D01*
X195967903Y-112293061D01*
X195928129Y-112093102D01*
X195850108Y-111904744D01*
X195736840Y-111735226D01*
X195592677Y-111591063D01*
X195423159Y-111477795D01*
X195340143Y-111443409D01*
X194657573Y-110419553D01*
X194641799Y-110400291D01*
X194622571Y-110384477D01*
X194600627Y-110372718D01*
X194576810Y-110365466D01*
X194551903Y-110363000D01*
X193094614Y-110363000D01*
X193052677Y-110321063D01*
X192883159Y-110207795D01*
X192694801Y-110129774D01*
X192494842Y-110090000D01*
X192290964Y-110090000D01*
X192091005Y-110129774D01*
X191902647Y-110207795D01*
X191757903Y-110304510D01*
X191613159Y-110207795D01*
X191424801Y-110129774D01*
X191224842Y-110090000D01*
X191020964Y-110090000D01*
X190821005Y-110129774D01*
X190632647Y-110207795D01*
X190463129Y-110321063D01*
X190318966Y-110465226D01*
X190205698Y-110634744D01*
X190127677Y-110823102D01*
X190087903Y-111023061D01*
X190087903Y-111226939D01*
X190120942Y-111393039D01*
X189954842Y-111360000D01*
X189750964Y-111360000D01*
X189551005Y-111399774D01*
X189362647Y-111477795D01*
X189193129Y-111591063D01*
X189048966Y-111735226D01*
X188935698Y-111904744D01*
X188857677Y-112093102D01*
X188817903Y-112293061D01*
X188817903Y-112496939D01*
X188850942Y-112663039D01*
X188684842Y-112630000D01*
X188480964Y-112630000D01*
X188281005Y-112669774D01*
X188092647Y-112747795D01*
X187923129Y-112861063D01*
X187778966Y-113005226D01*
X187665698Y-113174744D01*
X187587677Y-113363102D01*
X187547903Y-113563061D01*
X187547903Y-113766939D01*
X187580942Y-113933039D01*
X187414842Y-113900000D01*
X187210964Y-113900000D01*
X187011005Y-113939774D01*
X186822647Y-114017795D01*
X186677903Y-114114510D01*
X186533159Y-114017795D01*
X186344801Y-113939774D01*
X186144842Y-113900000D01*
X185940964Y-113900000D01*
X185741005Y-113939774D01*
X185552647Y-114017795D01*
X185407903Y-114114510D01*
X185263159Y-114017795D01*
X185074801Y-113939774D01*
X184874842Y-113900000D01*
X184670964Y-113900000D01*
X184471005Y-113939774D01*
X184282647Y-114017795D01*
X184137903Y-114114510D01*
X183993159Y-114017795D01*
X183804801Y-113939774D01*
X183604842Y-113900000D01*
X183400964Y-113900000D01*
X183201005Y-113939774D01*
X183012647Y-114017795D01*
X182867903Y-114114510D01*
X182723159Y-114017795D01*
X182534801Y-113939774D01*
X182334842Y-113900000D01*
X182130964Y-113900000D01*
X181931005Y-113939774D01*
X181742647Y-114017795D01*
X181573129Y-114131063D01*
X181531192Y-114173000D01*
X181029614Y-114173000D01*
X180987677Y-114131063D01*
X180818159Y-114017795D01*
X180629801Y-113939774D01*
X180429842Y-113900000D01*
X180225964Y-113900000D01*
X180026005Y-113939774D01*
X179837647Y-114017795D01*
X179692903Y-114114510D01*
X179548159Y-114017795D01*
X179359801Y-113939774D01*
X179159842Y-113900000D01*
X178955964Y-113900000D01*
X178756005Y-113939774D01*
X178567647Y-114017795D01*
X178422903Y-114114510D01*
X178278159Y-114017795D01*
X178089801Y-113939774D01*
X177889842Y-113900000D01*
X177685964Y-113900000D01*
X177486005Y-113939774D01*
X177297647Y-114017795D01*
X177128129Y-114131063D01*
X177086192Y-114173000D01*
X175565403Y-114173000D01*
X175565403Y-113857684D01*
X175590893Y-113796145D01*
X175624903Y-113625165D01*
X175624903Y-113450835D01*
X175590893Y-113279855D01*
X175524180Y-113118795D01*
X175427327Y-112973845D01*
X175304058Y-112850576D01*
X175159108Y-112753723D01*
X174998048Y-112687010D01*
X174827068Y-112653000D01*
X174652738Y-112653000D01*
X174522737Y-112678859D01*
X174440458Y-112596580D01*
X174295508Y-112499727D01*
X174134448Y-112433014D01*
X173963468Y-112399004D01*
X173789138Y-112399004D01*
X173618158Y-112433014D01*
X173457098Y-112499727D01*
X173312148Y-112596580D01*
X173188879Y-112719849D01*
X173092026Y-112864799D01*
X173025313Y-113025859D01*
X172991303Y-113196839D01*
X172991303Y-113371169D01*
X172998506Y-113407381D01*
X172984180Y-113372795D01*
X172887327Y-113227845D01*
X172764058Y-113104576D01*
X172619108Y-113007723D01*
X172458048Y-112941010D01*
X172287068Y-112907000D01*
X172112738Y-112907000D01*
X171941758Y-112941010D01*
X171913036Y-112952907D01*
X171847108Y-112793744D01*
X171733840Y-112624226D01*
X171589677Y-112480063D01*
X171420159Y-112366795D01*
X171231801Y-112288774D01*
X171031842Y-112249000D01*
X170827964Y-112249000D01*
X170675903Y-112279247D01*
X170675903Y-108864061D01*
X173958903Y-108864061D01*
X173958903Y-109067939D01*
X173998677Y-109267898D01*
X174076698Y-109456256D01*
X174189966Y-109625774D01*
X174334129Y-109769937D01*
X174503647Y-109883205D01*
X174692005Y-109961226D01*
X174891964Y-110001000D01*
X175095842Y-110001000D01*
X175295801Y-109961226D01*
X175484159Y-109883205D01*
X175653677Y-109769937D01*
X175772823Y-109650791D01*
X175840966Y-109752774D01*
X175985129Y-109896937D01*
X176154647Y-110010205D01*
X176343005Y-110088226D01*
X176542964Y-110128000D01*
X176746842Y-110128000D01*
X176946801Y-110088226D01*
X177135159Y-110010205D01*
X177304677Y-109896937D01*
X177448840Y-109752774D01*
X177562108Y-109583256D01*
X177640129Y-109394898D01*
X177679903Y-109194939D01*
X177679903Y-108991061D01*
X177640129Y-108791102D01*
X177562108Y-108602744D01*
X177448840Y-108433226D01*
X177410114Y-108394500D01*
X177448840Y-108355774D01*
X177562108Y-108186256D01*
X177640129Y-107997898D01*
X177679903Y-107797939D01*
X177679903Y-107594061D01*
X177640129Y-107394102D01*
X177562108Y-107205744D01*
X177448840Y-107036226D01*
X177304677Y-106892063D01*
X177135159Y-106778795D01*
X176946801Y-106700774D01*
X176746842Y-106661000D01*
X176542964Y-106661000D01*
X176343005Y-106700774D01*
X176154647Y-106778795D01*
X175985129Y-106892063D01*
X175840966Y-107036226D01*
X175727698Y-107205744D01*
X175649677Y-107394102D01*
X175609903Y-107594061D01*
X175609903Y-107797939D01*
X175649677Y-107997898D01*
X175727698Y-108186256D01*
X175840966Y-108355774D01*
X175879692Y-108394500D01*
X175865983Y-108408209D01*
X175797840Y-108306226D01*
X175653677Y-108162063D01*
X175484159Y-108048795D01*
X175295801Y-107970774D01*
X175095842Y-107931000D01*
X174891964Y-107931000D01*
X174692005Y-107970774D01*
X174503647Y-108048795D01*
X174334129Y-108162063D01*
X174189966Y-108306226D01*
X174076698Y-108475744D01*
X173998677Y-108664102D01*
X173958903Y-108864061D01*
X170675903Y-108864061D01*
X170675903Y-107608835D01*
X171568903Y-107608835D01*
X171568903Y-107783165D01*
X171602913Y-107954145D01*
X171669626Y-108115205D01*
X171766479Y-108260155D01*
X171889748Y-108383424D01*
X172034698Y-108480277D01*
X172195758Y-108546990D01*
X172366738Y-108581000D01*
X172541068Y-108581000D01*
X172712048Y-108546990D01*
X172873108Y-108480277D01*
X173018058Y-108383424D01*
X173141327Y-108260155D01*
X173238180Y-108115205D01*
X173304893Y-107954145D01*
X173338903Y-107783165D01*
X173338903Y-107608835D01*
X173304893Y-107437855D01*
X173238180Y-107276795D01*
X173141327Y-107131845D01*
X173018058Y-107008576D01*
X172873108Y-106911723D01*
X172712048Y-106845010D01*
X172541068Y-106811000D01*
X172366738Y-106811000D01*
X172195758Y-106845010D01*
X172034698Y-106911723D01*
X171889748Y-107008576D01*
X171766479Y-107131845D01*
X171669626Y-107276795D01*
X171602913Y-107437855D01*
X171568903Y-107608835D01*
X170675903Y-107608835D01*
X170675903Y-107188000D01*
X170673463Y-107163224D01*
X170666236Y-107139399D01*
X170654500Y-107117443D01*
X170638706Y-107098197D01*
X170619460Y-107082403D01*
X170597504Y-107070667D01*
X170573679Y-107063440D01*
X170548903Y-107061000D01*
X159880903Y-107061000D01*
X159880903Y-101473000D01*
X162674903Y-101473000D01*
X162674903Y-104013000D01*
G37*
%TD.AperFunction*%
%TD*%
D21*
%TO.N,Net-(D16-Pad1)*%
X199315000Y-82169000D02*
X196075903Y-82169000D01*
X196051127Y-82171440D01*
X196027302Y-82178667D01*
X196005346Y-82190403D01*
X195986100Y-82206197D01*
X195970306Y-82225443D01*
X195958570Y-82247399D01*
X195951343Y-82271224D01*
X195948903Y-82296000D01*
X195948903Y-88080174D01*
X195944313Y-88091255D01*
X195936490Y-88130582D01*
X194694072Y-89373001D01*
X193128930Y-89373001D01*
X192646903Y-88890974D01*
X192646903Y-80899000D01*
X199315000Y-80899000D01*
X199315000Y-82169000D01*
%TA.AperFunction,Conductor*%
D23*
G36*
X199315000Y-82169000D02*
G01*
X196075903Y-82169000D01*
X196051127Y-82171440D01*
X196027302Y-82178667D01*
X196005346Y-82190403D01*
X195986100Y-82206197D01*
X195970306Y-82225443D01*
X195958570Y-82247399D01*
X195951343Y-82271224D01*
X195948903Y-82296000D01*
X195948903Y-88080174D01*
X195944313Y-88091255D01*
X195936490Y-88130582D01*
X194694072Y-89373001D01*
X193128930Y-89373001D01*
X192646903Y-88890974D01*
X192646903Y-80899000D01*
X199315000Y-80899000D01*
X199315000Y-82169000D01*
G37*
%TD.AperFunction*%
%TD*%
D21*
%TO.N,/LTC6810/CellBalance6*%
X193770903Y-91092606D02*
X193770903Y-91287939D01*
X193810677Y-91487898D01*
X193888698Y-91676256D01*
X193900554Y-91694000D01*
X193888698Y-91711744D01*
X193810677Y-91900102D01*
X193770903Y-92100061D01*
X193770903Y-92303939D01*
X193810677Y-92503898D01*
X193888698Y-92692256D01*
X193916903Y-92734468D01*
X193916903Y-93195533D01*
X193810304Y-93394966D01*
X193725390Y-93674889D01*
X193696718Y-93966000D01*
X193725390Y-94257111D01*
X193810304Y-94537034D01*
X193948197Y-94795014D01*
X194133769Y-95021134D01*
X194359889Y-95206706D01*
X194617869Y-95344599D01*
X194897792Y-95429513D01*
X195077511Y-95447214D01*
X195224100Y-95593803D01*
X195243346Y-95609597D01*
X195265302Y-95621333D01*
X195289127Y-95628560D01*
X195313903Y-95631000D01*
X199250903Y-95631000D01*
X199250903Y-97409000D01*
X195363304Y-97409000D01*
X192379854Y-94674171D01*
X192138903Y-93710366D01*
X192138903Y-91896069D01*
X192142587Y-91895706D01*
X192286224Y-91852134D01*
X192418601Y-91781377D01*
X192534631Y-91686154D01*
X192558493Y-91657078D01*
X193318571Y-90897001D01*
X193575298Y-90897001D01*
X193770903Y-91092606D01*
%TA.AperFunction,Conductor*%
D23*
G36*
X193770903Y-91092606D02*
G01*
X193770903Y-91287939D01*
X193810677Y-91487898D01*
X193888698Y-91676256D01*
X193900554Y-91694000D01*
X193888698Y-91711744D01*
X193810677Y-91900102D01*
X193770903Y-92100061D01*
X193770903Y-92303939D01*
X193810677Y-92503898D01*
X193888698Y-92692256D01*
X193916903Y-92734468D01*
X193916903Y-93195533D01*
X193810304Y-93394966D01*
X193725390Y-93674889D01*
X193696718Y-93966000D01*
X193725390Y-94257111D01*
X193810304Y-94537034D01*
X193948197Y-94795014D01*
X194133769Y-95021134D01*
X194359889Y-95206706D01*
X194617869Y-95344599D01*
X194897792Y-95429513D01*
X195077511Y-95447214D01*
X195224100Y-95593803D01*
X195243346Y-95609597D01*
X195265302Y-95621333D01*
X195289127Y-95628560D01*
X195313903Y-95631000D01*
X199250903Y-95631000D01*
X199250903Y-97409000D01*
X195363304Y-97409000D01*
X192379854Y-94674171D01*
X192138903Y-93710366D01*
X192138903Y-91896069D01*
X192142587Y-91895706D01*
X192286224Y-91852134D01*
X192418601Y-91781377D01*
X192534631Y-91686154D01*
X192558493Y-91657078D01*
X193318571Y-90897001D01*
X193575298Y-90897001D01*
X193770903Y-91092606D01*
G37*
%TD.AperFunction*%
D21*
X191884903Y-82525532D02*
X191856698Y-82567744D01*
X191778677Y-82756102D01*
X191738903Y-82956061D01*
X191738903Y-83159939D01*
X191778677Y-83359898D01*
X191856698Y-83548256D01*
X191884903Y-83590468D01*
X191884903Y-83795532D01*
X191856698Y-83837744D01*
X191778677Y-84026102D01*
X191738903Y-84226061D01*
X191738903Y-84429939D01*
X191778677Y-84629898D01*
X191856698Y-84818256D01*
X191884903Y-84860468D01*
X191884903Y-85065532D01*
X191856698Y-85107744D01*
X191778677Y-85296102D01*
X191738903Y-85496061D01*
X191738903Y-85699939D01*
X191778677Y-85899898D01*
X191856698Y-86088256D01*
X191884903Y-86130468D01*
X191884903Y-86335532D01*
X191856698Y-86377744D01*
X191778677Y-86566102D01*
X191738903Y-86766061D01*
X191738903Y-86969939D01*
X191778677Y-87169898D01*
X191856698Y-87358256D01*
X191884903Y-87400468D01*
X191884903Y-87605532D01*
X191856698Y-87647744D01*
X191778677Y-87836102D01*
X191738903Y-88036061D01*
X191738903Y-88239939D01*
X191778677Y-88439898D01*
X191856698Y-88628256D01*
X191884903Y-88670468D01*
X191884903Y-89154000D01*
X191887343Y-89178776D01*
X191894570Y-89202601D01*
X191906306Y-89224557D01*
X191922100Y-89243803D01*
X192369304Y-89691007D01*
X191677579Y-90382732D01*
X191134241Y-90382732D01*
X190577706Y-89826197D01*
X190558460Y-89810403D01*
X190536504Y-89798667D01*
X190512679Y-89791440D01*
X190487903Y-89789000D01*
X183248903Y-89789000D01*
X183248903Y-82931000D01*
X184391903Y-82931000D01*
X184416679Y-82928560D01*
X184440504Y-82921333D01*
X184462460Y-82909597D01*
X184481706Y-82893803D01*
X184497500Y-82874557D01*
X184509236Y-82852601D01*
X184516463Y-82828776D01*
X184518903Y-82804000D01*
X184518903Y-80899000D01*
X191884903Y-80899000D01*
X191884903Y-82525532D01*
%TA.AperFunction,Conductor*%
D23*
G36*
X191884903Y-82525532D02*
G01*
X191856698Y-82567744D01*
X191778677Y-82756102D01*
X191738903Y-82956061D01*
X191738903Y-83159939D01*
X191778677Y-83359898D01*
X191856698Y-83548256D01*
X191884903Y-83590468D01*
X191884903Y-83795532D01*
X191856698Y-83837744D01*
X191778677Y-84026102D01*
X191738903Y-84226061D01*
X191738903Y-84429939D01*
X191778677Y-84629898D01*
X191856698Y-84818256D01*
X191884903Y-84860468D01*
X191884903Y-85065532D01*
X191856698Y-85107744D01*
X191778677Y-85296102D01*
X191738903Y-85496061D01*
X191738903Y-85699939D01*
X191778677Y-85899898D01*
X191856698Y-86088256D01*
X191884903Y-86130468D01*
X191884903Y-86335532D01*
X191856698Y-86377744D01*
X191778677Y-86566102D01*
X191738903Y-86766061D01*
X191738903Y-86969939D01*
X191778677Y-87169898D01*
X191856698Y-87358256D01*
X191884903Y-87400468D01*
X191884903Y-87605532D01*
X191856698Y-87647744D01*
X191778677Y-87836102D01*
X191738903Y-88036061D01*
X191738903Y-88239939D01*
X191778677Y-88439898D01*
X191856698Y-88628256D01*
X191884903Y-88670468D01*
X191884903Y-89154000D01*
X191887343Y-89178776D01*
X191894570Y-89202601D01*
X191906306Y-89224557D01*
X191922100Y-89243803D01*
X192369304Y-89691007D01*
X191677579Y-90382732D01*
X191134241Y-90382732D01*
X190577706Y-89826197D01*
X190558460Y-89810403D01*
X190536504Y-89798667D01*
X190512679Y-89791440D01*
X190487903Y-89789000D01*
X183248903Y-89789000D01*
X183248903Y-82931000D01*
X184391903Y-82931000D01*
X184416679Y-82928560D01*
X184440504Y-82921333D01*
X184462460Y-82909597D01*
X184481706Y-82893803D01*
X184497500Y-82874557D01*
X184509236Y-82852601D01*
X184516463Y-82828776D01*
X184518903Y-82804000D01*
X184518903Y-80899000D01*
X191884903Y-80899000D01*
X191884903Y-82525532D01*
G37*
%TD.AperFunction*%
%TD*%
D21*
%TO.N,Net-(D14-Pad1)*%
X183756903Y-82169000D02*
X183121903Y-82169000D01*
X182998021Y-82181201D01*
X182878899Y-82217336D01*
X182769116Y-82276017D01*
X182672890Y-82354987D01*
X182617074Y-82423000D01*
X181597903Y-82423000D01*
X181573127Y-82425440D01*
X181549302Y-82432667D01*
X181527346Y-82444403D01*
X181508100Y-82460197D01*
X181492306Y-82479443D01*
X181480570Y-82501399D01*
X181473343Y-82525224D01*
X181470903Y-82550000D01*
X181470903Y-87845674D01*
X181464928Y-87850578D01*
X181441071Y-87879648D01*
X179531720Y-89789000D01*
X179082371Y-89789000D01*
X179040159Y-89760795D01*
X178851801Y-89682774D01*
X178651842Y-89643000D01*
X178447964Y-89643000D01*
X178248005Y-89682774D01*
X178059647Y-89760795D01*
X178017435Y-89789000D01*
X177988363Y-89789000D01*
X178021129Y-89709898D01*
X178060903Y-89509939D01*
X178060903Y-89306061D01*
X178021129Y-89106102D01*
X177943108Y-88917744D01*
X177914903Y-88875532D01*
X177914903Y-88670468D01*
X177943108Y-88628256D01*
X178021129Y-88439898D01*
X178060903Y-88239939D01*
X178060903Y-88036061D01*
X178021129Y-87836102D01*
X177943108Y-87647744D01*
X177914903Y-87605532D01*
X177914903Y-87400468D01*
X177943108Y-87358256D01*
X178021129Y-87169898D01*
X178060903Y-86969939D01*
X178060903Y-86766061D01*
X178021129Y-86566102D01*
X177943108Y-86377744D01*
X177914903Y-86335532D01*
X177914903Y-86130468D01*
X177943108Y-86088256D01*
X178021129Y-85899898D01*
X178060903Y-85699939D01*
X178060903Y-85496061D01*
X178021129Y-85296102D01*
X177943108Y-85107744D01*
X177914903Y-85065532D01*
X177914903Y-84860468D01*
X177943108Y-84818256D01*
X178021129Y-84629898D01*
X178060903Y-84429939D01*
X178060903Y-84226061D01*
X178021129Y-84026102D01*
X177943108Y-83837744D01*
X177914903Y-83795532D01*
X177914903Y-83590468D01*
X177943108Y-83548256D01*
X178021129Y-83359898D01*
X178060903Y-83159939D01*
X178060903Y-82956061D01*
X178021129Y-82756102D01*
X177943108Y-82567744D01*
X177914903Y-82525532D01*
X177914903Y-80899000D01*
X183756903Y-80899000D01*
X183756903Y-82169000D01*
%TA.AperFunction,Conductor*%
D23*
G36*
X183756903Y-82169000D02*
G01*
X183121903Y-82169000D01*
X182998021Y-82181201D01*
X182878899Y-82217336D01*
X182769116Y-82276017D01*
X182672890Y-82354987D01*
X182617074Y-82423000D01*
X181597903Y-82423000D01*
X181573127Y-82425440D01*
X181549302Y-82432667D01*
X181527346Y-82444403D01*
X181508100Y-82460197D01*
X181492306Y-82479443D01*
X181480570Y-82501399D01*
X181473343Y-82525224D01*
X181470903Y-82550000D01*
X181470903Y-87845674D01*
X181464928Y-87850578D01*
X181441071Y-87879648D01*
X179531720Y-89789000D01*
X179082371Y-89789000D01*
X179040159Y-89760795D01*
X178851801Y-89682774D01*
X178651842Y-89643000D01*
X178447964Y-89643000D01*
X178248005Y-89682774D01*
X178059647Y-89760795D01*
X178017435Y-89789000D01*
X177988363Y-89789000D01*
X178021129Y-89709898D01*
X178060903Y-89509939D01*
X178060903Y-89306061D01*
X178021129Y-89106102D01*
X177943108Y-88917744D01*
X177914903Y-88875532D01*
X177914903Y-88670468D01*
X177943108Y-88628256D01*
X178021129Y-88439898D01*
X178060903Y-88239939D01*
X178060903Y-88036061D01*
X178021129Y-87836102D01*
X177943108Y-87647744D01*
X177914903Y-87605532D01*
X177914903Y-87400468D01*
X177943108Y-87358256D01*
X178021129Y-87169898D01*
X178060903Y-86969939D01*
X178060903Y-86766061D01*
X178021129Y-86566102D01*
X177943108Y-86377744D01*
X177914903Y-86335532D01*
X177914903Y-86130468D01*
X177943108Y-86088256D01*
X178021129Y-85899898D01*
X178060903Y-85699939D01*
X178060903Y-85496061D01*
X178021129Y-85296102D01*
X177943108Y-85107744D01*
X177914903Y-85065532D01*
X177914903Y-84860468D01*
X177943108Y-84818256D01*
X178021129Y-84629898D01*
X178060903Y-84429939D01*
X178060903Y-84226061D01*
X178021129Y-84026102D01*
X177943108Y-83837744D01*
X177914903Y-83795532D01*
X177914903Y-83590468D01*
X177943108Y-83548256D01*
X178021129Y-83359898D01*
X178060903Y-83159939D01*
X178060903Y-82956061D01*
X178021129Y-82756102D01*
X177943108Y-82567744D01*
X177914903Y-82525532D01*
X177914903Y-80899000D01*
X183756903Y-80899000D01*
X183756903Y-82169000D01*
G37*
%TD.AperFunction*%
%TD*%
D21*
%TO.N,/LTC6810/CellBalance5*%
X177152903Y-89916000D02*
X177165104Y-90039882D01*
X177201239Y-90159004D01*
X177259920Y-90268787D01*
X177338890Y-90365013D01*
X177435116Y-90443983D01*
X177544899Y-90502664D01*
X177664021Y-90538799D01*
X177787903Y-90551000D01*
X178769720Y-90551000D01*
X177499720Y-91821000D01*
X176563883Y-91821000D01*
X175075206Y-90580436D01*
X175054610Y-90566449D01*
X175031681Y-90556749D01*
X175007301Y-90551709D01*
X174993903Y-90551000D01*
X174155374Y-90551000D01*
X174113162Y-90522795D01*
X173924804Y-90444774D01*
X173724845Y-90405000D01*
X173596903Y-90405000D01*
X173596903Y-80899000D01*
X177152903Y-80899000D01*
X177152903Y-89916000D01*
%TA.AperFunction,Conductor*%
D23*
G36*
X177152903Y-89916000D02*
G01*
X177165104Y-90039882D01*
X177201239Y-90159004D01*
X177259920Y-90268787D01*
X177338890Y-90365013D01*
X177435116Y-90443983D01*
X177544899Y-90502664D01*
X177664021Y-90538799D01*
X177787903Y-90551000D01*
X178769720Y-90551000D01*
X177499720Y-91821000D01*
X176563883Y-91821000D01*
X175075206Y-90580436D01*
X175054610Y-90566449D01*
X175031681Y-90556749D01*
X175007301Y-90551709D01*
X174993903Y-90551000D01*
X174155374Y-90551000D01*
X174113162Y-90522795D01*
X173924804Y-90444774D01*
X173724845Y-90405000D01*
X173596903Y-90405000D01*
X173596903Y-80899000D01*
X177152903Y-80899000D01*
X177152903Y-89916000D01*
G37*
%TD.AperFunction*%
%TD*%
D21*
%TO.N,Net-(D12-Pad1)*%
X186404903Y-92811939D02*
X186444677Y-93011898D01*
X186522698Y-93200256D01*
X186550903Y-93242468D01*
X186550903Y-93447532D01*
X186522698Y-93489744D01*
X186444677Y-93678102D01*
X186404903Y-93878061D01*
X186404903Y-94081939D01*
X186444677Y-94281898D01*
X186522698Y-94470256D01*
X186550903Y-94512468D01*
X186550903Y-94717532D01*
X186522698Y-94759744D01*
X186444677Y-94948102D01*
X186404903Y-95148061D01*
X186404903Y-95351939D01*
X186444677Y-95551898D01*
X186522698Y-95740256D01*
X186550903Y-95782468D01*
X186550903Y-95987532D01*
X186522698Y-96029744D01*
X186444677Y-96218102D01*
X186404903Y-96418061D01*
X186404903Y-96621939D01*
X186444677Y-96821898D01*
X186522698Y-97010256D01*
X186550903Y-97052468D01*
X186550903Y-97257532D01*
X186522698Y-97299744D01*
X186444677Y-97488102D01*
X186404903Y-97688061D01*
X186404903Y-97891939D01*
X186444677Y-98091898D01*
X186522698Y-98280256D01*
X186534554Y-98298000D01*
X186522698Y-98315744D01*
X186444677Y-98504102D01*
X186404903Y-98704061D01*
X186404903Y-98907939D01*
X186444677Y-99107898D01*
X186522698Y-99296256D01*
X186550903Y-99338468D01*
X186550903Y-100711000D01*
X179854902Y-100711000D01*
X179854902Y-99822000D01*
X181343903Y-99822000D01*
X181368679Y-99819560D01*
X181392504Y-99812333D01*
X181414460Y-99800597D01*
X181433706Y-99784803D01*
X181449500Y-99765557D01*
X181461236Y-99743601D01*
X181468463Y-99719776D01*
X181470903Y-99695000D01*
X181470903Y-95184630D01*
X182070720Y-94584813D01*
X182110048Y-94576990D01*
X182271108Y-94510277D01*
X182416058Y-94413424D01*
X182539327Y-94290155D01*
X182636180Y-94145205D01*
X182702893Y-93984145D01*
X182736903Y-93813165D01*
X182736903Y-93638835D01*
X182702893Y-93467855D01*
X182636180Y-93306795D01*
X182539327Y-93161845D01*
X182416058Y-93038576D01*
X182271108Y-92941723D01*
X182110048Y-92875010D01*
X181939068Y-92841000D01*
X181764738Y-92841000D01*
X181593758Y-92875010D01*
X181470903Y-92925898D01*
X181470903Y-92744999D01*
X186404903Y-92744999D01*
X186404903Y-92811939D01*
%TA.AperFunction,Conductor*%
D23*
G36*
X186404903Y-92811939D02*
G01*
X186444677Y-93011898D01*
X186522698Y-93200256D01*
X186550903Y-93242468D01*
X186550903Y-93447532D01*
X186522698Y-93489744D01*
X186444677Y-93678102D01*
X186404903Y-93878061D01*
X186404903Y-94081939D01*
X186444677Y-94281898D01*
X186522698Y-94470256D01*
X186550903Y-94512468D01*
X186550903Y-94717532D01*
X186522698Y-94759744D01*
X186444677Y-94948102D01*
X186404903Y-95148061D01*
X186404903Y-95351939D01*
X186444677Y-95551898D01*
X186522698Y-95740256D01*
X186550903Y-95782468D01*
X186550903Y-95987532D01*
X186522698Y-96029744D01*
X186444677Y-96218102D01*
X186404903Y-96418061D01*
X186404903Y-96621939D01*
X186444677Y-96821898D01*
X186522698Y-97010256D01*
X186550903Y-97052468D01*
X186550903Y-97257532D01*
X186522698Y-97299744D01*
X186444677Y-97488102D01*
X186404903Y-97688061D01*
X186404903Y-97891939D01*
X186444677Y-98091898D01*
X186522698Y-98280256D01*
X186534554Y-98298000D01*
X186522698Y-98315744D01*
X186444677Y-98504102D01*
X186404903Y-98704061D01*
X186404903Y-98907939D01*
X186444677Y-99107898D01*
X186522698Y-99296256D01*
X186550903Y-99338468D01*
X186550903Y-100711000D01*
X179854902Y-100711000D01*
X179854902Y-99822000D01*
X181343903Y-99822000D01*
X181368679Y-99819560D01*
X181392504Y-99812333D01*
X181414460Y-99800597D01*
X181433706Y-99784803D01*
X181449500Y-99765557D01*
X181461236Y-99743601D01*
X181468463Y-99719776D01*
X181470903Y-99695000D01*
X181470903Y-95184630D01*
X182070720Y-94584813D01*
X182110048Y-94576990D01*
X182271108Y-94510277D01*
X182416058Y-94413424D01*
X182539327Y-94290155D01*
X182636180Y-94145205D01*
X182702893Y-93984145D01*
X182736903Y-93813165D01*
X182736903Y-93638835D01*
X182702893Y-93467855D01*
X182636180Y-93306795D01*
X182539327Y-93161845D01*
X182416058Y-93038576D01*
X182271108Y-92941723D01*
X182110048Y-92875010D01*
X181939068Y-92841000D01*
X181764738Y-92841000D01*
X181593758Y-92875010D01*
X181470903Y-92925898D01*
X181470903Y-92744999D01*
X186404903Y-92744999D01*
X186404903Y-92811939D01*
G37*
%TD.AperFunction*%
%TD*%
D21*
%TO.N,/LTC6810/CellBalance4*%
X190106903Y-92786208D02*
X190090167Y-92826612D01*
X190050393Y-93026571D01*
X190050393Y-93230449D01*
X190090167Y-93430408D01*
X190106903Y-93470812D01*
X190106903Y-94310208D01*
X190090167Y-94350612D01*
X190050393Y-94550571D01*
X190050393Y-94754449D01*
X190090167Y-94954408D01*
X190106903Y-94994812D01*
X190106903Y-95504000D01*
X190109343Y-95528776D01*
X190116570Y-95552601D01*
X190128306Y-95574557D01*
X190140489Y-95590039D01*
X193857907Y-99626092D01*
X193948197Y-99795014D01*
X194133769Y-100021134D01*
X194359889Y-100206706D01*
X194424482Y-100241232D01*
X194585489Y-100416039D01*
X194604069Y-100432610D01*
X194625525Y-100445238D01*
X194649033Y-100453437D01*
X194678903Y-100457000D01*
X196813435Y-100457000D01*
X196855647Y-100485205D01*
X197044005Y-100563226D01*
X197243964Y-100603000D01*
X197447842Y-100603000D01*
X197647801Y-100563226D01*
X197836159Y-100485205D01*
X197878371Y-100457000D01*
X198083435Y-100457000D01*
X198125647Y-100485205D01*
X198314005Y-100563226D01*
X198513964Y-100603000D01*
X198717842Y-100603000D01*
X198917801Y-100563226D01*
X199106159Y-100485205D01*
X199148371Y-100457000D01*
X199250903Y-100457000D01*
X199250903Y-102235000D01*
X187058903Y-102235000D01*
X187058903Y-101342829D01*
X187126916Y-101287013D01*
X187205886Y-101190787D01*
X187264567Y-101081004D01*
X187300702Y-100961882D01*
X187312903Y-100838000D01*
X187312903Y-92744999D01*
X189713443Y-92744999D01*
X189750866Y-92748685D01*
X189788289Y-92744999D01*
X189788292Y-92744999D01*
X189900244Y-92733973D01*
X190043881Y-92690401D01*
X190106903Y-92656715D01*
X190106903Y-92786208D01*
%TA.AperFunction,Conductor*%
D23*
G36*
X190106903Y-92786208D02*
G01*
X190090167Y-92826612D01*
X190050393Y-93026571D01*
X190050393Y-93230449D01*
X190090167Y-93430408D01*
X190106903Y-93470812D01*
X190106903Y-94310208D01*
X190090167Y-94350612D01*
X190050393Y-94550571D01*
X190050393Y-94754449D01*
X190090167Y-94954408D01*
X190106903Y-94994812D01*
X190106903Y-95504000D01*
X190109343Y-95528776D01*
X190116570Y-95552601D01*
X190128306Y-95574557D01*
X190140489Y-95590039D01*
X193857907Y-99626092D01*
X193948197Y-99795014D01*
X194133769Y-100021134D01*
X194359889Y-100206706D01*
X194424482Y-100241232D01*
X194585489Y-100416039D01*
X194604069Y-100432610D01*
X194625525Y-100445238D01*
X194649033Y-100453437D01*
X194678903Y-100457000D01*
X196813435Y-100457000D01*
X196855647Y-100485205D01*
X197044005Y-100563226D01*
X197243964Y-100603000D01*
X197447842Y-100603000D01*
X197647801Y-100563226D01*
X197836159Y-100485205D01*
X197878371Y-100457000D01*
X198083435Y-100457000D01*
X198125647Y-100485205D01*
X198314005Y-100563226D01*
X198513964Y-100603000D01*
X198717842Y-100603000D01*
X198917801Y-100563226D01*
X199106159Y-100485205D01*
X199148371Y-100457000D01*
X199250903Y-100457000D01*
X199250903Y-102235000D01*
X187058903Y-102235000D01*
X187058903Y-101342829D01*
X187126916Y-101287013D01*
X187205886Y-101190787D01*
X187264567Y-101081004D01*
X187300702Y-100961882D01*
X187312903Y-100838000D01*
X187312903Y-92744999D01*
X189713443Y-92744999D01*
X189750866Y-92748685D01*
X189788289Y-92744999D01*
X189788292Y-92744999D01*
X189900244Y-92733973D01*
X190043881Y-92690401D01*
X190106903Y-92656715D01*
X190106903Y-92786208D01*
G37*
%TD.AperFunction*%
%TD*%
D21*
%TO.N,Net-(D10-Pad1)*%
X186550903Y-103099532D02*
X186522698Y-103141744D01*
X186444677Y-103330102D01*
X186404903Y-103530061D01*
X186404903Y-103733939D01*
X186444677Y-103933898D01*
X186522698Y-104122256D01*
X186550903Y-104164468D01*
X186550903Y-104369532D01*
X186522698Y-104411744D01*
X186444677Y-104600102D01*
X186404903Y-104800061D01*
X186404903Y-105003939D01*
X186444677Y-105203898D01*
X186522698Y-105392256D01*
X186550903Y-105434468D01*
X186550903Y-105639532D01*
X186522698Y-105681744D01*
X186444677Y-105870102D01*
X186404903Y-106070061D01*
X186404903Y-106273939D01*
X186444677Y-106473898D01*
X186522698Y-106662256D01*
X186550903Y-106704468D01*
X186550903Y-106909532D01*
X186522698Y-106951744D01*
X186444677Y-107140102D01*
X186404903Y-107340061D01*
X186404903Y-107543939D01*
X186444677Y-107743898D01*
X186522698Y-107932256D01*
X186550903Y-107974468D01*
X186550903Y-108179532D01*
X186522698Y-108221744D01*
X186444677Y-108410102D01*
X186404903Y-108610061D01*
X186404903Y-108813939D01*
X186444677Y-109013898D01*
X186522698Y-109202256D01*
X186550903Y-109244468D01*
X186550903Y-109449532D01*
X186522698Y-109491744D01*
X186444677Y-109680102D01*
X186404903Y-109880061D01*
X186404903Y-110083939D01*
X186444677Y-110283898D01*
X186522698Y-110472256D01*
X186550903Y-110514468D01*
X186550903Y-110928942D01*
X186384254Y-111125000D01*
X179692903Y-111125000D01*
X179692903Y-107356659D01*
X181440729Y-106281074D01*
X181510738Y-106295000D01*
X181685068Y-106295000D01*
X181856048Y-106260990D01*
X182017108Y-106194277D01*
X182162058Y-106097424D01*
X182285327Y-105974155D01*
X182382180Y-105829205D01*
X182448893Y-105668145D01*
X182450588Y-105659622D01*
X182680463Y-105518161D01*
X182700286Y-105503097D01*
X182716788Y-105484456D01*
X182729337Y-105462953D01*
X182737449Y-105439416D01*
X182740903Y-105410000D01*
X182740903Y-102997000D01*
X186550903Y-102997000D01*
X186550903Y-103099532D01*
%TA.AperFunction,Conductor*%
D23*
G36*
X186550903Y-103099532D02*
G01*
X186522698Y-103141744D01*
X186444677Y-103330102D01*
X186404903Y-103530061D01*
X186404903Y-103733939D01*
X186444677Y-103933898D01*
X186522698Y-104122256D01*
X186550903Y-104164468D01*
X186550903Y-104369532D01*
X186522698Y-104411744D01*
X186444677Y-104600102D01*
X186404903Y-104800061D01*
X186404903Y-105003939D01*
X186444677Y-105203898D01*
X186522698Y-105392256D01*
X186550903Y-105434468D01*
X186550903Y-105639532D01*
X186522698Y-105681744D01*
X186444677Y-105870102D01*
X186404903Y-106070061D01*
X186404903Y-106273939D01*
X186444677Y-106473898D01*
X186522698Y-106662256D01*
X186550903Y-106704468D01*
X186550903Y-106909532D01*
X186522698Y-106951744D01*
X186444677Y-107140102D01*
X186404903Y-107340061D01*
X186404903Y-107543939D01*
X186444677Y-107743898D01*
X186522698Y-107932256D01*
X186550903Y-107974468D01*
X186550903Y-108179532D01*
X186522698Y-108221744D01*
X186444677Y-108410102D01*
X186404903Y-108610061D01*
X186404903Y-108813939D01*
X186444677Y-109013898D01*
X186522698Y-109202256D01*
X186550903Y-109244468D01*
X186550903Y-109449532D01*
X186522698Y-109491744D01*
X186444677Y-109680102D01*
X186404903Y-109880061D01*
X186404903Y-110083939D01*
X186444677Y-110283898D01*
X186522698Y-110472256D01*
X186550903Y-110514468D01*
X186550903Y-110928942D01*
X186384254Y-111125000D01*
X179692903Y-111125000D01*
X179692903Y-107356659D01*
X181440729Y-106281074D01*
X181510738Y-106295000D01*
X181685068Y-106295000D01*
X181856048Y-106260990D01*
X182017108Y-106194277D01*
X182162058Y-106097424D01*
X182285327Y-105974155D01*
X182382180Y-105829205D01*
X182448893Y-105668145D01*
X182450588Y-105659622D01*
X182680463Y-105518161D01*
X182700286Y-105503097D01*
X182716788Y-105484456D01*
X182729337Y-105462953D01*
X182737449Y-105439416D01*
X182740903Y-105410000D01*
X182740903Y-102997000D01*
X186550903Y-102997000D01*
X186550903Y-103099532D01*
G37*
%TD.AperFunction*%
%TD*%
D21*
%TO.N,/LTC6810/CellBalance3*%
X196855647Y-103025205D02*
X197044005Y-103103226D01*
X197243964Y-103143000D01*
X197447842Y-103143000D01*
X197647801Y-103103226D01*
X197836159Y-103025205D01*
X197878371Y-102997000D01*
X198083435Y-102997000D01*
X198125647Y-103025205D01*
X198314005Y-103103226D01*
X198513964Y-103143000D01*
X198717842Y-103143000D01*
X198917801Y-103103226D01*
X199106159Y-103025205D01*
X199148371Y-102997000D01*
X199250903Y-102997000D01*
X199250903Y-105029000D01*
X195817415Y-105029000D01*
X195730014Y-105002487D01*
X195511853Y-104981000D01*
X195115953Y-104981000D01*
X194897792Y-105002487D01*
X194810391Y-105029000D01*
X193860362Y-105029000D01*
X193764842Y-105010000D01*
X193560964Y-105010000D01*
X193465444Y-105029000D01*
X192590362Y-105029000D01*
X192494842Y-105010000D01*
X192290964Y-105010000D01*
X192091005Y-105049774D01*
X191902647Y-105127795D01*
X191733129Y-105241063D01*
X191588966Y-105385226D01*
X191475698Y-105554744D01*
X191397677Y-105743102D01*
X191372470Y-105869827D01*
X190906100Y-106336197D01*
X190890306Y-106355443D01*
X190878570Y-106377399D01*
X190871343Y-106401224D01*
X190868903Y-106426000D01*
X190868903Y-107315000D01*
X189725903Y-107315000D01*
X189615549Y-107324662D01*
X189495672Y-107358207D01*
X189384643Y-107414494D01*
X189286728Y-107491360D01*
X189205691Y-107585851D01*
X188333775Y-108831446D01*
X187312903Y-110032472D01*
X187312903Y-102997000D01*
X196813435Y-102997000D01*
X196855647Y-103025205D01*
%TA.AperFunction,Conductor*%
D23*
G36*
X196855647Y-103025205D02*
G01*
X197044005Y-103103226D01*
X197243964Y-103143000D01*
X197447842Y-103143000D01*
X197647801Y-103103226D01*
X197836159Y-103025205D01*
X197878371Y-102997000D01*
X198083435Y-102997000D01*
X198125647Y-103025205D01*
X198314005Y-103103226D01*
X198513964Y-103143000D01*
X198717842Y-103143000D01*
X198917801Y-103103226D01*
X199106159Y-103025205D01*
X199148371Y-102997000D01*
X199250903Y-102997000D01*
X199250903Y-105029000D01*
X195817415Y-105029000D01*
X195730014Y-105002487D01*
X195511853Y-104981000D01*
X195115953Y-104981000D01*
X194897792Y-105002487D01*
X194810391Y-105029000D01*
X193860362Y-105029000D01*
X193764842Y-105010000D01*
X193560964Y-105010000D01*
X193465444Y-105029000D01*
X192590362Y-105029000D01*
X192494842Y-105010000D01*
X192290964Y-105010000D01*
X192091005Y-105049774D01*
X191902647Y-105127795D01*
X191733129Y-105241063D01*
X191588966Y-105385226D01*
X191475698Y-105554744D01*
X191397677Y-105743102D01*
X191372470Y-105869827D01*
X190906100Y-106336197D01*
X190890306Y-106355443D01*
X190878570Y-106377399D01*
X190871343Y-106401224D01*
X190868903Y-106426000D01*
X190868903Y-107315000D01*
X189725903Y-107315000D01*
X189615549Y-107324662D01*
X189495672Y-107358207D01*
X189384643Y-107414494D01*
X189286728Y-107491360D01*
X189205691Y-107585851D01*
X188333775Y-108831446D01*
X187312903Y-110032472D01*
X187312903Y-102997000D01*
X196813435Y-102997000D01*
X196855647Y-103025205D01*
G37*
%TD.AperFunction*%
%TD*%
D21*
%TO.N,Net-(D6-Pad1)*%
X194932903Y-112206263D02*
X194932903Y-123063000D01*
X194945104Y-123186882D01*
X194981239Y-123306004D01*
X195039920Y-123415787D01*
X195118890Y-123512013D01*
X195186903Y-123567829D01*
X195186903Y-124315000D01*
X189344903Y-124315000D01*
X189344903Y-122555000D01*
X191249903Y-122555000D01*
X191274679Y-122552560D01*
X191298504Y-122545333D01*
X191320460Y-122533597D01*
X191339706Y-122517803D01*
X191355500Y-122498557D01*
X191367236Y-122476601D01*
X191374463Y-122452776D01*
X191376903Y-122428000D01*
X191376903Y-115622606D01*
X193371706Y-113627803D01*
X193387500Y-113608557D01*
X193399236Y-113586601D01*
X193406463Y-113562776D01*
X193408903Y-113538000D01*
X193408903Y-112592459D01*
X193427903Y-112496939D01*
X193427903Y-112293061D01*
X193408903Y-112197541D01*
X193408903Y-112141000D01*
X194889394Y-112141000D01*
X194932903Y-112206263D01*
%TA.AperFunction,Conductor*%
D23*
G36*
X194932903Y-112206263D02*
G01*
X194932903Y-123063000D01*
X194945104Y-123186882D01*
X194981239Y-123306004D01*
X195039920Y-123415787D01*
X195118890Y-123512013D01*
X195186903Y-123567829D01*
X195186903Y-124315000D01*
X189344903Y-124315000D01*
X189344903Y-122555000D01*
X191249903Y-122555000D01*
X191274679Y-122552560D01*
X191298504Y-122545333D01*
X191320460Y-122533597D01*
X191339706Y-122517803D01*
X191355500Y-122498557D01*
X191367236Y-122476601D01*
X191374463Y-122452776D01*
X191376903Y-122428000D01*
X191376903Y-115622606D01*
X193371706Y-113627803D01*
X193387500Y-113608557D01*
X193399236Y-113586601D01*
X193406463Y-113562776D01*
X193408903Y-113538000D01*
X193408903Y-112592459D01*
X193427903Y-112496939D01*
X193427903Y-112293061D01*
X193408903Y-112197541D01*
X193408903Y-112141000D01*
X194889394Y-112141000D01*
X194932903Y-112206263D01*
G37*
%TD.AperFunction*%
%TD*%
D21*
%TO.N,Net-(D8-Pad1)*%
X181216903Y-124315000D02*
X174866903Y-124315000D01*
X174866903Y-122809000D01*
X181216903Y-122809000D01*
X181216903Y-124315000D01*
%TA.AperFunction,Conductor*%
D23*
G36*
X181216903Y-124315000D02*
G01*
X174866903Y-124315000D01*
X174866903Y-122809000D01*
X181216903Y-122809000D01*
X181216903Y-124315000D01*
G37*
%TD.AperFunction*%
D21*
X181216903Y-117277541D02*
X181197903Y-117373061D01*
X181197903Y-117576939D01*
X181216903Y-117672459D01*
X181216903Y-118547541D01*
X181197903Y-118643061D01*
X181197903Y-118846939D01*
X181216903Y-118942459D01*
X181216903Y-119817541D01*
X181197903Y-119913061D01*
X181197903Y-120116939D01*
X181216903Y-120212459D01*
X181216903Y-121087541D01*
X181197903Y-121183061D01*
X181197903Y-121285000D01*
X176644903Y-121285000D01*
X176644903Y-117590264D01*
X176729493Y-117533742D01*
X176852762Y-117410473D01*
X176949615Y-117265523D01*
X177016328Y-117104463D01*
X177031040Y-117030500D01*
X181216903Y-117030500D01*
X181216903Y-117277541D01*
%TA.AperFunction,Conductor*%
D23*
G36*
X181216903Y-117277541D02*
G01*
X181197903Y-117373061D01*
X181197903Y-117576939D01*
X181216903Y-117672459D01*
X181216903Y-118547541D01*
X181197903Y-118643061D01*
X181197903Y-118846939D01*
X181216903Y-118942459D01*
X181216903Y-119817541D01*
X181197903Y-119913061D01*
X181197903Y-120116939D01*
X181216903Y-120212459D01*
X181216903Y-121087541D01*
X181197903Y-121183061D01*
X181197903Y-121285000D01*
X176644903Y-121285000D01*
X176644903Y-117590264D01*
X176729493Y-117533742D01*
X176852762Y-117410473D01*
X176949615Y-117265523D01*
X177016328Y-117104463D01*
X177031040Y-117030500D01*
X181216903Y-117030500D01*
X181216903Y-117277541D01*
G37*
%TD.AperFunction*%
%TD*%
D21*
%TO.N,+24V*%
X116933503Y-80833765D02*
X116954903Y-80941350D01*
X116954903Y-83425524D01*
X116823758Y-83451610D01*
X116662698Y-83518323D01*
X116517748Y-83615176D01*
X116394479Y-83738445D01*
X116297626Y-83883395D01*
X116230913Y-84044455D01*
X116196903Y-84215435D01*
X116196903Y-84389765D01*
X116230913Y-84560745D01*
X116297626Y-84721805D01*
X116394479Y-84866755D01*
X116517748Y-84990024D01*
X116662698Y-85086877D01*
X116823758Y-85153590D01*
X116954903Y-85179676D01*
X116954903Y-88138000D01*
X116957343Y-88162776D01*
X116964570Y-88186601D01*
X116976306Y-88208557D01*
X116992100Y-88227803D01*
X117011346Y-88243597D01*
X117033302Y-88255333D01*
X117057127Y-88262560D01*
X117081903Y-88265000D01*
X119002682Y-88265000D01*
X119033560Y-88277790D01*
X119204540Y-88311800D01*
X119378870Y-88311800D01*
X119549850Y-88277790D01*
X119580728Y-88265000D01*
X121526903Y-88265000D01*
X121526903Y-95123000D01*
X110685000Y-95123000D01*
X110685000Y-80685000D01*
X116933503Y-80685000D01*
X116933503Y-80833765D01*
%TA.AperFunction,Conductor*%
D23*
G36*
X116933503Y-80833765D02*
G01*
X116954903Y-80941350D01*
X116954903Y-83425524D01*
X116823758Y-83451610D01*
X116662698Y-83518323D01*
X116517748Y-83615176D01*
X116394479Y-83738445D01*
X116297626Y-83883395D01*
X116230913Y-84044455D01*
X116196903Y-84215435D01*
X116196903Y-84389765D01*
X116230913Y-84560745D01*
X116297626Y-84721805D01*
X116394479Y-84866755D01*
X116517748Y-84990024D01*
X116662698Y-85086877D01*
X116823758Y-85153590D01*
X116954903Y-85179676D01*
X116954903Y-88138000D01*
X116957343Y-88162776D01*
X116964570Y-88186601D01*
X116976306Y-88208557D01*
X116992100Y-88227803D01*
X117011346Y-88243597D01*
X117033302Y-88255333D01*
X117057127Y-88262560D01*
X117081903Y-88265000D01*
X119002682Y-88265000D01*
X119033560Y-88277790D01*
X119204540Y-88311800D01*
X119378870Y-88311800D01*
X119549850Y-88277790D01*
X119580728Y-88265000D01*
X121526903Y-88265000D01*
X121526903Y-95123000D01*
X110685000Y-95123000D01*
X110685000Y-80685000D01*
X116933503Y-80685000D01*
X116933503Y-80833765D01*
G37*
%TD.AperFunction*%
%TD*%
D21*
%TO.N,Net-(F2-Pad2)*%
X132194903Y-87503000D02*
X120383903Y-87503000D01*
X120383903Y-84620102D01*
X120422108Y-84604277D01*
X120567058Y-84507424D01*
X120690327Y-84384155D01*
X120787180Y-84239205D01*
X120853893Y-84078145D01*
X120887903Y-83907165D01*
X120887903Y-83732835D01*
X120853893Y-83561855D01*
X120787180Y-83400795D01*
X120690327Y-83255845D01*
X120567058Y-83132576D01*
X120422108Y-83035723D01*
X120383903Y-83019898D01*
X120383903Y-80685000D01*
X132194903Y-80685000D01*
X132194903Y-87503000D01*
%TA.AperFunction,Conductor*%
D23*
G36*
X132194903Y-87503000D02*
G01*
X120383903Y-87503000D01*
X120383903Y-84620102D01*
X120422108Y-84604277D01*
X120567058Y-84507424D01*
X120690327Y-84384155D01*
X120787180Y-84239205D01*
X120853893Y-84078145D01*
X120887903Y-83907165D01*
X120887903Y-83732835D01*
X120853893Y-83561855D01*
X120787180Y-83400795D01*
X120690327Y-83255845D01*
X120567058Y-83132576D01*
X120422108Y-83035723D01*
X120383903Y-83019898D01*
X120383903Y-80685000D01*
X132194903Y-80685000D01*
X132194903Y-87503000D01*
G37*
%TD.AperFunction*%
%TD*%
D21*
%TO.N,/CS_IP+*%
X142862903Y-81829868D02*
X141954768Y-82738004D01*
X141911454Y-82773551D01*
X141769619Y-82946377D01*
X141664228Y-83143553D01*
X141664227Y-83143554D01*
X141599326Y-83357502D01*
X141577412Y-83580000D01*
X141582903Y-83635752D01*
X141582904Y-87859868D01*
X141513771Y-87929001D01*
X140341643Y-87929001D01*
X140285901Y-87923511D01*
X140230159Y-87929001D01*
X140230150Y-87929001D01*
X140063403Y-87945424D01*
X139849455Y-88010325D01*
X139652279Y-88115717D01*
X139479453Y-88257552D01*
X139443913Y-88300858D01*
X138953132Y-88791639D01*
X137276314Y-88773008D01*
X137251512Y-88775173D01*
X137227609Y-88782135D01*
X137205523Y-88793626D01*
X137186104Y-88809205D01*
X137170097Y-88828274D01*
X137158118Y-88850099D01*
X137150626Y-88873841D01*
X137147903Y-88900000D01*
X137147903Y-90596868D01*
X136688544Y-91056227D01*
X133197678Y-91039761D01*
X133239108Y-90977756D01*
X133317129Y-90789398D01*
X133356903Y-90589439D01*
X133356903Y-90385561D01*
X133317129Y-90185602D01*
X133239108Y-89997244D01*
X133125840Y-89827726D01*
X133010914Y-89712800D01*
X133049640Y-89674074D01*
X133162908Y-89504556D01*
X133240929Y-89316198D01*
X133280703Y-89116239D01*
X133280703Y-88912361D01*
X133240929Y-88712402D01*
X133162908Y-88524044D01*
X133049640Y-88354526D01*
X132956903Y-88261789D01*
X132956903Y-80685000D01*
X142862903Y-80685000D01*
X142862903Y-81829868D01*
%TA.AperFunction,Conductor*%
D23*
G36*
X142862903Y-81829868D02*
G01*
X141954768Y-82738004D01*
X141911454Y-82773551D01*
X141769619Y-82946377D01*
X141664228Y-83143553D01*
X141664227Y-83143554D01*
X141599326Y-83357502D01*
X141577412Y-83580000D01*
X141582903Y-83635752D01*
X141582904Y-87859868D01*
X141513771Y-87929001D01*
X140341643Y-87929001D01*
X140285901Y-87923511D01*
X140230159Y-87929001D01*
X140230150Y-87929001D01*
X140063403Y-87945424D01*
X139849455Y-88010325D01*
X139652279Y-88115717D01*
X139479453Y-88257552D01*
X139443913Y-88300858D01*
X138953132Y-88791639D01*
X137276314Y-88773008D01*
X137251512Y-88775173D01*
X137227609Y-88782135D01*
X137205523Y-88793626D01*
X137186104Y-88809205D01*
X137170097Y-88828274D01*
X137158118Y-88850099D01*
X137150626Y-88873841D01*
X137147903Y-88900000D01*
X137147903Y-90596868D01*
X136688544Y-91056227D01*
X133197678Y-91039761D01*
X133239108Y-90977756D01*
X133317129Y-90789398D01*
X133356903Y-90589439D01*
X133356903Y-90385561D01*
X133317129Y-90185602D01*
X133239108Y-89997244D01*
X133125840Y-89827726D01*
X133010914Y-89712800D01*
X133049640Y-89674074D01*
X133162908Y-89504556D01*
X133240929Y-89316198D01*
X133280703Y-89116239D01*
X133280703Y-88912361D01*
X133240929Y-88712402D01*
X133162908Y-88524044D01*
X133049640Y-88354526D01*
X132956903Y-88261789D01*
X132956903Y-80685000D01*
X142862903Y-80685000D01*
X142862903Y-81829868D01*
G37*
%TD.AperFunction*%
%TD*%
D21*
%TO.N,/V_Out*%
X135930113Y-91814659D02*
X133590768Y-94154004D01*
X133547454Y-94189551D01*
X133405619Y-94362377D01*
X133339084Y-94486857D01*
X133338473Y-94488000D01*
X130924903Y-94488000D01*
X130900127Y-94490440D01*
X130876302Y-94497667D01*
X130854346Y-94509403D01*
X130835100Y-94525197D01*
X130825592Y-94535839D01*
X128240846Y-97778520D01*
X128126593Y-97755794D01*
X127779903Y-97755794D01*
X127439875Y-97823430D01*
X127119575Y-97956102D01*
X126831313Y-98148713D01*
X126586167Y-98393859D01*
X126393556Y-98682121D01*
X126260884Y-99002421D01*
X126193248Y-99342449D01*
X126193248Y-99689139D01*
X126260884Y-100029167D01*
X126324476Y-100182693D01*
X123917453Y-103202413D01*
X121033416Y-101039384D01*
X122432698Y-94642662D01*
X127114306Y-94642662D01*
X127114306Y-94890860D01*
X127162727Y-95134290D01*
X127257708Y-95363595D01*
X127395600Y-95569964D01*
X127571103Y-95745467D01*
X127777472Y-95883359D01*
X128006777Y-95978340D01*
X128250207Y-96026761D01*
X128498405Y-96026761D01*
X128741835Y-95978340D01*
X128971140Y-95883359D01*
X129177509Y-95745467D01*
X129353012Y-95569964D01*
X129490904Y-95363595D01*
X129585885Y-95134290D01*
X129634306Y-94890860D01*
X129634306Y-94642662D01*
X129585885Y-94399232D01*
X129490904Y-94169927D01*
X129353012Y-93963558D01*
X129177509Y-93788055D01*
X128971140Y-93650163D01*
X128741835Y-93555182D01*
X128498405Y-93506761D01*
X128250207Y-93506761D01*
X128006777Y-93555182D01*
X127777472Y-93650163D01*
X127571103Y-93788055D01*
X127395600Y-93963558D01*
X127257708Y-94169927D01*
X127162727Y-94399232D01*
X127114306Y-94642662D01*
X122432698Y-94642662D01*
X122781342Y-93048865D01*
X125114507Y-91820883D01*
X131889978Y-91795601D01*
X135930113Y-91814659D01*
%TA.AperFunction,Conductor*%
D23*
G36*
X135930113Y-91814659D02*
G01*
X133590768Y-94154004D01*
X133547454Y-94189551D01*
X133405619Y-94362377D01*
X133339084Y-94486857D01*
X133338473Y-94488000D01*
X130924903Y-94488000D01*
X130900127Y-94490440D01*
X130876302Y-94497667D01*
X130854346Y-94509403D01*
X130835100Y-94525197D01*
X130825592Y-94535839D01*
X128240846Y-97778520D01*
X128126593Y-97755794D01*
X127779903Y-97755794D01*
X127439875Y-97823430D01*
X127119575Y-97956102D01*
X126831313Y-98148713D01*
X126586167Y-98393859D01*
X126393556Y-98682121D01*
X126260884Y-99002421D01*
X126193248Y-99342449D01*
X126193248Y-99689139D01*
X126260884Y-100029167D01*
X126324476Y-100182693D01*
X123917453Y-103202413D01*
X121033416Y-101039384D01*
X122432698Y-94642662D01*
X127114306Y-94642662D01*
X127114306Y-94890860D01*
X127162727Y-95134290D01*
X127257708Y-95363595D01*
X127395600Y-95569964D01*
X127571103Y-95745467D01*
X127777472Y-95883359D01*
X128006777Y-95978340D01*
X128250207Y-96026761D01*
X128498405Y-96026761D01*
X128741835Y-95978340D01*
X128971140Y-95883359D01*
X129177509Y-95745467D01*
X129353012Y-95569964D01*
X129490904Y-95363595D01*
X129585885Y-95134290D01*
X129634306Y-94890860D01*
X129634306Y-94642662D01*
X129585885Y-94399232D01*
X129490904Y-94169927D01*
X129353012Y-93963558D01*
X129177509Y-93788055D01*
X128971140Y-93650163D01*
X128741835Y-93555182D01*
X128498405Y-93506761D01*
X128250207Y-93506761D01*
X128006777Y-93555182D01*
X127777472Y-93650163D01*
X127571103Y-93788055D01*
X127395600Y-93963558D01*
X127257708Y-94169927D01*
X127162727Y-94399232D01*
X127114306Y-94642662D01*
X122432698Y-94642662D01*
X122781342Y-93048865D01*
X125114507Y-91820883D01*
X131889978Y-91795601D01*
X135930113Y-91814659D01*
G37*
%TD.AperFunction*%
%TD*%
M02*
