%TF.GenerationSoftware,KiCad,Pcbnew,(5.1.10)-1*%
%TF.CreationDate,2022-01-23T20:59:35+01:00*%
%TF.ProjectId,BMS_LV_2022,424d535f-4c56-45f3-9230-32322e6b6963,rev?*%
%TF.SameCoordinates,Original*%
%TF.FileFunction,Legend,Top*%
%TF.FilePolarity,Positive*%
%FSLAX46Y46*%
G04 Gerber Fmt 4.6, Leading zero omitted, Abs format (unit mm)*
G04 Created by KiCad (PCBNEW (5.1.10)-1) date 2022-01-23 20:59:35*
%MOMM*%
%LPD*%
G01*
G04 APERTURE LIST*
%ADD10C,0.150000*%
%ADD11C,0.120000*%
%ADD12C,0.100000*%
G04 APERTURE END LIST*
D10*
X156197903Y-108458000D02*
X156197903Y-107442000D01*
X156197903Y-108458000D02*
X155181903Y-107696000D01*
X156451903Y-107696000D02*
X155689903Y-107696000D01*
X156451903Y-109474000D02*
X156197903Y-109728000D01*
X156451903Y-109220000D02*
X156451903Y-109474000D01*
X154927903Y-109474000D02*
X155181903Y-109728000D01*
X154927903Y-109220000D02*
X154927903Y-109474000D01*
X154927903Y-108966000D02*
X154927903Y-109220000D01*
X155181903Y-108712000D02*
X154927903Y-108966000D01*
X155435903Y-108712000D02*
X155181903Y-108712000D01*
X155689903Y-108966000D02*
X155435903Y-108712000D01*
X155689903Y-109474000D02*
X155689903Y-108966000D01*
X155689903Y-109220000D02*
X155689903Y-109474000D01*
X155689903Y-108966000D02*
X155689903Y-109220000D01*
X155943903Y-108712000D02*
X155689903Y-108966000D01*
X156197903Y-108712000D02*
X155943903Y-108712000D01*
X156451903Y-108966000D02*
X156197903Y-108712000D01*
X156451903Y-109220000D02*
X156451903Y-108966000D01*
X154927903Y-110998000D02*
X155181903Y-111252000D01*
X154927903Y-110744000D02*
X154927903Y-110998000D01*
X154927903Y-110490000D02*
X154927903Y-110744000D01*
X155181903Y-110236000D02*
X154927903Y-110490000D01*
X155435903Y-110236000D02*
X155181903Y-110236000D01*
X155689903Y-110490000D02*
X155435903Y-110236000D01*
X156451903Y-111506000D02*
X155689903Y-110490000D01*
X156451903Y-110236000D02*
X156451903Y-111506000D01*
X154927903Y-112268000D02*
X156451903Y-112268000D01*
X155689903Y-112776000D02*
X154927903Y-112268000D01*
D11*
%TO.C,R64*%
X171067803Y-115946458D02*
X171067803Y-115471942D01*
X172112803Y-115946458D02*
X172112803Y-115471942D01*
%TO.C,R63*%
X168019803Y-115946458D02*
X168019803Y-115471942D01*
X169064803Y-115946458D02*
X169064803Y-115471942D01*
%TO.C,C46*%
X173573503Y-115569420D02*
X173573503Y-115850580D01*
X172553503Y-115569420D02*
X172553503Y-115850580D01*
%TO.C,C45*%
X170525503Y-115569420D02*
X170525503Y-115850580D01*
X169505503Y-115569420D02*
X169505503Y-115850580D01*
%TO.C,J6*%
X148169903Y-118444000D02*
X148169903Y-124414000D01*
X148169903Y-124414000D02*
X173289903Y-124414000D01*
X173289903Y-124414000D02*
X173289903Y-118444000D01*
X173289903Y-118444000D02*
X148169903Y-118444000D01*
X151479903Y-118454000D02*
X151479903Y-119204000D01*
X151479903Y-119204000D02*
X169979903Y-119204000D01*
X169979903Y-119204000D02*
X169979903Y-118454000D01*
X169979903Y-118454000D02*
X151479903Y-118454000D01*
X148179903Y-118454000D02*
X148179903Y-119204000D01*
X148179903Y-119204000D02*
X149979903Y-119204000D01*
X149979903Y-119204000D02*
X149979903Y-118454000D01*
X149979903Y-118454000D02*
X148179903Y-118454000D01*
X171479903Y-118454000D02*
X171479903Y-119204000D01*
X171479903Y-119204000D02*
X173279903Y-119204000D01*
X173279903Y-119204000D02*
X173279903Y-118454000D01*
X173279903Y-118454000D02*
X171479903Y-118454000D01*
X148179903Y-120704000D02*
X148929903Y-120704000D01*
X148929903Y-120704000D02*
X148929903Y-123654000D01*
X148929903Y-123654000D02*
X160729903Y-123654000D01*
X173279903Y-120704000D02*
X172529903Y-120704000D01*
X172529903Y-120704000D02*
X172529903Y-123654000D01*
X172529903Y-123654000D02*
X160729903Y-123654000D01*
X149129903Y-118154000D02*
X147879903Y-118154000D01*
X147879903Y-118154000D02*
X147879903Y-119404000D01*
%TO.C,R15*%
X128591645Y-107935500D02*
X129066161Y-107935500D01*
X128591645Y-108980500D02*
X129066161Y-108980500D01*
%TO.C,U4*%
X150290903Y-82987200D02*
X148340903Y-82987200D01*
X150290903Y-82987200D02*
X152240903Y-82987200D01*
X150290903Y-88107200D02*
X148340903Y-88107200D01*
X150290903Y-88107200D02*
X153740903Y-88107200D01*
%TO.C,R14*%
X132681045Y-106665500D02*
X133155561Y-106665500D01*
X132681045Y-107710500D02*
X133155561Y-107710500D01*
%TO.C,R13*%
X133155561Y-106237300D02*
X132681045Y-106237300D01*
X133155561Y-105192300D02*
X132681045Y-105192300D01*
%TO.C,Q12*%
X118894903Y-80661000D02*
X122399903Y-80661000D01*
X119129903Y-83931000D02*
X122399903Y-83931000D01*
X119129903Y-83596000D02*
X119129903Y-83931000D01*
X122399903Y-83596000D02*
X122399903Y-83931000D01*
X122399903Y-80661000D02*
X122399903Y-80996000D01*
%TO.C,Q11*%
X118856803Y-84217000D02*
X122361803Y-84217000D01*
X119091803Y-87487000D02*
X122361803Y-87487000D01*
X119091803Y-87152000D02*
X119091803Y-87487000D01*
X122361803Y-87152000D02*
X122361803Y-87487000D01*
X122361803Y-84217000D02*
X122361803Y-84552000D01*
%TO.C,Q9*%
X118239403Y-87487000D02*
X114734403Y-87487000D01*
X118004403Y-84217000D02*
X114734403Y-84217000D01*
X118004403Y-84552000D02*
X118004403Y-84217000D01*
X114734403Y-84552000D02*
X114734403Y-84217000D01*
X114734403Y-87487000D02*
X114734403Y-87152000D01*
%TO.C,Q8*%
X118239403Y-83931000D02*
X114734403Y-83931000D01*
X118004403Y-80661000D02*
X114734403Y-80661000D01*
X118004403Y-80996000D02*
X118004403Y-80661000D01*
X114734403Y-80996000D02*
X114734403Y-80661000D01*
X114734403Y-83931000D02*
X114734403Y-83596000D01*
%TO.C,Y1*%
X136933903Y-104446000D02*
X140233903Y-104446000D01*
X140233903Y-104446000D02*
X140233903Y-100446000D01*
%TO.C,J11*%
X192563903Y-111816000D02*
X193813903Y-111816000D01*
X192563903Y-110566000D02*
X192563903Y-111816000D01*
X198063903Y-92166000D02*
X198063903Y-101466000D01*
X195113903Y-92166000D02*
X198063903Y-92166000D01*
X195113903Y-91416000D02*
X195113903Y-92166000D01*
X198063903Y-110766000D02*
X198063903Y-101466000D01*
X195113903Y-110766000D02*
X198063903Y-110766000D01*
X195113903Y-111516000D02*
X195113903Y-110766000D01*
X192863903Y-91416000D02*
X192863903Y-93216000D01*
X193613903Y-91416000D02*
X192863903Y-91416000D01*
X193613903Y-93216000D02*
X193613903Y-91416000D01*
X192863903Y-93216000D02*
X193613903Y-93216000D01*
X192863903Y-109716000D02*
X192863903Y-111516000D01*
X193613903Y-109716000D02*
X192863903Y-109716000D01*
X193613903Y-111516000D02*
X193613903Y-109716000D01*
X192863903Y-111516000D02*
X193613903Y-111516000D01*
X192863903Y-94716000D02*
X192863903Y-108216000D01*
X193613903Y-94716000D02*
X192863903Y-94716000D01*
X193613903Y-108216000D02*
X193613903Y-94716000D01*
X192863903Y-108216000D02*
X193613903Y-108216000D01*
X192853903Y-91406000D02*
X192853903Y-111526000D01*
X198823903Y-91406000D02*
X192853903Y-91406000D01*
X198823903Y-111526000D02*
X198823903Y-91406000D01*
X192853903Y-111526000D02*
X198823903Y-111526000D01*
%TO.C,R22*%
X193256839Y-118548397D02*
X197610967Y-118548397D01*
X193256839Y-115128397D02*
X197610967Y-115128397D01*
%TO.C,J2*%
X134597903Y-100330000D02*
G75*
G03*
X134597903Y-100330000I-8880000J0D01*
G01*
%TO.C,L2*%
X139322000Y-114943000D02*
X141622000Y-114943000D01*
X141622000Y-114943000D02*
X141622000Y-122343000D01*
X141622000Y-122343000D02*
X139322000Y-122343000D01*
X136522000Y-122343000D02*
X134222000Y-122343000D01*
X134222000Y-122343000D02*
X134222000Y-114943000D01*
X134222000Y-114943000D02*
X136522000Y-114943000D01*
%TO.C,SW1*%
X157152006Y-95638800D02*
X157152006Y-95938800D01*
X157152006Y-95938800D02*
X160452006Y-95938800D01*
X160452006Y-95938800D02*
X160452006Y-95638800D01*
X157152006Y-93438800D02*
X157152006Y-93138800D01*
X157152006Y-93138800D02*
X160452006Y-93138800D01*
X160452006Y-93138800D02*
X160452006Y-93438800D01*
%TO.C,F2*%
X142477903Y-84024000D02*
X123177903Y-84024000D01*
X123177903Y-88464000D02*
X142477903Y-88464000D01*
X123177903Y-88464000D02*
X123177903Y-84024000D01*
X142477903Y-88464000D02*
X142477903Y-84024000D01*
%TO.C,C38*%
X131697500Y-114181200D02*
X138457500Y-114181200D01*
X138457500Y-114181200D02*
X138457500Y-110761200D01*
X138457500Y-110761200D02*
X131697500Y-110761200D01*
%TO.C,D20*%
X142002000Y-119089000D02*
X142002000Y-115189000D01*
X144002000Y-119089000D02*
X144002000Y-115189000D01*
X142002000Y-119089000D02*
X144002000Y-119089000D01*
%TO.C,F1*%
X121547903Y-93188064D02*
X121547903Y-91983936D01*
X119727903Y-93188064D02*
X119727903Y-91983936D01*
%TO.C,U2*%
X144898000Y-119521000D02*
X142468000Y-119521000D01*
X143138000Y-122591000D02*
X144898000Y-122591000D01*
%TO.C,C44*%
X144870083Y-122959400D02*
X144588923Y-122959400D01*
X144870083Y-123979400D02*
X144588923Y-123979400D01*
%TO.C,D17*%
X196345303Y-85840200D02*
X196345303Y-87540200D01*
X196345303Y-87540200D02*
X198895303Y-87540200D01*
X196345303Y-85840200D02*
X198895303Y-85840200D01*
%TO.C,D15*%
X181521283Y-85993203D02*
X181521283Y-87693203D01*
X181521283Y-87693203D02*
X184071283Y-87693203D01*
X181521283Y-85993203D02*
X184071283Y-85993203D01*
%TO.C,D13*%
X182628983Y-96073997D02*
X180078983Y-96073997D01*
X182628983Y-94373997D02*
X180078983Y-94373997D01*
X182628983Y-96073997D02*
X182628983Y-94373997D01*
%TO.C,D11*%
X182628983Y-107092517D02*
X182628983Y-105392517D01*
X182628983Y-105392517D02*
X180078983Y-105392517D01*
X182628983Y-107092517D02*
X180078983Y-107092517D01*
%TO.C,D9*%
X177061303Y-119124497D02*
X174511303Y-119124497D01*
X177061303Y-117424497D02*
X174511303Y-117424497D01*
X177061303Y-119124497D02*
X177061303Y-117424497D01*
%TO.C,D7*%
X191285303Y-118985400D02*
X188735303Y-118985400D01*
X191285303Y-117285400D02*
X188735303Y-117285400D01*
X191285303Y-118985400D02*
X191285303Y-117285400D01*
%TO.C,U5*%
X137164200Y-89078600D02*
X133714200Y-89078600D01*
X137164200Y-89078600D02*
X139114200Y-89078600D01*
X137164200Y-94198600D02*
X135214200Y-94198600D01*
X137164200Y-94198600D02*
X139114200Y-94198600D01*
D10*
%TO.C,U3*%
X129217000Y-119527000D02*
X129217000Y-119477000D01*
X125067000Y-119527000D02*
X125067000Y-119382000D01*
X125067000Y-114377000D02*
X125067000Y-114522000D01*
X129217000Y-114377000D02*
X129217000Y-114522000D01*
X129217000Y-119527000D02*
X125067000Y-119527000D01*
X129217000Y-114377000D02*
X125067000Y-114377000D01*
X129217000Y-119477000D02*
X130617000Y-119477000D01*
D11*
%TO.C,U1*%
X143480000Y-99726000D02*
X142140000Y-99726000D01*
X143480000Y-98776000D02*
X143480000Y-99726000D01*
X144430000Y-98776000D02*
X143480000Y-98776000D01*
X153700000Y-98776000D02*
X153700000Y-99726000D01*
X152750000Y-98776000D02*
X153700000Y-98776000D01*
X143480000Y-108996000D02*
X143480000Y-108046000D01*
X144430000Y-108996000D02*
X143480000Y-108996000D01*
X153700000Y-108996000D02*
X153700000Y-108046000D01*
X152750000Y-108996000D02*
X153700000Y-108996000D01*
%TO.C,R62*%
X124210145Y-81764400D02*
X124684661Y-81764400D01*
X124210145Y-80719400D02*
X124684661Y-80719400D01*
%TO.C,R61*%
X126134600Y-81729042D02*
X126134600Y-82203558D01*
X127179600Y-81729042D02*
X127179600Y-82203558D01*
%TO.C,R60*%
X132047045Y-82196200D02*
X132521561Y-82196200D01*
X132047045Y-81151200D02*
X132521561Y-81151200D01*
%TO.C,R59*%
X132046442Y-83669400D02*
X132520958Y-83669400D01*
X132046442Y-82624400D02*
X132520958Y-82624400D01*
%TO.C,R58*%
X129112742Y-113984300D02*
X129587258Y-113984300D01*
X129112742Y-112939300D02*
X129587258Y-112939300D01*
%TO.C,R57*%
X132622161Y-114564900D02*
X132147645Y-114564900D01*
X132622161Y-115609900D02*
X132147645Y-115609900D01*
%TO.C,R56*%
X166003500Y-115946458D02*
X166003500Y-115471942D01*
X164958500Y-115946458D02*
X164958500Y-115471942D01*
%TO.C,R55*%
X162930100Y-115946458D02*
X162930100Y-115471942D01*
X161885100Y-115946458D02*
X161885100Y-115471942D01*
%TO.C,R54*%
X159856700Y-115946458D02*
X159856700Y-115471942D01*
X158811700Y-115946458D02*
X158811700Y-115471942D01*
%TO.C,R53*%
X156783300Y-115946458D02*
X156783300Y-115471942D01*
X155738300Y-115946458D02*
X155738300Y-115471942D01*
%TO.C,R52*%
X153709900Y-115946458D02*
X153709900Y-115471942D01*
X152664900Y-115946458D02*
X152664900Y-115471942D01*
%TO.C,R51*%
X150611100Y-115946458D02*
X150611100Y-115471942D01*
X149566100Y-115946458D02*
X149566100Y-115471942D01*
%TO.C,R50*%
X173100406Y-94132938D02*
X173100406Y-93658422D01*
X174145406Y-94132938D02*
X174145406Y-93658422D01*
%TO.C,R49*%
X197731445Y-84465900D02*
X198205961Y-84465900D01*
X197731445Y-85510900D02*
X198205961Y-85510900D01*
%TO.C,R48*%
X190026161Y-82123143D02*
X189551645Y-82123143D01*
X190026161Y-81078143D02*
X189551645Y-81078143D01*
%TO.C,R47*%
X194307487Y-85962403D02*
X189953359Y-85962403D01*
X194307487Y-82542403D02*
X189953359Y-82542403D01*
%TO.C,R46*%
X194306487Y-89835903D02*
X189952359Y-89835903D01*
X194306487Y-86415903D02*
X189952359Y-86415903D01*
%TO.C,R45*%
X171639303Y-94127255D02*
X171639303Y-93652739D01*
X172684303Y-94127255D02*
X172684303Y-93652739D01*
%TO.C,R44*%
X182663165Y-84636683D02*
X183137681Y-84636683D01*
X182663165Y-85681683D02*
X183137681Y-85681683D01*
%TO.C,R43*%
X175497361Y-82273003D02*
X175022845Y-82273003D01*
X175497361Y-81228003D02*
X175022845Y-81228003D01*
%TO.C,R42*%
X179776147Y-86114803D02*
X175422019Y-86114803D01*
X179776147Y-82694803D02*
X175422019Y-82694803D01*
%TO.C,R41*%
X179777567Y-89945403D02*
X175423439Y-89945403D01*
X179777567Y-86525403D02*
X175423439Y-86525403D01*
%TO.C,R40*%
X168282483Y-94127255D02*
X168282483Y-93652739D01*
X167237483Y-94127255D02*
X167237483Y-93652739D01*
%TO.C,R39*%
X181485141Y-96390597D02*
X181010625Y-96390597D01*
X181485141Y-97435597D02*
X181010625Y-97435597D01*
%TO.C,R38*%
X188661105Y-100834117D02*
X189135621Y-100834117D01*
X188661105Y-99789117D02*
X189135621Y-99789117D01*
%TO.C,R37*%
X184383319Y-99372397D02*
X188737447Y-99372397D01*
X184383319Y-95952397D02*
X188737447Y-95952397D01*
%TO.C,R36*%
X184383319Y-95503797D02*
X188737447Y-95503797D01*
X184383319Y-92083797D02*
X188737447Y-92083797D01*
%TO.C,R35*%
X170030003Y-111001542D02*
X170030003Y-111476058D01*
X168985003Y-111001542D02*
X168985003Y-111476058D01*
%TO.C,R34*%
X181485141Y-108454117D02*
X181010625Y-108454117D01*
X181485141Y-107409117D02*
X181010625Y-107409117D01*
%TO.C,R33*%
X187132025Y-110812717D02*
X187606541Y-110812717D01*
X187132025Y-111857717D02*
X187606541Y-111857717D01*
%TO.C,R32*%
X184382319Y-103097417D02*
X188736447Y-103097417D01*
X184382319Y-106517417D02*
X188736447Y-106517417D01*
%TO.C,R31*%
X184379419Y-106966617D02*
X188733547Y-106966617D01*
X184379419Y-110386617D02*
X188733547Y-110386617D01*
%TO.C,R30*%
X171906003Y-111013639D02*
X171906003Y-111488155D01*
X172951003Y-111013639D02*
X172951003Y-111488155D01*
%TO.C,R29*%
X175917461Y-119441097D02*
X175442945Y-119441097D01*
X175917461Y-120486097D02*
X175442945Y-120486097D01*
%TO.C,R28*%
X183088345Y-123889697D02*
X183562861Y-123889697D01*
X183088345Y-122844697D02*
X183562861Y-122844697D01*
%TO.C,R27*%
X178811739Y-118547697D02*
X183165867Y-118547697D01*
X178811739Y-115127697D02*
X183165867Y-115127697D01*
%TO.C,R26*%
X178811739Y-122422897D02*
X183165867Y-122422897D01*
X178811739Y-119002897D02*
X183165867Y-119002897D01*
%TO.C,R25*%
X174852403Y-111026942D02*
X174852403Y-111501458D01*
X175897403Y-111026942D02*
X175897403Y-111501458D01*
%TO.C,R24*%
X189924561Y-119289300D02*
X189450045Y-119289300D01*
X189924561Y-120334300D02*
X189450045Y-120334300D01*
%TO.C,R23*%
X197540945Y-123966500D02*
X198015461Y-123966500D01*
X197540945Y-122921500D02*
X198015461Y-122921500D01*
%TO.C,R21*%
X193256839Y-122384797D02*
X197610967Y-122384797D01*
X193256839Y-118964797D02*
X197610967Y-118964797D01*
%TO.C,R20*%
X164919261Y-103908997D02*
X164444745Y-103908997D01*
X164919261Y-104953997D02*
X164444745Y-104953997D01*
%TO.C,R19*%
X161517403Y-101031439D02*
X161517403Y-101505955D01*
X162562403Y-101031439D02*
X162562403Y-101505955D01*
%TO.C,R18*%
X164919261Y-105369497D02*
X164444745Y-105369497D01*
X164919261Y-106414497D02*
X164444745Y-106414497D01*
%TO.C,R17*%
X164919261Y-106829997D02*
X164444745Y-106829997D01*
X164919261Y-107874997D02*
X164444745Y-107874997D01*
%TO.C,R16*%
X164919261Y-108290497D02*
X164444745Y-108290497D01*
X164919261Y-109335497D02*
X164444745Y-109335497D01*
%TO.C,R12*%
X164444745Y-103493497D02*
X164919261Y-103493497D01*
X164444745Y-102448497D02*
X164919261Y-102448497D01*
%TO.C,R11*%
X161091945Y-105461997D02*
X161566461Y-105461997D01*
X161091945Y-104416997D02*
X161566461Y-104416997D01*
%TO.C,R10*%
X161091945Y-104001497D02*
X161566461Y-104001497D01*
X161091945Y-102956497D02*
X161566461Y-102956497D01*
%TO.C,R9*%
X165559603Y-88629361D02*
X165559603Y-88154845D01*
X164514603Y-88629361D02*
X164514603Y-88154845D01*
%TO.C,R8*%
X165987803Y-88154845D02*
X165987803Y-88629361D01*
X167032803Y-88154845D02*
X167032803Y-88629361D01*
%TO.C,R7*%
X147385300Y-95932258D02*
X147385300Y-95457742D01*
X146340300Y-95932258D02*
X146340300Y-95457742D01*
%TO.C,R6*%
X160876045Y-108384203D02*
X161350561Y-108384203D01*
X160876045Y-107339203D02*
X161350561Y-107339203D01*
%TO.C,R5*%
X160875045Y-109857403D02*
X161349561Y-109857403D01*
X160875045Y-108812403D02*
X161349561Y-108812403D01*
%TO.C,R4*%
X147769645Y-82627397D02*
X148244161Y-82627397D01*
X147769645Y-81582397D02*
X148244161Y-81582397D01*
%TO.C,R3*%
X160875045Y-111330603D02*
X161349561Y-111330603D01*
X160875045Y-110285603D02*
X161349561Y-110285603D01*
%TO.C,R2*%
X160875045Y-112803803D02*
X161349561Y-112803803D01*
X160875045Y-111758803D02*
X161349561Y-111758803D01*
%TO.C,R1*%
X154701706Y-94611458D02*
X154701706Y-94136942D01*
X153656706Y-94611458D02*
X153656706Y-94136942D01*
%TO.C,Q10*%
X128335500Y-80550900D02*
X129795500Y-80550900D01*
X128335500Y-83710900D02*
X130495500Y-83710900D01*
X128335500Y-83710900D02*
X128335500Y-82780900D01*
X128335500Y-80550900D02*
X128335500Y-81480900D01*
%TO.C,Q7*%
X199281503Y-81799400D02*
X198351503Y-81799400D01*
X196121503Y-81799400D02*
X197051503Y-81799400D01*
X196121503Y-81799400D02*
X196121503Y-83959400D01*
X199281503Y-81799400D02*
X199281503Y-83259400D01*
%TO.C,Q6*%
X184750203Y-81964083D02*
X183820203Y-81964083D01*
X181590203Y-81964083D02*
X182520203Y-81964083D01*
X181590203Y-81964083D02*
X181590203Y-84124083D01*
X184750203Y-81964083D02*
X184750203Y-83424083D01*
%TO.C,Q5*%
X179400683Y-100102097D02*
X179400683Y-98642097D01*
X182560683Y-100102097D02*
X182560683Y-97942097D01*
X182560683Y-100102097D02*
X181630683Y-100102097D01*
X179400683Y-100102097D02*
X180330683Y-100102097D01*
%TO.C,Q4*%
X179403183Y-111126717D02*
X180333183Y-111126717D01*
X182563183Y-111126717D02*
X181633183Y-111126717D01*
X182563183Y-111126717D02*
X182563183Y-108966717D01*
X179403183Y-111126717D02*
X179403183Y-109666717D01*
%TO.C,Q3*%
X173835543Y-123155137D02*
X173835543Y-121695137D01*
X176995543Y-123155137D02*
X176995543Y-120995137D01*
X176995543Y-123155137D02*
X176065543Y-123155137D01*
X173835543Y-123155137D02*
X174765543Y-123155137D01*
%TO.C,Q2*%
X188314303Y-123061000D02*
X188314303Y-121601000D01*
X191474303Y-123061000D02*
X191474303Y-120901000D01*
X191474303Y-123061000D02*
X190544303Y-123061000D01*
X188314303Y-123061000D02*
X189244303Y-123061000D01*
%TO.C,Q1*%
X163708903Y-98899297D02*
X165168903Y-98899297D01*
X163708903Y-102059297D02*
X165868903Y-102059297D01*
X163708903Y-102059297D02*
X163708903Y-101129297D01*
X163708903Y-98899297D02*
X163708903Y-99829297D01*
%TO.C,LTC68101*%
X174334903Y-108525097D02*
X175504903Y-108525097D01*
X174334903Y-96235097D02*
X168794903Y-96235097D01*
X174334903Y-109275097D02*
X168794903Y-109275097D01*
X174334903Y-96235097D02*
X174334903Y-96985097D01*
X168794903Y-96235097D02*
X168794903Y-96985097D01*
X168794903Y-109275097D02*
X168794903Y-108525097D01*
X174334903Y-109275097D02*
X174334903Y-108525097D01*
%TO.C,L1*%
X139127103Y-107368824D02*
X139127103Y-107694382D01*
X140147103Y-107368824D02*
X140147103Y-107694382D01*
%TO.C,JP2*%
X146097903Y-88514897D02*
X144767903Y-88514897D01*
X146097903Y-87184897D02*
X146097903Y-88514897D01*
X146097903Y-85914897D02*
X143437903Y-85914897D01*
X143437903Y-85914897D02*
X143437903Y-83314897D01*
X146097903Y-85914897D02*
X146097903Y-83314897D01*
X146097903Y-83314897D02*
X143437903Y-83314897D01*
D12*
%TO.C,J3*%
X163901303Y-85193703D02*
X162901303Y-85193703D01*
X163901303Y-86243703D02*
X163901303Y-85193703D01*
X168015779Y-85182242D02*
X169015779Y-85182242D01*
X169901303Y-83393703D02*
X169901303Y-81093703D01*
X169901303Y-81093703D02*
X162001303Y-81093703D01*
X162001303Y-81093703D02*
X162001303Y-83393703D01*
D11*
%TO.C,J1*%
X161845903Y-89602000D02*
X161845903Y-90932000D01*
X160515903Y-89602000D02*
X161845903Y-89602000D01*
X159245903Y-89602000D02*
X159245903Y-92262000D01*
X159245903Y-92262000D02*
X146485903Y-92262000D01*
X159245903Y-89602000D02*
X146485903Y-89602000D01*
X146485903Y-89602000D02*
X146485903Y-92262000D01*
%TO.C,FB3*%
X157161103Y-84685418D02*
X157161103Y-85010976D01*
X158181103Y-84685418D02*
X158181103Y-85010976D01*
%TO.C,FB2*%
X151179182Y-81594897D02*
X150853624Y-81594897D01*
X151179182Y-82614897D02*
X150853624Y-82614897D01*
%TO.C,FB1*%
X121918000Y-115758279D02*
X121918000Y-115432721D01*
X122938000Y-115758279D02*
X122938000Y-115432721D01*
%TO.C,D18*%
X118747903Y-109610000D02*
X124447903Y-109610000D01*
X118747903Y-113910000D02*
X124447903Y-113910000D01*
X118747903Y-109610000D02*
X118747903Y-113910000D01*
%TO.C,D16*%
X193670523Y-82333103D02*
X195955523Y-82333103D01*
X195955523Y-82333103D02*
X195955523Y-80863103D01*
X195955523Y-80863103D02*
X193670523Y-80863103D01*
%TO.C,D14*%
X179139183Y-82488043D02*
X181424183Y-82488043D01*
X181424183Y-82488043D02*
X181424183Y-81018043D01*
X181424183Y-81018043D02*
X179139183Y-81018043D01*
%TO.C,D12*%
X182734283Y-101051697D02*
X185019283Y-101051697D01*
X182734283Y-99581697D02*
X182734283Y-101051697D01*
X185019283Y-99581697D02*
X182734283Y-99581697D01*
%TO.C,D10*%
X185019083Y-110600217D02*
X182734083Y-110600217D01*
X182734083Y-110600217D02*
X182734083Y-112070217D01*
X182734083Y-112070217D02*
X185019083Y-112070217D01*
%TO.C,D8*%
X177166603Y-124102197D02*
X179451603Y-124102197D01*
X177166603Y-122632197D02*
X177166603Y-124102197D01*
X179451603Y-122632197D02*
X177166603Y-122632197D01*
%TO.C,D6*%
X191606403Y-124179000D02*
X193891403Y-124179000D01*
X191606403Y-122709000D02*
X191606403Y-124179000D01*
X193891403Y-122709000D02*
X191606403Y-122709000D01*
%TO.C,D5*%
X156668803Y-108596703D02*
X158953803Y-108596703D01*
X156668803Y-107126703D02*
X156668803Y-108596703D01*
X158953803Y-107126703D02*
X156668803Y-107126703D01*
%TO.C,D4*%
X156668803Y-110069903D02*
X158953803Y-110069903D01*
X156668803Y-108599903D02*
X156668803Y-110069903D01*
X158953803Y-108599903D02*
X156668803Y-108599903D01*
%TO.C,D3*%
X156668803Y-111543103D02*
X158953803Y-111543103D01*
X156668803Y-110073103D02*
X156668803Y-111543103D01*
X158953803Y-110073103D02*
X156668803Y-110073103D01*
%TO.C,D2*%
X134043158Y-96309730D02*
X135453410Y-95931854D01*
X134861026Y-99362055D02*
X136947426Y-98803006D01*
X134861026Y-99362055D02*
X134620325Y-98463744D01*
X134043158Y-96309730D02*
X134283860Y-97208041D01*
%TO.C,D1*%
X156668603Y-113016303D02*
X158953603Y-113016303D01*
X156668603Y-111546303D02*
X156668603Y-113016303D01*
X158953603Y-111546303D02*
X156668603Y-111546303D01*
%TO.C,C43*%
X142239420Y-90248200D02*
X142520580Y-90248200D01*
X142239420Y-89228200D02*
X142520580Y-89228200D01*
%TO.C,C42*%
X141095000Y-92861820D02*
X141095000Y-93142980D01*
X142115000Y-92861820D02*
X142115000Y-93142980D01*
%TO.C,C41*%
X124588783Y-82192400D02*
X124307623Y-82192400D01*
X124588783Y-83212400D02*
X124307623Y-83212400D01*
%TO.C,C40*%
X145605523Y-115826000D02*
X145886683Y-115826000D01*
X145605523Y-114806000D02*
X145886683Y-114806000D01*
%TO.C,C39*%
X145605523Y-114352800D02*
X145886683Y-114352800D01*
X145605523Y-113332800D02*
X145886683Y-113332800D01*
%TO.C,C37*%
X131126103Y-118642820D02*
X131126103Y-118923980D01*
X132146103Y-118642820D02*
X132146103Y-118923980D01*
%TO.C,C36*%
X146442303Y-120674220D02*
X146442303Y-120955380D01*
X147462303Y-120674220D02*
X147462303Y-120955380D01*
%TO.C,C35*%
X132526283Y-116050600D02*
X132245123Y-116050600D01*
X132526283Y-117070600D02*
X132245123Y-117070600D01*
%TO.C,C34*%
X145923580Y-117981000D02*
X145642420Y-117981000D01*
X145923580Y-119001000D02*
X145642420Y-119001000D01*
%TO.C,C33*%
X120269580Y-117346000D02*
X119988420Y-117346000D01*
X120269580Y-118366000D02*
X119988420Y-118366000D01*
%TO.C,C32*%
X120269580Y-115822000D02*
X119988420Y-115822000D01*
X120269580Y-116842000D02*
X119988420Y-116842000D01*
%TO.C,C31*%
X120269580Y-114298000D02*
X119988420Y-114298000D01*
X120269580Y-115318000D02*
X119988420Y-115318000D01*
%TO.C,C30*%
X166444200Y-115569420D02*
X166444200Y-115850580D01*
X167464200Y-115569420D02*
X167464200Y-115850580D01*
%TO.C,C29*%
X163370800Y-115556420D02*
X163370800Y-115837580D01*
X164390800Y-115556420D02*
X164390800Y-115837580D01*
%TO.C,C28*%
X160297400Y-115569420D02*
X160297400Y-115850580D01*
X161317400Y-115569420D02*
X161317400Y-115850580D01*
%TO.C,C27*%
X157224000Y-115568820D02*
X157224000Y-115849980D01*
X158244000Y-115568820D02*
X158244000Y-115849980D01*
%TO.C,C26*%
X154150600Y-115556420D02*
X154150600Y-115837580D01*
X155170600Y-115556420D02*
X155170600Y-115837580D01*
%TO.C,C25*%
X151077200Y-115569420D02*
X151077200Y-115850580D01*
X152097200Y-115569420D02*
X152097200Y-115850580D01*
%TO.C,C24*%
X174586106Y-94037060D02*
X174586106Y-93755900D01*
X175606106Y-94037060D02*
X175606106Y-93755900D01*
%TO.C,C23*%
X170191303Y-94030777D02*
X170191303Y-93749617D01*
X171211303Y-94030777D02*
X171211303Y-93749617D01*
%TO.C,C22*%
X169738103Y-94031980D02*
X169738103Y-93750820D01*
X168718103Y-94031980D02*
X168718103Y-93750820D01*
%TO.C,C21*%
X168544303Y-111099020D02*
X168544303Y-111380180D01*
X167524303Y-111099020D02*
X167524303Y-111380180D01*
%TO.C,C20*%
X170458003Y-111110517D02*
X170458003Y-111391677D01*
X171478003Y-111110517D02*
X171478003Y-111391677D01*
%TO.C,C19*%
X173391703Y-111111420D02*
X173391703Y-111392580D01*
X174411703Y-111111420D02*
X174411703Y-111392580D01*
%TO.C,C18*%
X161089403Y-101410077D02*
X161089403Y-101128917D01*
X160069403Y-101410077D02*
X160069403Y-101128917D01*
%TO.C,C17*%
X164834483Y-97469897D02*
X164553323Y-97469897D01*
X164834483Y-98489897D02*
X164553323Y-98489897D01*
%TO.C,C16*%
X164834483Y-95996697D02*
X164553323Y-95996697D01*
X164834483Y-97016697D02*
X164553323Y-97016697D01*
%TO.C,C15*%
X164835083Y-94536800D02*
X164553923Y-94536800D01*
X164835083Y-95556800D02*
X164553923Y-95556800D01*
%TO.C,C14*%
X158583503Y-105497717D02*
X158583503Y-105778877D01*
X159603503Y-105497717D02*
X159603503Y-105778877D01*
%TO.C,C13*%
X159603503Y-102819177D02*
X159603503Y-102538017D01*
X158583503Y-102819177D02*
X158583503Y-102538017D01*
%TO.C,C12*%
X140587903Y-107390923D02*
X140587903Y-107672083D01*
X141607903Y-107390923D02*
X141607903Y-107672083D01*
%TO.C,C11*%
X144132323Y-96776000D02*
X144413483Y-96776000D01*
X144132323Y-95756000D02*
X144413483Y-95756000D01*
%TO.C,C10*%
X155687903Y-99694420D02*
X155687903Y-99975580D01*
X156707903Y-99694420D02*
X156707903Y-99975580D01*
%TO.C,C9*%
X153885923Y-82614897D02*
X154167083Y-82614897D01*
X153885923Y-81594897D02*
X154167083Y-81594897D01*
%TO.C,C8*%
X154214703Y-84707517D02*
X154214703Y-84988677D01*
X155234703Y-84707517D02*
X155234703Y-84988677D01*
%TO.C,C7*%
X155687903Y-84705277D02*
X155687903Y-84986437D01*
X156707903Y-84705277D02*
X156707903Y-84986437D01*
%TO.C,C6*%
X141594903Y-104191980D02*
X141594903Y-103910820D01*
X140574903Y-104191980D02*
X140574903Y-103910820D01*
%TO.C,C5*%
X140574903Y-100938420D02*
X140574903Y-101219580D01*
X141594903Y-100938420D02*
X141594903Y-101219580D01*
%TO.C,C4*%
X153049483Y-110869000D02*
X152768323Y-110869000D01*
X153049483Y-111889000D02*
X152768323Y-111889000D01*
%TO.C,C3*%
X144920883Y-110919800D02*
X144639723Y-110919800D01*
X144920883Y-111939800D02*
X144639723Y-111939800D01*
%TO.C,C2*%
X141478580Y-98296000D02*
X141197420Y-98296000D01*
X141478580Y-99316000D02*
X141197420Y-99316000D01*
%TO.C,C1*%
X155142406Y-94233420D02*
X155142406Y-94514580D01*
X156162406Y-94233420D02*
X156162406Y-94514580D01*
%TD*%
M02*
